<svg width="392" height="463" viewBox="0 0 392 463" fill="none" xmlns="http://www.w3.org/2000/svg">
<g clip-path="url(#clip0_34_680)">
<path d="M11.45 443.7C11.35 442.79 11.39 441.99 11.39 441.24H14.78V443.26C15.86 443.94 16.84 444.55 17.9 445.21C18.99 444.5 20.06 443.8 21.03 443.18V441.23H30.87V443.21C29.4 444.22 27.8 445.33 26.26 446.39C27.76 447.41 29.25 448.61 31.43 448.94C33.02 449.19 34.39 451.11 35.14 451.72C36.68 455.04 36.7 457.73 36.59 459.5C35.96 460.76 35.64 461.4 35.21 462.26C33.94 461.03 33 460.1 31.78 458.94C31.34 459.65 30.89 460.37 30.45 461.09C29 459.68 27.74 458.47 26.28 457.05C25.61 454.69 24.88 452.02 23.96 448.76C22.1 450.68 20.67 452.16 19.13 453.76H16.48C16.16 453.25 15.62 452.43 15.09 451.59C14.91 451.7 14.73 451.79 14.54 451.89V447.69C12.98 447.7 12.42 448.52 12.19 449.73C11.93 451.07 11.85 452.52 11.33 453.74C10.42 455.83 9.23003 457.8 8.15003 459.85H1.08003C0.820029 459.58 0.440029 459.17 0.0300293 458.71V453.22C1.32003 452.17 2.77003 450.99 4.59003 449.5C7.11003 449.75 9.41003 448.64 10.31 445.12C9.99003 445.36 9.67003 445.6 9.31003 445.86C9.09003 445.64 8.80003 445.35 8.52003 445.09C8.24003 445.35 7.97003 445.64 7.75003 445.84C6.84003 445.26 5.96003 444.68 5.01003 444.07V441.23H8.94003C8.96003 442.54 9.82003 442.98 11.46 443.69L11.45 443.7ZM17.55 445.79C17.11 446.34 16.76 446.76 16.5 447.06C16.76 448.08 17 449.06 17.29 450.2H20.23V447.19C19.33 446.72 18.44 446.27 17.55 445.8V445.79Z" fill="#E4E4E4"/>
<path d="M34.01 422.98C36.55 424.17 35.58 426.29 35.7 427.41C34.86 430.48 33.21 431.49 30.82 432.03C28.84 432.49 27.04 434.02 25.09 435.12C25.27 435.55 25.43 436.23 25.6 436.23C28.22 436.27 29.87 437.78 30.89 440.73V441.25H26.83V440.18C26.29 439.72 25.71 439.23 25.13 438.73C24.85 438.86 24.57 439.02 24.28 439.17C24.63 439.81 24.32 440.57 24.34 441.26H21.05V438.98C20.19 437.75 19.63 436.95 18.81 435.77C17.08 436.81 15.79 437.58 14.8 438.17V441.25H11.41C11.41 440.38 11.37 439.6 11.01 438.8C9.78002 439.26 8.95002 439.71 8.93002 441.12C8.93002 441.16 8.93002 441.21 8.94002 441.25H5.01002V439.25C5.76002 438.43 6.62002 437.5 7.57002 436.47C8.21002 436.37 8.96002 436.25 10.13 436.06C8.34002 434.45 6.86002 433.13 5.53002 431.93H2.92002C1.95002 430.88 0.990021 429.84 0.0100213 428.78C0.260021 427.34 -0.659979 425.58 1.24002 424.14C4.02002 423.51 6.43002 424.7 8.82002 427.46C8.98002 427.48 9.62002 427.56 10.33 427.64C11.04 429.62 11.76 431.63 12.65 434.13C13.69 431.69 14.57 429.64 15.41 427.68C20.1 427.95 21.27 428.83 22.46 432.94C24.86 432.07 24.96 429.7 25.55 427.41C26.85 426.62 28.59 426.03 29.64 424.79C31.04 423.11 33.33 425.36 34.01 422.98V422.98ZM19.43 433.53V431.39C19.08 431.01 18.71 430.61 18.34 430.2C17.57 431.41 15.11 430.92 15.58 433.53H19.44H19.43Z" fill="#E4E4E4"/>
<path d="M12.17 180.1C12.14 179.15 12.24 178.32 12.3 177.55L15.67 177.88L15.51 179.93C16.53 180.7 17.47 181.4 18.47 182.15C19.61 181.52 20.73 180.92 21.74 180.39L21.88 178.48L25.15 178.8C25.13 179.23 25.25 179.62 25.77 179.97C26.2 180.26 26.97 180.02 27.56 180.03L27.63 179.04L31.67 179.43L31.53 181.26C30 182.07 28.32 182.99 26.7 183.89C28.12 184.97 29.52 186.17 31.67 186.59C33.2 186.91 34.56 188.73 35.3 189.3C36.04 190.84 36.39 192.19 36.54 193.37C36.69 194.56 36.63 195.5 36.58 196.44C35.95 197.7 35.63 198.34 35.2 199.2C33.93 197.97 32.98 197.05 31.77 195.88C31.33 196.59 30.88 197.32 30.44 198.03C29 196.65 27.75 195.45 26.31 194.06C25.72 191.8 25 189.21 24.23 186.01C22.27 187.76 20.84 189.17 19.25 190.73L16.6 190.66C16.29 190.14 15.78 189.28 15.27 188.41L14.72 188.7C14.75 187.27 14.78 185.84 14.92 184.42C13.37 184.34 12.72 185.14 12.43 186.38C12.13 187.75 12.02 189.25 11.47 190.5C10.99 191.57 10.44 192.62 9.87 193.67C9.31 194.7 8.74 195.75 8.17 196.79H1.11C0.849998 196.52 0.469998 196.11 0.0599976 195.65L0.199998 189.62C1.52 188.51 3 187.27 4.86 185.75C7.35 186.14 9.74 185.06 10.91 181.48C10.57 181.7 10.24 181.93 9.85 182.19C9.65 181.95 9.38 181.63 9.13 181.33L8.3 182.07C7.44 181.38 6.61 180.7 5.71 179.98L5.94 176.93L9.85 177.31C9.77 178.69 10.58 179.22 12.17 180.1V180.1ZM18.09 182.7C17.61 183.21 17.22 183.61 16.95 183.9C17.14 184.94 17.25 185.94 17.54 187.1L20.48 187.24C20.48 186.25 20.61 185.26 20.67 184.26C19.81 183.73 18.96 183.22 18.1 182.7H18.09Z" fill="#E4E4E4"/>
<path d="M28.71 359.56C30.59 359.18 32.59 358.77 34.54 358.37C34.98 358.85 35.37 359.27 35.74 359.67C35.41 361.12 35.07 362.59 34.65 364.45C32.57 367.72 28.41 368.4 25.18 370.86C26.97 372.11 28.6 373.26 30.08 374.29V379.89C29.69 380.31 29.31 380.72 28.92 381.14C28.01 381.19 27.09 381.24 26.23 381.28C26.14 381.72 25.97 382.17 26.04 382.22C28.13 383.66 30.24 385.1 32.39 386.44C32.78 386.68 33.4 386.48 33.96 386.48C34.15 388.88 37.34 390.66 34.81 393.3C33.38 393.48 32 393.65 30.62 393.82C30.01 393.16 29.2 392.29 28.7 391.75H26.27C25.39 389.15 24.5 386.49 23.41 383.25C22.2 385.56 21.29 387.28 20.39 388.99H16.73C16.02 388.22 15.36 387.51 15.22 387.36C14.53 385.7 14.12 384.72 13.42 383.04C12.8 385.33 12.37 386.89 11.95 388.43C11.55 390.83 8.24005 390.35 8.02005 393.52C5.86005 392.93 4.18005 394.33 2.11005 395.37C1.71005 394.77 1.00005 394.18 0.880046 393.48C0.590046 391.81 0.730046 389.98 1.73005 388.66C3.03005 386.93 4.47005 385.18 6.68005 384.72C8.19005 384.4 9.61005 383.94 10.53 382.43C9.01005 382.01 7.55005 381.61 6.20005 381.24C4.68005 379.24 4.83005 376.96 4.90005 374.68C6.05005 372.83 8.07005 372.67 10.16 371.94C9.48005 371.05 9.11005 370.06 8.50005 369.85C5.20005 368.68 2.38005 366.95 0.610046 363.24C0.970046 361.67 1.33005 360.1 1.64005 358.7C3.51005 357.64 4.27005 359.09 5.03005 359.88C5.97005 359.59 6.80005 359.34 7.86005 359.01C8.01005 360.01 8.13005 360.8 8.22005 361.43C9.06005 362 9.82005 362.5 10.67 363.07C9.88005 366.02 11.54 368.18 12.63 370.87C13.52 368.18 13.51 365.18 15.54 363.92C16.75 363.56 17.47 363.35 18.84 362.94C19.77 362.97 21.52 365.06 22.47 368.17C25.21 367.17 24.38 364.26 25.45 362.19C26.04 361.98 26.95 361.81 27.68 361.32C28.15 361 28.34 360.21 28.69 359.54L28.71 359.56ZM17.35 383.13C16.97 383.54 16.69 383.85 16.41 384.15C16.78 384.93 17.14 385.71 17.44 386.35H19.46V384.21C18.72 383.84 18.01 383.47 17.36 383.14L17.35 383.13ZM11.26 379.36V373.85C10.69 374.45 10 375.18 8.98005 376.27C9.03338 377.83 9.79338 378.86 11.26 379.36ZM24.53 374.37V378.88C25.29 378.34 26.2 377.69 26.94 377.17C26.5467 375.583 25.7434 374.65 24.53 374.37ZM16.91 372.53C15.98 373.37 15.26 374.01 14.68 374.53V379.13C16.83 380.08 18.95 381.66 21.29 378.87C20.45 376.99 22.27 374.46 19.98 372.52H16.9L16.91 372.53ZM19.79 369.49C19.37 368.31 19 367.25 18.57 366.05C18.04 366.6 17.8 366.97 17.46 367.16C17.08 367.37 16.62 367.42 16.13 367.57C16.73 369.64 17.77 370.19 19.79 369.5V369.49Z" fill="#E4E4E4"/>
<path d="M12.94 238.74C13.39 237.12 13.78 235.71 14.25 234C14.87 233.59 15.74 233.02 16.7 232.39H20.42C20.89 234.06 21.37 235.73 21.77 237.16C22.45 236.42 23.05 235.78 23.66 235.13L24.12 235.65C24.49 234.06 24.86 232.48 25.26 230.73C26.01 230.61 26.76 230.48 27.46 230.37C27.58 229.88 27.68 229.49 27.78 229.07C30.05 228.64 32.31 228.21 34.37 227.82C36.39 229.14 35.57 231.07 35.8 232.57C34.51 234.01 33.29 235.37 32.67 236.07C29.48 237.41 27.03 238.44 24.25 239.61C26.28 240.76 28.08 241.78 29.94 242.82V247.82C29.42 248.37 28.74 249.08 27.9 249.97H25.25C25.29 250.53 25.18 251.13 25.37 251.28C27.33 252.75 29.08 254.52 31.45 255.36C32.75 255.82 33.82 257.03 34.87 257.81V263.99C33.01 263.57 31.31 263.19 29.14 262.7C28.86 261.85 28.48 260.7 28.11 259.59C27.73 259.88 27.33 260.18 26.75 260.62C24.16 258.56 25.13 254.6 22.93 252.48C22.8 252.48 22.62 252.42 22.53 252.49C22.1 252.83 21.71 253.21 21.22 253.65C21.18 254.59 21.14 255.57 21.09 256.66C20.23 257.24 19.36 257.82 18.42 258.46C17.28 257.86 16.09 257.23 14.74 256.51C14.35 255.29 13.9 253.88 13.33 252.07C12.86 252.73 12.43 253.12 12.23 253.62C11.51 255.49 10.86 257.39 10.13 259.46L8.76004 259.53C7.94004 260.71 7.09004 261.91 6.24004 263.12C5.84004 262.71 5.55004 262.42 5.21004 262.09C3.65004 262.06 3.09004 265.07 0.970037 263.62V259.29C1.88004 256.41 3.78004 255.02 6.21004 254.06C7.56004 253.53 8.64004 252.25 9.85004 251.3C8.09004 250.51 6.58004 249.84 5.05004 249.16V242.95C6.16004 242.06 7.52004 240.97 9.03004 239.77C6.22004 237.49 3.44004 235.25 0.850037 233.16V228.03C1.64004 227.64 2.55004 227.19 3.53004 226.7C3.93004 227.61 4.20004 228.2 4.54004 228.98C5.24004 228.61 5.91004 228.25 6.86004 227.75C7.39004 228.91 7.92004 230.08 8.49004 231.32C9.04004 231.39 9.69004 231.46 10.37 231.54C10.92 233.93 10.68 236.61 12.95 238.76L12.94 238.74ZM18.42 251.33C16.43 252.16 15.99 253.26 16.49 255.07C18.18 255.34 19.2 254.81 19.54 253.21C19.11 252.48 18.7 251.81 18.41 251.32L18.42 251.33ZM11.3 248.07V243.82C10.02 243.907 8.8967 244.553 7.93004 245.76C9.07004 246.42 9.44004 248.18 11.3 248.07ZM25.9 243.16C24.82 244.01 24.15 244.53 23.44 245.09C23.95 246.21 24.37 247.15 24.8 248.1C25.19 247.68 25.56 247.28 26.05 246.76C26.01 245.81 25.97 244.76 25.9 243.16ZM15.89 241.09C15.18 241.84 14.5 242.55 13.84 243.25C13.53 246.25 14.9 248.27 17.01 250.02C18.04 249.61 18.97 249.25 20 248.84C21.53 246.3 21.71 243.66 19.84 241.09H15.88H15.89ZM18.31 238.43C18.69 238.01 19.07 237.6 19.33 237.32C18.59 236.66 17.84 236 17.14 235.38C16.77 235.54 16.2 235.8 15.55 236.1V238.44H18.31V238.43Z" fill="#E4E4E4"/>
<path d="M28.03 296.04C28.67 295.46 28.96 294.43 29.42 293.57H34.82V298.44C32.3 301.68 28.1 302.79 24.41 305.88C26.37 306.63 27.61 307.11 28.92 307.62C30.82 312.29 30.43 311.08 29 315.29C27.74 315.39 26.46 315.5 24.25 315.68C26.15 317.13 27.26 318.13 28.5 318.89C29.73 319.64 30.87 320.74 32.05 321.27C33.49 321.9 33.94 322.97 34.53 324.15C34.95 324.99 35.36 325.83 35.91 326.94L34.46 328.72C33.15 328.32 31.93 327.95 30.16 327.41C29.76 326.87 29.01 325.85 28.29 324.86C27.76 325.38 27.46 325.67 26.99 326.13C26.4 325.66 25.79 325.17 25.22 324.72C25.26 321.93 25.32 319.24 22.56 317.9C22.32 318.13 22.15 318.21 22.13 318.32C22.04 318.87 21.99 319.44 21.9 320.22C21.04 321.03 20.04 321.98 18.72 323.23C17.72 323.16 16.04 323.96 15.13 322.6C14.6 320.74 14.2 319.34 13.73 317.7C11.87 319.71 10.99 321.66 11.46 324.02C9.36002 325.11 7.55002 326.04 6.05002 326.82C4.64002 325.3 3.42002 323.98 2.03002 322.48C3.40002 321.1 4.76002 319.05 7.59002 318.74C8.55002 318.64 10.56 318.14 10.61 315.73C8.86002 314.88 6.41002 316.18 4.93002 313.59V309.6C5.89002 309.13 6.91002 308.63 7.98002 308.1C7.75002 307.49 7.51002 306.84 7.23002 306.08C8.26002 305.81 9.06002 305.59 9.85002 305.38C9.73002 304.78 9.76002 304.38 9.61002 304.27C9.09002 303.89 8.53002 303.42 7.94002 303.35C5.29002 303 3.44002 301.33 1.71002 299.16V296.65C2.34002 296.07 3.03002 295.43 4.23002 294.32C4.69002 294.18 5.87002 293.83 7.22002 293.44V296.62C8.85002 297.14 10.66 296.99 10.74 299.77C10.78 301.19 12.25 302.57 12.74 303.4C14.45 304 15.52 304.64 16.6 304.68C17.51 304.71 18.44 304.05 19.46 303.66V301.47C17.64 301.29 15.86 300.92 13.87 302.07C14.14 301.11 14.42 300.15 14.69 299.18C16.55 298.22 18.28 298.067 19.88 298.72C21.03 300.08 20.81 302.54 23.2 303.22C23.99 301.3 24.78 299.38 25.67 297.23C26.25 296.96 27.3 296.69 28.04 296.02L28.03 296.04ZM18.31 317.32C17.86 317.62 17.54 317.84 17.22 318.04C16.86 318.25 16.49 318.45 15.85 318.82C16.98 320.18 17.74 321.27 19.33 320.47C19.88 319.03 19.49 317.99 18.32 317.32H18.31ZM11 313.66C11.4 312.12 11.87 310.6 12.18 309.04C12.28 308.55 11.93 307.95 11.79 307.4C10.88 307.89 10.8 308.57 10.44 308.94C9.88002 309.51 9.12002 309.87 8.83002 310.06C8.98002 311.82 9.06002 312.76 9.13002 313.66H11V313.66ZM24.61 309.16V313.8C25.92 313.52 26.77 313.07 26.85 311.68C26.93 310.12 26.15 309.43 24.61 309.16V309.16ZM16.57 306.76C15.99 307.38 15.33 308.1 14.8 308.68V312.48C15.5 313.24 16.07 313.86 16.59 314.42H20.1C20.54 313.9 20.89 313.48 21.11 313.21V307.89C20.76 307.51 20.48 307.21 20.07 306.76H16.58H16.57Z" fill="#E4E4E4"/>
<path d="M34.01 422.98C36.55 424.17 35.58 426.29 35.7 427.41C34.86 430.48 33.21 431.49 30.82 432.03C28.84 432.49 27.04 434.02 25.09 435.12C25.27 435.55 25.43 436.23 25.6 436.23C28.22 436.27 29.87 437.78 30.89 440.73V441.25H26.83V440.18C26.29 439.72 25.71 439.23 25.13 438.73C24.85 438.86 24.57 439.02 24.28 439.17C24.63 439.81 24.32 440.57 24.34 441.26H21.05V438.98C20.19 437.75 19.63 436.95 18.81 435.77C17.08 436.81 15.79 437.58 14.8 438.17V441.25H11.41C11.41 440.38 11.37 439.6 11.01 438.8C9.78002 439.26 8.95002 439.71 8.93002 441.12C8.93002 441.16 8.93002 441.21 8.94002 441.25H5.01002V439.25C5.76002 438.43 6.62002 437.5 7.57002 436.47C8.21002 436.37 8.96002 436.25 10.13 436.06C8.34002 434.45 6.86002 433.13 5.53002 431.93H2.92002C1.95002 430.88 0.990021 429.84 0.0100213 428.78C0.260021 427.34 -0.659979 425.58 1.24002 424.14C4.02002 423.51 6.43002 424.7 8.82002 427.46C8.98002 427.48 9.62002 427.56 10.33 427.64C11.04 429.62 11.76 431.63 12.65 434.13C13.69 431.69 14.57 429.64 15.41 427.68C20.1 427.95 21.27 428.83 22.46 432.94C24.86 432.07 24.96 429.7 25.55 427.41C26.85 426.62 28.59 426.03 29.64 424.79C31.04 423.11 33.33 425.36 34.01 422.98V422.98ZM19.43 433.53V431.39C19.08 431.01 18.71 430.61 18.34 430.2C17.57 431.41 15.11 430.92 15.58 433.53H19.44H19.43Z" fill="#E4E4E4"/>
<path d="M12.17 180.1C12.14 179.15 12.24 178.32 12.3 177.55L15.67 177.88L15.51 179.93C16.53 180.7 17.47 181.4 18.47 182.15C19.61 181.52 20.73 180.92 21.74 180.39L21.88 178.48L31.68 179.43L31.54 181.26C30.01 182.07 28.33 182.99 26.71 183.89C28.13 184.97 29.53 186.17 31.68 186.59C33.21 186.91 34.57 188.73 35.31 189.3C36.05 190.84 36.4 192.19 36.55 193.37C36.7 194.56 36.64 195.5 36.59 196.44C35.96 197.7 35.64 198.34 35.21 199.2C33.94 197.97 32.99 197.05 31.78 195.88C31.34 196.59 30.89 197.32 30.45 198.03C29.01 196.65 27.76 195.45 26.32 194.06C25.73 191.8 25.01 189.21 24.24 186.01C22.28 187.76 20.85 189.17 19.26 190.73L16.61 190.66C16.3 190.14 15.79 189.28 15.28 188.41L14.73 188.7C14.76 187.27 14.79 185.84 14.93 184.42C13.38 184.34 12.73 185.14 12.44 186.38C12.14 187.75 12.03 189.25 11.48 190.5C11 191.57 10.45 192.62 9.88 193.67C9.32 194.7 8.75 195.75 8.18 196.79H1.11C0.849998 196.52 0.469998 196.11 0.0599976 195.65L0.199998 189.62C1.52 188.51 3 187.27 4.86 185.75C7.35 186.14 9.74 185.06 10.91 181.48C10.57 181.7 10.24 181.93 9.85 182.19C9.65 181.95 9.38 181.63 9.13 181.33L8.3 182.07C7.44 181.38 6.61 180.7 5.71 179.98L5.94 176.93L9.85 177.31C9.77 178.69 10.58 179.22 12.17 180.1V180.1ZM18.09 182.7C17.61 183.21 17.22 183.61 16.95 183.9C17.14 184.94 17.25 185.94 17.54 187.1L20.48 187.24C20.48 186.25 20.61 185.26 20.67 184.26C19.81 183.73 18.96 183.22 18.1 182.7H18.09Z" fill="#E4E4E4"/>
<path d="M37.23 163.26C39.54 164.83 38.25 166.5 38.19 167.53C36.89 170.11 35.06 170.76 32.65 170.92C30.63 171.05 28.68 172.22 26.61 173.02C26.74 173.45 26.81 174.12 26.98 174.15C29.58 174.52 31.01 176.13 31.72 178.95L31.68 179.43L27.64 179.04C27.67 178.7 27.68 178.36 27.73 178.03C27.25 177.54 26.74 177.01 26.22 176.47C25.92 176.57 25.63 176.68 25.32 176.79C25.58 177.44 25.18 178.13 25.16 178.8L21.89 178.48C21.93 177.73 22.03 176.99 22.13 176.25C21.43 174.94 20.97 174.09 20.31 172.83C18.47 173.63 17.08 174.27 16.02 174.75C15.9 175.79 15.72 176.82 15.67 177.87L12.3 177.54C12.35 176.64 12.43 175.83 12.18 174.96C10.92 175.3 9.97001 175.68 9.85001 177.16C9.85001 177.21 9.85001 177.25 9.85001 177.3L5.94001 176.92C5.98001 176.2 6.07001 175.49 6.16001 174.78C7.02001 174 7.99001 173.11 9.07001 172.13C9.72001 172.1 10.48 172.07 11.66 172.02C10.1 170.12 8.81001 168.52 7.66001 167.06L5.05001 166.67C4.24001 165.39 3.54001 164.12 2.76001 162.81C3.28001 161.29 2.72001 159.2 4.86001 158.01C7.71001 157.86 9.84001 159.63 11.69 162.9C11.85 162.95 12.46 163.14 13.14 163.35C13.47 165.51 13.79 167.67 14.39 170.37C15.7 168.02 16.96 166.08 18.14 164.27C20.43 164.81 21.82 165.34 22.7 166.26C23.6 167.18 23.89 168.47 24.26 170.55C26.7 170.04 27.21 167.82 28.18 165.76C29.59 165.24 31.4 165 32.64 164.05C34.29 162.78 36.17 165.26 37.22 163.25L37.23 163.26ZM21.2 170.71L21.47 168.6C21.19 168.17 20.9 167.72 20.6 167.27C19.63 168.34 17.25 167.47 17.38 170.18L21.2 170.72V170.71Z" fill="#E4E4E4"/>
<path d="M194.81 11.08C195.75 10.94 196.58 11 197.36 11.02L197.33 14.41C196.64 14.4 195.96 14.36 195.27 14.39C194.6 15.49 193.98 16.48 193.32 17.56C194.04 18.63 194.75 19.69 195.36 20.64C196 20.61 196.64 20.65 197.28 20.66L197.25 23.95C196.82 23.95 196.44 24.09 196.14 24.63C195.88 25.08 196.2 25.83 196.24 26.42L197.23 26.45L197.2 30.51C196.59 30.51 195.98 30.46 195.36 30.49C194.42 29.05 193.35 27.47 192.31 25.96C191.36 27.49 190.28 29 190.05 31.18C189.87 32.77 188.17 34.18 187.66 34.95C184.74 36.72 182.37 36.92 180.77 36.92C179.58 36.36 178.97 36.13 178.15 35.8C179.12 34.38 179.87 33.38 180.83 32.09C180.14 31.71 179.42 31.29 178.71 30.93C179.87 29.36 180.9 28.04 182.13 26.48C184.33 25.67 186.83 24.64 189.96 23.71C188.99 22.81 188.12 22.01 187.3 21.24C186.47 20.48 185.66 19.82 184.82 19.1L184.66 16.45C185.15 16.1 185.95 15.48 186.78 14.91L186.44 14.38L190.73 14.26C190.67 12.7 189.82 12.16 188.55 11.96C187.85 11.85 187.13 11.78 186.41 11.68C185.7 11.62 185 11.52 184.36 11.31C182.14 10.57 179.99 9.54002 177.73 8.62002L177.05 1.59002C177.32 1.31002 177.73 0.890021 178.2 0.450021L184.23 -0.00997925C185.45 1.17002 186.82 2.57002 188.5 4.36002C188.33 6.89002 189.61 9.15002 193.29 9.96002C193.04 9.65002 192.78 9.33002 192.49 8.98002C192.71 8.75002 193.01 8.45002 193.28 8.17002C193 7.90002 192.7 7.63002 192.47 7.42002C193.08 6.49002 193.68 5.60002 194.32 4.63002L195.85 4.59002L197.38 4.62002L197.35 8.55002C195.97 8.53002 195.51 9.40002 194.78 11.07L194.81 11.08ZM192.75 17.23C192.2 16.8 191.76 16.46 191.45 16.21L188.31 17.08L188.43 20.02L191.41 19.94C191.86 19.03 192.3 18.13 192.74 17.23H192.75Z" fill="#E4E4E4"/>
<path d="M54.03 107.07C55.81 107.77 57.71 108.52 59.56 109.25C59.7 109.85 59.82 110.38 59.94 110.88C59.45 111.35 58.95 111.81 58.42 112.32C57.92 112.84 57.38 113.4 56.77 114.03C53.51 115.56 49.53 114.06 45.55 114.59C46.57 116.51 47.53 118.23 48.4 119.77C47.62 121.33 46.77 122.85 46.05 124.44C45.54 124.63 45.03 124.82 44.53 125.01C43.68 124.66 42.84 124.32 42.03 123.99C41.78 124.33 41.44 124.66 41.49 124.73C42.82 126.86 44.19 128.94 45.66 130.91C45.93 131.27 46.58 131.34 47.08 131.56C46.69 132.59 47.16 133.81 47.27 134.9C47.38 136 47.17 136.97 45.55 137.63C44.15 137.27 42.8 136.92 41.46 136.58C41.12 135.79 40.66 134.73 40.38 134.08L38.12 133.19C38.17 131.86 38.22 130.52 38.28 129.1C38.4 127.68 38.53 126.18 38.67 124.54C36.66 126.09 35.06 127.25 33.65 128.49L30.26 127.09C29.89 126.1 29.53 125.16 29.48 124.98C29.55 123.15 29.58 122.07 29.65 120.23C28.13 122.13 27.02 123.4 26.05 124.74C24.77 126.89 21.88 125.19 20.45 128.24C18.66 126.88 16.55 127.66 14.19 128C14.05 127.25 13.63 126.4 13.8 125.64C14.2 123.83 15.08 122 16.53 121.04C18.41 119.77 20.57 118.65 22.78 119.09C24.3 119.39 25.8 119.52 27.29 118.46C26.09 117.42 24.94 116.42 23.88 115.5C23.35 112.89 24.63 110.76 25.81 108.62C27.74 107.37 29.6 108.16 31.8 108.46C31.62 107.31 31.77 106.21 31.36 105.73C29.08 103.08 27.54 100.09 28.06 95.64C29.2 94.31 30.47 93.07 31.56 91.95C33.76 91.98 33.55 93.71 33.75 94.83C34.72 95.07 35.56 95.28 36.65 95.55C36.21 96.52 35.86 97.29 35.57 97.9C35.97 98.84 36.37 99.7 36.8 100.65C34.6 102.93 34.87 105.7 34.49 108.64C36.61 106.64 38.17 103.97 40.54 103.89C41.76 104.2 42.49 104.38 43.87 104.72C44.65 105.23 45.12 107.92 44.44 111.01C47.31 111.5 47.99 108.67 49.91 107.49C50.52 107.62 51.37 107.95 52.24 107.94C52.8 107.94 53.37 107.4 54.01 107.06L54.03 107.07ZM33.23 121.93C32.71 122.15 32.33 122.32 31.95 122.48C31.96 123.35 31.97 124.21 31.98 124.91L33.83 125.71L34.71 123.77C34.19 123.13 33.69 122.5 33.23 121.93V121.93ZM29.3 115.84C30.13 114.12 31.03 112.44 31.89 110.73C31.1 111.03 30.14 111.4 28.7 111.95C27.66 114.18 27.63 114.17 29.3 115.84ZM43.44 117.28L41.45 121.15C42.37 121.02 43.47 120.87 44.36 120.75C44.7 119.23 44.39 118.073 43.43 117.28H43.44ZM37.51 112.14C36.3 112.47 35.36 112.72 34.61 112.92L32.48 117.1C34.02 118.93 35.3 121.22 38.55 119.73C38.65 117.71 41.4 116.32 40.23 113.57L37.51 112.14ZM41.46 110.82C41.68 109.6 41.88 108.5 42.11 107.25C41.37 107.46 40.98 107.67 40.6 107.66C40.17 107.66 39.74 107.47 39.24 107.36C38.72 109.48 39.37 110.44 41.47 110.82H41.46Z" fill="#E4E4E4"/>
<path d="M136.08 22.57C137.8 22.46 139.3 22.37 141.1 22.26C141.68 22.71 142.49 23.36 143.39 24.11L144.48 27.67C143.03 28.58 141.64 29.61 140.44 30.43C141.33 30.85 142.12 31.22 142.91 31.58C142.8 31.78 142.69 31.98 142.58 32.18L144.94 31.97L147.44 31.87C147.77 32.56 148.09 33.24 148.39 33.89L149.66 33.86C150.68 35.93 151.67 38 152.57 39.89C151.96 42.16 150.08 41.84 148.84 42.43C147.21 41.56 145.68 40.84 144.87 40.44C142.7 37.81 140.98 35.8 139 33.54C138.63 35.82 138.31 37.79 138.06 39.91L133.71 41.63C133.03 41.34 132.15 40.96 131.05 40.48L130.03 38.04C129.54 38.27 128.97 38.41 128.92 38.64C128.4 41.02 127.6 43.31 127.87 45.79C128.01 47.15 127.46 48.57 127.26 49.81C126.4 50.18 125.57 50.6 124.74 51.03L122.25 52.31C121.75 50.48 121.29 48.8 120.7 46.66C121.29 46.04 122.08 45.21 122.85 44.4C122.44 44.18 122.01 43.96 121.38 43.62C121.67 41.99 122.82 41.03 124 40.11C125.18 39.19 126.39 38.3 126.89 36.87C126.83 36.75 126.82 36.56 126.72 36.51C126.25 36.26 125.75 36.05 125.16 35.78C124.3 36.12 123.41 36.48 122.41 36.88C121.52 36.34 120.62 35.79 119.65 35.2C119.72 33.92 119.79 32.58 119.87 31.06C120.85 30.19 121.98 29.19 123.44 27.9C122.64 27.74 122.09 27.52 121.54 27.55C119.48 27.69 117.4 27.91 115.13 28.16L114.47 26.95L109.96 26.43C110.16 25.87 110.31 25.47 110.48 25.01C109.82 23.6 106.65 24.59 107.08 21.98L111.31 19.82C114.58 19.32 116.75 20.43 118.68 22.23C119.75 23.23 121.42 23.66 122.8 24.37C122.86 22.4 122.95 20.77 123.04 19.08L129.26 16.63C130.53 17.3 132.11 18.22 133.81 19.23C135.15 15.81 136.56 12.4 137.98 9.19001L143.4 7.64001C144.02 8.29001 144.74 9.03001 145.5 9.83001C144.66 10.49 144.12 10.92 143.4 11.48C143.97 12.04 144.52 12.58 145.3 13.35C144.26 14.2 143.22 15.05 142.11 15.95L142.43 17.81C141.87 18.12 141.27 18.36 140.68 18.64C140.09 18.93 139.5 19.23 138.94 19.58C137.81 20.27 136.78 21.16 136.1 22.58L136.08 22.57ZM126.13 32.25C124.59 30.76 123.39 30.82 121.92 32.04C122.37 33.69 123.28 34.4 124.86 34.06C125.35 33.36 125.8 32.71 126.12 32.25H126.13ZM126.46 24.42L130.57 22.8C129.77 21.05 129.78 21.05 127.47 20.4C127.24 21.72 125.66 22.74 126.46 24.42V24.42ZM136.33 36.22C135.19 35.51 134.48 35.07 133.72 34.61C132.9 35.48 132.21 36.21 131.52 36.94C132.04 37.15 132.53 37.36 133.18 37.63C134.01 37.26 134.93 36.85 136.33 36.23V36.22ZM134.79 26.12C133.82 25.68 132.92 25.32 132.02 24.97C129.04 25.81 127.61 27.85 126.79 30.45C127.56 31.25 128.26 31.98 129.03 32.78C131.96 33.29 134.37 32.47 136.13 29.85L134.78 26.12H134.79ZM138.13 27.55C138.65 27.78 139.16 28.01 139.51 28.16C139.9 27.24 140.29 26.32 140.66 25.46C140.39 25.16 139.97 24.71 139.48 24.18L137.23 24.94L138.13 27.55Z" fill="#E4E4E4"/>
<path d="M93.57 62.44C94.39 62.61 95.33 62.24 96.24 62.11L99.48 66.43L96.01 69.17C94.08 69.09 92.22 68.4 90.28 67.62C88.36 66.87 86.34 66.01 84.01 65.59C84.75 67.54 85.22 68.77 85.72 70.08C84.69 72.22 84.34 73.02 83.77 73.53C83.2 74.02 82.38 74.17 80.46 75.02C79.51 74.18 78.56 73.33 76.9 71.85C77.2 74.19 77.3 75.63 77.65 77C78.02 78.38 78.13 79.92 78.64 81.1C79.27 82.53 78.93 83.54 78.61 84.73C78.39 85.56 78.17 86.39 77.87 87.5C77.23 87.55 76.51 87.63 75.72 87.73C74.99 86.57 74.31 85.5 73.32 83.94C73.38 83.3 73.49 82.1 73.6 80.94H71.81C71.69 80.19 71.56 79.44 71.44 78.74C73.35 76.84 75.09 74.97 74.13 72.13C73.8 72.11 73.62 72.05 73.53 72.11C73.07 72.41 72.65 72.78 72.06 73.27C70.89 73.25 69.52 73.23 67.72 73.21C67.05 72.46 65.27 71.9 65.57 70.27C66.51 68.54 67.16 67.18 68.08 65.71C66.67 65.75 65.47 66 64.46 66.51C63.44 67.01 62.59 67.75 61.91 68.8C59.6 68.17 57.6 67.66 55.91 67.25C55.99 65.12 56.09 63.25 56.21 61.1C58.25 60.97 60.73 60.3 62.96 62.1C63.72 62.71 65.51 63.77 67.37 62.07C66.81 60.19 64.1 59.38 65.09 56.39C66.14 55.42 67.13 54.39 68.23 53.47C69.25 53.85 70.33 54.27 71.47 54.7C71.81 54.11 72.17 53.47 72.59 52.73C73.48 53.32 74.17 53.78 74.86 54.23C75.25 53.73 75.59 53.48 75.58 53.29C75.54 52.64 75.56 51.88 75.24 51.38C74.53 50.25 74.21 49.03 74.17 47.74C74.15 46.47 74.4 45.13 74.79 43.73L76.94 42.04C77.82 42.15 78.78 42.27 80.46 42.48C80.85 42.76 81.86 43.47 83 44.29L80.34 46.37C80.9 48 82.14 49.33 79.92 51.17C79.35 51.64 79.01 52.39 78.78 53.12C78.55 53.87 78.45 54.63 78.28 55.09C78.91 56.8 79.11 58.04 79.78 58.9C80.35 59.62 81.46 59.89 82.4 60.41C82.96 59.94 83.48 59.44 84.06 59C83.04 57.49 82.22 55.86 80.03 55.06C80.97 54.66 81.91 54.27 82.87 53.87C85.76 55.15 85.74 55.17 86.47 57.65C86.13 59.38 84.07 60.7 85.13 63C87.03 62.37 89.05 61.9 91.2 61.3C91.76 61.6 92.61 62.27 93.56 62.46L93.57 62.44ZM71.59 68.7C71.05 68.58 70.67 68.52 70.3 68.42C69.89 68.31 69.48 68.19 68.76 67.99C68.59 69.78 68.39 71.1 70.08 71.63C71.44 70.96 71.93 70 71.59 68.69V68.7ZM69.23 60.85C70.67 60.05 72.12 59.25 73.55 58.46C74 58.2 74.24 57.54 74.58 57.05C73.6 56.69 73 57.1 72.47 57.09C71.65 57.06 70.86 56.75 70.51 56.66C69.23 58.01 68.6 58.77 67.95 59.48L69.23 60.84V60.85ZM81.74 67.81C80.59 68.76 79.55 69.83 78.46 70.85C79.56 71.62 80.45 71.94 81.45 71.09C82.57 70.11 82.58 69.14 81.74 67.81ZM78.2 60.23L75.55 60.18L74.09 61.45L72.69 62.78C72.61 63.83 72.55 64.68 72.49 65.44L74.91 67.98L76.47 67.89L78.37 66.08L80.35 64.37C80.4 63.87 80.44 63.45 80.51 62.86L78.22 60.23H78.2Z" fill="#E4E4E4"/>
<path d="M37.23 163.26C39.54 164.83 38.25 166.5 38.19 167.53C36.89 170.11 35.06 170.76 32.65 170.92C30.63 171.05 28.68 172.22 26.61 173.02C26.74 173.45 26.81 174.12 26.98 174.15C29.58 174.52 31.01 176.13 31.72 178.95L31.68 179.43L27.64 179.04C27.67 178.7 27.68 178.36 27.73 178.03C27.25 177.54 26.74 177.01 26.22 176.47C25.92 176.57 25.63 176.68 25.32 176.79C25.58 177.44 25.18 178.13 25.16 178.8L21.89 178.48C21.93 177.73 22.03 176.99 22.13 176.25C21.43 174.94 20.97 174.09 20.31 172.83C18.47 173.63 17.08 174.27 16.02 174.75C15.9 175.79 15.72 176.82 15.67 177.87L12.3 177.54C12.35 176.64 12.43 175.83 12.18 174.96C10.92 175.3 9.97001 175.68 9.85001 177.16C9.85001 177.21 9.85001 177.25 9.85001 177.3L5.94001 176.92C5.98001 176.2 6.07001 175.49 6.16001 174.78C7.02001 174 7.99001 173.11 9.07001 172.13C9.72001 172.1 10.48 172.07 11.66 172.02C10.1 170.12 8.81001 168.52 7.66001 167.06L5.05001 166.67C4.24001 165.39 3.54001 164.12 2.76001 162.81C3.28001 161.29 2.72001 159.2 4.86001 158.01C7.71001 157.86 9.84001 159.63 11.69 162.9C11.85 162.95 12.46 163.14 13.14 163.35C13.47 165.51 13.79 167.67 14.39 170.37C15.7 168.02 16.96 166.08 18.14 164.27C20.43 164.81 21.82 165.34 22.7 166.26C23.6 167.18 23.89 168.47 24.26 170.55C26.7 170.04 27.21 167.82 28.18 165.76C29.59 165.24 31.4 165 32.64 164.05C34.29 162.78 36.17 165.26 37.22 163.25L37.23 163.26ZM21.2 170.71L21.47 168.6C21.19 168.17 20.9 167.72 20.6 167.27C19.63 168.34 17.25 167.47 17.38 170.18L21.2 170.72V170.71Z" fill="#E4E4E4"/>
<path d="M194.81 11.08C195.75 10.94 196.58 11 197.36 11.02L197.33 14.41C196.64 14.4 195.96 14.36 195.27 14.39C194.6 15.49 193.98 16.48 193.32 17.56C194.04 18.63 194.75 19.69 195.36 20.64C196 20.61 196.64 20.65 197.28 20.66L197.2 30.5C196.59 30.5 195.98 30.45 195.36 30.48C194.42 29.04 193.35 27.46 192.31 25.95C191.36 27.48 190.28 28.99 190.05 31.17C189.87 32.76 188.17 34.17 187.66 34.94C184.74 36.71 182.37 36.91 180.77 36.91C179.58 36.35 178.97 36.12 178.15 35.79C179.12 34.37 179.87 33.37 180.83 32.08C180.14 31.7 179.42 31.28 178.71 30.92C179.87 29.35 180.9 28.03 182.13 26.47C184.33 25.66 186.83 24.63 189.96 23.7C188.99 22.8 188.12 22 187.3 21.23C186.47 20.47 185.66 19.81 184.82 19.09L184.66 16.44C185.15 16.09 185.95 15.47 186.78 14.9L186.44 14.37L190.73 14.25C190.67 12.69 189.82 12.15 188.55 11.95C187.85 11.84 187.13 11.77 186.41 11.67C185.7 11.61 185 11.51 184.36 11.3C182.14 10.56 179.99 9.53001 177.73 8.61001L177.05 1.58001C177.32 1.30001 177.73 0.880011 178.2 0.440011L184.23 -0.019989C185.45 1.16001 186.82 2.56001 188.5 4.35001C188.33 6.88001 189.61 9.14001 193.29 9.95001C193.04 9.64001 192.78 9.32001 192.49 8.97001C192.71 8.74001 193.01 8.44001 193.28 8.16001C193 7.89001 192.7 7.62001 192.47 7.41001C193.08 6.48001 193.68 5.59001 194.32 4.62001L195.85 4.58001L197.38 4.61001L197.35 8.54001C195.97 8.52001 195.51 9.39001 194.78 11.06L194.81 11.08ZM192.75 17.23C192.2 16.8 191.76 16.46 191.45 16.21L188.31 17.08L188.43 20.02L191.41 19.94C191.86 19.03 192.3 18.13 192.74 17.23H192.75Z" fill="#E4E4E4"/>
<path d="M213.82 34.58C212.47 36.93 210.68 35.86 209.65 35.9C206.96 34.86 206.14 33.14 205.78 30.71C205.62 29.7 205.21 28.72 204.72 27.74C204.22 26.77 203.64 25.83 203.15 24.84C202.73 25.01 202.07 25.15 202.06 25.32C201.92 27.94 200.44 29.55 197.69 30.5H197.21L197.24 26.43L198.26 26.46C198.71 25.93 199.19 25.37 199.68 24.8C199.56 24.51 199.41 24.23 199.28 23.94C198.65 24.27 197.93 23.94 197.26 23.94L197.29 20.65L199.53 20.71C200.77 19.88 201.58 19.34 202.77 18.55C201.81 16.8 201.05 15.49 200.47 14.48L197.33 14.4L197.36 11.01C198.26 11.03 199.07 11.01 199.92 10.68C199.47 9.44001 199.01 8.59001 197.52 8.54001C197.47 8.54001 197.43 8.54001 197.38 8.55001L197.41 4.62001L199.56 4.67001C200.41 5.44001 201.38 6.33001 202.45 7.30001C202.54 7.94001 202.64 8.69001 202.79 9.87001C204.54 8.12001 206.02 6.68001 207.37 5.47001L207.53 2.84001C208.75 1.96001 209.94 1.09001 211.17 0.200012C212.73 0.570012 214.76 -0.209988 216.14 1.83001C216.34 3.26001 216.05 4.52001 215.32 5.70001C214.59 6.90001 213.43 8.01001 211.88 9.09001C211.85 9.25001 211.71 9.88001 211.56 10.58C209.44 11.14 207.31 11.66 204.69 12.42C207.14 13.59 209.19 14.67 211.1 15.64C210.44 20.29 209.46 21.39 205.39 22.28C206.11 24.74 208.37 25.02 210.51 25.77C211.16 27.12 211.56 28.9 212.62 30.03C214.03 31.59 211.74 33.62 213.82 34.57V34.58ZM204.97 19.22L207.1 19.38C207.5 19.06 207.93 18.72 208.35 18.38C207.2 17.52 207.85 15.1 205.17 15.37L204.98 19.22H204.97Z" fill="#E4E4E4"/>
<path d="M379.52 177.86C379.69 178.79 379.72 179.62 379.78 180.4L376.4 180.67L376.24 178.62C375.11 178.03 374.1 177.51 372.97 176.96C371.97 177.78 370.94 178.57 370.02 179.27L370.17 181.18L366.89 181.45C366.84 181.03 366.67 180.66 366.1 180.4C365.63 180.19 364.91 180.56 364.33 180.66L364.4 181.65L360.35 181.98L360.21 180.15C360.9 179.61 361.63 179.04 362.37 178.46C363.08 177.88 363.8 177.28 364.5 176.7C362.88 175.89 361.26 174.96 359.07 174.92C357.46 174.88 355.89 173.32 355.07 172.88C354.59 172.19 354.23 171.52 353.91 170.89C353.58 170.26 353.32 169.66 353.13 169.1C352.74 167.98 352.59 166.99 352.51 166.2C352.93 164.96 353.14 164.33 353.43 163.49C354.87 164.36 355.95 165.01 357.33 165.83C357.65 165.1 357.97 164.35 358.29 163.62C359.95 164.63 361.39 165.54 363.06 166.62C363.57 167.67 364.18 168.8 364.73 170.05C365.28 171.31 365.87 172.67 366.51 174.17C368.12 172.1 369.35 170.45 370.68 168.64L373.3 168.24C373.68 168.7 374.32 169.46 374.95 170.23L375.45 169.85L375.99 174.11C377.54 173.91 377.99 173.02 378.06 171.74C378.14 170.33 378.03 168.83 378.38 167.5C378.91 165.22 379.71 162.99 380.4 160.66L387.34 159.36C387.64 159.6 388.11 159.97 388.59 160.4C388.93 162.39 389.33 164.37 389.62 166.37C388.49 167.7 387.22 169.19 385.62 171.02C383.08 171.08 380.96 172.55 380.52 176.28C380.81 176 381.09 175.72 381.42 175.4C381.67 175.6 382 175.87 382.3 176.12L382.97 175.25C383.96 175.76 384.91 176.28 385.89 176.85L386.12 179.9L382.21 180.22C382.08 178.84 381.19 178.46 379.5 177.88L379.52 177.86ZM373.24 176.35C373.61 175.76 373.91 175.3 374.12 174.97C373.74 173.98 373.37 173.03 372.94 171.93L370.02 172.31L370.4 175.27C371.35 175.63 372.29 175.99 373.24 176.35V176.35Z" fill="#E4E4E4"/>
<path d="M271.29 46.24C270.75 48.07 270.18 50.03 269.62 51.94L268.02 52.48C267 51.61 266 50.63 264.62 49.58C262.8 46.48 263.92 42.42 263.04 38.48C261.25 39.61 259.6 40.77 258.14 41.78L253.28 39.86C253.05 39.34 252.81 38.87 252.58 38.38C252.85 37.51 253.11 36.63 253.37 35.8C253.01 35.58 252.65 35.28 252.59 35.33C250.58 36.86 248.63 38.42 246.8 40.07C246.47 40.37 246.45 41.02 246.28 41.55C244.14 40.98 241.69 43.64 240.1 40.56C240.33 39.14 240.56 37.76 240.78 36.4C241.54 35.98 242.55 35.43 243.18 35.08L243.87 32.75C246.52 32.54 249.2 32.56 252.53 32.52C250.77 30.64 249.45 29.24 248.15 27.85L249.24 24.35C250.19 23.92 251.08 23.52 251.26 23.44L256.02 23.15C253.98 21.8 252.59 20.89 251.21 19.97C248.96 18.86 250.38 15.86 247.22 14.72C248.41 12.81 247.44 10.79 246.89 8.48003C247.62 8.27003 248.43 7.77003 249.21 7.86003C251.06 8.09003 252.97 8.76003 254.04 10.14C255.45 11.99 256.79 13.95 256.53 16.21C256.37 17.75 256.38 19.25 257.57 20.62C258.49 19.33 259.39 18.09 260.21 16.94C262.75 16.21 264.98 17.31 267.23 18.26C268.65 20.06 268.03 21.98 267.93 24.19C269.06 23.92 270.14 24.03 270.59 23.55C273.03 21.04 275.87 19.22 280.36 19.31C281.76 20.39 283.12 21.51 284.34 22.49C284.51 24.68 282.76 24.63 281.66 24.93C281.51 25.91 281.38 26.77 281.2 27.88L278.75 27.03C277.85 27.52 277.05 27.96 276.14 28.45C273.67 26.47 270.91 27.04 267.96 26.9C270.13 28.86 272.95 30.12 273.25 32.48C273.06 33.72 272.94 34.46 272.72 35.87C272.29 36.69 269.64 37.42 266.49 37.03C266.25 39.94 269.17 40.3 270.49 42.15C270.41 42.77 270.15 43.66 270.25 44.53C270.31 45.09 270.89 45.6 271.29 46.2V46.24ZM254.63 26.84L253.97 25.62C253.11 25.71 252.25 25.81 251.55 25.88L250.92 27.8L252.94 28.48C253.53 27.9 254.11 27.34 254.64 26.83L254.63 26.84ZM260.33 22.4L265.66 24.5C265.29 23.74 264.83 22.82 264.15 21.45C262.603 20.8967 261.33 21.2134 260.33 22.4ZM260.18 36.6L256.13 35C256.34 35.9 256.59 36.98 256.8 37.85C258.347 38.0367 259.473 37.6167 260.18 36.59V36.6ZM264.77 30.22C264.33 29.05 264 28.14 263.72 27.42L259.35 25.7C257.68 27.36 255.53 28.79 257.27 31.99C259.3 31.89 260.93 34.49 263.58 33.07L264.76 30.23L264.77 30.22ZM266.42 34.08L270.04 34.38C269.76 33.67 269.52 33.3 269.49 32.92C269.45 32.49 269.6 32.05 269.67 31.54C267.51 31.22 266.61 31.96 266.42 34.09V34.08Z" fill="#E4E4E4"/>
<path d="M362.79 120.4C363.06 122.11 363.34 123.57 363.56 125.37C363.14 125.99 362.55 126.86 361.9 127.83L358.46 129.24C357.93 128.56 357.43 127.88 356.91 127.24C356.37 126.61 355.86 126 355.38 125.45C355.05 126.37 354.76 127.19 354.47 128.01L353.84 127.74C354.15 129.27 354.31 130.86 354.57 132.57C353.91 132.96 353.27 133.34 352.65 133.7C352.71 134.17 352.75 134.56 352.8 134.96C350.84 136.16 348.87 137.33 347.07 138.39C344.74 137.99 344.87 136.09 344.16 134.92C344.52 134.06 344.86 133.23 345.17 132.51C345.44 131.79 345.67 131.18 345.83 130.77C348.25 128.38 350.08 126.49 352.15 124.31C349.84 124.14 347.82 124.03 345.74 123.94C345.07 122.53 344.33 121.16 343.62 119.77C343.85 119.07 344.14 118.16 344.51 117.02L346.85 115.78C346.57 115.32 346.4 114.75 346.17 114.71C343.79 114.38 341.39 113.82 338.95 114.31C337.61 114.58 336.13 114.16 334.88 114.08C334.41 113.28 333.97 112.45 333.47 111.66L331.96 109.3C333.74 108.63 335.38 108.02 337.45 107.25C338.11 107.78 339.06 108.46 339.87 109.2C340.06 108.77 340.25 108.31 340.54 107.65C343.75 108.02 344.81 111.82 347.76 112.54C347.87 112.47 348.06 112.44 348.1 112.34C348.31 111.85 348.47 111.34 348.68 110.72C348.26 109.9 347.81 109.04 347.32 108.09C347.78 107.16 348.24 106.22 348.74 105.19C350.02 105.14 351.37 105.09 352.9 105.03C353.86 105.92 354.97 106.96 356.4 108.29C356.48 107.48 356.65 106.92 356.56 106.37C356.23 104.34 355.8 102.3 355.35 100.05C355.62 99.87 356.05 99.58 356.49 99.28C356.6 97.77 356.59 96.2801 356.62 94.7301L358.09 95.12C359.44 94.33 358.15 91.28 360.79 91.47C361.63 92.81 362.54 94.11 363.3 95.5C364.1 98.71 363.2 100.96 361.59 103.04C360.69 104.2 360.45 105.88 359.82 107.34C361.74 107.24 363.4 107.17 365.1 107.11C366.11 109.09 367.14 111.07 368.13 113.06C367.52 114.41 366.77 116.05 365.93 117.83C367.7 118.34 369.47 118.86 371.22 119.4C372.09 119.68 372.96 119.95 373.81 120.22C374.65 120.51 375.47 120.8 376.28 121.08L378.35 126.32C377.76 127 377.09 127.77 376.37 128.61C375.63 127.84 375.15 127.34 374.52 126.68C374.01 127.3 373.53 127.89 372.84 128.73C371.89 127.77 370.94 126.82 369.93 125.79L368.1 126.27C367.38 125.22 366.86 124 366.06 122.94C365.26 121.88 364.28 120.94 362.79 120.39V120.4ZM352.26 111.36C353.64 109.67 353.44 108.5 352.09 107.15C350.49 107.74 349.87 108.71 350.35 110.26C351.09 110.68 351.79 111.07 352.25 111.36H352.26ZM360.07 110.99L362.08 114.93C363.75 113.97 363.75 113.98 364.17 111.63C362.83 111.52 361.66 110.04 360.06 110.99H360.07ZM349.24 121.87C349.84 120.67 350.21 119.92 350.6 119.13C349.65 118.39 348.86 117.77 348.06 117.16C347.9 117.69 347.74 118.2 347.54 118.87C347.99 119.66 348.49 120.54 349.24 121.87ZM359.12 119.44C359.45 118.43 359.76 117.49 360.06 116.56C358.94 113.68 356.76 112.45 354.09 111.86C353.36 112.7 352.7 113.46 351.98 114.3C351.88 115.77 352.07 117.1 352.65 118.24C352.94 118.81 353.34 119.33 353.81 119.81C354.27 120.3 354.84 120.73 355.53 121.12L359.12 119.44V119.44ZM358.02 122.89C357.84 123.42 357.67 123.96 357.54 124.32C358.49 124.62 359.46 124.93 360.35 125.21C360.62 124.91 361.03 124.45 361.52 123.92L360.54 121.76L358.02 122.89Z" fill="#E4E4E4"/>
<path d="M319.28 81.62C319.19 82.45 319.65 83.34 319.82 84.27L315.8 87.88C314.85 86.75 313.78 85.73 312.78 84.65C312.56 80.79 314.89 77.05 315.29 72.37C313.42 73.28 312.23 73.87 310.96 74.48C308.72 73.66 307.89 73.38 307.37 72.83C306.83 72.31 306.6 71.51 305.58 69.68C306.33 68.66 307.1 67.64 308.42 65.85C306.12 66.37 304.68 66.59 303.34 67.08C302.68 67.32 301.97 67.49 301.29 67.68C300.6 67.88 299.93 68.1 299.37 68.4C298 69.15 296.95 68.91 295.74 68.71C294.89 68.57 294.04 68.43 292.91 68.24C292.8 67.62 292.66 66.88 292.52 66.08C293.6 65.26 294.6 64.5 296.06 63.39H299.08C299.02 62.66 298.98 62.26 298.93 61.61C299.65 61.42 300.39 61.22 301.08 61.04C302.12 61.89 303.14 62.72 304.25 63.17C305.36 63.62 306.5 63.77 307.9 63.14C307.89 62.81 307.94 62.63 307.86 62.55C307.51 62.13 307.12 61.72 306.6 61.15C306.51 59.99 306.4 58.63 306.27 56.84C306.95 56.11 307.36 54.29 309.01 54.43C309.92 54.81 310.72 55.15 311.49 55.47C312.24 55.83 312.97 56.17 313.76 56.54C313.58 55.16 313.26 53.94 312.67 52.97C312.08 52 311.26 51.23 310.15 50.65C310.57 48.3 310.9 46.26 311.15 44.55C313.28 44.43 315.16 44.36 317.32 44.28C317.48 45.28 317.78 46.39 317.85 47.54C317.9 48.71 317.7 49.93 316.91 51.12C316.37 51.93 315.48 53.81 317.35 55.49C319.18 54.76 319.73 51.99 322.81 52.7L324.43 54.11L325.98 55.59C325.69 56.63 325.38 57.75 325.05 58.92C325.67 59.2 326.34 59.5 327.12 59.85C326.61 60.79 326.22 61.52 325.83 62.24C326.37 62.59 326.65 62.89 326.84 62.87C327.49 62.77 328.24 62.72 328.71 62.36C330.85 60.73 333.39 60.73 336.28 61.25L338.17 63.23C338.14 64.12 338.13 65.08 338.05 66.77C337.8 67.19 337.17 68.26 336.45 69.49C335.73 68.63 334.94 67.82 334.16 67.01C332.58 67.72 331.38 69.07 329.32 67.03C328.26 65.98 326.24 65.97 325.29 65.72C323.64 66.5 322.42 66.82 321.63 67.56C320.97 68.19 320.8 69.31 320.37 70.3C320.91 70.79 321.38 71.34 321.89 71.86C323.31 70.71 324.85 69.75 325.46 67.5C325.94 68.4 326.42 69.3 326.91 70.21C325.9 73.2 325.88 73.18 323.47 74.13C321.71 73.95 320.19 72.03 318.04 73.25C318.75 75.14 319.47 77.04 320.26 79.15C320.02 79.74 319.42 80.64 319.32 81.59L319.28 81.62ZM311.07 60.3C311.14 59.76 311.17 59.37 311.23 58.99C311.31 58.58 311.38 58.16 311.52 57.42C309.76 57.37 308.42 57.3 308.04 59.02C308.79 60.35 309.81 60.75 311.08 60.29L311.07 60.3ZM318.7 57.23C319.17 57.91 319.64 58.58 320.08 59.27C320.52 59.97 320.96 60.66 321.45 61.33C321.75 61.75 322.44 61.93 322.95 62.22C323.22 61.21 322.75 60.66 322.72 60.13C322.67 59.31 322.91 58.5 322.97 58.14C321.54 56.95 320.72 56.4 319.95 55.82L318.71 57.22L318.7 57.23ZM312.87 70.33L311.25 68.79L309.56 67.32C308.89 68.48 308.65 69.39 309.6 70.31C310.62 71.4 311.63 71.28 312.87 70.33V70.33ZM320.11 66.12C320.05 65.27 319.98 64.28 319.92 63.49C318.97 62.61 318.08 61.68 317.09 60.85C316.04 60.87 315.18 60.88 314.42 60.9L312.1 63.53C312.2 64.2 312.28 64.73 312.33 65.07C313.68 66.18 314.89 67.44 316.17 68.63H317.7L320.12 66.12H320.11Z" fill="#E4E4E4"/>
<path d="M213.82 34.58C212.47 36.93 210.68 35.86 209.65 35.9C206.96 34.86 206.14 33.14 205.78 30.71C205.62 29.7 205.21 28.72 204.72 27.74C204.22 26.77 203.64 25.83 203.15 24.84C202.73 25.01 202.07 25.15 202.06 25.32C201.92 27.94 200.44 29.55 197.69 30.5H197.21L197.24 26.43L198.26 26.46C198.71 25.93 199.19 25.37 199.68 24.8C199.56 24.51 199.41 24.23 199.28 23.94C198.65 24.27 197.93 23.94 197.26 23.94L197.29 20.65L199.53 20.71C200.77 19.88 201.58 19.34 202.77 18.55C201.81 16.8 201.05 15.49 200.47 14.48L197.33 14.4L197.36 11.01C198.26 11.03 199.07 11.01 199.92 10.68C199.47 9.44001 199.01 8.59001 197.52 8.54001C197.47 8.54001 197.43 8.54001 197.38 8.55001L197.41 4.62001L199.56 4.67001C200.41 5.44001 201.38 6.33001 202.45 7.30001C202.54 7.94001 202.64 8.69001 202.79 9.87001C204.54 8.12001 206.02 6.68001 207.37 5.47001L207.53 2.84001C208.75 1.96001 209.94 1.09001 211.17 0.200012C212.73 0.570012 214.76 -0.209988 216.14 1.83001C216.34 3.26001 216.05 4.52001 215.32 5.70001C214.59 6.90001 213.43 8.01001 211.88 9.09001C211.85 9.25001 211.71 9.88001 211.56 10.58C209.44 11.14 207.31 11.66 204.69 12.42C207.14 13.59 209.19 14.67 211.1 15.64C210.44 20.29 209.46 21.39 205.39 22.28C206.11 24.74 208.37 25.02 210.51 25.77C211.16 27.12 211.56 28.9 212.62 30.03C214.03 31.59 211.74 33.62 213.82 34.57V34.58ZM204.97 19.22L207.1 19.38C207.5 19.06 207.93 18.72 208.35 18.38C207.2 17.52 207.85 15.1 205.17 15.37L204.98 19.22H204.97Z" fill="#E4E4E4"/>
<path d="M379.52 177.86C379.69 178.79 379.72 179.62 379.78 180.4L376.4 180.67L376.24 178.62C375.11 178.03 374.1 177.51 372.97 176.96C371.97 177.78 370.94 178.57 370.02 179.27L370.17 181.18L360.36 181.98L360.22 180.15C360.91 179.61 361.64 179.04 362.38 178.46C363.09 177.88 363.81 177.28 364.51 176.7C362.89 175.89 361.27 174.96 359.08 174.92C357.47 174.88 355.9 173.32 355.08 172.88C354.6 172.19 354.24 171.52 353.92 170.89C353.59 170.26 353.33 169.66 353.14 169.1C352.75 167.98 352.6 166.99 352.52 166.2C352.94 164.96 353.15 164.33 353.44 163.49C354.88 164.36 355.96 165.01 357.34 165.83C357.66 165.1 357.98 164.35 358.3 163.62C359.96 164.63 361.4 165.54 363.07 166.62C363.58 167.67 364.19 168.8 364.74 170.05C365.29 171.31 365.88 172.67 366.52 174.17C368.13 172.1 369.36 170.45 370.69 168.64L373.31 168.24C373.69 168.7 374.33 169.46 374.96 170.23L375.46 169.85L376 174.11C377.55 173.91 378 173.02 378.07 171.74C378.15 170.33 378.04 168.83 378.39 167.5C378.92 165.22 379.72 162.99 380.41 160.66L387.35 159.36C387.65 159.6 388.12 159.97 388.6 160.4C388.94 162.39 389.34 164.37 389.63 166.37C388.5 167.7 387.23 169.19 385.63 171.02C383.09 171.08 380.97 172.55 380.53 176.28C380.82 176 381.1 175.72 381.43 175.4C381.68 175.6 382.01 175.87 382.31 176.12L382.98 175.25C383.97 175.76 384.92 176.28 385.9 176.85L386.13 179.9L382.22 180.22C382.09 178.84 381.2 178.46 379.51 177.88L379.52 177.86ZM373.24 176.35C373.61 175.76 373.91 175.3 374.12 174.97C373.74 173.98 373.37 173.03 372.94 171.93L370.02 172.31L370.4 175.27C371.35 175.63 372.29 175.99 373.24 176.35V176.35Z" fill="#E4E4E4"/>
<path d="M357.85 199.2C356.58 198.6 356.18 197.78 356.09 196.96C356 196.14 356.22 195.32 356.13 194.84C356.89 192.07 358.52 191.1 360.9 190.52C362.87 190.03 364.63 188.53 366.55 187.38C366.37 186.98 366.17 186.33 365.99 186.34C363.37 186.43 361.62 185.1 360.38 182.45L360.34 181.97L364.39 181.64L364.47 182.65C365.04 183.05 365.65 183.48 366.27 183.92C366.54 183.77 366.81 183.61 367.09 183.44C366.7 182.85 366.95 182.09 366.88 181.43L370.16 181.16L370.33 183.4C371.28 184.56 371.9 185.32 372.8 186.44C374.46 185.33 375.68 184.46 376.62 183.8L376.38 180.67L379.76 180.4C379.83 181.3 379.93 182.11 380.35 182.92C381.54 182.36 382.34 181.83 382.24 180.34C382.24 180.29 382.24 180.25 382.22 180.2L386.13 179.88L386.29 182.03C385.6 182.95 384.82 183.99 383.96 185.14C383.33 185.28 382.59 185.45 381.44 185.71C383.29 187.3 384.79 188.65 386.16 189.89L388.8 189.81C389.8 190.94 390.78 192.06 391.79 193.2C391.68 193.99 391.88 194.9 391.85 195.73C391.81 196.53 391.57 197.33 390.62 198.05C387.83 198.67 385.45 197.53 383.02 194.69C382.86 194.67 382.22 194.59 381.51 194.5C380.75 192.46 379.98 190.39 379.02 187.82C378.04 190.34 377.22 192.47 376.43 194.48C371.73 194.24 370.54 193.36 369.25 189.38C366.88 190.31 366.83 192.59 366.3 194.79C365.03 195.54 363.27 196.14 362.23 197.38C360.83 199.06 358.55 196.81 357.86 199.19L357.85 199.2ZM372.26 188.7L372.31 190.83C372.67 191.2 373.05 191.59 373.43 191.99C374.17 190.77 376.64 191.2 376.11 188.56L372.26 188.71V188.7Z" fill="#E4E4E4"/>
<path d="M380.37 441.54C380.47 442.45 380.43 443.25 380.43 444H377.04V441.98C375.96 441.3 374.98 440.69 373.92 440.03C372.83 440.74 371.76 441.43 370.79 442.06V444.01H367.5C367.49 443.57 367.34 443.18 366.79 442.86C366.34 442.59 365.59 442.92 365 442.97V444.01H360.94V442.03C362.41 441.02 364.01 439.92 365.55 438.85C364.05 437.83 362.56 436.63 360.38 436.3C358.79 436.05 357.42 434.13 356.67 433.52C355.13 430.2 355.11 427.51 355.22 425.74C355.85 424.48 356.17 423.84 356.6 422.98C357.87 424.21 358.82 425.13 360.03 426.3C360.47 425.59 360.92 424.86 361.36 424.15C362.81 425.56 364.07 426.78 365.53 428.19C366.19 430.55 366.94 433.22 367.85 436.48C369.7 434.56 371.14 433.08 372.68 431.48H375.33C375.65 431.98 376.18 432.82 376.72 433.65L377.27 433.35V437.55C378.83 437.54 379.39 436.72 379.62 435.51C379.88 434.17 379.96 432.72 380.48 431.5C381.39 429.41 382.58 427.44 383.66 425.39H390.73C390.99 425.66 391.37 426.07 391.78 426.53V432.02C390.49 433.07 389.05 434.25 387.22 435.74C384.7 435.49 382.4 436.6 381.5 440.12C381.82 439.88 382.14 439.64 382.5 439.38C382.72 439.6 383.01 439.88 383.29 440.15C383.56 439.88 383.85 439.61 384.06 439.4C384.97 439.99 385.85 440.56 386.8 441.17V444.01H382.87C382.85 442.7 381.99 442.26 380.35 441.55L380.37 441.54ZM374.27 439.45C374.71 438.91 375.07 438.49 375.32 438.18C375.07 437.16 374.82 436.18 374.53 435.04H371.59V438.05C372.49 438.52 373.37 438.98 374.27 439.44V439.45Z" fill="#E4E4E4"/>
<path d="M363.15 262.62C361.27 263 359.27 263.41 357.32 263.81C356.87 263.33 356.49 262.91 356.12 262.51C356.45 261.06 356.79 259.59 357.21 257.73C359.29 254.46 363.45 253.78 366.68 251.32C364.89 250.07 363.26 248.92 361.78 247.89V242.29C362.17 241.87 362.55 241.46 362.94 241.04C363.85 240.99 364.77 240.94 365.63 240.9C365.72 240.46 365.89 240.01 365.82 239.96C363.73 238.52 361.62 237.08 359.47 235.74C359.08 235.5 358.46 235.7 357.9 235.7C357.71 233.3 354.52 231.52 357.05 228.88C358.48 228.7 359.86 228.53 361.24 228.36C361.85 229.02 362.66 229.89 363.16 230.43H365.59C366.47 233.03 367.36 235.69 368.45 238.93C369.66 236.62 370.57 234.9 371.47 233.19H375.13C375.84 233.96 376.5 234.67 376.64 234.82C377.33 236.48 377.74 237.46 378.44 239.14C379.06 236.85 379.49 235.29 379.91 233.75C380.31 231.35 383.62 231.83 383.84 228.66C386 229.25 387.68 227.85 389.75 226.81C390.15 227.41 390.86 228 390.98 228.7C391.27 230.37 391.13 232.2 390.13 233.52C388.83 235.25 387.39 237 385.18 237.46C383.67 237.78 382.25 238.24 381.33 239.75C382.85 240.17 384.31 240.57 385.66 240.94C387.18 242.94 387.03 245.22 386.96 247.5C385.81 249.35 383.79 249.51 381.7 250.24C382.38 251.13 382.75 252.12 383.36 252.33C386.66 253.5 389.48 255.23 391.25 258.94C390.89 260.51 390.53 262.08 390.22 263.48C388.35 264.54 387.59 263.09 386.83 262.3C385.89 262.59 385.06 262.84 384 263.17C383.85 262.17 383.73 261.38 383.64 260.75C382.8 260.18 382.04 259.68 381.19 259.11C381.98 256.16 380.32 254 379.23 251.31C378.34 254 378.35 257 376.32 258.26C375.11 258.62 374.39 258.83 373.02 259.24C372.09 259.21 370.34 257.12 369.39 254.01C366.65 255.01 367.48 257.92 366.41 259.99C365.82 260.2 364.91 260.37 364.18 260.86C363.71 261.18 363.52 261.97 363.17 262.64L363.15 262.62ZM374.51 239.05C374.89 238.64 375.17 238.33 375.45 238.03C375.08 237.25 374.72 236.47 374.42 235.83H372.4V237.97C373.14 238.34 373.85 238.71 374.5 239.04L374.51 239.05ZM380.6 242.82V248.33C381.17 247.73 381.86 247 382.88 245.91C382.827 244.35 382.067 243.32 380.6 242.82ZM367.33 247.81V243.3C366.57 243.84 365.66 244.49 364.92 245.01C365.313 246.597 366.117 247.53 367.33 247.81V247.81ZM374.95 249.65C375.88 248.81 376.6 248.17 377.18 247.65V243.05C375.03 242.1 372.91 240.52 370.57 243.31C371.41 245.19 369.59 247.72 371.88 249.66H374.96L374.95 249.65ZM372.07 252.69C372.49 253.87 372.86 254.93 373.29 256.13C373.82 255.58 374.06 255.21 374.4 255.02C374.78 254.81 375.24 254.76 375.73 254.61C375.13 252.54 374.09 251.99 372.07 252.68V252.69Z" fill="#E4E4E4"/>
<path d="M378.92 383.45C378.47 385.07 378.08 386.48 377.61 388.19C376.99 388.6 376.12 389.17 375.16 389.8H371.44C370.97 388.13 370.49 386.46 370.09 385.03C369.41 385.77 368.81 386.41 368.2 387.06L367.74 386.54C367.37 388.13 367 389.71 366.6 391.46L364.4 391.82C364.28 392.31 364.18 392.7 364.08 393.12C361.81 393.55 359.55 393.98 357.49 394.37C355.47 393.05 356.29 391.12 356.06 389.62C357.35 388.18 358.57 386.82 359.19 386.12C362.38 384.78 364.83 383.75 367.61 382.58C365.58 381.43 363.78 380.41 361.92 379.37V374.37C362.44 373.82 363.12 373.11 363.96 372.22H366.61C366.57 371.66 366.68 371.06 366.49 370.91C364.53 369.44 362.78 367.67 360.41 366.83C359.11 366.37 358.04 365.16 356.99 364.38V358.2C358.85 358.62 360.55 359 362.72 359.49C363 360.34 363.38 361.49 363.75 362.6C364.13 362.31 364.53 362.01 365.11 361.57C367.7 363.63 366.73 367.59 368.93 369.71C369.06 369.71 369.24 369.77 369.33 369.7C369.76 369.36 370.15 368.98 370.64 368.54C370.68 367.6 370.72 366.62 370.77 365.53C371.63 364.95 372.5 364.37 373.44 363.73C374.58 364.33 375.77 364.96 377.13 365.68C377.52 366.9 377.97 368.31 378.54 370.12C379.01 369.46 379.44 369.07 379.64 368.57C380.36 366.7 381.01 364.8 381.74 362.73C382.06 362.71 382.58 362.69 383.11 362.66C383.93 361.48 384.78 360.28 385.63 359.07C386.03 359.48 386.32 359.77 386.66 360.1C388.22 360.13 388.78 357.12 390.9 358.57V362.9C389.99 365.78 388.09 367.17 385.66 368.13C384.31 368.66 383.23 369.94 382.02 370.89C383.78 371.68 385.29 372.35 386.82 373.03V379.24C385.71 380.13 384.35 381.22 382.84 382.42C385.65 384.7 388.43 386.94 391.02 389.03V394.16C390.23 394.55 389.32 395 388.34 395.49C387.94 394.58 387.67 393.99 387.33 393.21C386.63 393.58 385.96 393.94 385.01 394.44C384.48 393.28 383.95 392.11 383.38 390.87C382.83 390.8 382.18 390.73 381.5 390.65C380.95 388.26 381.19 385.58 378.92 383.43V383.45ZM373.44 370.86C375.43 370.03 375.87 368.93 375.37 367.12C373.68 366.85 372.66 367.38 372.32 368.98C372.75 369.71 373.16 370.38 373.45 370.87L373.44 370.86ZM380.56 374.12V378.37C381.84 378.283 382.963 377.637 383.93 376.43C382.79 375.77 382.42 374.01 380.56 374.12ZM365.96 379.03C367.04 378.18 367.71 377.66 368.42 377.1C367.91 375.98 367.49 375.04 367.06 374.09C366.67 374.51 366.3 374.91 365.81 375.43C365.85 376.38 365.89 377.43 365.96 379.03V379.03ZM375.97 381.1C376.68 380.35 377.36 379.64 378.02 378.94C378.33 375.94 376.96 373.92 374.85 372.17C373.82 372.58 372.89 372.94 371.86 373.35C370.33 375.89 370.15 378.53 372.02 381.1H375.98H375.97ZM373.55 383.76C373.17 384.18 372.79 384.59 372.53 384.87C373.27 385.53 374.02 386.19 374.72 386.81L376.31 386.09V383.75H373.55V383.76Z" fill="#E4E4E4"/>
<path d="M363.83 326.14C363.19 326.72 362.9 327.75 362.44 328.61H357.04V323.74C359.56 320.5 363.76 319.39 367.45 316.3C365.49 315.55 364.25 315.07 362.94 314.56C361.04 309.89 361.43 311.1 362.86 306.89C364.12 306.79 365.4 306.68 367.61 306.5C365.71 305.05 364.6 304.05 363.36 303.29C362.13 302.54 360.99 301.44 359.81 300.91C358.37 300.28 357.92 299.21 357.33 298.03C356.91 297.19 356.5 296.35 355.95 295.24L357.4 293.46C358.71 293.86 359.93 294.23 361.7 294.77C362.1 295.31 362.85 296.33 363.57 297.32L364.87 296.05C365.46 296.52 366.07 297.01 366.64 297.46C366.6 300.25 366.54 302.94 369.3 304.28C369.54 304.05 369.71 303.97 369.73 303.86C369.82 303.31 369.87 302.74 369.96 301.96C370.82 301.15 371.82 300.2 373.14 298.95C374.14 299.02 375.82 298.22 376.73 299.58C377.26 301.44 377.66 302.84 378.13 304.48C379.99 302.47 380.87 300.52 380.4 298.16C382.5 297.07 384.31 296.14 385.81 295.36C387.22 296.88 388.44 298.2 389.83 299.7C388.46 301.08 387.1 303.13 384.27 303.44C383.31 303.54 381.3 304.04 381.25 306.45C383 307.3 385.45 306 386.93 308.59V312.58C385.97 313.05 384.95 313.55 383.88 314.08C384.11 314.69 384.35 315.34 384.63 316.1L382.01 316.8C382.13 317.4 382.1 317.8 382.25 317.91C382.77 318.29 383.33 318.76 383.92 318.83C386.57 319.18 388.42 320.85 390.15 323.02V325.53C389.52 326.11 388.83 326.75 387.63 327.86C387.17 328 385.99 328.35 384.64 328.74V325.56C383.01 325.04 381.2 325.19 381.12 322.41C381.08 320.99 379.61 319.61 379.12 318.78C377.41 318.18 376.34 317.54 375.26 317.5C374.35 317.47 373.42 318.13 372.4 318.52V320.71C374.22 320.89 376 321.26 377.99 320.11C377.72 321.07 377.44 322.03 377.17 323C375.31 323.96 373.58 324.113 371.98 323.46C370.83 322.1 371.05 319.64 368.66 318.96C367.87 320.88 367.08 322.8 366.19 324.95C365.61 325.22 364.56 325.49 363.82 326.16L363.83 326.14ZM373.55 304.86C374 304.56 374.32 304.34 374.64 304.14C375 303.93 375.37 303.73 376.01 303.36C374.88 302 374.12 300.91 372.53 301.71C371.98 303.15 372.37 304.19 373.54 304.86H373.55ZM380.86 308.52C380.46 310.06 379.99 311.58 379.68 313.14C379.58 313.63 379.93 314.23 380.07 314.78C380.98 314.29 381.06 313.61 381.42 313.24C381.98 312.67 382.74 312.31 383.03 312.12C382.88 310.36 382.8 309.42 382.73 308.52H380.86V308.52ZM367.25 313.02V308.38C365.94 308.66 365.09 309.11 365.01 310.5C364.92 312.06 365.71 312.75 367.25 313.02ZM375.29 315.42C375.87 314.8 376.53 314.08 377.06 313.5V309.7C376.36 308.94 375.79 308.32 375.27 307.76H371.76C371.32 308.28 370.97 308.7 370.75 308.97V314.29C371.1 314.67 371.38 314.97 371.79 315.42H375.28H375.29Z" fill="#E4E4E4"/>
<path d="M357.85 199.2C356.58 198.6 356.18 197.78 356.09 196.96C356 196.14 356.22 195.32 356.13 194.84C356.89 192.07 358.52 191.1 360.9 190.52C362.87 190.03 364.63 188.53 366.55 187.38C366.37 186.98 366.17 186.33 365.99 186.34C363.37 186.43 361.62 185.1 360.38 182.45L360.34 181.97L364.39 181.64L364.47 182.65C365.04 183.05 365.65 183.48 366.27 183.92C366.54 183.77 366.81 183.61 367.09 183.44C366.7 182.85 366.95 182.09 366.88 181.43L370.16 181.16L370.33 183.4C371.28 184.56 371.9 185.32 372.8 186.44C374.46 185.33 375.68 184.46 376.62 183.8L376.38 180.67L379.76 180.4C379.83 181.3 379.93 182.11 380.35 182.92C381.54 182.36 382.34 181.83 382.24 180.34C382.24 180.29 382.24 180.25 382.22 180.2L386.13 179.88L386.29 182.03C385.6 182.95 384.82 183.99 383.96 185.14C383.33 185.28 382.59 185.45 381.44 185.71C383.29 187.3 384.79 188.65 386.16 189.89L388.8 189.81C389.8 190.94 390.78 192.06 391.79 193.2C391.68 193.99 391.88 194.9 391.85 195.73C391.81 196.53 391.57 197.33 390.62 198.05C387.83 198.67 385.45 197.53 383.02 194.69C382.86 194.67 382.22 194.59 381.51 194.5C380.75 192.46 379.98 190.39 379.02 187.82C378.04 190.34 377.22 192.47 376.43 194.48C371.73 194.24 370.54 193.36 369.25 189.38C366.88 190.31 366.83 192.59 366.3 194.79C365.03 195.54 363.27 196.14 362.23 197.38C360.83 199.06 358.55 196.81 357.86 199.19L357.85 199.2ZM372.26 188.7L372.31 190.83C372.67 191.2 373.05 191.59 373.43 191.99C374.17 190.77 376.64 191.2 376.11 188.56L372.26 188.71V188.7Z" fill="#E4E4E4"/>
<path d="M380.37 441.54C380.47 442.45 380.43 443.25 380.43 444H377.04V441.98C375.96 441.3 374.98 440.69 373.92 440.03C372.83 440.74 371.76 441.43 370.79 442.06V444.01H360.95V442.03C362.42 441.02 364.02 439.92 365.56 438.85C364.06 437.83 362.57 436.63 360.39 436.3C358.8 436.05 357.43 434.13 356.68 433.52C355.14 430.2 355.12 427.51 355.23 425.74C355.86 424.48 356.18 423.84 356.61 422.98C357.88 424.21 358.83 425.13 360.04 426.3C360.48 425.59 360.93 424.86 361.37 424.15C362.82 425.56 364.08 426.78 365.54 428.19C366.2 430.55 366.95 433.22 367.86 436.48C369.71 434.56 371.15 433.08 372.69 431.48H375.34C375.66 431.98 376.19 432.82 376.73 433.65L377.28 433.35V437.55C378.84 437.54 379.4 436.72 379.63 435.51C379.89 434.17 379.97 432.72 380.49 431.5C381.4 429.41 382.59 427.44 383.67 425.39H390.74C391 425.66 391.38 426.07 391.79 426.53V432.02C390.5 433.07 389.06 434.25 387.23 435.74C384.71 435.49 382.41 436.6 381.51 440.12C381.83 439.88 382.15 439.64 382.51 439.38C382.73 439.6 383.02 439.88 383.3 440.15C383.57 439.88 383.86 439.61 384.07 439.4C384.98 439.99 385.86 440.56 386.81 441.17V444.01H382.88C382.86 442.7 382 442.26 380.36 441.55L380.37 441.54ZM374.27 439.45C374.71 438.91 375.07 438.49 375.32 438.18C375.07 437.16 374.82 436.18 374.53 435.04H371.59V438.05C372.49 438.52 373.37 438.98 374.27 439.44V439.45Z" fill="#E4E4E4"/>
<path d="M357.41 462.26C354.87 461.07 355.84 458.95 355.72 457.83C356.56 454.76 358.21 453.75 360.6 453.21C362.58 452.75 364.38 451.22 366.33 450.12C366.15 449.69 365.99 449.01 365.82 449.01C363.2 448.97 361.55 447.46 360.53 444.51V443.99H364.59V445.06C365.13 445.52 365.7 446.02 366.29 446.51C366.57 446.38 366.85 446.22 367.14 446.07C366.79 445.43 367.1 444.67 367.08 443.98H370.37V446.26C371.23 447.49 371.79 448.29 372.61 449.47C374.34 448.44 375.63 447.66 376.62 447.07V443.99H380.01C380.01 444.86 380.05 445.64 380.41 446.44C381.64 445.98 382.47 445.53 382.49 444.12C382.49 444.08 382.49 444.03 382.48 443.99H386.41V445.99C385.66 446.81 384.8 447.74 383.85 448.77C383.21 448.87 382.46 449 381.29 449.18C383.08 450.79 384.56 452.11 385.89 453.31H388.53C389.5 454.36 390.45 455.41 391.44 456.46C391.19 457.9 392.11 459.66 390.21 461.1C387.43 461.73 385.02 460.54 382.63 457.78C382.47 457.76 381.83 457.69 381.12 457.6C380.42 455.62 379.69 453.61 378.8 451.11C377.75 453.54 376.88 455.61 376.04 457.56C371.35 457.29 370.18 456.41 368.99 452.3C366.59 453.17 366.49 455.54 365.9 457.83C364.6 458.62 362.86 459.21 361.81 460.45C360.41 462.13 358.12 459.88 357.44 462.26H357.41ZM371.99 451.71V453.85C372.34 454.23 372.71 454.63 373.08 455.04C373.85 453.83 376.31 454.32 375.84 451.71H371.98H371.99Z" fill="#E4E4E4"/>
</g>
<defs>
<clipPath id="clip0_34_680">
<rect width="391.86" height="462.26" fill="white"/>
</clipPath>
</defs>
</svg>
