<svg width="390" height="461" viewBox="0 0 390 461" fill="none" xmlns="http://www.w3.org/2000/svg">
<g clip-path="url(#clip0_34_685)">
<path d="M27.22 385.31C27.05 389.68 23.76 391.47 21.12 393.25C15.18 397.26 9.22 395.38 3.52 392.03C3.07 391.77 2.57 391.38 2.35 390.91C1.83 389.78 0.939998 388.39 1.19 387.43C1.43 386.51 2.89 385.9 3.9 385.34C4.43 385.04 5.13 385.12 6.25 384.96C2.11 382.45 -0.180002 379.42 1.47 373.8C2.96 373.98 4.58 374.18 6.59 374.43C8.42 371.25 12.09 370.55 15.44 368.99C12.19 367.64 9.26 366.43 6.32 365.21L6.48 364.47C4.86 364.84 3.25 365.22 1.64 365.59C-0.780002 359.18 3.22 355.7 6.85 351.25C4.39 351.18 2.05 352.69 1.15 349.56C1.88 345.18 4.67 343.59 8.58 343.43C10.11 343.37 11.62 342.87 13.14 342.57C13.48 342.5 13.82 342.38 14.17 342.38C14.69 342.38 15.49 342.21 15.69 342.51C17.97 345.9 22.04 343.03 24.54 345.72C30.43 352.05 33.71 359.64 33.45 368.78C33.39 370.85 32.12 372.87 31.41 374.92C31.61 372.86 31.82 370.81 32.03 368.66C31.51 367.05 30.92 365.26 30.34 363.47C29.28 360.26 28.13 357.08 27.16 353.84C25.68 348.94 22.53 347.67 18.2 348.2C14.19 348.69 10.11 352.45 9.42 356.73C8.54 362.18 10.94 365.1 16.22 365.1C16.03 362.24 13.44 359.69 15.22 356.56C19.93 356.17 22.3 357.06 22.89 359.69C23.21 361.14 23.14 362.78 22.94 364.29C22.52 367.31 19.53 367.46 16.76 369.75C22.06 369.71 23.64 373.03 25.1 376.42C24.42 380.21 23.38 383.58 19.2 384.17C17.29 383.14 14.32 383.55 14.02 379.85C15.52 377.52 17.03 375.16 19.29 371.65C16.16 372.4 14.2 372.69 12.35 373.36C10.29 374.11 9.33 376.15 9.5 378.34C9.86 383.06 11.27 387.32 15.32 389.8C16.33 390.42 17.37 390.38 18.64 390.28C22.27 389.97 24.39 387 27.23 385.35L27.22 385.31Z" fill="#E4E4E4"/>
<path d="M1.34 187.06C-0.580001 183.04 -0.180001 179.89 0.959999 177.29C1.55 175.99 2.35 174.81 3.29 173.71C4.26 172.61 5.33 171.58 6.39 170.55C4.89 171.01 3.38 171.49 1.34 172.16L2.23 165.16C6.59 162.05 11.35 161.12 16.24 162.67C21.06 164.18 23.69 165.01 25.45 166.63C27.18 168.23 28.27 170.66 29.87 175.1C30.07 175.66 30.26 176.21 30.44 176.77C30.64 177.33 30.83 177.89 31.01 178.45C31.36 179.57 31.64 180.7 31.86 181.84C32.08 182.98 32.23 184.13 32.3 185.29C32.44 186.46 32.5 187.64 32.49 188.84C30.22 189.11 29.45 187.86 29.57 186.36C29.63 185.21 29.66 184.13 29.54 183.07C29.43 182.02 29.2 181 28.89 179.99C28.58 178.99 28.19 178 27.75 177.02L26.45 174.08C24.82 170.55 19.55 167.77 15.95 168.98C15.15 169.25 14.35 169.88 13.75 170.58C12.17 172.41 10.58 174.4 9.26 176.29C10.54 185.92 10.94 186.15 15.67 185.74C15.42 184.19 15.09 182.6 15.05 180.98C15.02 179.37 15.36 177.73 16.7 176.15C18.15 177.06 19.69 177.8 21.02 178.85C22.6 180.09 24.09 181.64 23.27 184C22.48 186.4 20.85 188.4 18.5 188.63C15.09 188.94 11.29 189.67 8.52 186.59C5.98 183.75 3.92 184.5 1.34 187.07V187.06Z" fill="#E4E4E4"/>
<path d="M1.19 440.71C2.08 435.78 5.67 434.31 9.6 433.93C12.31 433.66 15.09 434.31 17.84 434.52C18.48 434.57 19.15 434.59 19.78 434.5C23.94 433.88 27.48 435.48 29.22 439.54C31.83 445.63 33.73 451.98 32.06 459.25C31.1 455.92 30 452.98 29.44 449.91C29.08 447.93 28.1 446.52 27.35 444.85C24.96 439.49 20.14 440.37 16.22 438.98C15.85 438.85 15.27 439.38 14.81 439.64C12.16 441.11 9.18 446.95 9.42 450.19C9.71 454.06 12.59 456.66 16.54 456.42C16.19 453.86 15.83 451.31 15.42 448.31C17.15 447.73 18.67 446.67 20 446.91C21.57 447.19 23.61 447.95 23.94 450.17C24.3 452.59 24.62 455.13 22.52 457.12C19.65 459.83 14.11 460.47 10.85 458.22C9.39 457.21 7.98 456.08 6.32 454.83C5.31 455.52 4.18 456.3 3.19 456.97C-0.179999 455.5 1.34 448.48 6.04 442.71C4.66 441.15 2.05 445.11 1.18 440.72L1.19 440.71Z" fill="#E4E4E4"/>
<path d="M13.17 291.11L16.9 284.15C15.06 284.49 12.82 284.9 10.64 285.3C8.52 290.41 9.21 296.46 12.31 299.1C16.21 302.42 22.84 302.49 26.19 296.05C28.06 292.46 28.95 288.26 30.34 284.36C30.68 283.4 31.27 282.55 32.06 281.85C30.78 291.65 28.41 300.81 20.75 306.26C18.87 306.47 17.41 306.5 16 306.81C11.49 307.81 7.35 306.34 3.52 304.1C2.26 303.36 1.3 301.06 1.08 299.34C0.750001 296.79 3.12 296.73 4.66 296.04C0.970001 292.49 0.700001 291.68 1.26 285.28C2.35 285.16 3.52 284.92 4.67 284.94C6.02 284.97 6.68 284.03 7.66 283.24C11.68 280.04 16.3 281.1 20.71 281.99C22.35 282.32 24.53 286.58 24.11 289.88C23.7 293.13 21.35 294.24 19.1 295.13C16.53 296.15 14.81 294.48 13.17 291.13V291.11Z" fill="#E4E4E4"/>
<path d="M16.5 276.53C16.08 275.46 15.85 274.72 15.51 274.06C14.48 272.09 13.72 269.72 15.7 268.4C17.14 267.44 19.36 267.49 21.15 267.77C21.91 267.89 22.79 269.65 23.01 270.8C23.33 272.45 23.09 274.24 23.09 276.11C20.45 278.02 18.28 280.64 14.76 279.8C11.74 279.08 8.51 278.92 6.61 275.44C4.8 275.8 3.16 276.12 1.27 276.5C0.4 271.4 1.19 267.08 5.68 263.53C3.76 263.03 2.51 262.71 1.1 262.34V257.88C10.73 250.75 17.79 253.14 26.05 259.69C30.34 263.1 30.72 268.42 32.36 273.12C32.96 274.85 33.17 277.15 31.32 279.71C30.86 278.06 30.33 277.11 30.38 276.19C30.66 270.98 27.76 267.16 25.64 263.1C24.23 260.4 17.48 259.15 14.75 260.53C13.64 261.09 12.56 261.71 11.32 262.38C10.43 264.72 9.51 267.17 8.4 270.08C10.88 272.19 11.88 276.75 16.53 276.55L16.5 276.53Z" fill="#E4E4E4"/>
<path d="M22.87 201.85C20.68 203.81 18.33 204.86 15.99 203.28C13.58 201.65 14.76 198.82 14.73 196.44C16.1 195.72 17.3 195.09 20.03 193.66C18.56 193.04 17.9 192.46 17.3 192.54C15.11 192.83 12.92 193.28 10.79 193.89C10.27 194.04 9.62 194.99 9.58 195.61C9.4 198.48 9.04 201.4 10.51 204.07C11.57 206 12.57 207.97 13.66 210.03C20.43 211.77 23 210.08 26.49 203.52C28.2 200.31 28.14 196.46 30.29 193.58C30.84 192.92 31.26 192.16 32.03 191.59L31.09 196.13C30.74 197.69 30.35 199.22 29.89 200.73C28.98 203.75 27.86 206.68 26.5 209.46C24.88 212.77 22.1 215.23 17.73 215.14C13.42 215.05 9.14 216.25 5.06 213.67C2.25 211.89 2.17 211.95 0.0100021 207.37C1.72 206.68 3.35 206.02 4.99 205.36C0.270002 198.39 0.220002 199.05 1.58 193.34C2.91 194.25 4.15 194.51 5.37 194.34C6.58 194.17 7.79 193.51 9.11 192.4C12.49 189.6 16.42 189.45 20.28 191.86C23.26 193.7 23.97 195.04 23.18 199.14C23 200.07 22.95 201.03 22.86 201.83L22.87 201.85Z" fill="#E4E4E4"/>
<path d="M35.74 111.22C37.65 108.6 39.47 106.35 42.77 107.56V104.8C40.48 104.52 38.27 104.27 35.78 104.03C33.48 105.87 30.95 107.85 30.15 111.11C29.92 112.06 29.75 113.02 29.68 113.97C29.62 114.92 29.69 115.86 29.86 116.73C30.2 118.47 31.02 119.94 32.5 120.85C35.13 122.46 38.71 123.46 41.96 121.54C43.4 120.65 44.94 119.76 46.4 118.8C47.88 117.86 49.36 116.89 50.9 115.95C49.55 120 46.49 122.21 43.23 124.44C36.49 128.82 30.75 126.56 25.14 122.81C23.42 121.67 22.2 119.78 20.85 118.14C19.32 116.31 19.22 114.07 20.54 111.27C22 110.98 23.56 110.72 25.14 110.48C23.91 102.91 24.25 101.61 28.64 99.16C29.37 100.02 30.15 100.92 30.78 101.67C33.5 101.65 36.03 101.39 38.39 101.79C42.72 102.53 45.24 104.15 46.12 106.47C46.56 107.63 46.58 108.98 46.18 110.5C45.99 111.27 45.67 112.07 45.29 112.94C44.93 113.82 44.46 114.76 43.9 115.75C37.99 117.48 36.81 117.1 35.72 111.22H35.74Z" fill="#E4E4E4"/>
<path d="M34.21 415.45C34.67 418.53 34.69 421.85 33.81 425.21C33.35 426.97 33.78 428.8 33.68 430.59C33.64 431.28 33.43 432.03 32.96 432.65C32.69 433 31.77 433.25 31.08 433.37C30.52 433.47 29.91 433.2 30.23 432.73C31.78 430.46 30.87 428.22 30.67 425.95C30.48 423.75 30.78 421.51 31.1 419.29C31.54 416.27 31.57 413.28 31.27 410.27C31.08 408.36 31.23 406.42 31.13 404.5C30.92 400.78 30.63 397.06 30.38 393.34C30.37 393.12 30.32 392.91 30.32 392.7C30.35 391.74 30.97 391.13 32.03 391.05C33.52 390.94 33.71 391.76 33.77 392.32C33.99 394.1 34.08 395.89 33.97 397.68C33.93 398.24 33.68 398.74 34.07 399.31C34.36 399.74 34.27 400.28 34.3 400.78C34.43 403.08 34.63 405.37 34.62 407.67C34.61 409.46 34.28 411.25 34.15 413.04C34.1 413.76 34.18 414.48 34.21 415.45V415.45Z" fill="#E4E4E4"/>
<path d="M29.78 321.44C29.3 318.35 29.25 315.04 30.11 311.68C30.56 309.92 30.11 308.09 30.2 306.29C30.23 305.6 30.44 304.85 30.9 304.23C31.16 303.88 32.08 303.64 32.77 303.53C33.33 303.44 33.94 303.7 33.62 304.17C32.09 306.43 33.02 308.67 33.23 310.95C33.44 313.15 33.16 315.39 32.85 317.61C32.43 320.63 32.42 323.62 32.74 326.63C32.95 328.54 32.8 330.48 32.93 332.4C33.17 336.12 33.48 339.85 33.76 343.57C33.78 343.79 33.83 344 33.82 344.21C33.8 345.17 33.18 345.78 32.12 345.84C30.63 345.94 30.44 345.12 30.37 344.56C30.14 342.78 30.03 340.99 30.13 339.2C30.16 338.64 30.41 338.14 30.01 337.57C29.72 337.14 29.8 336.6 29.77 336.1C29.63 333.8 29.4 331.51 29.4 329.21C29.4 327.42 29.71 325.63 29.83 323.84C29.88 323.12 29.79 322.4 29.76 321.43L29.78 321.44Z" fill="#E4E4E4"/>
<path d="M33.47 231.22C33.95 228.13 34 224.82 33.14 221.46C32.69 219.7 33.14 217.87 33.05 216.07C33.02 215.38 32.81 214.63 32.35 214.01C32.09 213.66 31.17 213.42 30.48 213.31C29.92 213.22 29.31 213.48 29.63 213.95C31.16 216.21 30.23 218.45 30.02 220.73C29.81 222.93 30.09 225.17 30.4 227.39C30.82 230.41 30.83 233.4 30.51 236.41C30.3 238.32 30.45 240.26 30.32 242.18C30.08 245.9 29.77 249.63 29.49 253.35C29.47 253.57 29.42 253.78 29.43 253.99C29.45 254.95 30.07 255.56 31.13 255.62C32.62 255.72 32.81 254.9 32.88 254.34C33.11 252.56 33.22 250.77 33.12 248.98C33.09 248.42 32.84 247.92 33.24 247.35C33.53 246.92 33.45 246.38 33.48 245.88C33.62 243.58 33.85 241.29 33.85 238.99C33.85 237.2 33.54 235.41 33.42 233.62C33.37 232.9 33.46 232.18 33.49 231.21L33.47 231.22Z" fill="#E4E4E4"/>
<path d="M34.71 151.07C34.05 152.38 33.65 153.82 33.32 155.31C33.01 156.8 32.86 158.37 32.92 159.98C33.04 161.67 32.33 163.26 32.11 164.92C32.03 165.56 32.11 166.28 32.46 166.92C32.66 167.28 33.53 167.65 34.19 167.86C34.73 168.03 35.37 167.89 35.13 167.42C33.98 165.14 35.26 163.26 35.83 161.27C36.46 159.35 36.67 157.31 36.81 155.26C36.86 154.56 36.94 153.87 37.04 153.19C37.15 152.51 37.33 151.84 37.51 151.18C37.87 149.85 38.32 148.55 38.85 147.27C39.49 145.63 39.94 143.92 40.62 142.3C41.29 140.73 41.93 139.16 42.64 137.61L44.91 133.04C45 132.86 45.12 132.7 45.18 132.52C45.48 131.7 45.11 130.95 44.16 130.48C42.82 129.82 42.37 130.45 42.11 130.91C41.3 132.36 40.58 133.87 40.06 135.45C39.9 135.95 39.96 136.46 39.39 136.82C38.99 137.1 38.91 137.61 38.73 138.04C37.91 140.02 37.01 141.98 36.32 144.01C35.84 145.61 35.7 147.31 35.36 148.95C35.22 149.61 34.96 150.23 34.67 151.09L34.71 151.07Z" fill="#E4E4E4"/>
<path d="M99.94 55.55C96.51 57.81 93.15 56.08 90.19 55.05C83.51 52.76 81.15 47 80.63 40.21C80.59 39.68 80.63 39.04 80.92 38.56C81.61 37.43 82.32 35.83 83.32 35.42C84.28 35.04 85.65 35.85 86.72 36.33C87.28 36.58 87.61 37.21 88.38 38.03C88.28 35.52 88.68 33.42 89.81 31.63C90.38 30.74 91.15 29.94 92.14 29.25C93.14 28.56 94.36 27.95 95.91 27.56C96.51 28.94 97.15 30.43 97.96 32.29C101.82 32.18 104.27 35 107.28 37.13C106.87 33.61 106.56 30.4 106.34 27.25L107.12 27.04L103.78 23.31C106.32 20.66 108.92 19.73 111.59 19.71C114.29 19.75 117.03 20.6 119.9 21.3C119 19.01 116.55 17.54 119.31 15.32C124.05 14.22 126.64 16.21 128.18 19.8C128.79 21.2 129.81 22.42 130.63 23.73C130.82 24.02 131.05 24.3 131.17 24.62C131.36 25.1 131.79 25.79 131.58 26.09C129.24 29.47 133.35 32.22 131.84 35.5C128.34 43.16 123.62 49 116.25 52.74C114.6 53.62 112.36 53.44 110.36 53.77L115.65 51.45C116.66 50.22 117.86 48.99 119.06 47.71C120.14 46.55 121.22 45.38 122.3 44.22C123.41 43.07 124.57 42.01 125.76 40.92C129.34 37.63 129.35 34.32 127.2 30.5C125.22 26.9 120.1 24.77 115.7 25.99C114.3 26.35 113.18 26.94 112.3 27.59C111.42 28.25 110.78 29.01 110.39 29.85C109.61 31.54 109.85 33.57 111.09 35.9C112.32 35.16 113.21 33.92 114.26 32.88C115.31 31.84 116.5 30.97 118.34 31.15C119.52 33.2 120.16 34.85 120.25 36.19C120.34 37.52 119.88 38.54 118.89 39.4C117.78 40.33 116.35 40.99 114.95 41.47C112.15 42.41 110.63 39.9 107.28 38.62C109.92 43.24 107.87 46.16 105.88 49.1C102.48 50.48 99.18 51.34 96.35 48.22C96.12 46.06 94.13 43.84 97.14 41.55H101.51C103.06 41.53 104.85 41.66 106.91 41.76C104.69 39.42 103.44 37.88 101.91 36.63C101.05 35.93 100.04 35.65 99 35.69C97.98 35.77 96.95 36.2 96.03 36.89C94.07 38.39 92.3 39.97 91.15 41.89C90 43.81 89.38 45.93 89.55 48.3C89.63 49.48 90.28 50.3 91.11 51.26C93.51 54.01 97.09 54.07 99.96 55.51L99.94 55.55Z" fill="#E4E4E4"/>
<path d="M289.47 24.91C291.66 25.04 293.45 25.52 294.9 26.22C296.37 26.9 297.43 27.96 298.32 29.08C300.06 31.38 300.97 34.14 301.81 36.99C302.1 35.44 302.38 33.87 302.7 31.79C305.05 33.35 306.68 34.58 308.48 35.84C309.27 41.09 307.88 45.76 304.25 49.38C300.68 52.97 298.76 54.87 296.48 55.74C294.21 56.62 291.63 56.34 286.93 55.74C284.54 55.5 282.24 55.07 280.04 54.38C277.82 53.72 275.62 52.92 273.54 51.73C274.35 49.59 275.8 49.5 277.07 50.32C278.03 50.94 279.02 51.41 280.02 51.77C281.03 52.12 282.01 52.44 283.04 52.63C285.09 53.03 287.23 53.11 289.42 53.17C293.28 53.39 298.16 50.01 298.76 46.25C298.89 45.41 298.7 44.41 298.37 43.54C297.53 41.22 296.38 39.07 295.36 36.95C293.07 36.11 291.38 35.45 290.01 35.11C288.64 34.77 287.68 34.64 286.94 34.74C285.47 34.94 284.93 36.07 284.01 38.28C285.47 38.84 287.11 39.15 288.55 39.87C289.98 40.61 291.27 41.69 292.04 43.63C290.57 44.49 289.2 45.5 287.67 46.19C285.83 47.02 283.83 47.54 282.05 45.82C280.27 44.04 279.3 41.59 280.17 39.42C281.47 36.24 282.58 32.52 286.56 31.53C290.23 30.63 290.52 28.44 289.45 24.93L289.47 24.91Z" fill="#E4E4E4"/>
<path d="M41.55 75.4C45.57 71.7 49.32 72.78 52.61 75.02C54.87 76.55 56.57 78.84 58.55 80.75C59.01 81.2 59.51 81.64 60.06 81.97C61.86 83.07 63.17 84.48 63.92 86.12C64.68 87.77 64.89 89.65 64.41 91.68C64.06 93.21 63.63 94.67 63.19 96.15C62.77 97.64 62.28 99.08 61.66 100.46C60.35 103.19 58.83 105.87 56.3 108.22L57.44 103.74C57.63 103.02 57.82 102.3 58.04 101.6C58.28 100.91 58.55 100.24 58.85 99.58C59.62 97.88 59.59 96.23 59.9 94.5C60.13 93.1 60.11 91.96 59.84 90.92C59.57 89.89 59.08 88.98 58.48 88.13C57.28 86.43 55.64 84.99 54.53 83.23C54.32 82.9 53.54 82.96 53.01 82.88C51.52 82.66 49.21 83.24 47.11 84.32C45.04 85.42 43.11 86.96 42.23 88.41C41.15 90.12 40.93 92 41.36 93.64C41.79 95.28 42.91 96.7 44.64 97.67C45.19 96.49 45.73 95.31 46.3 94.09C46.89 92.87 47.57 91.64 48.27 90.28C50.03 90.8 51.87 90.83 52.81 91.8C53.93 92.94 55.16 94.73 54.19 96.66C53.93 97.19 53.66 97.71 53.36 98.22C53.08 98.73 52.78 99.23 52.41 99.67C51.68 100.55 50.72 101.22 49.32 101.47C45.49 102.13 40.36 99.86 38.86 96.17C38.19 94.51 37.64 92.76 36.96 90.74C35.71 90.81 34.31 90.9 33.09 90.97C32.11 89.41 32.94 87.17 35.01 85.08C37.15 83.04 40.38 81.07 44.1 80.05C44.04 77.89 39.31 79.69 41.56 75.41L41.55 75.4Z" fill="#E4E4E4"/>
<path d="M181.81 12.6L185.43 14.18L189.03 15.97C188.62 14.14 188.13 11.92 187.64 9.75003C184.95 8.70003 182.02 8.66003 179.46 9.12003C178.18 9.37003 177 9.77003 176 10.31C175 10.89 174.17 11.64 173.59 12.49C170.63 16.81 171.67 23.32 178.06 25.94C179.85 26.74 181.73 27.29 183.63 27.78C184.58 28.03 185.53 28.24 186.47 28.5C187.42 28.79 188.35 29.08 189.27 29.41C190.17 29.73 190.97 30.29 191.63 31.07C190.5 30.94 189.38 30.79 188.27 30.62C187.16 30.44 186.06 30.23 184.97 30.08C182.8 29.73 180.69 29.23 178.65 28.52C176.61 27.82 174.67 27.08 172.82 25.96C170.97 24.88 169.22 23.46 167.61 21.79C167.12 19.97 166.86 18.53 166.33 17.2C165.48 15.06 165.24 12.91 165.45 10.76C165.56 9.69003 165.77 8.61003 166.08 7.55003C166.39 6.51003 166.79 5.47003 167.25 4.45003C167.85 3.11003 170.21 1.84003 172.05 1.38003C174.77 0.700027 175.09 3.04003 175.98 4.53003C177.7 2.55003 178.8 1.47003 180.34 0.890027C181.11 0.600027 181.98 0.440027 183.11 0.350027C183.67 0.310027 184.29 0.270027 184.99 0.280027L187.34 0.380027C187.51 1.47003 187.81 2.62003 187.83 3.78003C187.85 5.13003 188.87 5.76003 189.72 6.73003C193.17 10.66 192.05 15.32 191.29 19.74C191.14 20.57 190.04 21.55 188.6 22.28C187.88 22.65 187.07 22.95 186.24 23.14C185.41 23.34 184.57 23.49 183.78 23.43C180.65 23.25 179.38 21 178.29 18.82C177.04 16.34 178.51 14.5 181.82 12.6H181.81Z" fill="#E4E4E4"/>
<path d="M196.66 15.47C197.73 15.08 198.49 14.87 199.16 14.54C201.17 13.59 203.64 12.81 204.85 14.92C205.73 16.43 205.53 18.64 205.16 20.41C205 21.16 203.25 21.89 202.12 22.11C200.51 22.39 198.8 22.11 196.99 22.06C195.19 19.33 192.55 17.24 193.36 13.7C194.08 10.67 194.2 7.38001 197.92 5.59001C197.56 3.77001 197.23 2.12001 196.86 0.220013C199.64 -0.149987 202.22 -0.0999873 204.54 0.620013C206.85 1.43001 208.9 2.92001 210.59 5.30001C211.29 3.43001 211.75 2.21001 212.26 0.840013C213.15 0.920013 214 0.960013 214.8 1.05001L217.09 1.34001C220.39 6.61001 220.94 10.89 219.87 14.79C218.78 18.68 216.04 22.2 212.53 25.91C210.7 27.86 208.57 28.92 206.34 29.57C205.23 29.91 204.09 30.14 202.96 30.41C201.83 30.72 200.7 31.02 199.61 31.4C198.81 31.68 197.89 31.86 196.87 31.73C195.86 31.61 194.75 31.13 193.57 30.26C195.08 29.73 195.98 29.29 196.82 29.35C199.23 29.56 201.33 28.95 203.36 28.05C205.38 27.25 207.32 26.14 209.34 25.22C210.68 24.61 211.82 22.65 212.51 20.5C213.2 18.37 213.42 16 212.86 14.57C212.4 13.43 211.88 12.3 211.3 11.01C208.97 9.96001 206.5 8.79001 203.51 7.53001C201.17 9.95001 196.47 10.83 196.65 15.49L196.66 15.47Z" fill="#E4E4E4"/>
<path d="M266.55 37.54C265.74 34.77 265.72 32.18 268.12 30.7C270.61 29.19 272.78 31.39 274.91 32.52C274.94 34.08 274.98 35.45 274.98 38.51C276.22 37.47 277.04 37.14 277.25 36.57C277.99 34.5 278.61 32.37 279.03 30.2C279.13 29.67 278.55 28.64 277.98 28.31C275.43 26.74 272.76 25.18 269.63 25.37L266.25 25.56C265.12 25.62 263.94 25.75 262.77 25.86C260.68 28.67 259.82 30.85 260.02 33C260.12 34.07 260.49 35.14 261.11 36.29C261.71 37.47 262.55 38.75 263.61 40.19C264.64 41.61 265.99 42.63 267.24 43.76C268.47 44.92 269.64 46.1 270.33 47.66C270.67 48.43 271.16 49.13 271.32 50.06C270.14 49.18 268.98 48.27 267.86 47.3C266.76 46.32 265.66 45.34 264.56 44.36C263.47 43.37 262.42 42.34 261.41 41.26C260.9 40.72 260.4 40.17 259.91 39.61C259.41 39.07 258.92 38.53 258.43 37.97C256.14 35.33 254.89 31.85 256.49 27.78C258.11 23.79 258.37 19.29 262.37 16.48C265.16 14.56 265.11 14.45 270.6 14.31C270.62 16.19 270.63 17.98 270.62 19.78C274.97 19.15 277.07 18.8 278.66 19.05C280.23 19.36 281.32 20.29 283.75 22.29C280.84 23.83 280.37 26.09 281.13 29.38C282.1 33.6 280.42 37.15 276.47 39.52C273.4 41.38 271.99 41.4 268.79 38.91C268.05 38.38 267.23 37.96 266.56 37.55L266.55 37.54Z" fill="#E4E4E4"/>
<path d="M340.95 90.37C341.64 91.84 342.35 93.19 342.49 94.52C342.63 95.85 342.28 97.1 340.98 98.3L343.42 99.58C344.73 97.66 345.96 95.81 347.31 93.71C346.74 90.82 346.1 87.69 343.6 85.46C342.86 84.82 342.1 84.22 341.27 83.74C340.44 83.27 339.58 82.88 338.73 82.64C337.03 82.14 335.35 82.19 333.87 83.09C331.24 84.68 328.7 87.42 328.91 91.19C329.03 92.89 329.17 94.63 329.32 96.39C329.48 98.14 329.66 99.91 329.78 101.7C328.3 100.15 327.41 98.47 326.84 96.66C326.7 96.21 326.58 95.75 326.48 95.28C326.36 94.82 326.26 94.36 326.17 93.89C325.99 92.95 325.86 91.98 325.76 90.99C325.56 89 325.71 87.24 326.13 85.67C326.54 84.12 327.2 82.77 328.11 81.56C329.9 79.14 332.58 77.3 335.5 75.68C337.29 74.68 339.58 74.43 341.64 73.99C343.97 73.47 346 74.41 347.87 76.88C347.43 78.33 347 79.8 346.48 81.32C353.74 83.72 354.78 84.58 354.93 89.62C353.83 89.88 352.67 90.15 351.72 90.37C350.49 92.8 349.56 95.17 348.11 97.08C345.46 100.59 342.87 102.09 340.41 101.8C337.92 101.52 335.71 99.36 333.18 95.57C334.36 89.51 335.25 88.64 340.95 90.38V90.37Z" fill="#E4E4E4"/>
<path d="M82.87 78.57C82.45 79.13 81.99 79.68 81.51 80.22C81.04 80.77 80.56 81.32 80.03 81.83C78.98 82.87 77.79 83.81 76.41 84.61C75.68 85.02 75.13 85.62 74.63 86.27C74.12 86.91 73.65 87.59 73.08 88.18C72.64 88.63 72.04 89.01 71.31 89.13C70.9 89.2 70.04 88.78 69.44 88.41C68.95 88.11 68.65 87.54 69.18 87.42C71.74 86.85 72.36 84.68 73.63 82.98C74.9 81.38 76.55 80.08 78.18 78.83C79.27 77.95 80.4 77.13 81.4 76.18C82.42 75.25 83.37 74.25 84.27 73.18C85.42 71.83 86.91 70.82 88.17 69.57C90.57 67.1 93.16 64.85 95.7 62.49C95.85 62.35 95.97 62.19 96.13 62.07C96.86 61.55 97.7 61.74 98.38 62.55C99.34 63.69 98.85 64.27 98.48 64.62C97.34 65.79 96.13 66.87 94.79 67.78C94.37 68.07 93.85 68.15 93.69 68.77C93.57 69.23 93.12 69.47 92.79 69.76C91.3 71.21 89.87 72.73 88.29 74.07C87.04 75.09 85.68 76 84.41 77.01C83.9 77.42 83.49 77.93 82.87 78.55V78.57Z" fill="#E4E4E4"/>
<path d="M155.18 33.51C156.52 32.96 157.94 32.49 159.43 32.18C160.18 32.03 160.93 31.89 161.71 31.86C162.49 31.83 163.29 31.86 164.09 31.93C165.77 32.09 167.36 31.35 169.01 31.14C169.65 31.04 170.36 31.18 171 31.56C171.36 31.78 171.71 32.66 171.91 33.33C172.07 33.88 171.91 34.51 171.45 34.25C170.32 33.6 169.28 33.63 168.28 33.89C167.28 34.14 166.31 34.6 165.31 34.89C164.34 35.17 163.35 35.32 162.33 35.42C161.32 35.55 160.31 35.65 159.29 35.72C156.52 35.93 153.83 36.49 151.3 37.61C149.68 38.29 147.94 38.61 146.3 39.23L141.62 41.24L139.29 42.25L137.01 43.38C136.83 43.47 136.67 43.59 136.49 43.65C135.67 43.95 134.94 43.58 134.49 42.62C133.85 41.27 134.49 40.81 134.94 40.56C136.39 39.76 137.88 38.98 139.49 38.59C139.99 38.45 140.51 38.54 140.88 38C141.16 37.59 141.67 37.51 142.09 37.34L145.05 36.09C146.04 35.68 147.06 35.37 148.09 35.07C149.69 34.62 151.38 34.46 153 34.12C153.65 33.97 154.29 33.77 155.15 33.52L155.18 33.51Z" fill="#E4E4E4"/>
<path d="M237.11 38.07C239.67 39.32 242.55 40.09 245.68 40.32C247.34 40.41 248.77 41.36 250.35 41.8C250.95 42 251.65 42.06 252.34 41.84C252.73 41.71 253.27 40.93 253.61 40.33C253.89 39.84 253.88 39.18 253.36 39.32C250.89 39.94 249.24 38.47 247.3 37.58C245.43 36.73 243.38 36.3 241.31 36.08C238.5 35.75 235.88 34.9 233.23 34.03C231.55 33.43 229.78 33.17 228.07 32.65L223.05 31.34C221.37 30.9 219.7 30.41 218 30.09C217.8 30.05 217.61 29.97 217.41 29.95C216.52 29.86 215.88 30.4 215.69 31.44C215.41 32.9 216.13 33.19 216.62 33.33C217.41 33.54 218.2 33.73 219 33.87C219.8 34.02 220.6 34.2 221.4 34.28C221.91 34.34 222.4 34.18 222.84 34.66C223.17 35.02 223.67 35.02 224.11 35.13L227.14 35.91C228.14 36.22 229.14 36.51 230.15 36.74C231.73 37.1 233.38 37.16 235 37.41C235.64 37.54 236.25 37.81 237.08 38.08L237.11 38.07Z" fill="#E4E4E4"/>
<path d="M306.03 71.12C304.16 68.9 301.88 66.76 298.91 65.46C297.34 64.8 296.28 63.4 294.91 62.44C294.38 62.07 293.72 61.8 292.98 61.82C292.56 61.84 291.83 62.45 291.33 62.95C290.93 63.35 290.76 63.98 291.3 63.97C293.85 64.01 294.91 66.04 296.4 67.48C297.88 68.84 299.55 70.03 301.3 71.11C302.47 71.87 303.62 72.65 304.63 73.59C305.64 74.53 306.58 75.54 307.46 76.61C308.02 77.29 308.65 77.91 309.29 78.52C309.92 79.14 310.51 79.79 311.08 80.46L314.31 84.43C315.35 85.78 316.32 87.19 317.33 88.55C317.45 88.71 317.53 88.89 317.67 89.03C318.26 89.68 319.09 89.69 319.95 89.07C321.15 88.18 320.8 87.49 320.52 87.05C319.61 85.65 318.6 84.32 317.44 83.13C317.08 82.75 316.59 82.58 316.5 81.93C316.44 81.44 316.02 81.13 315.73 80.78C314.34 79.14 313.06 77.4 311.53 75.89C310.32 74.74 308.89 73.81 307.6 72.75C307.08 72.32 306.66 71.8 306.03 71.14V71.12Z" fill="#E4E4E4"/>
<path d="M360.86 172.94C360.68 170.89 361.36 169.33 362.38 168C363.36 166.68 364.65 165.6 365.81 164.52C370.97 159.64 377.13 160.21 383.39 162.88C383.88 163.09 384.45 163.42 384.76 163.89C385.47 165.02 386.52 166.4 386.41 167.47C386.3 168.5 384.93 169.34 384.01 170.07C383.53 170.45 382.82 170.45 381.73 170.76C383.93 171.84 385.79 173.14 386.81 174.98C387.84 176.81 388.18 179.18 387.58 182.27C386.08 182.16 384.45 182.05 382.42 181.9C382.03 182.77 381.51 183.47 380.89 184.07C380.25 184.67 379.53 185.15 378.76 185.59C377.22 186.45 375.48 187.1 373.83 187.94C377.11 189.2 380.08 190.4 383.04 191.66L382.9 192.45C384.51 192.03 386.11 191.62 387.71 191.21C388.03 192.07 388.26 192.9 388.39 193.68C388.51 194.4 388.53 195.08 388.49 195.73C388.4 197.03 388.01 198.2 387.44 199.32C386.29 201.55 384.38 203.53 382.57 205.76C385.03 205.83 387.37 204.32 388.27 207.45C387.54 211.83 384.75 213.42 380.84 213.58C379.31 213.64 377.8 214.14 376.28 214.44C375.94 214.51 375.6 214.63 375.25 214.63C374.73 214.63 373.93 214.8 373.73 214.5C371.45 211.11 367.38 213.98 364.88 211.29C361.94 208.12 359.64 204.64 358.12 200.81C357.36 198.89 356.79 196.89 356.43 194.8C356.26 193.71 356.09 192.77 355.99 191.78C355.89 190.79 355.84 189.77 355.85 188.73C355.87 186.85 357.11 184.95 357.64 183.03C357.62 184.93 357.45 186.82 357.28 188.8C357.84 190.28 358.47 191.91 359.09 193.55C360.16 196.74 361.3 199.93 362.27 203.17C363.75 208.07 366.9 209.34 371.23 208.81C375.24 208.32 379.32 204.56 380.01 200.28C380.45 197.56 380.07 195.46 378.92 194.05C377.75 192.61 375.8 191.87 373.17 191.9C373.45 194.77 375.98 197.31 374.22 200.45C369.51 200.84 367.14 199.95 366.55 197.32C366.21 195.88 366.32 194.2 366.48 192.75C366.82 189.83 369.81 189.64 372.52 187.25C369.87 187.36 368.13 186.61 366.86 185.46C365.6 184.31 364.67 182.74 363.83 181.18C364.03 179.35 364.33 177.6 365.09 176.18C365.79 174.76 366.96 173.66 369 173.13C370.01 173.52 371.25 173.54 372.32 173.92C373.39 174.3 374.34 175.04 374.61 176.9C373.28 179.4 372.01 181.89 369.94 185.47C373.06 184.58 374.99 184.18 376.78 183.4C378.78 182.52 379.58 180.33 379.24 178.07C379.05 176.85 378.82 175.67 378.46 174.55C378.07 173.44 377.6 172.39 377.02 171.44C375.87 169.53 374.3 168 372.13 167.05C371.05 166.58 370.03 166.77 368.79 167.07C365.24 167.93 363.5 171.09 360.88 172.97L360.86 172.94Z" fill="#E4E4E4"/>
<path d="M388.23 369.36C392.13 376.61 388.12 380.68 384.47 384.99C385.9 384.39 387.34 383.79 389.28 382.98V389.43C385.42 392.81 380.97 394.52 375.87 393.84C365.84 392.51 364.96 392.26 360.61 383.2C358.43 378.66 357.11 373.82 357.06 368.58C359.32 368.22 360.12 369.54 360.04 371.15C359.79 376.07 361.85 379.99 364.13 383.87C366.19 387.38 371.77 389.35 375.18 387.67C375.94 387.3 376.65 386.58 377.16 385.84C378.52 383.88 379.76 381.81 380.98 379.9C378.92 370.84 378.68 370.53 373.94 371.15C374.44 374.21 376 377.34 373.58 380.71C372.07 379.95 370.47 379.35 369.06 378.4C367.39 377.28 365.78 375.78 366.43 373.28C367.08 370.75 368.72 368.65 371.04 368.36C374.44 367.93 378.22 367.19 381.07 370.03C383.68 372.64 385.72 371.78 388.23 369.35V369.36Z" fill="#E4E4E4"/>
<path d="M370.13 111.95C371.54 117.24 368.9 120.06 365.4 121.95C363 123.26 360.2 123.71 357.58 124.6C356.97 124.81 356.35 125.04 355.8 125.38C352.22 127.55 348.31 127.5 345.17 124.79C342.87 122.72 340.51 120.7 338.63 118.32C338.16 117.73 337.72 117.11 337.3 116.47C336.86 115.84 336.44 115.2 336.06 114.51C335.29 113.15 334.66 111.66 334.19 110C335.38 111.06 336.53 112.08 337.64 113.07C338.75 114.07 339.83 115.07 340.7 116.22C341.85 117.69 343.33 118.41 344.72 119.48C345.84 120.33 346.92 120.82 347.94 121.06C348.98 121.3 350.01 121.28 351.04 121.14C353.1 120.85 355.13 120.06 357.2 119.88C357.59 119.85 357.9 119.12 358.21 118.69C358.66 118.07 359.01 117.19 359.26 116.16C359.51 115.13 359.65 113.96 359.62 112.79C359.59 110.44 359.12 108.01 358.24 106.57C357.98 106.14 357.69 105.74 357.38 105.39C357.05 105.05 356.7 104.74 356.34 104.48C355.61 103.95 354.81 103.59 353.98 103.41C352.32 103.04 350.55 103.38 348.9 104.47C350.48 106.52 352.11 108.55 353.81 111.08C352.54 112.41 351.67 114.03 350.38 114.42C348.85 114.89 346.7 115.16 345.44 113.42C344.77 112.45 344.02 111.51 343.57 110.46C343.12 109.41 342.97 108.25 343.4 106.88C344.57 103.17 348.94 99.64 352.9 100.01C354.68 100.17 356.48 100.49 358.59 100.82L360.16 97.27C362.01 97.11 363.58 98.89 364.52 101.67C365.36 104.51 365.58 108.31 364.83 112.06C366.77 113 367.35 107.96 370.11 111.93L370.13 111.95Z" fill="#E4E4E4"/>
<path d="M376.24 265.84C375.02 268.12 373.77 270.46 372.51 272.8C374.35 272.46 376.59 272.05 378.77 271.65C380.89 266.54 380.2 260.49 377.1 257.85C373.2 254.53 366.57 254.46 363.22 260.9C361.35 264.49 360.46 268.69 359.07 272.59C358.73 273.55 358.14 274.4 357.35 275.1C358.63 265.3 361 256.14 368.66 250.69C370.54 250.48 372 250.45 373.41 250.14C377.92 249.14 382.06 250.61 385.89 252.85C387.15 253.59 388.11 255.89 388.33 257.61C388.66 260.16 386.29 260.22 384.75 260.91C388.44 264.46 388.71 265.27 388.15 271.67C387.06 271.79 385.89 272.03 384.74 272.01C383.39 271.98 382.73 272.92 381.75 273.71C377.73 276.91 373.11 275.85 368.7 274.96C367.06 274.63 364.88 270.37 365.3 267.07C365.71 263.82 368.06 262.71 370.31 261.82C372.88 260.8 374.6 262.47 376.24 265.82V265.84Z" fill="#E4E4E4"/>
<path d="M372.91 280.42C373.33 281.49 373.56 282.23 373.9 282.89C374.93 284.86 375.69 287.23 373.71 288.55C372.27 289.51 370.05 289.46 368.26 289.18C367.5 289.06 366.62 287.3 366.4 286.15C366.08 284.5 366.32 282.71 366.32 280.84C368.96 278.93 371.13 276.31 374.65 277.15C377.67 277.87 380.9 278.03 382.8 281.51C384.61 281.15 386.25 280.83 388.14 280.45C389.01 285.55 388.22 289.87 383.73 293.42C385.65 293.92 386.9 294.24 388.31 294.61V299.07C378.68 306.2 371.62 303.81 363.36 297.26C359.07 293.85 358.69 288.53 357.05 283.83C356.45 282.1 356.24 279.8 358.09 277.24C358.55 278.89 359.08 279.84 359.03 280.76C358.75 285.97 361.65 289.79 363.77 293.85C365.18 296.55 371.93 297.8 374.66 296.42C375.77 295.86 376.85 295.24 378.09 294.57C378.98 292.23 379.9 289.78 381.01 286.87C378.53 284.76 377.53 280.2 372.88 280.4L372.91 280.42Z" fill="#E4E4E4"/>
<path d="M366.54 355.1C368.73 353.14 371.08 352.09 373.42 353.67C375.83 355.3 374.65 358.13 374.68 360.51C373.31 361.23 372.11 361.86 369.38 363.29C370.87 363.92 371.54 364.49 372.14 364.41C374.32 364.1 376.5 363.67 378.62 363.06C379.14 362.91 379.79 361.96 379.83 361.34C380.01 358.47 380.37 355.55 378.9 352.88C377.84 350.95 376.84 348.98 375.75 346.92C368.98 345.18 366.41 346.87 362.92 353.43C361.21 356.64 361.27 360.49 359.12 363.37C358.59 364.08 358.19 364.91 357.44 365.54C358.41 359.18 360.19 353.05 362.91 347.49C364.53 344.18 367.31 341.72 371.68 341.81C375.99 341.9 380.27 340.7 384.35 343.28C387.16 345.06 387.24 345 389.4 349.58C387.69 350.27 386.06 350.93 384.42 351.59C389.15 358.55 389.18 357.92 387.84 363.58C385.15 361.86 382.92 362.38 380.33 364.49C377.02 367.19 373.09 367.52 369.18 365.11C366.13 363.23 365.45 361.89 366.24 357.79C366.42 356.86 366.47 355.9 366.56 355.1H366.54Z" fill="#E4E4E4"/>
<path d="M373.76 448.27C373.2 451.45 372.79 454.28 369.33 454.88C369.9 455.89 370.25 456.51 370.7 457.31C372.83 456.38 374.87 455.5 377.15 454.51C378.17 451.84 379.56 449.04 378.78 445.89C377.87 442.23 375.92 438.69 372.48 438.25C369.42 437.86 365.74 438.38 363.58 441.67C361.61 444.66 360 447.94 358.1 451.32C357.49 446.73 359.08 443.05 361.22 439.45C365.51 432.23 371.87 432.39 378.41 433.61C380.41 433.98 382.3 435.2 384.21 436.1C386.36 437.11 387.37 438.95 387.32 441.8C386.09 442.62 384.81 443.47 383.53 444.32C388.08 450.16 388.31 451.2 385.76 455.2C384.7 454.84 383.58 454.46 382.66 454.14C380.31 455.41 378.25 456.85 376 457.69C367.76 460.75 364.01 457.54 364.43 448.02C368.9 443.59 370.13 443.6 373.77 448.28L373.76 448.27Z" fill="#E4E4E4"/>
<path d="M348.35 147.19C347.79 145.91 347.16 144.6 346.74 143.18C346.31 141.77 346.03 140.28 345.96 138.68C345.84 137.03 344.8 135.64 344.31 134.09C344.11 133.49 344.06 132.78 344.29 132.08C344.42 131.68 345.19 131.12 345.79 130.75C346.28 130.45 346.93 130.44 346.79 130.98C346.12 133.51 347.72 135.08 348.68 136.97C349.54 138.82 349.9 140.89 350.25 142.92C350.37 143.61 350.51 144.29 350.68 144.97C350.82 145.65 350.97 146.33 351.14 146.99C351.49 148.32 351.93 149.63 352.46 150.92C353.17 152.55 353.38 154.34 353.89 156.03L355.38 160.97L356.67 165.97C356.72 166.16 356.8 166.35 356.83 166.55C356.96 167.43 356.45 168.08 355.41 168.31C353.96 168.63 353.64 167.93 353.48 167.45C352.98 165.9 352.6 164.33 352.43 162.71C352.38 162.2 352.54 161.71 352.07 161.28C351.7 160.96 351.68 160.46 351.55 160.03C350.96 158.04 350.29 156.07 349.85 154.05C349.47 152.49 349.3 150.86 349 149.26C348.87 148.62 348.62 148.02 348.35 147.18V147.19Z" fill="#E4E4E4"/>
<path d="M359.62 235.51C360.1 238.6 360.15 241.91 359.29 245.27C358.84 247.03 359.29 248.86 359.2 250.66C359.17 251.35 358.96 252.1 358.5 252.72C358.24 253.07 357.32 253.31 356.63 253.42C356.07 253.51 355.46 253.25 355.78 252.78C357.31 250.52 356.38 248.28 356.17 246C355.96 243.8 356.24 241.56 356.55 239.34C356.97 236.32 356.98 233.33 356.66 230.32C356.45 228.41 356.6 226.47 356.47 224.55C356.23 220.83 355.92 217.1 355.64 213.38C355.62 213.16 355.57 212.95 355.58 212.74C355.6 211.78 356.22 211.17 357.28 211.11C358.77 211.01 358.96 211.83 359.03 212.39C359.26 214.17 359.37 215.96 359.27 217.75C359.24 218.31 358.99 218.81 359.39 219.38C359.68 219.81 359.6 220.35 359.63 220.85C359.77 223.15 360 225.44 360 227.74C360 229.53 359.69 231.32 359.57 233.11C359.52 233.83 359.61 234.55 359.64 235.52L359.62 235.51Z" fill="#E4E4E4"/>
<path d="M355.94 325.73C355.46 328.82 355.41 332.13 356.27 335.49C356.72 337.25 356.27 339.08 356.36 340.88C356.39 341.57 356.6 342.32 357.06 342.94C357.32 343.29 358.24 343.53 358.93 343.64C359.49 343.73 360.1 343.47 359.78 343C358.25 340.74 359.18 338.5 359.39 336.22C359.6 334.02 359.32 331.78 359.01 329.56C358.59 326.54 358.58 323.55 358.9 320.54C359.11 318.63 358.96 316.69 359.09 314.77C359.33 311.05 359.64 307.32 359.92 303.6C359.94 303.38 359.99 303.17 359.98 302.96C359.96 302 359.34 301.39 358.28 301.33C356.79 301.23 356.6 302.05 356.53 302.61C356.3 304.39 356.19 306.18 356.29 307.97C356.32 308.53 356.57 309.03 356.17 309.6C355.88 310.03 355.96 310.57 355.93 311.07C355.79 313.37 355.56 315.66 355.56 317.96C355.56 319.75 355.87 321.54 355.99 323.33C356.04 324.05 355.95 324.77 355.92 325.74L355.94 325.73Z" fill="#E4E4E4"/>
<path d="M360.24 409.49C360.72 406.4 360.77 403.09 359.91 399.73C359.46 397.97 359.91 396.14 359.82 394.34C359.79 393.65 359.58 392.9 359.12 392.28C358.86 391.93 357.94 391.69 357.25 391.58C356.69 391.49 356.08 391.75 356.4 392.22C357.93 394.48 357 396.72 356.79 399C356.58 401.2 356.86 403.44 357.17 405.66C357.59 408.68 357.6 411.67 357.28 414.68C357.07 416.59 357.22 418.53 357.09 420.45C356.85 424.17 356.54 427.9 356.26 431.62C356.24 431.84 356.19 432.05 356.2 432.26C356.22 433.22 356.84 433.83 357.9 433.89C359.39 433.99 359.58 433.17 359.65 432.61C359.88 430.83 359.99 429.04 359.89 427.25C359.86 426.69 359.61 426.19 360.01 425.62C360.3 425.19 360.22 424.65 360.25 424.15C360.39 421.85 360.62 419.56 360.62 417.26C360.62 415.47 360.31 413.68 360.19 411.89C360.14 411.17 360.23 410.45 360.26 409.48L360.24 409.49Z" fill="#E4E4E4"/>
</g>
<defs>
<clipPath id="clip0_34_685">
<rect width="389.83" height="460.39" fill="white"/>
</clipPath>
</defs>
</svg>
