<svg width="391" height="460" viewBox="0 0 391 460" fill="none" xmlns="http://www.w3.org/2000/svg">
<g clip-path="url(#clip0_34_675)">
<path d="M29.12 459.44C29.12 459.44 34.14 459.79 35.02 458.08C35.07 457.98 35.09 457.86 35.09 457.75C35.09 457.54 35.02 457.32 34.96 457.1C34.92 456.97 34.88 456.85 34.86 456.73V456.65L34.79 456.59C33.94 455.67 33.15 456.26 32.52 456.73C32.18 456.99 31.82 457.25 31.44 457.35C29.75 457.44 30.1 456.11 30.1 456.11H26.61V456.52C26.72 458.28 27.48 459.18 29.11 459.43L29.12 459.44Z" fill="#E4E4E4"/>
<path d="M31.66 397.12C32.07 397.03 32.44 396.76 32.81 396.5C33.49 396.03 34.33 395.44 35.24 396.36L35.3 396.42V396.49C35.34 396.6 35.37 396.73 35.42 396.86C35.49 397.08 35.56 397.3 35.56 397.51C35.56 397.63 35.54 397.74 35.48 397.84C35.19 398.36 34.81 398.82 34.4 399.32C34.23 399.53 34.05 399.74 33.87 399.97L33.79 400.08H33.65C32.95 400.11 32.31 400.29 31.68 400.63L31.63 400.66C31.22 400.92 30.94 401.12 30.74 401.28L30.52 401.1L30.71 401.3C30.22 401.71 29.77 402.18 29.32 402.64C29.12 402.85 28.91 403.06 28.7 403.27C24.04 407.91 21.12 412.77 19.79 418.16C19.49 419.37 19.23 420.61 18.95 421.92C18.84 422.43 18.73 422.95 18.62 423.5C19.62 423.33 20.46 423.19 21.43 423.02L21.88 422.94L24.39 424.39L24.42 424.49C24.74 425.58 24.92 426.46 24.95 427.18C24.99 428.09 24.81 428.76 24.39 429.29C23.61 430.29 22.05 430.76 18.88 430.96C19.04 431.68 19.19 432.4 19.33 433.11C20.01 436.39 20.71 439.79 22.71 442.73L23.02 443.18C23.87 444.43 24.75 445.73 25.86 446.75C27.57 448.32 29.43 449.82 31.23 451.26C31.95 451.84 32.67 452.42 33.38 453C33.85 453.39 34.33 453.76 34.84 454.16L34.99 454.27C35.21 454.45 35.33 454.71 35.31 454.98C35.29 455.25 35.13 455.48 34.88 455.62C33.77 456.23 32.88 455.78 32.09 455.38C31.74 455.2 31.75 455.05 31.04 455C30.14 454.94 29.97 456.08 29.97 456.08H26.5L26.52 455.8C26.62 454.23 26.82 453.2 28.55 452.9C21.56 447.68 17.77 441.32 16.99 433.49C15.01 435.11 13.75 436.95 12.52 438.74C12.04 439.44 11.55 440.16 11.02 440.85L10.84 441.09L10.6 440.91C7.7 438.74 7.77 436.12 7.85 433.59C7.85 433.24 7.87 432.89 7.87 432.55C7.02 431.69 5.9 431.15 4.72 430.57C3.07 429.77 1.37 428.94 0.38 427.17C0.28 426.99 0.18 426.8 0.1 426.6L0 426.36L0.26 426.26C2.75 425.26 5.03 424.34 7.24 423.45C6.92 418.01 8.4 415.65 12.66 414.76L12.86 414.72L12.97 414.88C13.47 415.59 13.67 416.46 13.87 417.3C14.21 418.77 14.54 420.17 16.34 420.94C16.42 420.7 16.49 420.47 16.57 420.25C16.79 419.61 17 419 17.12 418.39C18.32 412.31 21.21 406.96 25.7 402.48C26 402.18 26.34 401.87 26.71 401.56C26.75 401.52 26.8 401.48 26.85 401.44C27.13 401.19 27.48 400.85 27.85 400.48C28.31 400.03 28.77 399.57 29.18 399.21C27.44 398.95 26.63 398.05 26.52 396.3V395.89H29.98C29.98 395.89 29.86 397.22 31.67 397.13L31.66 397.12ZM21.63 425.37C21.47 425.43 21.32 425.49 21.16 425.54C20.16 425.9 19.33 426.19 19.02 427.18C18.98 427.3 18.95 427.43 18.93 427.58L21.25 428.7C21.88 427.99 22.24 427.56 22.36 427.18C22.52 426.68 22.26 426.26 21.63 425.37ZM11.17 418.11C9.92 419.35 9.64 420.58 10.22 422.12C10.52 422.91 10.69 423.74 10.86 424.54C10.93 424.89 11.01 425.24 11.09 425.59L11.15 425.84L10.88 425.91C9.12 426.36 7.57 426.76 5.86 427.19C5.51 427.28 5.15 427.37 4.79 427.47C7.04 428.85 8.86 429.92 11.2 429.92H11.48V430.17C11.55 431.18 11.36 432.15 11.17 433.08C10.97 434.1 10.76 435.14 10.87 436.26C11.13 436.01 11.38 435.77 11.63 435.54C12.38 434.83 13.03 434.21 13.61 433.53C15.49 431.31 16.3 429.16 16.03 427.18C15.88 426.01 15.34 424.9 14.42 423.87C12.64 421.85 11.65 420.1 11.17 418.11V418.11Z" fill="#E4E4E4"/>
<path d="M31.66 336.89C32.07 336.8 32.44 336.53 32.81 336.27C33.49 335.8 34.33 335.21 35.24 336.13L35.3 336.19V336.26C35.34 336.37 35.37 336.5 35.42 336.63C35.49 336.85 35.56 337.07 35.56 337.28C35.56 337.4 35.54 337.51 35.48 337.61C35.19 338.13 34.81 338.59 34.4 339.09C34.23 339.3 34.05 339.51 33.87 339.74L33.79 339.85H33.65C32.95 339.88 32.31 340.06 31.68 340.4L31.63 340.43C31.22 340.69 30.94 340.89 30.74 341.05L30.52 340.87L30.71 341.07C30.22 341.48 29.77 341.95 29.32 342.41C29.12 342.62 28.91 342.83 28.7 343.04C24.04 347.68 21.12 352.54 19.79 357.93C19.49 359.14 19.23 360.38 18.95 361.69C18.84 362.2 18.73 362.72 18.62 363.27C19.62 363.1 20.46 362.96 21.43 362.79L21.88 362.71L24.39 364.16L24.42 364.26C24.74 365.35 24.92 366.23 24.95 366.95C24.99 367.86 24.81 368.53 24.39 369.06C23.61 370.06 22.05 370.53 18.88 370.73C19.04 371.45 19.19 372.17 19.33 372.88C20.01 376.16 20.71 379.56 22.71 382.5L23.02 382.95C23.87 384.2 24.75 385.5 25.86 386.52C27.57 388.09 29.43 389.59 31.23 391.03C31.95 391.61 32.67 392.19 33.38 392.77C33.85 393.16 34.33 393.53 34.84 393.93L34.99 394.04C35.21 394.22 35.33 394.48 35.31 394.75C35.29 395.02 35.13 395.25 34.88 395.39C33.77 396 32.88 395.55 32.09 395.15C31.74 394.97 31.75 394.82 31.04 394.77C30.14 394.71 29.97 395.85 29.97 395.85H26.5L26.52 395.57C26.62 394 26.82 392.97 28.55 392.67C21.56 387.45 17.77 381.09 16.99 373.26C15.01 374.88 13.75 376.72 12.52 378.51C12.04 379.21 11.55 379.93 11.02 380.62L10.84 380.86L10.6 380.68C7.7 378.51 7.77 375.89 7.85 373.36C7.85 373.01 7.87 372.66 7.87 372.32C7.02 371.46 5.9 370.92 4.72 370.34C3.07 369.54 1.37 368.71 0.38 366.94C0.28 366.76 0.18 366.57 0.1 366.37L0 366.13L0.26 366.03C2.75 365.03 5.03 364.11 7.24 363.22C6.92 357.78 8.4 355.42 12.66 354.53L12.86 354.49L12.97 354.65C13.47 355.36 13.67 356.23 13.87 357.07C14.21 358.54 14.54 359.94 16.34 360.71C16.42 360.47 16.49 360.24 16.57 360.02C16.79 359.38 17 358.77 17.12 358.16C18.32 352.08 21.21 346.73 25.7 342.25C26 341.95 26.34 341.64 26.71 341.33C26.75 341.29 26.8 341.25 26.85 341.21C27.13 340.96 27.48 340.62 27.85 340.25C28.31 339.8 28.77 339.34 29.18 338.98C27.44 338.72 26.63 337.82 26.52 336.07V335.66H29.98C29.98 335.66 29.86 336.99 31.67 336.9L31.66 336.89ZM21.63 365.14C21.47 365.2 21.32 365.26 21.16 365.31C20.16 365.67 19.33 365.96 19.02 366.95C18.98 367.07 18.95 367.2 18.93 367.35L21.25 368.47C21.88 367.76 22.24 367.33 22.36 366.95C22.52 366.45 22.26 366.03 21.63 365.14ZM11.17 357.88C9.92 359.12 9.64 360.35 10.22 361.89C10.52 362.68 10.69 363.51 10.86 364.31C10.93 364.66 11.01 365.01 11.09 365.36L11.15 365.61L10.88 365.68C9.12 366.13 7.57 366.53 5.86 366.96C5.51 367.05 5.15 367.14 4.79 367.24C7.04 368.62 8.86 369.69 11.2 369.69H11.48V369.94C11.55 370.95 11.36 371.92 11.17 372.85C10.97 373.87 10.76 374.91 10.87 376.03C11.13 375.78 11.38 375.54 11.63 375.31C12.38 374.6 13.03 373.98 13.61 373.3C15.49 371.08 16.3 368.93 16.03 366.95C15.88 365.78 15.34 364.67 14.42 363.64C12.64 361.62 11.65 359.87 11.17 357.88V357.88Z" fill="#E4E4E4"/>
<path d="M31.66 276.67C32.07 276.58 32.44 276.31 32.81 276.05C33.49 275.58 34.33 274.99 35.24 275.91L35.3 275.97V276.04C35.34 276.15 35.37 276.28 35.42 276.41C35.49 276.63 35.56 276.85 35.56 277.06C35.56 277.18 35.54 277.29 35.48 277.39C35.19 277.91 34.81 278.37 34.4 278.87C34.23 279.08 34.05 279.29 33.87 279.52L33.79 279.63H33.65C32.95 279.66 32.31 279.84 31.68 280.18L31.63 280.21C31.22 280.47 30.94 280.67 30.74 280.83L30.52 280.65L30.71 280.85C30.22 281.26 29.77 281.73 29.32 282.19C29.12 282.4 28.91 282.61 28.7 282.82C24.04 287.46 21.12 292.32 19.79 297.71C19.49 298.92 19.23 300.16 18.95 301.47C18.84 301.98 18.73 302.5 18.62 303.05C19.62 302.88 20.46 302.74 21.43 302.57L21.88 302.49L24.39 303.94L24.42 304.04C24.74 305.13 24.92 306.01 24.95 306.73C24.99 307.64 24.81 308.31 24.39 308.84C23.61 309.84 22.05 310.31 18.88 310.51C19.04 311.23 19.19 311.95 19.33 312.66C20.01 315.94 20.71 319.34 22.71 322.28L23.02 322.73C23.87 323.98 24.75 325.28 25.86 326.3C27.57 327.87 29.43 329.37 31.23 330.81C31.95 331.39 32.67 331.97 33.38 332.55C33.85 332.94 34.33 333.31 34.84 333.71L34.99 333.82C35.21 334 35.33 334.26 35.31 334.53C35.29 334.8 35.13 335.03 34.88 335.17C33.77 335.78 32.88 335.33 32.09 334.93C31.74 334.75 31.75 334.6 31.04 334.55C30.14 334.49 29.97 335.63 29.97 335.63H26.5L26.52 335.35C26.62 333.78 26.82 332.75 28.55 332.45C21.56 327.23 17.77 320.87 16.99 313.04C15.01 314.66 13.75 316.5 12.52 318.29C12.04 318.99 11.55 319.71 11.02 320.4L10.84 320.64L10.6 320.46C7.7 318.29 7.77 315.67 7.85 313.14C7.85 312.79 7.87 312.44 7.87 312.1C7.02 311.24 5.9 310.7 4.72 310.12C3.07 309.32 1.37 308.49 0.38 306.72C0.28 306.54 0.18 306.35 0.1 306.15L0 305.91L0.26 305.81C2.75 304.81 5.03 303.89 7.24 303C6.92 297.56 8.4 295.2 12.66 294.31L12.86 294.27L12.97 294.43C13.47 295.14 13.67 296.01 13.87 296.85C14.21 298.32 14.54 299.72 16.34 300.49C16.42 300.25 16.49 300.02 16.57 299.8C16.79 299.16 17 298.55 17.12 297.94C18.32 291.86 21.21 286.51 25.7 282.03C26 281.73 26.34 281.42 26.71 281.11C26.75 281.07 26.8 281.03 26.85 280.99C27.13 280.74 27.48 280.4 27.85 280.03C28.31 279.58 28.77 279.12 29.18 278.76C27.44 278.5 26.63 277.6 26.52 275.85V275.44H29.98C29.98 275.44 29.86 276.77 31.67 276.68L31.66 276.67ZM21.63 304.92C21.47 304.98 21.32 305.04 21.16 305.09C20.16 305.45 19.33 305.74 19.02 306.73C18.98 306.85 18.95 306.98 18.93 307.13L21.25 308.25C21.88 307.54 22.24 307.11 22.36 306.73C22.52 306.23 22.26 305.81 21.63 304.92ZM11.17 297.66C9.92 298.9 9.64 300.13 10.22 301.67C10.52 302.46 10.69 303.29 10.86 304.09C10.93 304.44 11.01 304.79 11.09 305.14L11.15 305.39L10.88 305.46C9.12 305.91 7.57 306.31 5.86 306.74C5.51 306.83 5.15 306.92 4.79 307.02C7.04 308.4 8.86 309.47 11.2 309.47H11.48V309.72C11.55 310.73 11.36 311.7 11.17 312.63C10.97 313.65 10.76 314.69 10.87 315.81C11.13 315.56 11.38 315.32 11.63 315.09C12.38 314.38 13.03 313.76 13.61 313.08C15.49 310.86 16.3 308.71 16.03 306.73C15.88 305.56 15.34 304.45 14.42 303.42C12.64 301.4 11.65 299.65 11.17 297.66V297.66Z" fill="#E4E4E4"/>
<path d="M31.66 216.44C32.07 216.35 32.44 216.08 32.81 215.82C33.49 215.35 34.33 214.76 35.24 215.68L35.3 215.74V215.81C35.34 215.92 35.37 216.05 35.42 216.18C35.49 216.4 35.56 216.62 35.56 216.83C35.56 216.95 35.54 217.06 35.48 217.16C35.19 217.68 34.81 218.14 34.4 218.64C34.23 218.85 34.06 219.07 33.87 219.29L33.79 219.4H33.65C32.95 219.43 32.31 219.61 31.68 219.95L31.63 219.98C31.22 220.24 30.94 220.44 30.74 220.6L30.52 220.42L30.71 220.62C30.22 221.03 29.77 221.5 29.32 221.96L28.7 222.59C24.04 227.23 21.12 232.09 19.79 237.48C19.49 238.69 19.23 239.93 18.95 241.24C18.84 241.75 18.73 242.27 18.62 242.82C19.62 242.65 20.46 242.51 21.43 242.34L21.88 242.26L24.39 243.71L24.42 243.81C24.74 244.9 24.92 245.78 24.95 246.5C24.99 247.41 24.81 248.08 24.39 248.61C23.61 249.61 22.05 250.08 18.88 250.28C19.03 251 19.19 251.72 19.33 252.43C20.01 255.71 20.71 259.11 22.71 262.05L23.02 262.5C23.87 263.75 24.75 265.05 25.86 266.07C27.57 267.64 29.43 269.14 31.23 270.58L33.38 272.32C33.85 272.7 34.33 273.08 34.84 273.48L34.99 273.59C35.21 273.77 35.33 274.03 35.31 274.3C35.29 274.57 35.13 274.8 34.88 274.94C33.77 275.55 32.88 275.1 32.09 274.7C31.74 274.52 31.75 274.37 31.04 274.32C30.14 274.26 29.97 275.4 29.97 275.4H26.5L26.52 275.12C26.62 273.55 26.82 272.52 28.55 272.22C21.56 267 17.77 260.64 16.99 252.81C15.01 254.43 13.75 256.27 12.52 258.06C12.04 258.76 11.55 259.48 11.02 260.17L10.84 260.41L10.6 260.23C7.7 258.06 7.77 255.44 7.85 252.91C7.85 252.56 7.86 252.21 7.87 251.87C7.02 251.01 5.9 250.47 4.72 249.89C3.07 249.09 1.37 248.26 0.38 246.49C0.28 246.31 0.18 246.12 0.1 245.92L0 245.68L0.26 245.58C2.75 244.58 5.03 243.66 7.24 242.77C6.92 237.33 8.4 234.97 12.66 234.08L12.86 234.04L12.97 234.2C13.47 234.91 13.67 235.78 13.87 236.62C14.21 238.09 14.54 239.49 16.34 240.26C16.42 240.03 16.5 239.8 16.57 239.57C16.79 238.93 17 238.32 17.12 237.71C18.32 231.63 21.21 226.28 25.7 221.8C26 221.5 26.34 221.19 26.71 220.88L26.85 220.76C27.13 220.51 27.48 220.17 27.85 219.8C28.31 219.35 28.77 218.89 29.18 218.53C27.44 218.27 26.63 217.37 26.52 215.62V215.21H29.98C29.98 215.21 29.86 216.54 31.67 216.45L31.66 216.44ZM21.63 244.69L21.16 244.86C20.16 245.22 19.33 245.51 19.02 246.5C18.98 246.62 18.95 246.75 18.93 246.9L21.25 248.02C21.88 247.31 22.24 246.88 22.36 246.5C22.52 246 22.26 245.58 21.63 244.69V244.69ZM11.17 237.43C9.92 238.67 9.64 239.9 10.22 241.44C10.52 242.23 10.69 243.06 10.86 243.86C10.94 244.21 11.01 244.56 11.09 244.91L11.15 245.16L10.88 245.23C9.12 245.68 7.57 246.08 5.86 246.51C5.51 246.6 5.15 246.69 4.79 246.79C7.04 248.17 8.86 249.24 11.2 249.24H11.48V249.49C11.55 250.5 11.36 251.47 11.17 252.4C10.97 253.42 10.76 254.46 10.87 255.58C11.13 255.33 11.38 255.09 11.63 254.86C12.38 254.15 13.03 253.53 13.61 252.85C15.49 250.63 16.3 248.48 16.03 246.5C15.88 245.33 15.34 244.22 14.42 243.19C12.64 241.17 11.65 239.42 11.17 237.43Z" fill="#E4E4E4"/>
<path d="M35.08 159.27C35.5 159.27 35.92 159.11 36.34 158.96C37.1 158.68 38.05 158.34 38.75 159.34L38.8 159.4V159.47C38.8 159.57 38.8 159.69 38.82 159.81C38.84 160.01 38.87 160.22 38.82 160.41C38.79 160.51 38.76 160.61 38.69 160.69C38.33 161.09 37.88 161.43 37.4 161.8C37.2 161.96 36.99 162.12 36.78 162.28L36.68 162.36L36.54 162.34C35.85 162.23 35.19 162.27 34.52 162.47L34.47 162.49C34.02 162.66 33.72 162.78 33.5 162.89L33.31 162.69L33.47 162.91C32.92 163.19 32.4 163.55 31.88 163.9L31.17 164.37C29.84 165.24 28.57 166.17 27.47 167.15C26.39 168.14 25.41 169.18 24.52 170.28C22.76 172.47 21.32 174.85 20.51 177.45C20.12 178.62 19.77 179.83 19.39 181.1C19.24 181.6 19.09 182.11 18.94 182.64L21.78 182.33L22.24 182.28L24.64 183.82L24.67 183.92C24.96 184.98 25.12 185.84 25.14 186.53C25.16 187.41 24.96 188.04 24.53 188.54C23.72 189.48 22.15 189.92 18.98 190.07C19.11 190.79 19.25 191.5 19.38 192.21C20.03 195.49 20.75 198.89 22.75 201.83L23.06 202.28C23.91 203.53 24.79 204.83 25.9 205.85C27.61 207.42 29.47 208.92 31.27 210.36L33.42 212.1C33.89 212.48 34.37 212.86 34.88 213.26L35.03 213.37C35.25 213.55 35.37 213.81 35.35 214.08C35.33 214.35 35.17 214.58 34.92 214.72C33.81 215.33 32.92 214.88 32.13 214.48C31.78 214.3 31.79 214.15 31.08 214.1C30.18 214.04 30.01 215.18 30.01 215.18H26.54L26.56 214.9C26.66 213.33 26.86 212.3 28.59 212C21.6 206.78 17.81 200.43 17.04 192.59C15.05 194.21 13.8 196.05 12.57 197.84C12.09 198.54 11.6 199.26 11.07 199.95L10.89 200.19L10.65 200.01C7.75001 197.84 7.82001 195.22 7.90001 192.69C7.92001 192.32 7.93001 191.95 7.95001 191.59C7.12001 190.67 6.02001 190.09 4.86001 189.45C3.23001 188.56 1.55001 187.63 0.61001 185.65C0.52001 185.45 0.43001 185.24 0.35001 185.01L0.26001 184.74L0.52001 184.64C3.04001 183.64 5.33001 182.76 7.63001 181.95C7.76001 176.18 9.38001 173.79 13.76 173.35L13.96 173.33L14.05 173.5C14.44 174.28 14.61 175.18 14.73 176.05C14.96 177.58 15.17 179.03 16.91 179.93C17.01 179.7 17.1 179.47 17.19 179.26C17.46 178.63 17.71 178.04 17.88 177.44C18.65 174.44 20.11 171.72 21.85 169.31C22.74 168.11 23.67 166.97 24.78 165.94C25.9 164.91 27.11 163.96 28.4 163.1C28.75 162.87 29.13 162.64 29.54 162.41L29.7 162.32C30.01 162.14 30.42 161.88 30.84 161.6C31.36 161.27 31.9 160.93 32.36 160.67C30.71 160.11 30 159.09 30.3 157.45L30.37 157.07L33.76 157.8C33.76 157.8 33.36 158.99 35.15 159.27H35.08ZM21.83 184.63L21.35 184.78C20.34 185.08 19.51 185.34 19.17 186.32C19.13 186.44 19.09 186.57 19.07 186.71L21.36 187.89C22.01 187.21 22.38 186.81 22.51 186.44C22.68 185.96 22.43 185.54 21.83 184.64V184.63ZM11.91 176.64C10.56 177.82 10.19 179.08 10.65 180.73C10.89 181.57 10.99 182.44 11.1 183.28C11.17 183.65 11.24 184.01 11.3 184.38L11.35 184.64L11.08 184.7C9.31001 185.1 7.75001 185.46 6.03001 185.85C5.68001 185.93 5.32001 186.02 4.95001 186.11C7.16001 187.67 8.95001 188.82 11.29 188.87H11.57V189.14C11.61 190.19 11.39 191.18 11.18 192.15C10.95 193.21 10.76 194.22 10.87 195.35C11.13 195.1 11.38 194.86 11.63 194.63C12.38 193.92 13.03 193.3 13.61 192.62C15.55 190.35 16.41 188.22 16.19 186.22C16.08 185.04 15.53 183.89 14.7 182.79C13.08 180.64 12.22 178.76 11.91 176.66V176.64Z" fill="#E4E4E4"/>
<path d="M55.3101 107.88C55.7001 108.01 56.1601 108.01 56.6001 108C57.4201 107.99 58.4201 107.98 58.7401 109.16L58.7601 109.23L58.7401 109.29C58.7001 109.39 58.6701 109.5 58.6501 109.62C58.6001 109.82 58.5701 110.03 58.4701 110.19C58.4201 110.28 58.3501 110.36 58.2501 110.41C57.7701 110.67 57.2301 110.84 56.6601 111.02L55.9101 111.27L55.7901 111.31L55.6701 111.24C55.0501 110.91 54.4201 110.72 53.7201 110.69H53.6601C53.1801 110.69 52.8601 110.71 52.6101 110.74L52.5001 110.49L52.5701 110.75C51.9601 110.83 51.3401 110.99 50.7401 111.15L49.9101 111.36C46.7501 112.08 44.0901 113.25 41.6701 114.71C40.4601 115.44 39.3301 116.25 38.2801 117.14C37.2801 118.06 36.3501 119.05 35.5001 120.13C34.7301 121.1 33.9901 122.11 33.2001 123.19C32.8901 123.61 32.5701 124.04 32.2801 124.5C33.2601 124.73 34.0901 124.92 35.0401 125.15L35.4801 125.26L37.2801 127.54V127.64C37.1901 128.74 37.0401 129.59 36.8201 130.25C36.5401 131.08 36.1301 131.61 35.5601 131.94C34.4801 132.55 32.8501 132.44 29.8001 131.53C29.6701 132.24 29.6201 132.99 29.5201 133.7C29.3201 135.36 29.1101 137.03 29.0901 138.71C29.0901 139.55 29.0901 140.38 29.2101 141.22C29.3401 142.06 29.5401 142.9 29.8301 143.73L30.0001 144.24C30.4801 145.65 30.9901 147.09 31.7901 148.31C32.4101 149.25 33.0701 150.18 33.7601 151.08C34.4801 151.99 35.2101 152.88 35.9401 153.74L37.6701 155.8C38.0601 156.24 38.4401 156.68 38.8501 157.15L38.9701 157.28C39.1501 157.48 39.2201 157.75 39.1401 157.98C39.0601 158.21 38.8601 158.38 38.5901 158.45C37.3801 158.76 36.6001 158.17 35.9101 157.65C35.6001 157.42 35.6501 157.28 34.9601 157.09C34.0901 156.84 33.6901 157.83 33.6901 157.83L30.3001 157.1L30.3801 156.84C30.8101 155.4 31.2301 154.49 32.9801 154.62C31.5601 153.03 30.3401 151.38 29.3601 149.68C28.4401 147.99 27.7301 146.25 27.2401 144.46C26.7701 142.68 26.4301 140.81 26.4701 138.96C26.4901 137.1 26.7301 135.21 27.1801 133.28C24.7901 134.16 22.9901 135.55 21.2301 136.91C20.5501 137.44 19.8401 137.99 19.1301 138.54L18.8901 138.72L18.7101 138.47C16.6001 135.45 17.6101 132.83 18.5201 130.33C18.6501 129.98 18.7701 129.64 18.8901 129.29C18.3701 128.13 17.5301 127.21 16.6601 126.23C15.4301 124.85 14.1701 123.42 13.9601 121.24C13.9401 121.02 13.9301 120.79 13.9301 120.55V120.27H14.2101C16.9301 120.16 19.4001 120.1 21.7901 120.08C23.8101 114.66 26.2401 113 30.4501 114.02L30.6501 114.07L30.6801 114.26C30.8301 115.14 30.6501 116.03 30.4701 116.9C30.1601 118.41 29.8701 119.85 31.2001 121.28C31.3701 121.1 31.5401 120.92 31.7001 120.74C32.1701 120.24 32.6101 119.77 32.9701 119.26C33.8801 118 34.8401 116.82 35.9001 115.75C37.0101 114.71 38.1801 113.76 39.4201 112.92C40.6601 112.08 41.9501 111.35 43.3101 110.72C44.6801 110.11 46.1701 109.63 47.6701 109.25C48.0801 109.15 48.5201 109.06 48.9801 108.99L49.1601 108.96C49.5201 108.9 49.9801 108.78 50.4801 108.67C51.0901 108.53 51.7001 108.39 52.2301 108.31C50.8601 107.22 50.5501 106.04 51.3501 104.57L51.5501 104.23L54.5001 106.05C54.5001 106.05 53.7201 107.03 55.3201 107.9L55.3101 107.88ZM34.3701 127.36L33.8701 127.34C32.8101 127.29 31.9401 127.25 31.2901 128.05C31.2101 128.15 31.1301 128.26 31.0601 128.38L32.8201 130.25C33.6701 129.83 34.1601 129.57 34.4001 129.27C34.7301 128.87 34.6301 128.4 34.3801 127.35L34.3701 127.36ZM27.6701 116.51C26.0001 117.16 25.2101 118.23 25.0901 119.93C25.0101 120.79 24.8801 121.67 24.7201 122.5C24.6601 122.87 24.6001 123.24 24.5301 123.6L24.4901 123.86L24.2201 123.83C22.4101 123.62 20.8101 123.43 19.0601 123.23L17.9501 123.11C19.5001 125.31 20.7901 127 22.9901 127.82L23.2501 127.92L23.1701 128.17C22.8201 129.16 22.3101 130.03 21.8301 130.89C21.3001 131.82 20.7501 132.78 20.4901 133.92C20.8201 133.76 21.1401 133.6 21.4401 133.46C22.3901 133.01 23.2101 132.62 23.9701 132.15C26.4301 130.6 28.0401 128.92 28.5101 126.96C28.8001 125.81 28.7101 124.56 28.2501 123.23C27.3601 120.63 27.2701 118.6 27.6601 116.52L27.6701 116.51Z" fill="#E4E4E4"/>
<path d="M91.54 66.12C91.87 66.38 92.3 66.52 92.71 66.66C93.48 66.92 94.43 67.25 94.35 68.46V68.54L94.3 68.59C94.23 68.67 94.17 68.77 94.1 68.87C93.99 69.04 93.88 69.22 93.73 69.34C93.65 69.41 93.56 69.46 93.45 69.48C92.92 69.57 92.35 69.55 91.75 69.53H90.84L90.75 69.41C90.28 68.89 89.74 68.51 89.09 68.25L89.04 68.23C88.59 68.08 88.27 67.99 88.03 67.93L88.01 67.66L87.99 67.93C87.39 67.81 86.75 67.75 86.13 67.7L85.28 67.62C83.7 67.47 82.11 67.37 80.66 67.47C79.19 67.56 77.77 67.75 76.39 68.04C75.01 68.33 73.68 68.73 72.39 69.22C71.12 69.73 69.93 70.38 68.77 71.11C67.72 71.77 66.69 72.48 65.59 73.23C65.17 73.53 64.71 73.81 64.28 74.15C65.13 74.7 65.85 75.15 66.67 75.68L67.06 75.93L68 78.67L67.96 78.76C67.51 79.77 67.09 80.52 66.66 81.07C66.12 81.76 65.56 82.12 64.91 82.24C63.69 82.46 62.19 81.81 59.62 79.93C59.26 80.56 58.95 81.24 58.63 81.88C57.89 83.37 57.14 84.89 56.55 86.46C56.26 87.25 55.99 88.04 55.83 88.87C55.67 89.71 55.58 90.57 55.57 91.44V91.98C55.55 93.47 55.54 94.99 55.89 96.42C56.4 98.6 57.19 100.82 57.98 102.93L58.92 105.45C59.14 105.99 59.35 106.54 59.58 107.12L59.65 107.29C59.75 107.54 59.72 107.81 59.57 108C59.42 108.19 59.17 108.28 58.9 108.26C57.66 108.14 57.12 107.33 56.64 106.61C56.43 106.29 56.52 106.18 55.94 105.76C55.21 105.24 54.49 106.04 54.49 106.04L51.54 104.22L51.7 104C52.59 102.79 53.29 102.07 54.9 102.78C54.09 100.81 53.51 98.85 53.14 96.91C52.83 95.01 52.75 93.14 52.89 91.29C53.05 89.45 53.35 87.59 54 85.85C54.64 84.11 55.5 82.4 56.56 80.73C54.01 80.76 51.85 81.47 49.74 82.17C48.92 82.44 48.07 82.73 47.22 83.01L46.93 83.1L46.85 82.8C45.86 79.25 47.69 77.12 49.38 75.06C49.61 74.77 49.85 74.49 50.08 74.21C49.98 72.95 49.5 71.81 48.99 70.59C48.29 68.88 47.57 67.11 48.1 64.98C48.15 64.77 48.22 64.55 48.3 64.32L48.39 64.06L48.66 64.14C51.25 64.95 53.6 65.72 55.86 66.49C59.58 62.07 62.4 61.29 66.04 63.65L66.21 63.76L66.18 63.95C66.03 64.83 65.56 65.61 65.11 66.37C64.32 67.7 63.57 68.95 64.35 70.74C64.57 70.62 64.79 70.51 65 70.4C65.61 70.08 66.18 69.78 66.69 69.42C67.97 68.53 69.25 67.72 70.63 67.09C72.02 66.47 73.44 65.97 74.88 65.58C76.32 65.2 77.79 64.93 79.27 64.79C80.79 64.69 82.33 64.71 83.88 64.86C84.3 64.9 84.74 64.96 85.2 65.04L85.38 65.07C85.74 65.13 86.21 65.18 86.72 65.23C87.34 65.3 87.97 65.37 88.49 65.46C87.56 63.99 87.64 62.75 88.91 61.65L89.21 61.4L91.39 64.1C91.39 64.1 90.33 64.78 91.55 66.12H91.54ZM65.31 77.55L64.85 77.36C63.87 76.96 63.06 76.64 62.18 77.17C62.07 77.24 61.96 77.31 61.85 77.41L62.89 79.76C63.83 79.64 64.37 79.57 64.71 79.36C65.15 79.09 65.22 78.61 65.32 77.54L65.31 77.55ZM62.59 65.09C60.8 65.15 59.7 65.9 59.02 67.46C58.66 68.25 58.23 69.02 57.81 69.76C57.63 70.09 57.45 70.41 57.27 70.73L57.15 70.96L56.9 70.84C55.27 70.04 53.82 69.33 52.24 68.56C51.91 68.4 51.58 68.24 51.24 68.08C51.97 70.67 52.63 72.69 54.42 74.2L54.63 74.38L54.47 74.59C54.15 75 53.79 75.37 53.41 75.71C53.05 76.06 52.67 76.39 52.3 76.71C51.49 77.41 50.65 78.13 50.03 79.12L51.08 79C52.13 78.89 53.03 78.79 53.9 78.61C56.73 77.97 58.82 76.93 59.91 75.23C60.57 74.24 60.9 73.03 60.91 71.62C60.95 68.89 61.52 66.93 62.59 65.1V65.09Z" fill="#E4E4E4"/>
<path d="M139.54 38.76C139.76 39.11 140.12 39.39 140.47 39.66C141.11 40.16 141.9 40.79 141.41 41.91L141.38 41.98L141.32 42.02C141.23 42.07 141.14 42.14 141.04 42.22C140.88 42.35 140.71 42.48 140.54 42.54C140.44 42.57 140.34 42.59 140.23 42.57C139.7 42.47 139.17 42.27 138.61 42.05L137.87 41.77L137.75 41.73L137.7 41.6C137.43 40.95 137.05 40.42 136.53 39.95L136.48 39.91C136.1 39.62 135.84 39.43 135.63 39.29L135.71 39.03L135.61 39.28C135.08 38.96 134.5 38.7 133.94 38.45L133.17 38.09C131.73 37.42 130.27 36.82 128.86 36.4C127.45 36 126.05 35.71 124.65 35.53C123.25 35.35 121.87 35.28 120.49 35.32C119.11 35.35 117.79 35.6 116.44 35.89C115.23 36.17 114.02 36.5 112.74 36.84C112.24 36.98 111.72 37.12 111.19 37.26C111.82 38.06 112.34 38.74 112.95 39.51L113.23 39.87C113.2 40.81 113.2 41.78 113.2 42.75L113.13 42.83C112.38 43.63 111.73 44.21 111.15 44.58C110.41 45.05 109.76 45.21 109.11 45.11C107.88 44.91 106.68 43.8 104.88 41.18C104.34 41.67 103.8 42.16 103.29 42.67C102.1 43.84 100.89 45.02 99.82 46.31C99.29 46.96 98.78 47.63 98.34 48.34C97.9 49.06 97.54 49.86 97.24 50.68L97.06 51.19C96.55 52.59 96.05 54.03 95.9 55.49C95.79 56.62 95.73 57.75 95.69 58.88C95.67 60.03 95.69 61.19 95.71 62.31L95.77 65C95.79 65.58 95.82 66.17 95.84 66.79V66.97C95.86 67.24 95.75 67.49 95.54 67.62C95.34 67.75 95.07 67.76 94.82 67.64C93.69 67.12 93.44 66.17 93.24 65.33C93.15 64.95 93.27 64.88 92.86 64.3C92.34 63.56 91.4 64.08 91.4 64.08L89.22 61.38L89.44 61.23C90.68 60.38 91.57 59.93 92.86 61.13C92.75 59 92.83 56.94 93.15 55.02C93.49 53.13 94.03 51.33 94.77 49.62C96.21 46.15 98.62 43.33 101.72 40.86C99.31 40.05 97.04 40.01 94.82 39.98C93.95 39.98 93.04 39.95 92.16 39.92H91.86L91.88 39.6C92.15 35.96 94.55 34.52 96.84 33.14C97.16 32.95 97.47 32.75 97.78 32.56C98.11 31.34 98.04 30.13 97.97 28.8C97.87 26.95 97.79 25.04 98.99 23.21C99.11 23.03 99.24 22.84 99.39 22.65L99.57 22.43L99.8 22.6C101.98 24.22 103.94 25.72 105.82 27.21C110.81 24.29 113.71 24.46 116.37 27.91L116.49 28.07L116.39 28.24C115.95 29.02 115.26 29.61 114.58 30.17C113.4 31.16 112.27 32.1 112.41 34.05L113.13 33.94C113.81 33.84 114.44 33.75 115.04 33.58C116.54 33.17 118.01 32.8 119.53 32.7C121.04 32.58 122.55 32.57 124.04 32.68C125.53 32.8 126.99 33.02 128.45 33.4C129.92 33.81 131.36 34.34 132.77 34.99C133.15 35.17 133.55 35.37 133.96 35.6L134.12 35.69C134.44 35.86 134.87 36.07 135.33 36.29C135.89 36.56 136.46 36.84 136.92 37.1C136.53 35.4 137.02 34.27 138.58 33.65L138.95 33.51L140.11 36.78C140.11 36.78 138.89 37.06 139.59 38.74L139.54 38.76ZM111.01 40.81L110.63 40.48C109.84 39.78 109.18 39.21 108.17 39.42C108.05 39.45 107.92 39.49 107.78 39.54L107.98 42.1C108.9 42.3 109.44 42.41 109.82 42.33C110.32 42.22 110.55 41.79 111 40.81H111.01ZM112.58 28.16C110.87 27.63 109.59 27.97 108.43 29.22C107.84 29.86 107.15 30.4 106.52 30.97C106.24 31.22 105.96 31.47 105.69 31.71L105.5 31.89L105.31 31.69C104.03 30.4 102.91 29.25 101.67 27.99C101.41 27.73 101.15 27.47 100.88 27.21C100.71 29.9 100.67 32.03 101.86 34.04L102 34.28L101.78 34.42C100.9 34.99 99.93 35.31 99.02 35.69C98.03 36.08 97 36.49 96.08 37.22L97.11 37.45C98.13 37.69 99.01 37.9 99.9 38.01C101.34 38.18 102.65 38.2 103.79 38.01C104.93 37.82 105.89 37.42 106.69 36.8C107.64 36.08 108.35 35.05 108.82 33.72C109.78 31.19 110.95 29.5 112.57 28.13L112.58 28.16Z" fill="#E4E4E4"/>
<path d="M193.92 29.02C194.01 29.42 194.26 29.8 194.49 30.16C194.93 30.83 195.46 31.66 194.63 32.59L194.58 32.65L194.51 32.67C194.41 32.69 194.3 32.73 194.18 32.78C193.99 32.85 193.79 32.93 193.6 32.94C193.49 32.94 193.39 32.92 193.3 32.87C192.83 32.6 192.4 32.22 191.94 31.83L191.33 31.32L191.23 31.24V31.1C191.18 30.4 191 29.76 190.67 29.15L190.64 29.1C190.38 28.7 190.2 28.43 190.04 28.23L190.2 28.01L190.02 28.21C189.63 27.73 189.17 27.29 188.72 26.85L188.11 26.25C186.97 25.09 185.8 24.13 184.61 23.27C183.41 22.41 182.19 21.66 180.93 21.01C179.67 20.37 178.39 19.8 177.08 19.41C175.77 19.04 174.44 18.77 173.08 18.61C171.85 18.46 170.6 18.36 169.27 18.25C168.75 18.2 168.22 18.17 167.67 18.16C167.99 19.12 168.26 19.92 168.57 20.85L168.71 21.28L167.72 24.01L167.63 24.06C166.65 24.56 165.85 24.89 165.17 25.04C164.31 25.23 163.65 25.17 163.07 24.85C161.98 24.25 161.22 22.8 160.4 19.73C159.73 20 159.06 20.33 158.41 20.63C156.89 21.33 155.36 22.03 153.92 22.89C153.2 23.32 152.5 23.78 151.85 24.31C151.2 24.87 150.59 25.48 150.03 26.16L149.69 26.58C148.74 27.73 147.79 28.92 147.16 30.25C146.68 31.27 146.24 32.32 145.83 33.38C145.43 34.46 145.06 35.56 144.7 36.63L143.86 39.19C143.69 39.75 143.52 40.31 143.33 40.9L143.28 41.07C143.2 41.33 143.01 41.52 142.77 41.58C142.53 41.63 142.28 41.55 142.09 41.36C141.2 40.49 141.28 39.52 141.37 38.66C141.41 38.28 141.55 38.25 141.35 37.56C141.11 36.69 140.05 36.87 140.05 36.87L138.89 33.6L139.15 33.53C140.6 33.15 141.59 33.02 142.41 34.57C143.02 32.53 143.78 30.61 144.72 28.9C145.67 27.23 146.78 25.71 148.05 24.36C148.68 23.68 149.36 23.04 150.07 22.44C150.78 21.83 151.53 21.28 152.33 20.82C153.92 19.86 155.66 19.07 157.54 18.44C155.54 16.87 153.41 16.06 151.33 15.29C150.52 14.98 149.68 14.67 148.84 14.35L148.56 14.24L148.68 13.95C150.14 10.58 152.9 10.06 155.51 9.51999C155.87 9.43999 156.23 9.36999 156.59 9.28999C157.3 8.23999 157.65 7.04999 158.02 5.78999C158.55 4.01999 159.11 2.18999 160.85 0.869987C161.03 0.739987 161.22 0.609987 161.42 0.479987L161.66 0.329987L161.82 0.559987C163.33 2.81999 164.68 4.88999 165.95 6.91999C171.62 5.78999 174.31 6.99999 175.65 11.11L175.71 11.3L175.56 11.43C174.89 12.02 174.03 12.33 173.21 12.63C171.76 13.16 170.39 13.66 169.87 15.54L170.59 15.68C171.26 15.81 171.89 15.94 172.52 15.99C174.07 16.1 175.58 16.31 177.05 16.64C178.52 17.02 179.94 17.54 181.3 18.15C184.03 19.4 186.53 20.98 188.76 23.23C189.06 23.53 189.37 23.86 189.68 24.21L189.8 24.35C190.04 24.62 190.38 24.96 190.74 25.32C191.18 25.77 191.62 26.22 191.97 26.62C192.17 24.87 193.01 24.04 194.69 23.89L195.08 23.87V27.34C195.08 27.34 193.84 27.25 193.94 29.06L193.92 29.02ZM166.33 21.41L166.09 20.97C165.58 20.04 165.15 19.28 164.13 19.14C164 19.12 163.87 19.12 163.72 19.12L163.05 21.6C163.86 22.1 164.33 22.38 164.71 22.43C165.22 22.5 165.57 22.17 166.33 21.4V21.41ZM172.04 10.01C170.61 8.92999 169.28 8.80999 167.77 9.59999C167 9.97999 166.18 10.35 165.39 10.64C165.04 10.78 164.7 10.92 164.36 11.06L164.12 11.16L164 10.91C163.23 9.25999 162.55 7.79999 161.8 6.19999C161.64 5.86999 161.48 5.53999 161.32 5.19999C160.26 7.66999 159.5 9.65999 159.95 11.96L160 12.23L159.74 12.29C159.23 12.41 158.72 12.46 158.21 12.5C157.71 12.55 157.21 12.57 156.72 12.58C155.65 12.62 154.54 12.66 153.44 13.03C153.75 13.23 154.05 13.42 154.34 13.6C155.22 14.17 155.98 14.66 156.78 15.07C159.38 16.35 161.67 16.85 163.58 16.21C164.72 15.85 165.73 15.12 166.62 14.04C168.36 11.91 170.04 10.77 172.02 10.02L172.04 10.01Z" fill="#E4E4E4"/>
<path d="M248.47 37.83C248.42 38.24 248.53 38.68 248.63 39.1C248.82 39.88 249.04 40.85 247.96 41.44L247.89 41.48H247.82C247.72 41.46 247.6 41.46 247.47 41.46C247.26 41.46 247.05 41.46 246.87 41.41C246.77 41.38 246.68 41.32 246.61 41.24C246.26 40.82 245.98 40.32 245.69 39.79C245.56 39.57 245.43 39.34 245.29 39.1L245.22 38.99L245.26 38.85C245.46 38.18 245.5 37.51 245.39 36.82V36.76C245.27 36.29 245.19 35.97 245.11 35.73L245.33 35.58L245.1 35.7C244.89 35.12 244.61 34.53 244.32 34L243.94 33.25C242.53 30.43 240.85 27.98 238.91 25.89C236.96 23.88 234.73 22.31 232.29 21.04C231.19 20.45 230.03 19.98 228.8 19.49C228.32 19.29 227.83 19.1 227.32 18.89C227.31 19.9 227.29 20.75 227.28 21.73V22.19L225.44 24.41H225.34C224.25 24.56 223.39 24.58 222.7 24.49C221.83 24.37 221.23 24.07 220.78 23.61C219.95 22.72 219.7 21.11 219.94 17.95C219.21 18.01 218.48 18.07 217.76 18.13C216.1 18.27 214.43 18.37 212.78 18.72C211.13 19.11 209.52 19.66 208.02 20.55L207.56 20.82C206.29 21.58 204.99 22.35 203.96 23.4C202.38 25.07 200.9 26.89 199.52 28.66L197.87 30.77C197.52 31.23 197.17 31.7 196.8 32.2L196.69 32.34C196.53 32.56 196.29 32.67 196.04 32.64C195.8 32.61 195.59 32.45 195.47 32.2C194.91 31.1 195.32 30.19 195.69 29.41C195.85 29.06 195.99 29.08 196.04 28.37C196.07 27.92 195.82 27.65 195.56 27.48C195.3 27.31 195.04 27.29 195.04 27.29V23.82H195.3C196.8 23.96 197.78 24.19 198.03 25.93C199.28 24.22 200.64 22.7 202.09 21.39C202.82 20.73 203.57 20.12 204.35 19.57C205.12 19.05 205.92 18.58 206.74 18.16C210.03 16.5 213.7 15.55 217.64 15.74C216.27 13.6 214.54 12.02 212.82 10.69C212.15 10.16 211.45 9.61001 210.78 9.03001L210.55 8.83001L210.76 8.60001C212.01 7.25001 213.33 6.63001 214.67 6.41001C216 6.24001 217.35 6.45001 218.67 6.65001L219.76 6.81001C220.77 6.08001 221.5 5.05001 222.27 3.96001C223.35 2.45001 224.5 0.830011 226.57 0.210011C226.78 0.150011 227 0.090011 227.23 0.040011L227.5 -0.019989L227.57 0.250011C228.25 2.90001 228.83 5.32001 229.36 7.66001C230.79 7.84001 232.01 8.09001 233.02 8.43001C234.02 8.81001 234.82 9.30001 235.44 9.88001C236.68 11.05 237.18 12.64 237.14 14.82V15.02L236.95 15.09C236.12 15.41 235.22 15.41 234.34 15.41C232.8 15.41 231.34 15.41 230.22 17.05C230.44 17.17 230.65 17.29 230.86 17.4C231.46 17.71 232 18.08 232.58 18.33C235.42 19.63 237.99 21.19 240.15 23.27C242.31 25.37 244.1 27.8 245.5 30.53C245.69 30.89 245.87 31.32 246.04 31.76L246.11 31.93C246.25 32.27 246.45 32.71 246.67 33.17C246.93 33.74 247.2 34.32 247.39 34.82C248.16 33.24 249.23 32.75 250.85 33.18L251.23 33.29L250.08 36.56C250.08 36.56 248.94 36.05 248.44 37.79L248.47 37.83ZM224.98 21.51L224.89 21.01C224.71 19.96 224.56 19.1 223.64 18.61C223.53 18.55 223.4 18.5 223.26 18.45L221.81 20.55C222.4 21.29 222.75 21.73 223.1 21.91C223.56 22.15 224 21.96 224.96 21.51H224.98ZM234.15 12.61C233.16 11.07 231.95 10.56 230.25 10.86C229.38 11.01 228.5 11.03 227.66 11.05L226.55 11.09H226.29L226.26 10.83C226.08 9.01001 225.92 7.40001 225.74 5.64001C225.7 5.28001 225.66 4.91001 225.62 4.53001C223.81 6.46001 222.43 8.17001 222.1 10.48L222.06 10.75L221.8 10.73C220.75 10.65 219.79 10.34 218.85 10.03C217.83 9.69001 216.78 9.35001 215.61 9.32001C215.84 9.61001 216.06 9.89001 216.27 10.16C216.92 11 217.47 11.73 218.09 12.38C219.1 13.46 220.11 14.26 221.12 14.8C221.62 15.07 222.13 15.27 222.63 15.4C223.13 15.55 223.63 15.64 224.13 15.66C225.32 15.71 226.51 15.38 227.71 14.67C230.05 13.31 232.05 12.57 234.15 12.61V12.61Z" fill="#E4E4E4"/>
<path d="M296.93 64.33C296.75 64.7 296.7 65.15 296.66 65.58C296.58 66.38 296.47 67.36 295.25 67.56H295.17L295.11 67.54C295.02 67.49 294.91 67.45 294.79 67.42C294.59 67.35 294.39 67.29 294.24 67.17C294.16 67.1 294.09 67.02 294.05 66.92C293.86 66.41 293.77 65.84 293.66 65.24C293.61 64.99 293.57 64.73 293.52 64.45L293.49 64.32L293.57 64.21C293.98 63.64 294.24 63.03 294.37 62.33V62.27C294.43 61.79 294.46 61.46 294.46 61.21L294.72 61.14L294.46 61.18C294.46 60.56 294.39 59.91 294.29 59.32L294.18 58.49C293.79 55.36 293.02 52.49 291.9 49.87C290.72 47.34 289.16 45.09 287.28 43.08C286.44 42.15 285.49 41.36 284.51 40.46C284.12 40.11 283.73 39.76 283.32 39.39C282.97 40.34 282.67 41.14 282.33 42.06L282.17 42.49L279.7 43.97L279.6 43.95C278.53 43.71 277.72 43.44 277.1 43.12C276.33 42.71 275.83 42.29 275.57 41.68C275.08 40.55 275.4 38.96 276.68 36.06C275.98 35.87 275.27 35.68 274.58 35.49C271.41 34.55 268 33.88 264.6 34.52L264.08 34.62C263.36 34.76 262.63 34.9 261.91 35.09C261.18 35.3 260.48 35.56 259.81 35.89C257.77 36.92 255.78 38.13 253.89 39.32L251.64 40.75C251.15 41.06 250.67 41.38 250.15 41.75L250 41.85C249.77 42.01 249.5 42.05 249.28 41.95C249.06 41.85 248.91 41.64 248.88 41.37C248.72 40.15 249.4 39.43 250.02 38.81C250.29 38.53 250.42 38.59 250.7 37.93C251.06 37.1 250.11 36.6 250.11 36.6L251.26 33.33L251.51 33.43C252.9 33.99 253.75 34.51 253.4 36.25C256.88 33.89 260.52 32.37 264.2 31.84C266.02 31.61 267.87 31.61 269.73 31.82C270.66 31.93 271.59 32.08 272.53 32.3C273.45 32.55 274.36 32.86 275.28 33.22C275 31.96 274.58 30.84 274.09 29.78C273.59 28.74 273 27.81 272.42 26.87C271.97 26.14 271.49 25.38 271.06 24.61L270.91 24.34L271.18 24.2C274.43 22.49 276.98 23.68 279.29 25C279.62 25.17 279.94 25.35 280.26 25.52C281.46 25.18 282.48 24.45 283.58 23.68C285.11 22.62 286.72 21.49 288.9 21.57C289.12 21.58 289.35 21.6 289.58 21.64L289.86 21.68L289.84 21.96C289.59 24.69 289.33 27.16 289.04 29.55C291.62 30.85 293.28 32.12 294.03 33.67C294.8 35.19 294.74 36.86 293.97 38.9L293.9 39.09H293.71C292.82 39.13 291.97 38.82 291.15 38.52C290.42 38.26 289.73 38 289 37.97C288.26 37.95 287.51 38.13 286.72 38.71C286.88 38.9 287.05 39.08 287.2 39.25C287.65 39.76 288.07 40.24 288.52 40.68C290.76 42.85 292.65 45.21 294 47.87C295.33 50.58 296.21 53.47 296.62 56.51C296.68 56.92 296.71 57.37 296.72 57.84V58.02C296.74 58.39 296.79 58.87 296.84 59.38C296.9 60.01 296.95 60.64 296.97 61.18C298.22 59.95 299.39 59.84 300.78 60.79L301.1 61.02L298.93 63.72C298.93 63.72 298.02 62.86 296.97 64.33H296.93ZM280.23 41.09L280.32 40.59C280.51 39.54 280.65 38.68 279.95 37.91C279.86 37.82 279.76 37.72 279.65 37.63L277.57 39.16C277.9 40.03 278.09 40.54 278.35 40.84C278.7 41.22 279.18 41.2 280.24 41.09H280.23ZM291.85 35.77C291.44 33.98 290.44 33.14 288.75 32.83C287.89 32.68 287.05 32.4 286.25 32.13C285.9 32.02 285.54 31.9 285.2 31.79L284.95 31.71L285.02 31.44C285.46 29.66 285.85 28.1 286.27 26.37C286.35 26.02 286.44 25.65 286.53 25.28C284.15 26.55 282.29 27.67 281.2 29.73L281.07 29.98L280.83 29.87C279.87 29.44 279.07 28.82 278.29 28.21C277.44 27.55 276.57 26.86 275.48 26.44C275.6 26.79 275.71 27.13 275.81 27.46C276.14 28.47 276.41 29.34 276.77 30.17C277.95 32.9 279.5 34.55 281.38 35.28C282.48 35.73 283.71 35.82 285.08 35.55C287.73 35.05 289.86 35.04 291.84 35.76L291.85 35.77Z" fill="#E4E4E4"/>
<path d="M333.88 105.43C333.58 105.72 333.39 106.13 333.21 106.52C332.87 107.25 332.44 108.14 331.22 107.92H331.14L331.09 107.86C331.02 107.79 330.93 107.71 330.83 107.64C330.67 107.51 330.5 107.38 330.4 107.22C330.34 107.13 330.31 107.03 330.3 106.92C330.29 106.37 330.39 105.81 330.49 105.21C330.53 104.96 330.57 104.7 330.61 104.42L330.63 104.29L330.75 104.21C331.32 103.81 331.77 103.32 332.12 102.71L332.15 102.66C332.36 102.23 332.49 101.93 332.58 101.69L332.85 101.71L332.59 101.66C332.79 101.07 332.94 100.44 333.07 99.83L333.24 99.01C333.9 95.93 334.12 92.97 333.92 90.13C333.68 87.32 332.92 84.72 331.81 82.19C331.32 81.04 330.72 79.95 330.07 78.79C329.82 78.34 329.56 77.87 329.3 77.39C328.65 78.17 328.11 78.82 327.48 79.58L327.19 79.93L324.37 80.51L324.28 80.46C323.35 79.88 322.67 79.36 322.19 78.85C321.6 78.2 321.29 77.62 321.24 76.97C321.15 75.75 321.97 74.35 324.15 72.04C323.55 71.63 322.94 71.21 322.35 70.81C319.67 68.88 316.69 67.09 313.26 66.58L312.73 66.5C311.28 66.27 309.78 66.07 308.28 66.28C306.01 66.57 303.73 67.05 301.55 67.55L298.96 68.15C298.39 68.28 297.84 68.42 297.23 68.59L297.06 68.64C296.79 68.72 296.53 68.66 296.35 68.49C296.17 68.32 296.11 68.07 296.17 67.8C296.43 66.6 297.31 66.15 298.1 65.76C298.45 65.59 298.55 65.69 299.04 65.16C299.65 64.5 298.93 63.71 298.93 63.71L301.1 61.01L301.3 61.19C302.42 62.18 303.05 62.96 302.14 64.48C306.21 63.42 310.16 63.18 313.79 63.92C315.59 64.31 317.33 64.91 319.02 65.73C319.86 66.14 320.7 66.58 321.49 67.12C322.27 67.66 323.04 68.26 323.79 68.9C324.09 66.35 323.7 64.08 323.2 61.96C323.01 61.12 322.82 60.25 322.66 59.38L322.61 59.08L322.91 59.04C324.73 58.77 326.14 59.14 327.32 59.8C328.51 60.46 329.39 61.51 330.29 62.49C330.54 62.76 330.79 63.03 331.04 63.3C332.28 63.37 333.49 63.02 334.78 62.66C336.56 62.17 338.48 61.62 340.49 62.44C340.69 62.52 340.9 62.62 341.11 62.73L341.36 62.86L341.24 63.12C340.1 65.61 339.03 67.85 337.97 70.01C338.97 71.05 339.76 72.01 340.33 72.91C340.88 73.83 341.19 74.71 341.31 75.55C341.54 77.23 340.93 78.79 339.53 80.46L339.4 80.61L339.21 80.55C338.36 80.28 337.66 79.71 336.98 79.16C335.79 78.19 334.65 77.28 332.74 77.86C332.83 78.09 332.93 78.31 333.02 78.53C333.29 79.15 333.48 79.78 333.77 80.33C334.48 81.72 335.07 83.13 335.55 84.56C336.02 86 336.4 87.42 336.56 88.93C336.92 91.92 336.81 94.93 336.18 97.94C336.08 98.35 335.96 98.79 335.82 99.24L335.77 99.42C335.67 99.77 335.55 100.24 335.43 100.74C335.28 101.35 335.12 101.97 334.96 102.48C336.55 101.73 337.69 102.01 338.69 103.37L338.91 103.69L335.96 105.52C335.96 105.52 335.39 104.41 333.91 105.45L333.88 105.43ZM325.82 77.97L326.06 77.53C326.58 76.6 327.01 75.84 326.6 74.88C326.55 74.76 326.49 74.64 326.41 74.52C325.59 74.76 324.78 75 323.95 75.26C323.98 76.19 323.95 76.76 324.11 77.12C324.31 77.59 324.78 77.73 325.81 77.98L325.82 77.97ZM338.54 76.8C338.74 74.98 338.11 73.83 336.6 72.99C335.83 72.56 335.14 72.02 334.47 71.5C334.17 71.28 333.88 71.05 333.59 70.83L333.38 70.68L333.53 70.45C334.53 68.92 335.42 67.57 336.39 66.09C336.59 65.78 336.79 65.47 336.99 65.15C334.35 65.53 332.21 65.99 330.5 67.58L330.3 67.77L330.11 67.59C329.35 66.87 328.8 66.02 328.26 65.18C327.68 64.28 327.08 63.34 326.19 62.58C326.19 62.95 326.18 63.31 326.17 63.65C326.14 64.71 326.12 65.62 326.18 66.53C326.38 69.5 327.32 71.55 328.82 72.88C329.71 73.67 330.84 74.16 332.23 74.36C334.9 74.77 336.92 75.45 338.54 76.8V76.8Z" fill="#E4E4E4"/>
<path d="M355.02 156.44C354.64 156.61 354.33 156.93 354.02 157.24C353.46 157.81 352.75 158.51 351.68 157.89L351.61 157.85L351.58 157.79C351.54 157.7 351.48 157.6 351.41 157.49C351.3 157.31 351.18 157.14 351.14 156.95C351.12 156.85 351.12 156.74 351.14 156.64C351.31 156.12 351.59 155.62 351.89 155.09C352.01 154.86 352.14 154.63 352.27 154.39L352.33 154.28L352.47 154.24C353.15 154.05 353.73 153.74 354.27 153.28L354.31 153.24C354.65 152.9 354.88 152.66 355.04 152.47L355.29 152.58L355.06 152.45C355.44 151.97 355.81 151.41 356.11 150.89L356.54 150.17C358.2 147.49 359.4 144.77 360.16 142.03C360.86 139.31 361.02 136.59 360.81 133.85C360.76 133.23 360.71 132.6 360.62 131.98C360.52 131.36 360.41 130.72 360.31 130.07C360.22 129.56 360.14 129.04 360.05 128.49C359.18 129.01 358.45 129.44 357.61 129.95L357.22 130.18L354.37 129.79L354.31 129.71C353.63 128.85 353.15 128.14 352.87 127.5C352.52 126.7 352.44 126.04 352.6 125.41C352.92 124.23 354.16 123.18 356.98 121.73C356.55 121.14 356.11 120.55 355.69 119.97C354.69 118.64 353.76 117.25 352.56 116.05C351.37 114.85 350.06 113.77 348.52 112.96L348.05 112.71C346.74 112.02 345.43 111.31 343.94 111.02C341.7 110.55 339.38 110.25 337.16 110L334.51 109.71L332.74 109.55H332.56C332.28 109.52 332.05 109.38 331.94 109.16C331.83 108.95 331.85 108.69 331.99 108.45C332.63 107.4 333.61 107.27 334.48 107.16C334.87 107.11 334.93 107.24 335.56 106.9C336.36 106.48 335.93 105.5 335.93 105.5L338.88 103.67L339.01 103.9C339.75 105.2 340.05 106.17 338.7 107.3C340.81 107.47 342.8 107.83 344.67 108.38C346.53 108.94 348.34 109.65 349.87 110.63C352.98 112.57 355.75 115.18 357.65 118.64C358.77 116.34 359.19 114.05 359.41 111.89C359.51 111.04 359.61 110.15 359.76 109.28L359.81 108.98L360.11 109.04C361.92 109.39 363.13 110.2 364.02 111.22C364.89 112.25 365.4 113.52 365.92 114.75C366.07 115.09 366.21 115.43 366.36 115.76C367.51 116.24 368.77 116.32 370.1 116.4C371.95 116.53 373.94 116.65 375.55 118.09C375.71 118.24 375.88 118.39 376.04 118.57L376.23 118.77L376.03 118.97C374.13 120.94 372.38 122.7 370.66 124.38C371.26 125.69 371.69 126.86 371.92 127.9C372.12 128.95 372.13 129.89 371.96 130.72C371.61 132.39 370.53 133.65 368.65 134.76L368.48 134.86L368.32 134.74C367.61 134.21 367.14 133.43 366.68 132.69C365.88 131.38 365.12 130.14 363.12 130.05C363.13 130.3 363.15 130.54 363.16 130.77C363.21 131.45 363.17 132.1 363.27 132.72C363.48 134.27 363.56 135.8 363.54 137.3C363.5 138.81 363.4 140.28 363.04 141.76C362.38 144.7 361.26 147.5 359.68 150.12C359.47 150.47 359.19 150.85 358.91 151.22L358.8 151.37C358.58 151.67 358.32 152.07 358.04 152.5C357.69 153.02 357.34 153.55 357.01 153.98C358.76 153.81 359.74 154.45 360.22 156.06L360.32 156.44L356.93 157.18C356.93 157.18 356.77 155.94 355.02 156.42V156.44ZM356.59 127.88L356.97 127.55C357.77 126.85 358.43 126.27 358.36 125.23C358.36 125.1 358.33 124.97 358.3 124.83L355.74 124.71C355.44 125.6 355.24 126.13 355.27 126.52C355.3 127.03 355.7 127.31 356.59 127.89V127.88ZM368.97 131.01C369.35 130.19 369.52 129.45 369.42 128.75C369.31 128.06 368.98 127.41 368.41 126.77C367.83 126.11 367.35 125.37 366.89 124.66C366.68 124.35 366.48 124.04 366.28 123.74L366.13 123.52L366.35 123.35C367.8 122.24 369.09 121.26 370.5 120.19C370.79 119.97 371.08 119.74 371.38 119.5C368.78 118.97 366.59 118.7 364.46 119.63L364.21 119.74L364.09 119.51C363.61 118.58 363.37 117.59 363.14 116.63C362.89 115.59 362.63 114.5 362.05 113.5C361.92 113.85 361.8 114.18 361.68 114.5C361.3 115.49 360.97 116.34 360.74 117.22C360.35 118.65 360.2 119.93 360.27 121.07C360.35 122.21 360.65 123.21 361.12 124.09C361.7 125.13 362.6 125.97 363.84 126.62C366.23 127.89 367.9 129.21 368.97 131.02V131.01Z" fill="#E4E4E4"/>
<path d="M359.1 213.28C358.69 213.37 358.32 213.64 357.95 213.9C357.27 214.37 356.43 214.96 355.52 214.04L355.46 213.98V213.91C355.43 213.8 355.39 213.67 355.34 213.54C355.27 213.32 355.2 213.1 355.2 212.89C355.2 212.77 355.22 212.66 355.28 212.56C355.57 212.04 355.95 211.58 356.36 211.08C356.53 210.87 356.7 210.65 356.89 210.43L356.97 210.32H357.11C357.81 210.29 358.45 210.11 359.08 209.77L359.13 209.74C359.54 209.48 359.82 209.28 360.02 209.12L360.24 209.3L360.05 209.1C360.54 208.69 360.99 208.22 361.44 207.76L362.06 207.13C366.71 202.5 369.65 197.62 370.96 192.25C371.23 191.05 371.46 189.82 371.71 188.51C371.8 188 371.9 187.48 372 186.93C371 187.13 370.17 187.3 369.21 187.49L368.76 187.58L366.22 186.26L366.19 186.17C365.84 185.13 365.66 184.3 365.58 183.6C365.47 182.73 365.61 182.08 365.98 181.54C366.69 180.53 368.21 179.96 371.35 179.53C371.14 178.83 370.94 178.13 370.74 177.44C370.51 176.64 370.28 175.84 370.02 175.05C369.76 174.26 369.42 173.47 369.07 172.71C368.36 171.18 367.49 169.72 366.32 168.44L365.96 168.05C364.99 166.96 363.91 165.86 362.63 165.09C360.68 163.89 358.6 162.83 356.6 161.86L354.21 160.7C353.69 160.45 353.17 160.21 352.58 159.96L352.41 159.89C352.15 159.78 351.98 159.57 351.95 159.33C351.92 159.09 352.02 158.85 352.24 158.68C353.19 157.91 354.16 158.11 355.02 158.3C355.4 158.38 355.42 158.52 356.13 158.42C357.02 158.29 356.95 157.22 356.95 157.22L360.34 156.48L360.38 156.74C360.63 158.21 360.64 159.21 358.97 159.83C362.81 161.56 366 163.85 368.4 166.7C369.55 168.13 370.52 169.7 371.31 171.39C371.71 172.24 372.06 173.11 372.37 174.02C372.68 174.93 372.86 175.88 373.05 176.85C373.97 175.95 374.72 175 375.35 174.03C375.95 173.06 376.45 172.07 376.94 171.08C377.32 170.31 377.72 169.51 378.15 168.73L378.3 168.46L378.56 168.62C381.69 170.5 382.07 173.27 382.14 175.94C382.16 176.31 382.18 176.68 382.2 177.04C383.12 177.88 384.27 178.37 385.5 178.9C387.21 179.64 388.98 180.42 390.11 182.31C390.22 182.5 390.34 182.7 390.42 182.92L390.53 183.18L390.28 183.31C387.82 184.53 385.57 185.61 383.38 186.62C383.61 189.49 383.38 191.59 382.54 193.01C381.68 194.39 380.24 195.2 378.11 195.65L377.91 195.69L377.8 195.53C377.3 194.82 377.1 193.95 376.9 193.11C376.54 191.62 376.16 190.19 374.35 189.44C374.28 189.68 374.21 189.91 374.14 190.14C373.94 190.79 373.75 191.4 373.64 192.01C372.47 198.09 369.56 203.44 365.08 207.92C364.78 208.22 364.44 208.53 364.07 208.84C364.03 208.88 363.98 208.92 363.93 208.96C363.65 209.21 363.3 209.55 362.93 209.92C362.47 210.37 362.01 210.83 361.6 211.19C363.34 211.45 364.15 212.35 364.26 214.1V214.51H360.8C360.8 214.51 360.92 213.18 359.11 213.27L359.1 213.28ZM368.94 185.19L369.41 185C370.4 184.61 371.23 184.28 371.49 183.28C371.52 183.16 371.54 183.02 371.55 182.88L369.15 181.91C368.57 182.65 368.24 183.08 368.15 183.45C368.04 183.94 368.29 184.34 368.94 185.19V185.19ZM379.58 192.27C380.8 190.98 381.05 189.68 380.42 188.09C380.1 187.28 379.91 186.42 379.72 185.6C379.63 185.24 379.55 184.88 379.46 184.52L379.4 184.27L379.66 184.19C381.4 183.63 382.93 183.14 384.62 182.59C384.96 182.48 385.31 182.36 385.67 182.24C383.32 180.88 381.41 179.89 379.08 180.05L378.8 180.07L378.77 179.81C378.64 178.77 378.75 177.76 378.86 176.78C378.97 175.71 379.13 174.61 378.89 173.46C378.67 173.74 378.44 174.02 378.21 174.28C377.52 175.09 376.92 175.78 376.4 176.53C374.7 178.96 374.06 181.15 374.48 183.13C374.7 184.3 375.24 185.4 376.19 186.42C378.02 188.41 379.06 190.22 379.59 192.28L379.58 192.27Z" fill="#E4E4E4"/>
<path d="M359.1 273.51C358.69 273.6 358.32 273.87 357.95 274.13C357.27 274.6 356.43 275.19 355.52 274.27L355.46 274.21V274.14C355.43 274.03 355.39 273.9 355.34 273.77C355.27 273.55 355.2 273.33 355.2 273.12C355.2 273 355.22 272.89 355.28 272.79C355.57 272.27 355.95 271.81 356.36 271.31C356.53 271.1 356.7 270.88 356.89 270.66L356.97 270.55H357.11C357.81 270.52 358.45 270.34 359.08 270L359.13 269.97C359.54 269.71 359.82 269.51 360.02 269.35L360.24 269.53L360.05 269.33C360.54 268.92 360.99 268.45 361.44 267.99L362.06 267.36C366.72 262.72 369.64 257.86 370.97 252.47C371.27 251.26 371.53 250.02 371.81 248.71C371.92 248.2 372.03 247.68 372.14 247.13C371.14 247.3 370.3 247.44 369.33 247.61L368.88 247.69L366.37 246.24L366.34 246.14C366.02 245.05 365.84 244.17 365.81 243.45C365.77 242.54 365.95 241.87 366.37 241.34C367.15 240.34 368.71 239.87 371.88 239.67C371.73 238.95 371.57 238.23 371.42 237.52C370.74 234.24 370.04 230.84 368.04 227.9L367.73 227.45C366.88 226.2 366 224.9 364.89 223.88C363.18 222.31 361.32 220.81 359.52 219.37L357.37 217.63C356.9 217.25 356.42 216.87 355.91 216.47L355.76 216.36C355.54 216.18 355.42 215.92 355.44 215.65C355.46 215.38 355.62 215.15 355.87 215.01C356.98 214.4 357.87 214.85 358.66 215.25C359.01 215.43 359 215.58 359.71 215.63C360.61 215.69 360.78 214.55 360.78 214.55H364.25L364.23 214.83C364.13 216.4 363.93 217.43 362.2 217.73C369.19 222.95 372.98 229.31 373.76 237.14C375.74 235.52 377 233.68 378.23 231.89C378.71 231.19 379.2 230.47 379.73 229.78L379.91 229.54L380.15 229.72C383.05 231.89 382.98 234.51 382.9 237.04C382.9 237.39 382.89 237.74 382.88 238.08C383.73 238.94 384.85 239.48 386.03 240.06C387.68 240.86 389.38 241.69 390.37 243.46C390.47 243.64 390.57 243.83 390.65 244.03L390.75 244.27L390.49 244.37C388 245.37 385.72 246.29 383.51 247.18C383.83 252.62 382.35 254.98 378.09 255.87L377.89 255.91L377.78 255.75C377.28 255.04 377.08 254.17 376.88 253.33C376.54 251.86 376.21 250.46 374.41 249.69C374.33 249.92 374.25 250.15 374.18 250.38C373.96 251.02 373.75 251.63 373.63 252.24C372.43 258.32 369.54 263.67 365.05 268.15C364.75 268.45 364.41 268.76 364.04 269.07C364 269.11 363.95 269.15 363.9 269.19C363.62 269.44 363.27 269.78 362.9 270.15C362.44 270.6 361.98 271.06 361.57 271.42C363.31 271.68 364.12 272.58 364.23 274.33V274.74H360.77C360.77 274.74 360.89 273.41 359.08 273.5L359.1 273.51ZM369.13 245.26L369.6 245.09C370.6 244.73 371.43 244.44 371.74 243.45C371.78 243.33 371.81 243.2 371.83 243.05L369.51 241.93C368.88 242.64 368.52 243.07 368.4 243.45C368.24 243.95 368.5 244.37 369.13 245.26V245.26ZM379.59 252.52C380.84 251.28 381.12 250.05 380.54 248.51C380.24 247.72 380.07 246.89 379.9 246.09C379.82 245.74 379.75 245.39 379.67 245.04L379.61 244.79L379.88 244.72C381.64 244.27 383.19 243.87 384.9 243.44C385.25 243.35 385.61 243.26 385.97 243.16C383.72 241.78 381.9 240.71 379.56 240.71H379.28V240.46C379.21 239.45 379.4 238.48 379.59 237.55C379.79 236.53 380 235.49 379.89 234.37C379.63 234.62 379.38 234.86 379.13 235.09C378.38 235.8 377.73 236.42 377.15 237.1C375.27 239.32 374.46 241.47 374.73 243.45C374.88 244.62 375.42 245.73 376.34 246.76C378.12 248.78 379.11 250.53 379.59 252.52V252.52Z" fill="#E4E4E4"/>
<path d="M359.1 333.74C358.69 333.83 358.32 334.1 357.95 334.36C357.27 334.83 356.43 335.42 355.52 334.5L355.46 334.44V334.37C355.43 334.26 355.39 334.13 355.34 334C355.27 333.78 355.2 333.56 355.2 333.35C355.2 333.23 355.22 333.12 355.28 333.02C355.57 332.5 355.95 332.04 356.36 331.54C356.53 331.33 356.71 331.12 356.89 330.89L356.97 330.78H357.11C357.81 330.75 358.45 330.57 359.08 330.23L359.13 330.2C359.54 329.94 359.82 329.74 360.02 329.58L360.24 329.76L360.05 329.56C360.54 329.15 360.99 328.68 361.44 328.22C361.64 328.01 361.85 327.8 362.06 327.59C366.72 322.95 369.64 318.09 370.97 312.7C371.27 311.49 371.53 310.25 371.81 308.94C371.92 308.43 372.03 307.91 372.14 307.36C371.14 307.53 370.3 307.67 369.33 307.84L368.88 307.92L366.37 306.47L366.34 306.37C366.02 305.28 365.84 304.4 365.81 303.68C365.77 302.77 365.95 302.1 366.37 301.57C367.15 300.57 368.71 300.1 371.88 299.9C371.72 299.18 371.57 298.46 371.42 297.75C370.74 294.47 370.04 291.07 368.04 288.13L367.73 287.68C366.88 286.43 366 285.13 364.89 284.11C363.18 282.54 361.32 281.04 359.52 279.6C358.8 279.02 358.08 278.44 357.37 277.86C356.9 277.47 356.42 277.1 355.91 276.7L355.76 276.59C355.54 276.41 355.42 276.15 355.44 275.88C355.46 275.61 355.62 275.38 355.87 275.24C356.98 274.63 357.87 275.08 358.66 275.48C359.01 275.66 359 275.81 359.71 275.86C360.61 275.92 360.78 274.78 360.78 274.78H364.25L364.23 275.06C364.13 276.63 363.93 277.66 362.2 277.96C369.19 283.18 372.98 289.54 373.76 297.37C375.74 295.75 377 293.91 378.23 292.12C378.71 291.42 379.2 290.7 379.73 290.01L379.91 289.77L380.15 289.95C383.05 292.12 382.98 294.74 382.9 297.27C382.9 297.62 382.88 297.97 382.88 298.31C383.73 299.17 384.85 299.71 386.03 300.29C387.68 301.09 389.38 301.92 390.37 303.69C390.47 303.87 390.57 304.06 390.65 304.26L390.75 304.5L390.49 304.6C388 305.6 385.72 306.52 383.51 307.41C383.83 312.85 382.35 315.21 378.09 316.1L377.89 316.14L377.78 315.98C377.28 315.27 377.08 314.4 376.88 313.56C376.54 312.09 376.21 310.69 374.41 309.92C374.33 310.16 374.26 310.39 374.18 310.61C373.96 311.25 373.75 311.86 373.63 312.47C372.43 318.55 369.54 323.9 365.05 328.38C364.75 328.68 364.41 328.99 364.04 329.3C364 329.34 363.95 329.38 363.9 329.42C363.62 329.67 363.27 330.01 362.9 330.38C362.44 330.83 361.98 331.29 361.57 331.65C363.31 331.91 364.12 332.81 364.23 334.56V334.97H360.77C360.77 334.97 360.89 333.64 359.08 333.73L359.1 333.74ZM369.13 305.49C369.29 305.43 369.44 305.37 369.6 305.32C370.6 304.96 371.43 304.67 371.74 303.68C371.78 303.56 371.81 303.43 371.83 303.28L369.51 302.16C368.88 302.87 368.52 303.3 368.4 303.68C368.24 304.18 368.5 304.6 369.13 305.49ZM379.59 312.75C380.84 311.51 381.12 310.28 380.54 308.74C380.24 307.95 380.07 307.12 379.9 306.32C379.83 305.97 379.75 305.62 379.67 305.27L379.61 305.02L379.88 304.95C381.64 304.5 383.19 304.1 384.9 303.67C385.25 303.58 385.61 303.49 385.97 303.39C383.72 302.01 381.9 300.94 379.56 300.94H379.28V300.69C379.21 299.68 379.4 298.71 379.59 297.78C379.79 296.76 380 295.72 379.89 294.6C379.63 294.85 379.38 295.09 379.13 295.32C378.38 296.03 377.73 296.65 377.15 297.33C375.27 299.55 374.46 301.7 374.73 303.68C374.88 304.85 375.42 305.96 376.34 306.99C378.12 309.01 379.11 310.76 379.59 312.75V312.75Z" fill="#E4E4E4"/>
<path d="M359.1 393.97C358.69 394.06 358.32 394.33 357.95 394.59C357.27 395.06 356.43 395.65 355.52 394.73L355.46 394.67V394.6C355.43 394.49 355.39 394.36 355.34 394.23C355.27 394.01 355.2 393.79 355.2 393.58C355.2 393.46 355.22 393.35 355.28 393.25C355.57 392.73 355.95 392.27 356.36 391.77C356.53 391.56 356.71 391.35 356.89 391.12L356.97 391.01H357.11C357.81 390.98 358.45 390.8 359.08 390.46L359.13 390.43C359.54 390.17 359.82 389.97 360.02 389.81L360.24 389.99L360.05 389.79C360.54 389.38 360.99 388.91 361.44 388.45C361.64 388.24 361.85 388.03 362.06 387.82C366.72 383.18 369.64 378.32 370.97 372.93C371.27 371.72 371.53 370.48 371.81 369.17C371.92 368.66 372.03 368.14 372.14 367.59C371.14 367.76 370.3 367.9 369.33 368.07L368.88 368.15L366.37 366.7L366.34 366.6C366.02 365.51 365.84 364.63 365.81 363.91C365.77 363 365.95 362.33 366.37 361.8C367.15 360.8 368.71 360.33 371.88 360.13C371.72 359.41 371.57 358.69 371.42 357.98C370.74 354.7 370.04 351.3 368.04 348.36L367.73 347.91C366.88 346.66 366 345.36 364.89 344.34C363.18 342.77 361.32 341.27 359.52 339.83C358.8 339.25 358.08 338.67 357.37 338.09C356.9 337.7 356.42 337.33 355.91 336.93L355.76 336.82C355.54 336.64 355.42 336.38 355.44 336.11C355.46 335.84 355.62 335.61 355.87 335.47C356.98 334.86 357.87 335.31 358.66 335.71C359.01 335.89 359 336.04 359.71 336.09C360.61 336.15 360.78 335.01 360.78 335.01H364.25L364.23 335.29C364.13 336.86 363.93 337.89 362.2 338.19C369.19 343.41 372.98 349.77 373.76 357.6C375.74 355.98 377 354.14 378.23 352.35C378.71 351.65 379.2 350.93 379.73 350.24L379.91 350L380.15 350.18C383.05 352.35 382.98 354.97 382.9 357.5C382.9 357.85 382.88 358.2 382.88 358.54C383.73 359.4 384.85 359.94 386.03 360.52C387.68 361.32 389.38 362.15 390.37 363.92C390.47 364.1 390.57 364.29 390.65 364.49L390.75 364.73L390.49 364.83C388 365.83 385.72 366.75 383.51 367.64C383.83 373.08 382.35 375.44 378.09 376.33L377.89 376.37L377.78 376.21C377.28 375.5 377.08 374.63 376.88 373.79C376.54 372.32 376.21 370.92 374.41 370.15C374.33 370.39 374.26 370.62 374.18 370.84C373.96 371.48 373.75 372.09 373.63 372.7C372.43 378.78 369.54 384.13 365.05 388.61C364.75 388.91 364.41 389.22 364.04 389.53C364 389.57 363.95 389.61 363.9 389.65C363.62 389.9 363.27 390.24 362.9 390.61C362.44 391.06 361.98 391.52 361.57 391.88C363.31 392.14 364.12 393.04 364.23 394.79V395.2H360.77C360.77 395.2 360.89 393.87 359.08 393.96L359.1 393.97ZM369.13 365.72C369.29 365.66 369.44 365.6 369.6 365.55C370.6 365.19 371.43 364.9 371.74 363.91C371.78 363.79 371.81 363.66 371.83 363.51L369.51 362.39C368.88 363.1 368.52 363.53 368.4 363.91C368.24 364.41 368.5 364.83 369.13 365.72ZM379.59 372.98C380.84 371.74 381.12 370.51 380.54 368.97C380.24 368.18 380.07 367.35 379.9 366.55C379.83 366.2 379.75 365.85 379.67 365.5L379.61 365.25L379.88 365.18C381.64 364.73 383.19 364.33 384.9 363.9C385.25 363.81 385.61 363.72 385.97 363.62C383.72 362.24 381.9 361.17 379.56 361.17H379.28V360.92C379.21 359.91 379.4 358.94 379.59 358.01C379.79 356.99 380 355.95 379.89 354.83C379.63 355.08 379.38 355.32 379.13 355.55C378.38 356.26 377.73 356.88 377.15 357.56C375.27 359.78 374.46 361.93 374.73 363.91C374.88 365.08 375.42 366.19 376.34 367.22C378.12 369.24 379.11 370.99 379.59 372.98V372.98Z" fill="#E4E4E4"/>
<path d="M359.1 454.2C358.69 454.29 358.32 454.56 357.95 454.82C357.27 455.29 356.43 455.88 355.52 454.96L355.46 454.9V454.83C355.43 454.72 355.39 454.59 355.34 454.46C355.27 454.24 355.2 454.02 355.2 453.81C355.2 453.69 355.22 453.58 355.28 453.48C355.57 452.96 355.95 452.5 356.36 452C356.53 451.79 356.71 451.58 356.89 451.35L356.97 451.24H357.11C357.81 451.21 358.45 451.03 359.08 450.69L359.13 450.66C359.54 450.4 359.82 450.2 360.02 450.04L360.24 450.22L360.05 450.02C360.54 449.61 360.99 449.14 361.44 448.68C361.64 448.47 361.85 448.26 362.06 448.05C366.72 443.41 369.64 438.55 370.97 433.16C371.27 431.95 371.53 430.71 371.81 429.4C371.92 428.89 372.03 428.37 372.14 427.82C371.14 427.99 370.3 428.13 369.33 428.3L368.88 428.38L366.37 426.93L366.34 426.83C366.02 425.74 365.84 424.86 365.81 424.14C365.77 423.23 365.95 422.56 366.37 422.03C367.15 421.03 368.71 420.56 371.88 420.36C371.72 419.64 371.57 418.92 371.42 418.21C370.74 414.93 370.04 411.53 368.04 408.59L367.73 408.14C366.88 406.89 366 405.59 364.89 404.57C363.18 403 361.32 401.5 359.52 400.06C358.8 399.48 358.08 398.9 357.37 398.32C356.9 397.93 356.42 397.56 355.91 397.16L355.76 397.05C355.54 396.87 355.42 396.61 355.44 396.34C355.46 396.07 355.62 395.84 355.87 395.7C356.98 395.09 357.87 395.54 358.66 395.94C359.01 396.12 359 396.27 359.71 396.32C360.61 396.38 360.78 395.24 360.78 395.24H364.25L364.23 395.52C364.13 397.09 363.93 398.12 362.2 398.42C369.19 403.64 372.98 410 373.76 417.83C375.74 416.21 377 414.37 378.23 412.58C378.71 411.88 379.2 411.16 379.73 410.47L379.91 410.23L380.15 410.41C383.05 412.58 382.98 415.2 382.9 417.73C382.9 418.08 382.88 418.43 382.88 418.77C383.73 419.63 384.85 420.17 386.03 420.75C387.68 421.55 389.38 422.38 390.37 424.15C390.47 424.33 390.57 424.52 390.65 424.72L390.75 424.96L390.49 425.06C388 426.06 385.72 426.98 383.51 427.87C383.83 433.31 382.35 435.67 378.09 436.56L377.89 436.6L377.78 436.44C377.28 435.73 377.08 434.86 376.88 434.02C376.54 432.55 376.21 431.15 374.41 430.38C374.33 430.62 374.26 430.85 374.18 431.07C373.96 431.71 373.75 432.32 373.63 432.93C372.43 439.01 369.54 444.36 365.05 448.84C364.75 449.14 364.41 449.45 364.04 449.76C364 449.8 363.95 449.84 363.9 449.88C363.62 450.13 363.27 450.47 362.9 450.84C362.44 451.29 361.98 451.75 361.57 452.11C363.31 452.37 364.12 453.27 364.23 455.02V455.43H360.77C360.77 455.43 360.89 454.1 359.08 454.19L359.1 454.2ZM369.13 425.95C369.29 425.89 369.44 425.83 369.6 425.78C370.6 425.42 371.43 425.13 371.74 424.14C371.78 424.02 371.81 423.89 371.83 423.74L369.51 422.62C368.88 423.33 368.52 423.76 368.4 424.14C368.24 424.64 368.5 425.06 369.13 425.95ZM379.59 433.21C380.84 431.97 381.12 430.74 380.54 429.2C380.24 428.41 380.07 427.58 379.9 426.78C379.83 426.43 379.75 426.08 379.67 425.73L379.61 425.48L379.88 425.41C381.64 424.96 383.19 424.56 384.9 424.13C385.25 424.04 385.61 423.95 385.97 423.85C383.72 422.47 381.9 421.4 379.56 421.4H379.28V421.15C379.21 420.14 379.4 419.17 379.59 418.24C379.79 417.22 380 416.18 379.89 415.06C379.63 415.31 379.38 415.55 379.13 415.78C378.38 416.49 377.73 417.11 377.15 417.79C375.27 420.01 374.46 422.16 374.73 424.14C374.88 425.31 375.42 426.42 376.34 427.45C378.12 429.47 379.11 431.22 379.59 433.21V433.21Z" fill="#E4E4E4"/>
<path d="M362.21 458.62C363.95 458.32 364.14 457.29 364.24 455.72L364.26 455.44H360.79C360.79 455.44 360.62 456.57 359.72 456.52C359.01 456.47 359.02 456.32 358.67 456.14C357.88 455.74 356.98 455.29 355.88 455.9C355.64 456.04 355.48 456.27 355.45 456.54C355.43 456.81 355.55 457.08 355.77 457.25L355.92 457.36C355.99 457.42 356.06 457.47 356.13 457.52C356.16 457.54 356.19 457.57 356.22 457.59C357.15 458.34 360.08 458.73 362.22 458.61L362.21 458.62Z" fill="#E4E4E4"/>
</g>
<defs>
<clipPath id="clip0_34_675">
<rect width="390.76" height="459.46" fill="white"/>
</clipPath>
</defs>
</svg>
