<svg width="386" height="459" viewBox="0 0 386 459" fill="none" xmlns="http://www.w3.org/2000/svg">
<g clip-path="url(#clip0_34_681)">
<path d="M4.05001 453.05C4.68001 450.82 5.52001 448.64 6.52001 446.53C7.47001 444.54 8.81001 442.69 10.04 440.82C10.69 439.83 11.47 438.91 12.24 437.98C12.58 437.58 12.97 437.17 13.44 436.9C14.58 436.24 15.49 435.37 16.45 434.54C17.95 433.25 19.31 431.8 21.33 431.08C21.61 430.98 21.84 430.76 22.09 430.59C23.76 429.41 25.35 428.12 27.48 427.57C28.84 427.22 29.78 426.38 30.65 425.47C30.71 424.5 30.29 423.11 29.61 422.07C27.24 422.35 25.02 421.94 22.98 420.78C22.34 420.42 21.65 420.15 20.98 419.83C20.15 419.44 19.19 419.18 18.5 418.64C16.47 417.05 14.7 415.23 12.89 413.44C11.53 412.09 10.87 410.37 9.56001 409.02C9.34001 408.79 9.31001 408.43 9.15001 408.15C8.92001 407.72 8.73001 407.25 8.39001 406.9C7.30001 405.76 6.66001 404.4 6.11001 403.04C5.66001 401.93 5.51001 400.74 5.11001 399.6C4.62001 398.17 4.44001 396.66 4.17001 395.18C4.05001 394.52 4.08001 393.83 3.94001 393.17C3.62001 391.62 3.65001 390.11 4.19001 388.6C4.30001 388.3 4.29001 387.97 4.36001 387.66C4.76001 386 5.15001 384.33 5.58001 382.67C5.80001 381.82 6.02001 380.97 6.39001 380.17C7.08001 378.67 7.94001 377.23 8.63001 375.73C9.66001 373.49 10.72 371.27 12.66 369.49C12.84 369.33 12.94 369.09 13.06 368.88C13.7 367.78 14.54 366.84 15.73 366.15C17.4 365.14 19.04 364.14 20.71 363.13C22.7 361.95 24.91 361.18 27.21 360.61C27.63 360.51 28.03 360.31 28.42 360.12C28.93 359.88 29.41 359.6 30.08 359.25C30.15 359.07 30.45 358.72 30.39 358.42C30.18 357.31 30.03 356.17 29.66 355.25C28.03 354.82 26.53 354.55 25.14 354.03C23.41 353.39 21.77 352.56 20.1 351.8C19.86 351.69 19.63 351.57 19.42 351.43C18.1 350.54 16.78 349.65 15.46 348.76C15.29 348.64 15.12 348.5 14.99 348.34C13.71 346.81 12.32 345.37 10.81 344.02C10.02 343.31 9.39001 342.5 8.90001 341.61C8.64001 341.15 8.35001 340.69 7.97001 340.31C7.12001 339.46 6.56001 338.49 6.28001 337.39C6.12001 336.77 5.85001 336.18 5.66001 335.57C5.20001 334.12 4.32001 332.81 4.05001 331.3C3.90001 330.44 3.59001 329.61 3.39001 328.76C3.19001 327.91 2.97001 327.06 2.89001 326.2C2.80001 325.09 2.81001 323.98 2.84001 322.87C2.85001 322.32 3.02001 321.78 3.08001 321.23C3.26001 319.8 3.68001 318.44 4.39001 317.15C4.47001 317.01 4.49001 316.84 4.55001 316.7C4.86001 315.92 5.06001 315.08 5.53001 314.37C6.08001 313.53 6.39001 312.63 6.77001 311.75C7.14001 310.9 7.45001 310.03 8.18001 309.34C8.33001 309.2 8.42001 309 8.51001 308.82C9.62001 306.6 11.21 304.63 12.95 302.79C14.12 301.55 15.53 300.5 16.84 299.36C17.06 299.17 17.3 298.98 17.54 298.81C18.71 298.02 19.91 297.26 21.07 296.45C23.64 294.66 26.49 293.25 29.38 291.72C29.42 291.48 29.48 291.19 29.53 290.93C29.37 290.85 29.29 290.79 29.21 290.78C26.61 290.65 24.4 291.53 22.37 292.86C22.01 293.09 21.68 293.36 21.32 293.58C20.47 294.09 19.58 294.54 18.77 295.09C17.81 295.74 16.93 296.48 16.01 297.17C14.66 298.21 13.3 299.24 11.95 300.27C11.78 300.4 11.66 300.57 11.51 300.72C11.17 301.09 10.86 301.48 10.49 301.82C9.16001 303.06 7.93001 304.35 7.05001 305.89C6.83001 306.28 6.46001 306.6 5.98001 307.17C5.83001 305.78 5.45001 304.75 4.75001 303.8C3.64001 302.29 3.31001 300.66 4.23001 298.94C4.40001 298.62 4.49001 298.28 4.62001 297.92C5.58001 297.53 6.51001 297.15 7.44001 296.77C8.14001 296.5 8.89001 296.32 9.54001 295.98C11.17 295.12 12.87 294.44 14.69 293.98C15.25 293.84 15.79 293.62 16.01 293.07C15.53 292.34 15.16 292.12 14.16 292.35C12.56 292.73 10.97 293.16 9.44001 293.73C8.37001 294.13 7.43001 294.36 6.50001 293.81C5.84001 293.04 5.23001 292.38 4.36001 291.91C3.92001 291.67 3.55001 291.29 3.21001 290.93C2.88001 290.57 2.79001 290.12 3.02001 289.69C3.83001 288.15 4.60001 286.59 5.81001 285.26C6.55001 284.99 7.28001 285.08 7.96001 285.26C9.13001 285.56 10.29 285.88 11.4 286.3C12.65 286.76 13.91 287.16 15.23 287.41C16.68 287.7 18.12 287.98 19.56 288.27C19.91 288.34 20.27 288.34 20.63 288.36C22.91 288.54 25.21 288.56 27.37 289.38C28.02 289.63 28.75 289.61 29.51 289.67C29.62 289.05 29.72 288.52 29.83 287.94C29.42 287.84 29.08 287.76 28.74 287.67C27.41 287.3 25.97 287.1 24.79 286.5C22.52 285.34 20.2 284.23 18.11 282.82C17.43 282.37 16.84 281.82 16.21 281.31C14.88 280.26 13.54 279.2 12.21 278.15C12.01 277.99 11.84 277.8 11.68 277.61C10.48 276.18 9.13001 274.85 8.18001 273.28C7.40001 271.99 6.35001 270.83 5.84001 269.41C5.50001 268.47 5.21001 267.5 4.71001 266.62C4.03001 265.44 3.64001 264.2 3.31001 262.93C2.96001 261.58 2.70001 260.22 2.38001 258.87C1.98001 257.19 1.69001 255.53 1.83001 253.81C1.90001 252.9 1.72001 251.97 1.85001 251.08C2.06001 249.63 2.40001 248.2 2.76001 246.77C3.02001 245.73 3.45001 244.72 3.73001 243.69C4.02001 242.61 4.29001 241.53 5.14001 240.64C5.28001 240.49 5.35001 240.29 5.44001 240.11C5.92001 239.14 6.35001 238.14 6.88001 237.19C7.47001 236.13 7.86001 234.97 8.86001 234.11C9.01001 233.98 9.11001 233.78 9.19001 233.6C9.98001 231.75 11.71 230.54 13.15 229.15C14.32 228.03 15.71 227.06 17.22 226.28C18.96 225.38 20.66 224.39 22.49 223.69C24.41 222.95 26.47 222.48 28.48 221.91C28.95 221.78 29.33 221.55 29.34 221.1C29.37 220.12 29.49 219.14 29.28 218.18C28.65 218.04 28.09 217.82 27.53 217.81C25.88 217.76 24.57 216.92 23.22 216.28C22.24 215.82 21.31 215.27 20.27 214.89C19.64 214.66 19.11 214.33 18.62 213.9C17.65 213.03 16.6 212.22 15.57 211.4C14.94 210.9 14.2 210.49 13.67 209.92C12.84 209.04 12.16 208.06 11.4 207.13C11.16 206.84 10.93 206.52 10.61 206.33C10.06 206 9.72001 205.55 9.46001 205.05C8.62001 203.42 7.79001 201.8 6.96001 200.19C6.39001 199.07 5.87001 197.94 5.28001 196.83C4.73001 195.79 4.16001 194.76 3.96001 193.61C3.78001 192.58 3.67001 191.59 3.39001 190.51C2.98001 189.02 2.91001 187.51 3.04001 185.99C3.07001 185.68 2.94001 185.35 2.87001 184.96L1.62001 184.99C1.59001 185.97 1.48001 186.85 1.54001 187.73C1.65001 189.23 1.81001 190.83 2.04001 192.23C2.41001 194.47 2.91001 196.66 3.99001 198.75C4.45001 199.63 4.64001 200.63 4.93001 201.51C4.34001 202.01 3.76001 202.39 3.34001 202.88C1.70001 204.75 1.17001 206.92 1.15001 209.23C1.15001 210.12 1.24001 210.99 1.66001 211.78C1.98001 212.38 2.43001 212.93 2.87001 213.48C3.41001 214.16 3.67001 214.98 3.04001 215.56C2.15001 216.4 1.76001 217.45 1.06001 218.36C-0.429993 220.3 -0.109993 222.9 1.78001 224.43C2.36001 224.9 2.84001 225.47 3.36001 225.99C3.18001 226.4 3.06001 226.74 2.89001 227.07C2.31001 228.18 1.68001 229.27 1.15001 230.4C0.880007 230.97 0.610007 231.63 0.680007 232.22C0.900007 234.07 1.10001 235.94 2.56001 237.6C2.78001 237.69 3.13001 237.84 3.58001 238.04C3.36001 239.1 3.28001 240.16 2.77001 241.15C2.23001 242.19 1.80001 243.26 1.43001 244.37C0.760007 246.39 0.290007 248.42 0.100007 250.53C-0.159993 253.39 -0.0299928 256.23 0.340007 259.07C0.480007 260.13 0.690007 261.18 0.910007 262.23C1.08001 263 1.31001 263.77 1.53001 264.53C1.65001 264.95 1.81001 265.36 1.96001 265.78C2.35001 266.91 2.74001 268.04 3.13001 269.18C3.45001 270.07 3.68001 270.96 3.05001 271.8C1.55001 273.8 1.47001 276.04 1.60001 278.3C1.66001 279.28 1.92001 280.26 2.13001 281.23C2.25001 281.77 2.35001 282.35 2.63001 282.83C3.38001 284.1 3.03001 285.26 2.45001 286.47C1.89001 287.63 1.46001 288.84 0.960007 290.03C0.390007 291.39 0.980007 292.41 2.13001 293.28L4.12001 294.8C4.19001 295.12 4.27001 295.5 4.36001 295.95C2.47001 297.5 1.61001 299.5 1.79001 301.7C1.96001 303.82 2.42001 305.94 4.15001 307.49L5.64001 307.7C5.22001 308.9 5.04001 310.05 4.17001 310.97C4.00001 311.15 3.91001 311.39 3.82001 311.61C3.09001 313.39 2.31001 315.16 1.66001 316.97C1.08001 318.55 0.780007 320.19 0.680007 321.87C0.590007 323.38 0.640007 324.87 0.680007 326.37C0.730007 328.51 1.07001 330.62 1.56001 332.71C1.79001 333.67 2.25001 334.59 2.64001 335.51C3.17001 336.77 3.78001 338 4.05001 339.36C3.43001 339.99 2.90001 340.66 2.56001 341.43C2.05001 342.57 1.54001 343.72 1.84001 344.99C1.99001 345.61 2.07001 346.25 2.32001 346.83C2.77001 347.86 3.24001 348.9 3.86001 349.85C4.65001 351.06 4.26001 352.17 3.42001 353.04C2.59001 353.91 2.03001 354.88 1.45001 355.84C0.460007 357.46 0.130007 359.14 1.76001 360.68C1.97001 360.88 2.13001 361.14 2.22001 361.4C2.52001 362.21 2.98001 362.91 3.77001 363.44C4.21001 363.74 4.33001 364.14 4.01001 364.66C3.25001 364.94 2.90001 365.56 2.69001 366.28C2.19001 367.99 1.98001 369.73 2.48001 371.45C2.89001 372.84 3.08001 374.39 4.73001 375.05C5.03001 375.8 4.79001 376.37 4.51001 376.91C3.40001 379.04 2.51001 381.23 2.16001 383.56C1.99001 384.7 1.76001 385.83 1.64001 386.97C1.48001 388.54 1.19001 390.1 1.49001 391.7C1.72001 392.94 1.64001 394.23 1.78001 395.49C1.94001 396.95 2.06001 398.43 2.44001 399.84C2.94001 401.68 3.68001 403.47 4.30001 405.29C4.42001 405.63 4.48001 405.98 4.58001 406.36C4.36001 406.58 4.20001 406.86 3.95001 406.97C3.05001 407.35 2.84001 408.04 2.70001 408.81C2.61001 409.31 2.49001 409.83 2.27001 410.29C1.94001 410.98 1.91001 411.68 2.03001 412.39C2.13001 412.98 2.27001 413.56 2.40001 414.14C2.74001 415.55 3.31001 416.86 4.44001 417.95C5.37001 418.85 5.28001 420.13 4.19001 420.89C3.32001 421.5 2.74001 422.23 2.27001 423.11C1.31001 424.91 1.42001 426.63 2.50001 428.33C2.81001 428.81 3.13001 429.3 3.44001 429.77C3.87001 430.46 3.99001 431.12 3.64001 431.92C2.77001 433.92 2.49001 436 3.24001 438.09C3.63001 439.18 4.13001 440.23 4.56001 441.26C4.98001 441.49 5.32001 441.67 5.75001 441.9C5.67001 442.24 5.64001 442.59 5.51001 442.91C5.04001 444.06 4.65001 445.26 4.01001 446.34C2.80001 448.38 2.45001 450.62 1.85001 452.81C1.41001 454.44 1.30001 456.1 1.40001 457.77C1.40001 457.91 1.53001 458.05 1.59001 458.18C1.77001 458.21 1.90001 458.25 2.03001 458.25C2.25001 458.25 2.48001 458.23 2.94001 458.2C2.99001 456.37 3.54001 454.71 4.02001 453.03L4.05001 453.05ZM4.14001 236.95C4.24001 236 3.91001 235.12 3.36001 234.35C2.76001 233.51 2.59001 232.58 2.35001 231.67C2.08001 230.63 2.75001 229.8 3.41001 229.07C3.98001 228.44 4.58001 227.74 5.62001 227.61C5.75001 227.59 5.90001 227.54 5.98001 227.46C7.20001 226.21 9.11001 225.95 10.54 225C10.97 224.72 11.45 224.49 11.84 224.17C12.02 224.02 12.03 223.72 12.11 223.51C11.58 223.16 11.15 223.25 10.72 223.39C9.83001 223.68 8.94001 223.95 8.07001 224.26C7.44001 224.49 6.82001 224.67 6.12001 224.62C5.56001 224.58 5.11001 224.46 4.70001 224.07C3.95001 223.36 3.12001 222.71 2.33001 222.03C1.76001 221.54 1.64001 220.98 2.08001 220.31C2.77001 219.26 3.53001 218.23 4.28001 217.21C4.64001 216.71 5.04001 216.23 5.46001 215.69C6.47001 215.5 7.46001 215.78 8.34001 216.25C10.6 217.46 13.1 218.06 15.63 218.58C16.34 218.73 16.35 218.72 17.18 218.39C17.18 217.82 16.68 217.61 16.18 217.45C15.54 217.26 14.84 217.2 14.25 216.94C12.32 216.11 10.23 215.58 8.54001 214.31C7.88001 213.81 7.02001 213.48 6.22001 213.15C5.56001 212.88 5.11001 212.48 4.83001 211.92C4.41001 211.09 3.96001 210.26 3.61001 209.41C3.43001 208.98 3.30001 208.46 3.39001 208.03C3.66001 206.8 3.77001 205.52 4.43001 204.37C4.67001 203.95 4.81001 203.46 5.41001 203.31C6.00001 203.31 6.31001 203.64 6.53001 204.05C7.16001 205.2 8.04001 206.19 9.01001 207.13C9.22001 207.33 9.38001 207.58 9.53001 207.82C10.63 209.66 12.14 211.2 13.89 212.57C14.22 212.83 14.45 213.19 14.78 213.46C15.59 214.14 16.44 214.77 17.5 215.19C18.22 215.48 18.86 215.94 19.51 216.36C20.71 217.12 21.92 217.84 23.34 218.28C24.31 218.58 25.25 218.96 26.18 219.36C26.56 219.52 26.86 219.81 27.17 220.01C26.95 220.56 26.52 220.56 26.14 220.66C23.84 221.29 21.46 221.73 19.38 222.91C18.63 223.33 17.76 223.6 17.05 224.06C15.84 224.86 14.69 225.74 13.56 226.63C12.2 227.71 10.82 228.78 9.58001 229.95C8.92001 230.57 8.53001 231.42 8.03001 232.17C7.62001 232.79 7.21001 233.4 6.81001 234.01C6.32001 234.77 5.84001 235.52 5.35001 236.27C5.04001 236.73 4.72001 237.2 4.24001 237.91C4.19001 237.38 4.13001 237.15 4.15001 236.93L4.14001 236.95ZM2.83001 357.93C4.14001 356.07 5.39001 354.31 6.57001 352.63C7.63001 352.31 8.30001 352.77 8.91001 353.21C9.58001 353.7 10.32 354.05 11.14 354.28C12.89 354.78 14.63 355.28 16.38 355.78C16.98 355.94 17.61 356 18.23 356.1C18.71 356.18 19.12 356.1 19.45 355.7C19.54 354.97 18.98 354.67 18.31 354.47C17.3 354.16 16.26 353.88 15.26 353.56C14.17 353.2 13.08 352.82 12.01 352.42C11.73 352.32 11.49 352.12 11.24 351.95C10.35 351.32 9.40001 350.83 8.26001 350.63C7.74001 350.54 7.24001 350.34 6.79001 350.21C4.42001 347.26 3.61001 343.22 4.98001 341.08C5.53001 341.1 5.83001 341.43 6.01001 341.85C6.48001 342.95 7.36001 343.79 8.19001 344.66C9.43001 345.96 10.58 347.31 11.78 348.63C12.2 349.09 12.63 349.56 13.13 349.94C14.69 351.13 16.24 352.31 18.11 353.14C19.1 353.58 19.98 354.21 20.91 354.75C21.13 354.88 21.33 355.06 21.58 355.14C23.83 355.83 25.78 357.15 28.16 357.54C28.24 357.55 28.3 357.64 28.41 357.72C28.01 358.12 27.43 358.16 26.92 358.32C25.52 358.74 24.12 359.16 22.73 359.58C22.27 359.72 21.9 360 21.51 360.26C20.69 360.8 19.72 361.14 18.84 361.62C16.6 362.85 14.26 363.95 12.36 365.6C11.46 366.38 10.69 367.23 10.03 368.19C9.19001 369.4 8.26001 370.55 7.39001 371.74C7.15001 372.07 7.05001 372.47 6.82001 372.81C6.60001 373.13 6.30001 373.4 5.86001 373.88C5.64001 373.27 5.55001 372.85 5.34001 372.5C4.51001 371.09 4.59001 369.58 4.66001 368.08C4.68001 367.58 4.83001 367.06 5.04001 366.59C5.20001 366.24 5.50001 365.88 5.86001 365.68C7.29001 364.87 8.73001 364.08 10.22 363.36C11.24 362.87 12.33 362.51 13.39 362.09C13.84 361.91 14.3 361.74 14.7 361.5C15.28 361.16 15.81 360.76 16.42 360.35C16.07 359.79 15.42 359.79 14.83 359.8C14.3 359.81 13.75 359.92 13.25 360.08C11.83 360.55 10.38 360.98 9.11001 361.75C8.22001 362.29 7.23001 362.47 6.35001 362.23C5.11001 360.71 3.96001 359.32 2.82001 357.93H2.83001ZM5.48001 438.3C4.78001 437 4.88001 435.59 5.17001 434.22C5.32001 433.5 6.06001 433.08 6.81001 432.76C7.77001 432.32 8.71001 431.89 9.67001 431.45C11.7 430.56 13.56 429.32 15.9 429.03C16.2 428.99 16.5 428.86 16.78 428.73C17.13 428.57 17.3 428.3 17.24 427.94C17.18 427.59 16.94 427.35 16.55 427.29C16.25 427.24 15.93 427.26 15.63 427.29C14.04 427.41 12.58 427.94 11.15 428.5C10.34 428.82 9.54001 429.19 8.78001 429.6C8.19001 429.92 7.62001 429.98 6.94001 429.77C6.80001 429.61 6.57001 429.45 6.47001 429.24C6.03001 428.35 5.34001 427.63 4.64001 426.91C4.30001 426.56 4.02001 426.13 3.81001 425.7C3.55001 425.16 3.57001 424.57 4.02001 424.13C5.08001 423.06 6.19001 422.03 7.27001 421C8.38001 420.64 9.41001 421 10.28 421.41C12.55 422.47 15 422.91 17.45 423.38C18.24 423.53 19.03 423.72 19.83 423.77C20.63 423.82 21.43 423.72 22.24 423.7C22.77 423.68 23.33 423.6 23.83 423.7C24.87 423.9 25.89 424.2 26.92 424.48C27.29 424.58 27.64 424.72 27.99 424.84C27.93 425.42 27.48 425.48 27.12 425.59C25.04 426.25 23.2 427.32 21.28 428.26C21.13 428.34 20.99 428.45 20.88 428.57C20.19 429.34 19.32 429.8 18.28 430.17C17.44 430.47 16.73 431.1 16.04 431.66C14.56 432.86 13.11 434.09 11.68 435.34C10.51 436.37 9.46001 437.48 8.58001 438.72C8.04001 439.47 7.59001 440.3 6.58001 440.85C6.40001 439.9 5.92001 439.12 5.48001 438.31V438.3ZM5.76001 273.6C6.52001 275.19 7.75001 276.51 8.91001 277.86C9.61001 278.67 10.43 279.4 11.2 280.17C11.35 280.32 11.55 280.42 11.69 280.58C13.04 282.14 14.82 283.26 16.6 284.38C17.43 284.9 18.2 285.49 19.19 286.19C18.57 286.23 18.12 286.34 17.73 286.26C16.46 286.01 15.19 285.76 13.97 285.39C11.72 284.72 9.51001 283.95 7.28001 283.24C5.74001 282.75 4.79001 281.76 4.11001 280.5C3.39001 279.15 3.51001 277.72 3.63001 276.3C3.69001 275.56 3.89001 274.82 4.08001 274.09C4.20001 273.63 4.40001 273.16 5.21001 273.08C5.36001 273.21 5.65001 273.36 5.76001 273.59V273.6ZM16.62 421.57C13.95 420.55 11.28 419.54 8.62001 418.52C7.28001 418 6.54001 416.93 5.76001 415.92C5.46001 415.53 5.17001 415.12 4.94001 414.7C4.70001 414.24 4.43001 413.76 4.37001 413.26C4.16001 411.59 4.31001 409.94 4.89001 408.34C4.98001 408.09 5.15001 407.86 5.38001 407.45C5.76001 407.98 6.08001 408.35 6.30001 408.76C7.16001 410.38 8.21001 411.88 9.44001 413.29C9.93001 413.85 10.45 414.4 10.87 415C11.68 416.15 12.86 417 13.86 417.99C14.95 419.06 16.36 419.89 17.62 420.83C17.83 420.99 17.99 421.21 18.2 421.42C17.62 421.88 17.1 421.75 16.61 421.56L16.62 421.57Z" fill="#E4E4E4"/>
<path d="M4.46999 179.47C5.27999 177.14 6.28999 174.91 7.45999 172.81C8.62999 170.83 10.23 169.08 11.69 167.32C12.47 166.4 13.36 165.56 14.24 164.74C14.62 164.38 15.06 164.03 15.58 163.83C16.82 163.35 17.87 162.63 18.96 161.98C20.67 160.97 22.25 159.81 24.36 159.5C24.65 159.46 24.92 159.3 25.19 159.18C27.03 158.38 28.79 157.49 31.01 157.43C32.42 157.39 33.51 156.83 34.54 156.21C34.79 155.36 34.67 154.03 34.23 152.94C31.87 152.64 29.8 151.75 28.06 150.18C27.52 149.69 26.9 149.26 26.32 148.8C25.59 148.23 24.75 147.74 24.23 147.06C22.69 145.04 21.49 142.82 20.25 140.57C19.31 138.87 19.16 136.98 18.39 135.26C18.26 134.97 18.34 134.61 18.29 134.28C18.21 133.79 18.19 133.27 17.98 132.81C17.33 131.34 17.18 129.78 17.13 128.23C17.06 126.97 17.41 125.76 17.48 124.49C17.57 122.91 18 121.35 18.33 119.78C18.48 119.08 18.76 118.41 18.91 117.71C19.29 116.08 19.99 114.62 21.14 113.38C21.37 113.14 21.51 112.81 21.71 112.55C22.79 111.1 23.87 109.66 25.08 108.31C25.68 107.61 26.29 106.91 27 106.33C28.34 105.25 29.76 104.3 31.11 103.26C33.17 101.74 35.23 100.28 37.8 99.7C38.04 99.65 38.24 99.49 38.45 99.37C39.54 98.73 40.76 98.36 42.16 98.41C44.12 98.47 46.05 98.47 47.97 98.57C50.26 98.68 52.5 99.28 54.71 100.1C55.11 100.25 55.54 100.31 55.96 100.38C56.5 100.47 57.04 100.53 57.77 100.63C57.91 100.53 58.35 100.44 58.46 100.18C58.88 99.23 59.36 98.3 59.54 97.4C58.44 96.14 57.36 95.06 56.51 93.85C55.45 92.35 54.59 90.74 53.67 89.15C53.54 88.92 53.42 88.69 53.33 88.45C52.75 86.95 52.25 85.47 51.76 83.97C51.69 83.77 51.66 83.56 51.65 83.36C51.58 81.38 51.38 79.37 51.07 77.33C50.91 76.27 50.92 75.2 51.13 74.17C51.24 73.65 51.33 73.09 51.3 72.55C51.23 71.33 51.47 70.21 52.02 69.14C52.32 68.55 52.53 67.9 52.8 67.28C53.13 66.55 53.36 65.78 53.61 65.01C53.88 64.26 54.19 63.53 54.65 62.85C55.17 62.09 55.56 61.23 56.04 60.44C56.52 59.65 56.99 58.83 57.57 58.12C58.31 57.18 59.19 56.38 60.07 55.58C60.5 55.19 61.04 54.9 61.51 54.55C62.74 53.62 64.08 52.93 65.55 52.5C65.71 52.45 65.85 52.35 66.01 52.28C66.82 51.94 67.65 51.53 68.51 51.38C69.54 51.22 70.46 50.82 71.41 50.51C72.33 50.21 73.22 49.85 74.23 49.94C74.44 49.96 74.65 49.89 74.85 49.84C77.32 49.19 79.94 49.23 82.47 49.44C84.17 49.59 85.86 50.06 87.53 50.41C87.82 50.47 88.11 50.55 88.39 50.66C89.71 51.16 91.04 51.67 92.35 52.17C95.27 53.25 97.99 54.81 100.77 56.38L101.45 56.08C101.42 55.9 101.42 55.8 101.38 55.74C100.02 53.52 98.12 52.16 95.93 51.23C95.54 51.07 95.14 50.95 94.76 50.77C93.87 50.36 93 49.88 92.09 49.53C91.01 49.12 89.91 48.82 88.8 48.49C87.17 48 85.49 47.48 83.86 47.08C83.66 47.03 83.44 47.03 83.23 47.02C82.73 46.98 82.23 46.98 81.73 46.91C79.92 46.64 78.1 46.51 76.28 46.82C75.82 46.9 75.32 46.82 74.55 46.82C75.61 45.79 76.22 44.84 76.58 43.66C77.16 41.8 78.32 40.44 80.32 40.08C80.69 40.02 81.05 39.88 81.44 39.77C82.35 40.3 83.23 40.81 84.09 41.35C84.73 41.75 85.32 42.26 85.99 42.58C87.66 43.39 89.21 44.38 90.63 45.6C91.07 45.98 91.56 46.29 92.13 46.15C92.45 45.34 92.42 44.9 91.67 44.22C90.45 43.13 89.19 42.07 87.84 41.16C86.9 40.52 86.15 39.89 86.08 38.8C86.36 37.79 86.58 36.88 86.5 35.88C86.46 35.37 86.58 34.83 86.7 34.33C86.82 33.84 87.19 33.51 87.7 33.45C89.53 33.24 91.35 32.98 93.17 33.25C93.8 33.73 94.11 34.39 94.32 35.06C94.68 36.21 95.02 37.38 95.27 38.54C95.54 39.85 95.89 41.12 96.4 42.37L98.05 46.46C98.19 46.79 98.39 47.09 98.56 47.41C99.67 49.4 100.91 51.34 101.46 53.55C101.63 54.22 102.04 54.81 102.42 55.47C102.96 55.26 103.42 55.08 103.94 54.87C103.79 54.48 103.67 54.15 103.56 53.83C103.13 52.53 102.5 51.22 102.34 49.92C102.04 47.42 101.71 44.87 101.78 42.34C101.8 41.51 101.96 40.73 102.07 39.94C102.29 38.28 102.53 36.6 102.8 34.91C102.84 34.66 102.92 34.41 103.01 34.18C103.68 32.42 104.2 30.54 105.18 28.91C106 27.61 106.6 26.13 107.69 24.99C108.41 24.23 109.2 23.51 109.8 22.64C110.21 22.05 110.66 21.51 111.15 21.02C111.65 20.55 112.19 20.11 112.73 19.68C113.89 18.77 115.12 17.93 116.31 17.05C117.05 16.5 117.8 15.97 118.59 15.5C119.39 15.07 120.22 14.7 121.1 14.42C122.03 14.13 122.9 13.59 123.84 13.36C125.37 13.01 126.9 12.69 128.48 12.56C129.62 12.45 130.78 12.5 131.92 12.42C133.11 12.33 134.28 12.21 135.43 12.72C135.62 12.8 135.84 12.8 136.05 12.83C137.16 12.94 138.3 13.08 139.41 13.31C140.65 13.57 141.92 13.62 143.05 14.33C143.22 14.44 143.45 14.48 143.65 14.5C145.71 14.76 147.33 16.02 149.06 17.14C150.45 18.02 151.72 19.15 152.82 20.45C154.08 21.94 155.39 23.38 156.44 25.02C157.54 26.74 158.39 28.65 159.32 30.5C159.54 30.94 159.81 31.24 160.22 31.19C161.11 31.06 162.03 31.03 162.86 30.66C162.87 30.02 162.97 29.44 162.88 28.88C162.63 27.25 163.17 25.82 163.54 24.39C163.81 23.35 164.17 22.34 164.36 21.25C164.48 20.59 164.7 20.01 165.05 19.45C165.74 18.33 166.37 17.16 167.03 16.06C167.43 15.38 167.74 14.59 168.23 13.99C169 13.06 169.9 12.25 170.75 11.38C171.01 11.11 171.31 10.84 171.47 10.49C171.74 9.90001 172.16 9.51001 172.65 9.18001C174.21 8.09001 175.82 7.20001 177.45 6.23001C178.57 5.58001 179.72 4.96001 180.85 4.28001C181.91 3.66001 182.97 2.96001 184.18 2.75001C185.25 2.54001 186.35 2.42001 187.39 2.08001C188.87 1.59001 190.37 1.45001 191.9 1.51001C192.21 1.52001 192.53 1.38001 192.93 1.29001C192.91 0.850011 192.89 0.520011 192.86 0.050011C191.88 0.060011 190.99 1.09896e-05 190.12 0.110011C188.6 0.290011 187.09 0.540011 185.58 0.820011C183.19 1.20001 180.87 1.93001 178.74 3.17001C177.84 3.70001 176.8 3.97001 175.89 4.33001C175.31 3.78001 174.85 3.24001 174.29 2.86001C172.15 1.40001 169.75 1.23001 167.27 1.51001C166.32 1.62001 165.4 1.84001 164.61 2.37001C164.01 2.76001 163.5 3.31001 163 3.85001C162.37 4.51001 161.56 4.91001 160.83 4.41001C159.8 3.69001 158.61 3.51001 157.51 2.99001C156.34 2.44001 155.07 2.37001 153.94 2.72001C152.82 3.11001 151.84 3.90001 151.24 5.01001C150.87 5.69001 150.38 6.30001 149.96 6.92001C149.49 6.85001 149.11 6.81001 148.73 6.73001C147.44 6.44001 146.14 6.08001 144.82 5.86001C144.16 5.77001 143.4 5.70001 142.8 5.95001C140.94 6.70001 139.03 7.45001 137.74 9.34001C137.71 9.57001 137.65 9.96001 137.59 10.44C136.43 10.52 135.35 10.84 134.18 10.68C132.95 10.53 131.72 10.48 130.47 10.52C129.33 10.55 128.19 10.64 127.07 10.78C125.95 10.95 124.86 11.22 123.75 11.55C120.77 12.47 117.91 13.64 115.28 15.3C114.29 15.9 113.33 16.56 112.39 17.23C111.7 17.73 111.04 18.28 110.39 18.82C110.03 19.11 109.7 19.46 109.37 19.8C108.46 20.7 107.56 21.6 106.65 22.5C105.95 23.21 105.22 23.85 104.12 23.7C101.49 23.3 99.38 24.52 97.32 25.83C96.43 26.41 95.65 27.16 94.86 27.86C94.41 28.25 93.93 28.65 93.66 29.17C92.91 30.54 91.69 30.91 90.28 31.12C88.93 31.32 87.59 31.67 86.24 31.95C84.69 32.27 84.14 33.44 84.02 34.91C83.96 35.74 83.91 36.56 83.84 37.47C83.6 37.72 83.32 38.02 82.98 38.38C80.54 37.8 78.25 38.34 76.51 39.98C74.82 41.52 73.31 43.3 73.11 45.66C73.42 46.17 73.63 46.53 73.89 46.95C72.66 47.44 71.63 48.11 70.32 48.08C70.07 48.08 69.82 48.17 69.58 48.26C67.68 48.96 65.7 49.59 63.83 50.42C62.2 51.17 60.72 52.17 59.33 53.35C58.09 54.42 56.93 55.55 55.86 56.77C54.29 58.48 52.96 60.37 51.78 62.33C51.22 63.22 50.95 64.3 50.59 65.3C50.1 66.67 49.7 68.06 48.97 69.33C48.06 69.43 47.18 69.64 46.38 70.04C45.2 70.65 44.06 71.32 43.44 72.57C43.14 73.18 42.78 73.78 42.6 74.42C42.27 75.56 41.96 76.72 41.83 77.89C41.67 79.38 40.71 80.13 39.48 80.38C38.27 80.64 37.21 81.18 36.13 81.68C34.31 82.54 32.95 83.84 33.44 86.15C33.5 86.44 33.48 86.77 33.41 87.06C33.19 87.96 33.17 88.84 33.53 89.73C33.73 90.24 33.6 90.66 33.03 90.96C32.22 90.81 31.57 91.18 30.98 91.72C30.26 92.35 29.63 93.05 29.14 93.83C28.63 94.61 28.23 95.45 27.99 96.37C27.6 97.87 26.94 99.4 28.03 100.8C27.89 101.63 27.39 102.04 26.89 102.42C24.88 103.9 23.01 105.58 21.56 107.67C20.83 108.67 20.14 109.7 19.52 110.77C18.68 112.24 17.72 113.66 17.28 115.35C16.92 116.65 16.33 117.91 15.97 119.22C15.54 120.74 15.07 122.26 14.87 123.81C14.58 125.81 14.67 127.88 14.65 129.91C14.65 130.29 14.59 130.66 14.55 131.07C14.27 131.22 14.02 131.45 13.74 131.48C12.76 131.58 12.32 132.21 11.92 132.96C11.66 133.44 11.37 133.93 11 134.34C10.44 134.94 10.24 135.66 10.13 136.43C10.05 137.07 10.01 137.71 9.96999 138.34C9.87999 139.89 10.05 141.39 10.82 142.79C11.14 143.37 11.19 143.97 10.99 144.5C10.82 145.03 10.42 145.49 9.78999 145.75C8.79999 146.17 8.05999 146.8 7.38999 147.61C6.01999 149.27 5.70999 151.12 6.34999 153.12C6.55999 153.68 6.78999 154.26 6.99999 154.82C7.28999 155.62 7.27999 156.34 6.78999 157.11C5.57999 159.06 4.83999 161.21 5.27999 163.53C5.51999 164.74 5.86999 165.92 6.15999 167.06L7.25999 167.88C7.13999 168.23 7.05999 168.59 6.88999 168.91C6.26999 170.06 5.70999 171.27 4.94999 172.35C3.57999 174.4 3.03999 176.77 2.26999 179.07C1.98999 179.93 1.77999 180.81 1.64999 181.69C1.55999 182.58 1.52999 183.47 1.55999 184.37C1.55999 184.52 1.67999 184.68 1.73999 184.82C1.91999 184.86 2.04999 184.9 2.17999 184.91C2.39999 184.91 2.62999 184.91 3.08999 184.89C3.13999 183.92 3.30999 182.99 3.53999 182.09C3.77999 181.19 4.12999 180.32 4.41999 179.44L4.46999 179.47ZM138.89 10.6C139.89 10.42 140.7 9.84001 141.33 9.09001C142.03 8.27001 142.94 7.83001 143.83 7.33001C144.83 6.75001 145.86 7.18001 146.78 7.66001C147.57 8.06001 148.44 8.48001 148.82 9.46001C148.87 9.58001 148.95 9.72001 149.06 9.78001C150.63 10.67 151.32 12.47 152.59 13.64C152.97 13.99 153.3 14.41 153.7 14.72C153.89 14.86 154.19 14.8 154.41 14.83C154.65 14.23 154.47 13.83 154.24 13.44C153.77 12.64 153.3 11.83 152.79 11.06C152.42 10.5 152.1 9.93001 152 9.24001C151.92 8.68001 151.95 8.21001 152.26 7.72001C152.83 6.82001 153.34 5.85001 153.89 4.91001C154.28 4.22001 154.85 4.00001 155.65 4.31001C156.9 4.79001 158.12 5.34001 159.32 5.88001C159.9 6.14001 160.47 6.44001 161.11 6.76001C161.48 7.72001 161.35 8.75001 161.02 9.70001C160.17 12.15 160.03 14.71 159.98 17.29C159.97 18.02 159.98 18.02 160.45 18.79C161.01 18.68 161.12 18.17 161.18 17.64C161.25 16.98 161.18 16.28 161.34 15.65C161.82 13.6 162 11.45 163.03 9.55001C163.44 8.80001 163.64 7.90001 163.86 7.04001C164.04 6.34001 164.38 5.82001 164.93 5.47001C165.74 4.94001 166.55 4.39001 167.41 3.93001C167.84 3.70001 168.37 3.49001 168.84 3.53001C170.18 3.63001 171.54 3.57001 172.82 4.08001C173.28 4.27001 173.81 4.34001 174.04 4.92001C174.1 5.50001 173.78 5.83001 173.37 6.12001C172.23 6.89001 171.31 7.90001 170.46 8.98001C170.28 9.21001 170.05 9.41001 169.82 9.58001C168.07 10.91 166.72 12.6 165.61 14.51C165.4 14.88 165.08 15.18 164.87 15.54C164.32 16.46 163.85 17.41 163.62 18.52C163.46 19.28 163.12 19.99 162.83 20.71C162.3 22.02 161.84 23.34 161.68 24.8C161.57 25.8 161.39 26.79 161.2 27.77C161.12 28.17 160.92 28.52 160.79 28.85C160.25 28.73 160.16 28.3 159.99 27.94C158.95 25.77 158.07 23.54 156.52 21.77C155.96 21.13 155.52 20.34 154.92 19.75C153.89 18.75 152.77 17.83 151.64 16.93C150.27 15.85 148.88 14.76 147.38 13.83C146.59 13.34 145.65 13.22 144.77 12.94C144.04 12.72 143.32 12.5 142.59 12.29C141.69 12.04 140.8 11.79 139.9 11.54C139.34 11.37 138.77 11.21 137.91 10.95C138.44 10.75 138.65 10.62 138.88 10.58L138.89 10.6ZM35.97 84.27C38.2 83.39 40.3 82.59 42.28 81.85C43.33 82.2 43.6 82.99 43.82 83.72C44.07 84.53 44.46 85.25 44.99 85.92C46.12 87.35 47.23 88.78 48.39 90.18C48.78 90.65 49.27 91.06 49.72 91.5C50.07 91.84 50.45 92 50.95 91.88C51.44 91.35 51.15 90.79 50.72 90.24C50.07 89.4 49.39 88.58 48.76 87.72C48.08 86.79 47.43 85.84 46.8 84.87C46.64 84.62 46.55 84.31 46.46 84.03C46.12 82.98 45.65 82 44.86 81.15C44.49 80.76 44.22 80.3 43.95 79.93C43.97 76.09 45.99 72.13 48.5 71.28C48.91 71.65 48.91 72.1 48.76 72.55C48.4 73.75 48.54 75 48.63 76.24C48.73 78.07 48.83 79.86 48.93 81.67C48.97 82.29 49.02 82.92 49.19 83.53C49.7 85.42 50.29 87.32 51.33 89.08C51.88 90.01 52.24 91.03 52.7 92C52.81 92.23 52.87 92.49 53.03 92.69C54.48 94.53 55.36 96.66 57.11 98.3C57.17 98.35 57.17 98.45 57.22 98.58C56.67 98.66 56.17 98.36 55.67 98.19C54.28 97.73 52.9 97.26 51.52 96.83C51.06 96.69 50.62 96.71 50.15 96.7C49.19 96.68 48.19 96.43 47.21 96.35C44.69 96.14 42.13 95.8 39.6 96.21C38.42 96.41 37.25 96.72 36.21 97.24C34.87 97.89 33.47 98.45 32.1 99.09C31.72 99.27 31.42 99.59 31.05 99.78C30.69 99.96 30.29 100.06 29.65 100.28C29.77 99.61 29.92 99.19 29.92 98.76C29.94 97.06 30.81 95.7 31.66 94.36C31.94 93.9 32.37 93.52 32.81 93.22C33.14 93 33.61 92.83 34.02 92.84C35.69 92.87 37.36 92.95 39.01 93.13C40.14 93.25 41.26 93.54 42.38 93.76C42.85 93.85 43.33 93.96 43.8 93.98C44.47 94.01 45.13 93.97 45.85 93.96C45.85 93.3 45.32 92.93 44.82 92.62C44.37 92.34 43.86 92.12 43.36 91.98C41.92 91.59 40.48 91.16 38.98 91.14C37.94 91.12 37 90.75 36.39 90.06C36.22 88.05 36.01 86.14 35.96 84.3L35.97 84.27ZM7.49999 164.09C6.94999 162.62 7.37999 161.17 7.89999 159.79C8.18999 159.06 8.98999 158.76 9.78999 158.55C10.81 158.29 11.82 157.98 12.84 157.72C15 157.19 17.04 156.3 19.39 156.49C19.69 156.51 20.01 156.44 20.3 156.37C20.67 156.28 20.88 156.05 20.91 155.7C20.93 155.35 20.75 155.07 20.38 154.93C20.1 154.82 19.78 154.77 19.48 154.73C17.9 154.51 16.35 154.73 14.83 155.02C13.97 155.18 13.12 155.4 12.3 155.67C11.66 155.88 11.09 155.84 10.47 155.49C10.36 155.3 10.17 155.09 10.11 154.85C9.82999 153.85 9.33999 152.97 8.81999 152.08C8.56999 151.64 8.39999 151.14 8.29999 150.65C8.16999 150.04 8.33999 149.43 8.87999 149.06C10.17 148.19 11.5 147.38 12.78 146.59C13.94 146.49 14.86 147.11 15.61 147.72C17.57 149.32 19.85 150.31 22.14 151.33C22.87 151.66 23.6 152.01 24.37 152.24C25.13 152.47 25.94 152.56 26.73 152.71C27.25 152.82 27.81 152.86 28.28 153.07C29.25 153.49 30.18 154 31.12 154.48C31.46 154.65 31.77 154.86 32.09 155.04C31.91 155.55 31.46 155.51 31.09 155.53C28.92 155.68 26.89 156.28 24.81 156.79C24.64 156.83 24.49 156.91 24.36 157.01C23.56 157.6 22.62 157.88 21.54 158.04C20.67 158.17 19.86 158.65 19.08 159.08C17.41 159.99 15.77 160.96 14.13 161.98C12.79 162.82 11.55 163.79 10.53 164.94C9.89999 165.64 9.33999 166.43 8.26999 166.87C8.20999 165.86 7.83999 164.98 7.51999 164.07L7.49999 164.09ZM103.72 26.92C102.63 28.42 102.03 30.18 101.4 31.89C101.02 32.92 100.78 34 100.5 35.06C100.45 35.26 100.45 35.49 100.39 35.69C99.69 37.62 99.68 39.77 99.68 41.88C99.68 42.86 99.6 43.83 99.56 45.04C99.19 44.53 98.86 44.22 98.71 43.84C98.23 42.64 97.76 41.43 97.42 40.2C96.79 37.93 96.28 35.64 95.73 33.33C95.54 32.54 95.54 31.8 95.69 31.09C95.85 30.4 96.16 29.76 96.56 29.13C97.44 27.79 98.82 27.13 100.19 26.48C100.91 26.14 101.69 25.92 102.45 25.7C102.93 25.55 103.47 25.51 103.93 26.18C103.88 26.37 103.87 26.71 103.72 26.91V26.92ZM21.72 149.42C19.35 147.82 16.97 146.15 14.71 144.45C13.56 143.59 13.15 142.32 12.69 141.08C12.51 140.6 12.35 140.11 12.26 139.62C12.16 139.08 12.05 138.52 12.13 137.99C12.27 137.11 12.5 136.26 12.82 135.44C13.18 134.64 13.63 133.87 14.17 133.16C14.34 132.94 14.58 132.76 14.93 132.42C15.11 133.07 15.29 133.54 15.36 134.02C15.6 135.88 16.19 137.71 16.97 139.46C17.28 140.16 17.63 140.84 17.86 141.55C18.32 142.9 19.22 144.05 19.91 145.27C20.66 146.59 21.81 147.73 22.84 148.95C23.01 149.16 23.12 149.4 23.28 149.66C22.62 149.96 22.14 149.71 21.71 149.42H21.72Z" fill="#E4E4E4"/>
<path d="M198.47 2.75C199.65 3.1 200.8 3.49 201.93 3.94C203.06 4.38 204.16 4.97 205.22 5.54C207.24 6.65 209.05 8.13 210.85 9.5C211.8 10.2 212.66 11.15 213.51 12.01C213.88 12.4 214.25 12.84 214.46 13.34C214.98 14.56 215.74 15.56 216.43 16.62C217.5 18.27 218.72 19.79 219.1 21.88C219.15 22.17 219.32 22.44 219.45 22.71C220.31 24.56 221.25 26.35 221.39 28.54C221.48 29.94 222.08 31 222.74 32C223.6 32.21 224.93 32.01 226.01 31.53C226.23 29.15 227.04 27.06 228.55 25.31C229.02 24.77 229.42 24.14 229.86 23.56C230.4 22.83 230.86 21.95 231.53 21.4C233.5 19.77 235.68 18.46 237.9 17.12C239.56 16.17 241.42 16.02 243.12 15.14C243.41 14.99 243.78 15.06 244.1 15C244.59 14.9 245.11 14.85 245.56 14.63C247.01 13.91 248.57 13.68 250.1 13.64C251.34 13.59 252.58 13.84 253.85 13.86C255.43 13.9 257.04 14.19 258.59 14.52C259.29 14.66 259.95 14.96 260.66 15.09C262.31 15.39 263.8 16.02 265.09 17.11C265.34 17.32 265.67 17.45 265.95 17.64C267.42 18.7 268.86 19.8 270.28 20.91C271 21.48 271.73 22.05 272.34 22.73C273.49 23.98 274.44 25.47 275.52 26.79C277.12 28.78 278.68 30.73 279.34 33.3C279.4 33.54 279.56 33.75 279.68 33.96C280.33 35.08 280.75 36.28 280.76 37.66C280.77 39.6 280.85 41.53 280.82 43.44C280.8 45.72 280.28 47.97 279.52 50.23C279.38 50.64 279.33 51.08 279.27 51.5C279.19 52.05 279.15 52.6 279.07 53.34C279.17 53.49 279.28 53.92 279.54 54.02C280.51 54.39 281.47 54.83 282.38 54.97C283.6 53.82 284.65 52.71 285.83 51.81C287.3 50.69 288.88 49.77 290.42 48.83C290.64 48.69 290.87 48.57 291.1 48.48C292.55 47.89 294.03 47.32 295.51 46.76C295.71 46.69 295.92 46.64 296.12 46.62C298.11 46.47 300.13 46.17 302.15 45.8C303.2 45.62 304.23 45.63 305.26 45.81C305.79 45.9 306.35 45.97 306.9 45.91C308.12 45.79 309.26 45.98 310.35 46.48C310.95 46.76 311.63 46.92 312.24 47.19C313.68 47.83 315.31 48.08 316.7 48.92C317.49 49.4 318.36 49.75 319.18 50.2C320 50.64 320.84 51.07 321.54 51.67C322.46 52.42 323.31 53.25 324.15 54.09C324.56 54.5 324.87 55.02 325.25 55.48C326.23 56.66 327 57.96 327.42 59.47C327.47 59.63 327.57 59.77 327.64 59.93C327.99 60.75 328.46 61.53 328.63 62.39C328.84 63.41 329.27 64.3 329.62 65.24C329.96 66.13 330.36 67 330.28 68.04C330.26 68.25 330.33 68.46 330.39 68.66C331.07 71.15 331.2 73.71 331.08 76.24C331.02 77.92 330.55 79.68 330.23 81.37C330.17 81.66 330.11 81.95 330.02 82.24C329.57 83.57 329.12 84.91 328.67 86.23C327.7 89.18 326.28 91.91 324.74 94.79C324.83 94.99 324.94 95.25 325.04 95.47C325.22 95.43 325.31 95.44 325.38 95.39C327.55 93.96 328.86 92 329.76 89.74C329.92 89.34 330.02 88.94 330.18 88.55C330.55 87.66 331 86.77 331.31 85.85C331.68 84.77 331.93 83.65 332.22 82.54C332.65 80.89 333.07 79.23 333.46 77.55C333.51 77.34 333.5 77.13 333.51 76.91C333.54 76.4 333.54 75.89 333.6 75.38C333.8 73.57 333.85 71.76 333.47 69.97C333.37 69.52 333.43 69.02 333.4 68.25C334.48 69.26 335.46 69.83 336.66 70.14C337.6 70.39 338.44 70.78 339.07 71.38C339.69 71.99 340.12 72.78 340.33 73.79C340.41 74.16 340.56 74.5 340.69 74.89C340.19 75.81 339.72 76.7 339.21 77.58C338.84 78.23 338.35 78.84 338.06 79.51C337.32 81.2 336.39 82.78 335.22 84.24C334.86 84.69 334.57 85.19 334.73 85.75C335.53 86.05 335.97 86.02 336.63 85.23C337.69 83.97 338.73 82.65 339.57 81.28C340.17 80.32 340.77 79.55 341.87 79.44C342.91 79.67 343.78 79.89 344.78 79.78C345.29 79.73 345.82 79.83 346.31 79.95C346.79 80.07 347.15 80.4 347.23 80.91C347.52 82.72 347.86 84.52 347.67 86.34C347.22 86.98 346.57 87.32 345.9 87.56C344.76 87.96 343.6 88.35 342.44 88.63C341.14 88.95 339.87 89.34 338.64 89.9L334.6 91.7C334.28 91.85 333.98 92.06 333.67 92.24C331.71 93.42 329.82 94.73 327.62 95.36C326.96 95.55 326.38 95.99 325.73 96.39C325.97 96.92 326.17 97.37 326.4 97.87C326.79 97.71 327.11 97.57 327.43 97.45C328.72 96.97 330.01 96.29 331.3 96.09C332.55 95.89 333.81 95.69 335.08 95.53C336.33 95.38 337.57 95.29 338.83 95.29C339.64 95.29 340.42 95.43 341.23 95.5C342.91 95.66 344.61 95.83 346.32 96.03C346.57 96.06 346.82 96.13 347.06 96.21C348.89 96.79 350.71 97.29 352.35 98.23C353.69 99 355.21 99.54 356.4 100.58C357.19 101.27 357.97 102.02 358.82 102.61C359.99 103.4 360.94 104.4 361.85 105.46C362.82 106.58 363.71 107.77 364.66 108.92C365.77 110.39 366.76 111.9 367.41 113.64C367.75 114.56 368.32 115.4 368.6 116.33C369.05 117.83 369.26 119.41 369.5 120.96C369.67 122.09 369.66 123.25 369.81 124.38C369.95 125.56 370.15 126.71 369.63 127.89C369.55 128.08 369.55 128.31 369.53 128.52C369.41 129.66 369.34 130.79 369.16 131.9C368.96 133.14 368.97 134.41 368.31 135.56C368.21 135.74 368.18 135.96 368.16 136.16C368 138.22 366.64 139.93 365.65 141.67C364.84 143.09 363.76 144.39 362.51 145.53C361.07 146.84 359.72 148.19 358.08 149.31C356.38 150.48 354.48 151.4 352.65 152.39C352.22 152.62 351.9 152.92 351.98 153.32C352.15 154.2 352.24 155.11 352.64 155.93C353.28 155.92 353.87 156 354.43 155.89C356.05 155.58 357.51 156.07 358.96 156.39C360.01 156.62 361.06 156.94 362.13 157.1C362.79 157.19 363.36 157.4 363.91 157.73C365.01 158.39 366.18 158.98 367.34 159.6C368.04 159.98 368.85 160.25 369.47 160.73C370.44 161.46 371.29 162.33 372.21 163.15C372.49 163.4 372.79 163.69 373.13 163.84C373.72 164.09 374.11 164.5 374.44 164.98C375.49 166.52 376.52 168.08 377.56 169.67C378.26 170.76 378.97 171.89 379.64 173C380.27 174.04 380.92 175.08 381.22 176.28C381.48 177.34 381.66 178.44 382.05 179.47C382.33 180.2 382.52 180.94 382.65 181.69C382.75 182.44 382.76 183.2 382.74 183.96C382.73 184.27 382.87 184.59 382.96 184.98L384.2 184.87C384.18 183.89 384.24 183 384.14 182.13C383.93 180.61 383.57 179.11 383.23 177.62C382.96 176.44 382.65 175.27 382.25 174.13C381.86 173 381.38 171.89 380.69 170.86C380.12 169.98 379.8 168.95 379.39 168.06C379.91 167.46 380.43 166.98 380.78 166.42C381.47 165.32 381.87 164.17 382.05 162.98C382.24 161.79 382.12 160.58 381.93 159.35C381.77 158.41 381.51 157.5 380.94 156.73C380.51 156.15 379.96 155.65 379.43 155.16C378.76 154.55 378.38 153.74 378.85 153C379.52 151.95 379.64 150.76 380.11 149.65C381.09 147.29 380.15 144.56 377.92 143.44C377.22 143.1 376.59 142.63 375.94 142.23C375.99 141.76 376.01 141.38 376.08 141C376.31 139.7 376.6 138.4 376.77 137.07C376.86 136.4 376.92 135.63 376.67 135.04C375.89 133.19 375 131.33 373.06 130.12L371.95 130.01C371.79 128.86 371.51 127.77 371.65 126.59C371.79 125.35 371.75 124.14 371.66 122.89C371.48 120.62 371.12 118.39 370.43 116.19C369.39 113.26 368.01 110.48 366.39 107.85C365.74 106.89 365.04 105.96 364.32 105.05C363.79 104.38 363.21 103.75 362.63 103.12C362.31 102.77 361.97 102.45 361.64 102.12L360.3 100.77L358.88 99.48C358.13 98.81 357.46 98.11 357.56 97.01C357.79 94.42 356.69 92.23 355.22 90.28C354.6 89.42 353.81 88.68 353.07 87.91C352.66 87.48 352.24 87.02 351.72 86.75C351.04 86.39 350.61 85.9 350.31 85.32C349.99 84.76 349.82 84.11 349.69 83.42C349.43 82.08 349.02 80.77 348.69 79.44C348.3 77.91 347.18 77.35 345.71 77.28L343.13 77.2C342.86 76.97 342.55 76.7 342.18 76.38C342.66 73.93 341.99 71.7 340.39 69.95C338.77 68.33 336.92 66.9 334.54 66.8C334.04 67.12 333.69 67.35 333.27 67.62C332.74 66.39 332.12 65.33 332.07 64.04C332.07 63.79 331.95 63.54 331.86 63.31C331.09 61.44 330.34 59.53 329.47 57.67C328.73 56.01 327.65 54.59 326.4 53.26C325.28 52.07 324.07 50.99 322.87 49.9C321.15 48.35 319.15 47.15 317.15 46.05C316.22 45.55 315.18 45.26 314.18 44.91C312.8 44.46 311.38 44.14 310.08 43.46C309.94 42.56 309.7 41.7 309.26 40.92C308.6 39.77 307.96 38.57 306.67 38.02C306.04 37.75 305.43 37.42 304.77 37.26C303.61 36.98 302.43 36.72 301.25 36.64C299.75 36.55 299.02 35.54 298.72 34.32C298.41 33.13 297.83 32.1 297.28 31.05C296.35 29.28 294.97 28.01 292.72 28.5C292.43 28.56 292.11 28.55 291.83 28.48C290.92 28.29 290.04 28.32 289.15 28.72C288.65 28.94 288.22 28.83 287.9 28.28C288.03 27.47 287.63 26.84 287.06 26.28C285.71 24.96 284.22 23.77 282.32 23.41C280.8 23.09 279.23 22.5 277.87 23.65C277.02 23.56 276.6 23.07 276.22 22.55C275.84 22.04 275.45 21.55 275.04 21.06C274.63 20.59 274.19 20.15 273.74 19.72C272.84 18.87 271.86 18.08 270.79 17.41C269.74 16.75 268.73 16.04 267.65 15.43C266.15 14.63 264.69 13.76 262.97 13.41C261.64 13.14 260.38 12.55 259.07 12.19C257.54 11.8 255.99 11.42 254.43 11.29C252.39 11.14 250.37 11.19 248.34 11.23C247.96 11.24 247.59 11.2 247.17 11.18C247.01 10.91 246.77 10.67 246.73 10.4C246.6 9.43 245.94 9.02 245.18 8.66C244.69 8.43 244.19 8.16 243.77 7.81C243.14 7.29 242.43 7.06 241.66 6.97C241.03 6.89 240.39 6.85 239.75 6.86C238.19 6.84 236.69 7.09 235.32 7.92C234.19 8.61 232.89 8.23 232.33 6.98C231.88 5.98 231.23 5.22 230.39 4.61C228.68 3.33 226.81 3.11 224.83 3.84L223.16 4.5C222.37 4.8 221.66 4.78 220.87 4.34C218.88 3.21 216.69 2.64 214.39 3.11C213.2 3.35 212.03 3.69 210.9 4.06C210.62 4.46 210.4 4.78 210.11 5.19C209.76 5.08 209.39 5.02 209.07 4.87C207.9 4.31 206.67 3.82 205.57 3.1C204.53 2.42 203.41 1.92 202.26 1.56C201.11 1.22 199.93 0.949998 198.77 0.619998C197.03 0.129998 195.24 -0.0200024 193.45 0.0399976C193.3 0.0399976 193.15 0.159998 193.01 0.219998C192.98 0.399998 192.94 0.529998 192.94 0.659998C192.94 0.879998 192.96 1.11 192.99 1.57C194.94 1.66 196.71 2.26 198.48 2.79L198.47 2.75ZM371.85 131.27C372.08 132.26 372.69 133.04 373.48 133.65C374.35 134.31 374.82 135.21 375.3 136.09C375.87 137.08 375.46 138.13 375.04 139.06C374.68 139.86 374.3 140.74 373.34 141.15C373.22 141.2 373.09 141.29 373.03 141.4C372.21 142.99 370.44 143.75 369.33 145.05C368.99 145.44 368.59 145.79 368.3 146.2C368.16 146.39 368.22 146.7 368.19 146.92C368.78 147.14 369.18 146.94 369.57 146.7C370.36 146.2 371.17 145.7 371.92 145.17C372.47 144.78 373.02 144.44 373.71 144.31C374.26 144.21 374.74 144.22 375.24 144.52C376.14 145.07 377.1 145.54 378.04 146.07C378.71 146.45 378.97 147.01 378.7 147.81C378.28 149.07 377.79 150.3 377.3 151.53C377.07 152.12 376.79 152.7 376.5 153.35C375.56 153.75 374.52 153.66 373.55 153.36C371.05 152.6 368.48 152.55 365.89 152.59C365.16 152.6 365.16 152.61 364.42 153.11C364.56 153.66 365.08 153.76 365.6 153.8C366.26 153.85 366.96 153.76 367.6 153.89C369.66 154.3 371.88 154.4 373.74 155.37C374.48 155.75 375.38 155.93 376.23 156.12C376.93 156.27 377.44 156.61 377.83 157.14C378.4 157.93 378.99 158.72 379.5 159.56C379.76 159.98 379.99 160.5 379.97 160.98C379.96 162.32 380.03 163.68 379.51 164.99C379.33 165.46 379.25 166 378.69 166.24C378.11 166.32 377.76 166.01 377.48 165.61C376.69 164.5 375.74 163.6 374.59 162.79C374.35 162.62 374.14 162.39 373.96 162.17C372.54 160.48 370.78 159.18 368.81 158.15C368.44 157.95 368.15 157.64 367.78 157.44C366.86 156.92 365.92 156.48 364.81 156.28C364.05 156.14 363.31 155.83 362.58 155.57C361.24 155.09 359.9 154.68 358.42 154.57C357.41 154.5 356.41 154.35 355.42 154.2C355.02 154.14 354.66 153.94 354.32 153.83C354.42 153.28 354.84 153.18 355.19 153C357.3 151.89 359.52 150.93 361.27 149.31C361.9 148.72 362.69 148.26 363.27 147.63C364.23 146.56 365.1 145.42 365.94 144.26C366.96 142.86 367.98 141.43 368.84 139.91C369.29 139.11 369.43 138.15 369.7 137.25C369.93 136.51 370.11 135.78 370.29 135.05C370.5 134.15 370.7 133.25 370.91 132.34C371.05 131.78 371.19 131.21 371.4 130.34C371.63 130.86 371.76 131.07 371.82 131.3L371.85 131.27ZM294.69 30.96C295.66 33.14 296.56 35.18 297.36 37.13C297.04 38.21 296.28 38.47 295.54 38.73C294.73 39.01 294.03 39.43 293.37 39.99C291.98 41.17 290.58 42.34 289.22 43.55C288.76 43.96 288.37 44.46 287.95 44.93C287.63 45.29 287.47 45.68 287.62 46.16C288.17 46.62 288.72 46.31 289.26 45.86C290.08 45.18 290.88 44.47 291.72 43.81C292.63 43.09 293.56 42.41 294.5 41.76C294.74 41.59 295.04 41.5 295.32 41.41C296.34 41.05 297.3 40.56 298.11 39.75C298.48 39.37 298.94 39.08 299.3 38.8C301.24 38.72 303.21 39.15 304.83 39.9C306.46 40.64 307.63 41.82 308.11 43.04C307.75 43.46 307.3 43.48 306.84 43.35C305.64 43.01 304.43 43.15 303.2 43.29C301.36 43.47 299.57 43.65 297.75 43.82C297.13 43.89 296.49 43.97 295.89 44.15C294.01 44.74 292.18 45.32 290.46 46.42C289.54 47.01 288.54 47.41 287.58 47.9C287.35 48.02 287.09 48.09 286.9 48.25C285.1 49.77 283 50.73 281.41 52.55C281.36 52.61 281.26 52.62 281.13 52.67C281.03 52.13 281.31 51.62 281.46 51.11C281.87 49.71 282.27 48.31 282.68 46.91C282.81 46.44 282.78 45.99 282.77 45.52C282.77 44.55 282.99 43.52 283.04 42.54C283.16 40.03 283.4 37.47 282.89 34.98C282.65 33.8 282.28 32.7 281.75 31.63C281.41 30.96 281.1 30.26 280.78 29.57C280.45 28.89 280.12 28.22 279.77 27.56C279.58 27.19 279.25 26.91 279.04 26.55C278.84 26.2 278.73 25.8 278.49 25.19C279.16 25.28 279.59 25.41 280.03 25.39C280.88 25.36 281.66 25.55 282.4 25.84C283.13 26.14 283.8 26.59 284.47 27.01C284.92 27.3 285.33 27.69 285.65 28.13C285.89 28.45 286.07 28.91 286.08 29.32C286.11 30.98 286.1 32.64 285.98 34.29C285.9 35.42 285.65 36.54 285.48 37.66C285.41 38.13 285.32 38.61 285.31 39.08C285.3 39.75 285.36 40.43 285.38 41.16C286.03 41.16 286.38 40.62 286.68 40.11C286.95 39.65 287.15 39.13 287.27 38.62C287.62 37.16 288.01 35.68 287.99 34.18C287.97 33.15 288.31 32.2 288.98 31.56C291 31.29 292.82 31.16 294.69 30.98V30.96ZM213.94 5.25C215.38 4.72 216.86 5.02 218.25 5.49C218.99 5.74 219.32 6.53 219.55 7.31C219.85 8.32 220.2 9.3 220.48 10.31C221.09 12.45 222.03 14.53 221.92 16.88C221.91 17.18 221.99 17.5 222.07 17.8C222.17 18.17 222.41 18.39 222.76 18.39C223.11 18.39 223.38 18.2 223.51 17.83C223.61 17.54 223.65 17.23 223.68 16.92C223.84 15.33 223.56 13.81 223.23 12.29C223.04 11.43 222.8 10.57 222.5 9.75C222.27 9.11 222.29 8.54 222.62 7.9C222.81 7.79 223.01 7.6 223.24 7.53C224.23 7.26 225.09 6.71 225.97 6.15C226.4 5.88 226.9 5.69 227.38 5.56C227.99 5.4 228.61 5.54 228.99 6.06C229.91 7.3 230.76 8.57 231.59 9.89C231.73 11.06 231.14 11.99 230.56 12.74C229.04 14.7 228.12 17.06 227.18 19.38C226.88 20.13 226.55 20.87 226.35 21.64C226.15 22.41 226.09 23.22 225.96 24.01C225.87 24.53 225.85 25.09 225.66 25.57C225.27 26.56 224.8 27.51 224.35 28.47C224.19 28.82 223.99 29.14 223.82 29.46C223.31 29.3 223.33 28.85 223.29 28.49C223.07 26.33 222.39 24.35 221.81 22.3C221.76 22.14 221.68 21.98 221.58 21.85C220.96 21.04 220.66 20.1 220.46 19.01C220.3 18.13 219.8 17.3 219.34 16.56C218.37 14.94 217.34 13.35 216.26 11.77C215.37 10.48 214.35 9.29 213.18 8.25C212.47 7.61 211.65 7.05 211.18 6.02C212.19 5.89 213.05 5.56 213.95 5.22L213.94 5.25ZM354.3 96.71C353.55 96.18 352.75 95.77 351.91 95.42C351.07 95.08 350.17 94.81 349.31 94.53C348.26 94.19 347.16 93.99 346.09 93.75C345.88 93.7 345.65 93.72 345.45 93.66C343.45 93.05 341.36 93.08 339.28 93.14C338.31 93.17 337.32 93.14 336.11 93.14C336.6 92.76 336.91 92.42 337.28 92.25C338.46 91.73 339.66 91.22 340.89 90.83C343.15 90.11 345.4 89.54 347.66 88.93C349.22 88.51 350.58 88.87 351.87 89.63C353.25 90.45 353.98 91.8 354.69 93.13C355.05 93.84 355.26 94.63 355.49 95.4C355.63 95.89 355.71 96.42 355.05 96.9C354.85 96.85 354.52 96.86 354.31 96.72L354.3 96.71ZM229.1 18.92C230.62 16.53 232.18 14.15 233.81 11.8C234.63 10.61 235.89 10.14 237.11 9.63C237.58 9.43 238.07 9.24 238.56 9.13C239.09 9.01 239.66 8.86 240.18 8.93C241.93 9.21 243.59 9.84 245.07 10.85C245.3 11.01 245.49 11.24 245.84 11.57C245.2 11.78 244.73 11.99 244.25 12.08C242.38 12.44 240.59 13.03 238.88 13.82C238.19 14.15 237.52 14.54 236.82 14.81C235.48 15.33 234.36 16.28 233.17 17.04C231.87 17.86 230.77 19.05 229.6 20.07C229.4 20.24 229.16 20.35 228.91 20.51C228.59 19.84 228.82 19.36 229.1 18.92V18.92Z" fill="#E4E4E4"/>
<path d="M381.79 190.55C381.2 192.89 380.34 195 379.34 197.12C378.39 199.11 377.05 200.96 375.82 202.83C375.17 203.82 374.39 204.74 373.62 205.67C373.28 206.07 372.89 206.48 372.42 206.75C371.28 207.41 370.37 208.28 369.41 209.11C367.91 210.4 366.55 211.85 364.53 212.57C364.25 212.67 364.02 212.89 363.77 213.06C362.1 214.24 360.51 215.53 358.38 216.08C357.02 216.43 356.08 217.27 355.21 218.18C355.15 219.15 355.57 220.54 356.25 221.58C358.62 221.3 360.84 221.71 362.88 222.87C363.52 223.23 364.21 223.5 364.88 223.82C365.71 224.21 366.67 224.47 367.36 225.01C369.39 226.6 371.16 228.42 372.97 230.21C374.33 231.56 374.99 233.28 376.3 234.63C376.52 234.86 376.55 235.22 376.71 235.5C376.94 235.93 377.13 236.4 377.47 236.75C378.56 237.89 379.2 239.25 379.75 240.61C380.2 241.72 380.35 242.91 380.75 244.05C381.24 245.48 381.42 246.99 381.69 248.47C381.81 249.13 381.78 249.82 381.92 250.48C382.24 252.03 382.21 253.54 381.67 255.05C381.56 255.35 381.57 255.68 381.5 255.99C381.1 257.65 380.71 259.32 380.28 260.98C380.06 261.83 379.84 262.68 379.47 263.48C378.78 264.98 377.92 266.42 377.23 267.92C376.2 270.16 375.14 272.38 373.2 274.16C373.02 274.32 372.92 274.56 372.8 274.77C372.16 275.87 371.32 276.81 370.13 277.5C368.46 278.51 366.82 279.51 365.15 280.52C363.16 281.7 360.95 282.47 358.65 283.04C358.23 283.14 357.83 283.34 357.44 283.53C356.93 283.77 356.45 284.05 355.78 284.4C355.71 284.58 355.41 284.93 355.47 285.23C355.68 286.34 355.83 287.48 356.2 288.4C357.83 288.83 359.33 289.1 360.72 289.62C362.45 290.26 364.09 291.09 365.76 291.85C366 291.96 366.23 292.08 366.44 292.22C367.76 293.11 369.08 294 370.4 294.89C370.57 295.01 370.74 295.15 370.87 295.31C372.15 296.84 373.54 298.28 375.05 299.63C375.84 300.34 376.47 301.15 376.96 302.04C377.22 302.5 377.51 302.96 377.89 303.34C378.74 304.19 379.3 305.16 379.58 306.26C379.74 306.88 380.01 307.47 380.2 308.08C380.66 309.53 381.54 310.84 381.81 312.35C381.96 313.21 382.27 314.04 382.47 314.89C382.67 315.74 382.89 316.59 382.97 317.45C383.06 318.56 383.05 319.67 383.02 320.78C383.01 321.33 382.84 321.87 382.78 322.42C382.6 323.85 382.18 325.21 381.47 326.5C381.39 326.64 381.37 326.81 381.31 326.95C381 327.73 380.8 328.57 380.33 329.28C379.78 330.12 379.47 331.02 379.09 331.9C378.72 332.75 378.41 333.62 377.68 334.31C377.53 334.45 377.44 334.65 377.35 334.83C376.24 337.05 374.65 339.02 372.91 340.86C371.74 342.1 370.33 343.15 369.02 344.29C368.8 344.48 368.56 344.67 368.32 344.84C367.15 345.63 365.95 346.39 364.79 347.2C362.22 348.99 359.37 350.4 356.48 351.93C356.44 352.17 356.38 352.46 356.33 352.72C356.49 352.8 356.57 352.86 356.65 352.87C359.25 353 361.46 352.12 363.49 350.79C363.85 350.56 364.18 350.29 364.54 350.07C365.39 349.56 366.28 349.11 367.09 348.56C368.05 347.91 368.93 347.17 369.85 346.48C371.2 345.44 372.56 344.41 373.91 343.38C374.08 343.25 374.2 343.08 374.35 342.93C374.69 342.56 375 342.17 375.37 341.83C376.7 340.59 377.93 339.3 378.81 337.76C379.03 337.37 379.4 337.05 379.88 336.48C380.03 337.87 380.41 338.9 381.11 339.85C382.22 341.36 382.55 342.99 381.63 344.71C381.46 345.03 381.37 345.37 381.24 345.73C380.28 346.12 379.35 346.5 378.42 346.88C377.72 347.15 376.97 347.33 376.32 347.67C374.69 348.53 372.99 349.21 371.17 349.67C370.61 349.81 370.07 350.03 369.85 350.58C370.33 351.31 370.7 351.53 371.7 351.3C373.3 350.92 374.89 350.49 376.42 349.92C377.48 349.52 378.43 349.29 379.36 349.84C380.02 350.61 380.63 351.27 381.5 351.74C381.94 351.98 382.31 352.36 382.65 352.72C382.98 353.08 383.07 353.53 382.84 353.96C382.03 355.5 381.26 357.06 380.05 358.39C379.31 358.66 378.58 358.57 377.9 358.39C376.73 358.09 375.57 357.77 374.46 357.35C373.21 356.89 371.95 356.49 370.63 356.24C369.18 355.95 367.74 355.67 366.3 355.38C365.95 355.31 365.59 355.31 365.23 355.29C362.95 355.11 360.65 355.09 358.49 354.27C357.84 354.02 357.11 354.04 356.35 353.98C356.24 354.6 356.14 355.13 356.03 355.71C356.44 355.81 356.78 355.89 357.12 355.98C358.45 356.35 359.89 356.55 361.07 357.15C363.34 358.31 365.66 359.42 367.75 360.83C368.43 361.28 369.02 361.83 369.65 362.34C370.98 363.39 372.32 364.45 373.65 365.5C373.85 365.66 374.02 365.85 374.18 366.04C375.38 367.47 376.73 368.8 377.68 370.37C378.46 371.66 379.51 372.82 380.02 374.24C380.36 375.18 380.65 376.15 381.15 377.03C381.83 378.21 382.22 379.45 382.55 380.72C382.9 382.07 383.16 383.43 383.48 384.78C383.88 386.46 384.17 388.12 384.03 389.84C383.96 390.75 384.14 391.68 384.01 392.57C383.8 394.02 383.46 395.45 383.1 396.88C382.84 397.92 382.41 398.93 382.13 399.96C381.84 401.04 381.57 402.12 380.72 403.01C380.58 403.16 380.51 403.36 380.42 403.54C379.94 404.51 379.51 405.51 378.98 406.46C378.39 407.52 378 408.68 377 409.54C376.85 409.67 376.75 409.87 376.67 410.05C375.88 411.9 374.15 413.11 372.71 414.5C371.54 415.62 370.15 416.59 368.64 417.37C366.9 418.27 365.2 419.26 363.37 419.96C361.45 420.7 359.39 421.17 357.38 421.74C356.91 421.87 356.53 422.1 356.52 422.55C356.49 423.53 356.37 424.51 356.58 425.47C357.21 425.61 357.77 425.83 358.33 425.84C359.98 425.89 361.29 426.73 362.64 427.37C363.62 427.83 364.55 428.38 365.59 428.76C366.22 428.99 366.75 429.32 367.24 429.75C368.21 430.62 369.26 431.43 370.29 432.25C370.92 432.75 371.66 433.16 372.19 433.73C373.02 434.61 373.7 435.59 374.46 436.52C374.69 436.81 374.93 437.13 375.25 437.32C375.8 437.65 376.14 438.1 376.4 438.6C377.24 440.23 378.07 441.85 378.9 443.46C379.47 444.58 379.99 445.71 380.58 446.82C381.13 447.86 381.7 448.89 381.9 450.04C382.08 451.06 382.17 452.1 382.49 453.08C382.94 454.48 383.04 455.88 382.95 457.31C382.93 457.6 383.07 457.9 383.15 458.27C383.59 458.25 383.92 458.23 384.39 458.21C384.39 457.3 384.48 456.48 384.4 455.66C384.26 454.24 384.04 452.83 383.81 451.42C383.44 449.18 382.94 446.99 381.86 444.9C381.4 444.02 381.21 443.02 380.92 442.14C381.51 441.64 382.09 441.26 382.51 440.77C384.15 438.9 384.68 436.73 384.7 434.42C384.7 433.53 384.61 432.66 384.19 431.87C383.87 431.27 383.42 430.72 382.98 430.17C382.44 429.49 382.18 428.67 382.81 428.09C383.7 427.25 384.09 426.2 384.79 425.29C386.28 423.35 385.96 420.75 384.07 419.22C383.49 418.75 383.01 418.18 382.49 417.66C382.67 417.25 382.79 416.91 382.96 416.58C383.54 415.47 384.17 414.38 384.7 413.25C384.97 412.68 385.24 412.02 385.17 411.43C384.95 409.58 384.75 407.71 383.29 406.05C383.07 405.96 382.72 405.81 382.27 405.61C382.49 404.55 382.57 403.49 383.08 402.5C383.62 401.46 384.05 400.39 384.42 399.28C385.09 397.26 385.56 395.23 385.75 393.12C386.01 390.26 385.88 387.42 385.52 384.58C385.38 383.52 385.17 382.47 384.95 381.42C384.78 380.65 384.55 379.88 384.33 379.12C384.21 378.7 384.05 378.29 383.9 377.87C383.51 376.74 383.12 375.61 382.73 374.47C382.41 373.58 382.18 372.69 382.81 371.85C384.31 369.85 384.39 367.61 384.26 365.35C384.2 364.37 383.94 363.39 383.73 362.42C383.61 361.88 383.51 361.3 383.23 360.82C382.48 359.55 382.83 358.39 383.41 357.18C383.97 356.02 384.4 354.81 384.9 353.62C385.47 352.26 384.88 351.24 383.73 350.37L381.74 348.85C381.67 348.53 381.59 348.15 381.5 347.7C383.39 346.15 384.25 344.15 384.07 341.95C383.9 339.83 383.44 337.71 381.71 336.16L380.22 335.95C380.64 334.75 380.82 333.6 381.69 332.68C381.86 332.5 381.95 332.26 382.04 332.04C382.77 330.26 383.55 328.49 384.2 326.68C384.78 325.1 385.08 323.46 385.18 321.78C385.27 320.27 385.22 318.78 385.18 317.28C385.13 315.14 384.79 313.03 384.3 310.94C384.07 309.98 383.61 309.06 383.22 308.14C382.69 306.88 382.08 305.65 381.81 304.29C382.43 303.66 382.96 302.99 383.3 302.22C383.81 301.08 384.32 299.93 384.02 298.66C383.87 298.04 383.79 297.4 383.54 296.82C383.09 295.79 382.62 294.75 382 293.8C381.21 292.59 381.6 291.48 382.44 290.61C383.27 289.74 383.83 288.77 384.41 287.81C385.4 286.19 385.73 284.51 384.1 282.97C383.89 282.77 383.73 282.51 383.64 282.25C383.34 281.44 382.88 280.74 382.09 280.21C381.65 279.91 381.53 279.51 381.85 278.99C382.61 278.71 382.96 278.09 383.17 277.37C383.67 275.66 383.88 273.92 383.38 272.2C382.97 270.81 382.78 269.26 381.13 268.6C380.83 267.85 381.07 267.28 381.35 266.74C382.46 264.61 383.35 262.42 383.7 260.09C383.87 258.95 384.1 257.82 384.22 256.68C384.38 255.11 384.67 253.55 384.37 251.95C384.14 250.71 384.22 249.42 384.08 248.16C383.92 246.7 383.8 245.22 383.42 243.81C382.92 241.97 382.18 240.18 381.56 238.36C381.44 238.02 381.38 237.67 381.28 237.29C381.5 237.07 381.66 236.79 381.91 236.68C382.81 236.3 383.02 235.61 383.16 234.84C383.25 234.34 383.37 233.82 383.59 233.36C383.92 232.67 383.95 231.97 383.83 231.26C383.73 230.67 383.59 230.09 383.46 229.51C383.12 228.1 382.55 226.79 381.42 225.7C380.49 224.8 380.58 223.52 381.67 222.76C382.54 222.15 383.12 221.42 383.59 220.54C384.55 218.74 384.44 217.02 383.36 215.32C383.05 214.84 382.73 214.35 382.42 213.88C381.99 213.19 381.87 212.53 382.22 211.73C383.09 209.73 383.37 207.65 382.62 205.56C382.23 204.47 381.73 203.42 381.3 202.39C380.88 202.16 380.54 201.98 380.11 201.75C380.19 201.41 380.22 201.06 380.35 200.74C380.82 199.59 381.21 198.39 381.85 197.31C383.05 195.24 383.43 193.08 383.99 190.79C384.39 189.03 384.46 187.25 384.31 185.45C384.3 185.3 384.18 185.15 384.11 185.01C383.93 184.98 383.8 184.95 383.67 184.95C383.45 184.95 383.22 184.99 382.76 185.03C382.76 186.98 382.25 188.77 381.82 190.56L381.79 190.55ZM381.72 406.7C381.62 407.65 381.95 408.53 382.5 409.3C383.1 410.14 383.27 411.07 383.51 411.98C383.78 413.02 383.11 413.85 382.45 414.58C381.88 415.21 381.28 415.91 380.24 416.04C380.11 416.06 379.96 416.11 379.88 416.19C378.66 417.44 376.75 417.7 375.32 418.65C374.89 418.93 374.41 419.16 374.02 419.48C373.84 419.63 373.83 419.93 373.75 420.14C374.28 420.49 374.71 420.4 375.14 420.26C376.03 419.97 376.92 419.7 377.79 419.39C378.42 419.16 379.04 418.98 379.74 419.03C380.3 419.07 380.75 419.19 381.16 419.58C381.91 420.29 382.74 420.94 383.53 421.62C384.1 422.11 384.22 422.67 383.78 423.34C383.09 424.39 382.33 425.42 381.58 426.44C381.22 426.94 380.82 427.42 380.4 427.96C379.39 428.15 378.4 427.87 377.52 427.4C375.26 426.19 372.76 425.59 370.23 425.07C369.52 424.92 369.51 424.93 368.67 425.26C368.67 425.83 369.17 426.04 369.67 426.2C370.31 426.39 371.01 426.45 371.6 426.71C373.53 427.54 375.62 428.07 377.31 429.34C377.97 429.84 378.83 430.17 379.63 430.5C380.29 430.77 380.74 431.17 381.02 431.73C381.44 432.56 381.89 433.39 382.24 434.24C382.42 434.67 382.55 435.19 382.46 435.62C382.19 436.85 382.08 438.13 381.42 439.28C381.18 439.7 381.04 440.19 380.44 440.34C379.85 440.34 379.54 440.01 379.32 439.6C378.69 438.45 377.81 437.46 376.84 436.52C376.63 436.32 376.47 436.07 376.32 435.83C375.22 433.99 373.71 432.45 371.96 431.08C371.63 430.82 371.4 430.46 371.07 430.19C370.26 429.51 369.41 428.88 368.35 428.46C367.63 428.17 366.99 427.71 366.34 427.29C365.14 426.53 363.93 425.81 362.51 425.37C361.54 425.07 360.6 424.69 359.67 424.29C359.29 424.13 358.99 423.84 358.68 423.64C358.9 423.09 359.33 423.09 359.71 422.99C362.01 422.36 364.39 421.92 366.47 420.74C367.22 420.32 368.09 420.05 368.8 419.59C370.01 418.79 371.16 417.91 372.29 417.02C373.65 415.94 375.03 414.87 376.27 413.7C376.93 413.08 377.32 412.23 377.82 411.48C378.23 410.86 378.64 410.25 379.04 409.64C379.53 408.88 380.01 408.13 380.5 407.38C380.81 406.92 381.13 406.45 381.61 405.74C381.66 406.27 381.72 406.5 381.7 406.72L381.72 406.7ZM383.03 285.72C381.72 287.58 380.47 289.34 379.29 291.02C378.23 291.34 377.56 290.88 376.95 290.44C376.28 289.95 375.54 289.6 374.72 289.37C372.97 288.87 371.23 288.37 369.48 287.87C368.88 287.71 368.25 287.65 367.63 287.55C367.15 287.47 366.74 287.55 366.41 287.95C366.32 288.68 366.88 288.98 367.55 289.18C368.56 289.49 369.6 289.77 370.6 290.09C371.69 290.45 372.78 290.83 373.85 291.23C374.13 291.33 374.37 291.53 374.62 291.7C375.51 292.33 376.46 292.82 377.6 293.02C378.12 293.11 378.62 293.31 379.07 293.44C381.44 296.39 382.25 300.43 380.88 302.57C380.33 302.55 380.03 302.22 379.85 301.8C379.38 300.7 378.5 299.86 377.67 298.99C376.43 297.69 375.28 296.34 374.08 295.02C373.66 294.56 373.23 294.09 372.73 293.71C371.17 292.52 369.62 291.34 367.75 290.51C366.76 290.07 365.88 289.44 364.95 288.9C364.73 288.77 364.53 288.59 364.28 288.51C362.03 287.82 360.08 286.5 357.7 286.11C357.62 286.1 357.56 286.01 357.45 285.93C357.85 285.53 358.43 285.49 358.94 285.33C360.34 284.91 361.74 284.49 363.13 284.07C363.59 283.93 363.96 283.65 364.35 283.39C365.17 282.85 366.14 282.51 367.02 282.03C369.26 280.8 371.6 279.7 373.5 278.05C374.4 277.27 375.17 276.42 375.83 275.46C376.67 274.25 377.6 273.1 378.47 271.91C378.71 271.58 378.81 271.18 379.04 270.84C379.26 270.52 379.56 270.25 380 269.77C380.22 270.38 380.31 270.8 380.52 271.15C381.35 272.56 381.27 274.07 381.2 275.57C381.18 276.07 381.03 276.59 380.82 277.06C380.66 277.41 380.36 277.77 380 277.97C378.57 278.78 377.13 279.57 375.64 280.29C374.62 280.78 373.52 281.14 372.47 281.56C372.02 281.74 371.56 281.91 371.16 282.15C370.58 282.49 370.05 282.89 369.44 283.3C369.79 283.86 370.44 283.86 371.03 283.85C371.56 283.84 372.11 283.73 372.61 283.57C374.03 283.1 375.48 282.67 376.75 281.9C377.64 281.36 378.63 281.18 379.51 281.42C380.75 282.94 381.9 284.33 383.04 285.72H383.03ZM380.38 205.35C381.08 206.65 380.98 208.06 380.69 209.43C380.54 210.15 379.8 210.57 379.05 210.89C378.09 211.33 377.15 211.76 376.19 212.2C374.16 213.09 372.3 214.33 369.96 214.62C369.66 214.66 369.36 214.79 369.08 214.92C368.73 215.08 368.56 215.35 368.62 215.71C368.68 216.06 368.92 216.3 369.31 216.36C369.61 216.41 369.93 216.39 370.23 216.36C371.82 216.24 373.28 215.71 374.71 215.15C375.52 214.83 376.32 214.46 377.08 214.05C377.67 213.73 378.24 213.67 378.92 213.88C379.06 214.04 379.29 214.2 379.39 214.41C379.83 215.3 380.52 216.02 381.22 216.74C381.56 217.09 381.84 217.52 382.05 217.95C382.31 218.49 382.29 219.08 381.84 219.52C380.78 220.59 379.67 221.62 378.59 222.65C377.48 223.01 376.45 222.65 375.58 222.24C373.31 221.18 370.86 220.74 368.41 220.27C367.62 220.12 366.83 219.93 366.03 219.88C365.23 219.83 364.43 219.93 363.62 219.95C363.09 219.97 362.53 220.05 362.03 219.95C360.99 219.75 359.97 219.45 358.94 219.17C358.57 219.07 358.22 218.93 357.87 218.81C357.93 218.23 358.38 218.17 358.74 218.06C360.82 217.4 362.66 216.33 364.58 215.39C364.73 215.31 364.87 215.2 364.98 215.08C365.67 214.31 366.54 213.85 367.58 213.48C368.42 213.18 369.13 212.55 369.82 211.99C371.3 210.79 372.75 209.56 374.18 208.31C375.35 207.28 376.4 206.17 377.28 204.93C377.82 204.18 378.27 203.35 379.28 202.8C379.46 203.75 379.94 204.53 380.38 205.34V205.35ZM380.1 370.05C379.34 368.46 378.11 367.14 376.95 365.79C376.25 364.98 375.43 364.25 374.66 363.48C374.51 363.33 374.31 363.23 374.17 363.07C372.82 361.51 371.04 360.39 369.26 359.27C368.43 358.75 367.66 358.16 366.67 357.46C367.29 357.42 367.74 357.31 368.13 357.39C369.4 357.64 370.67 357.89 371.89 358.26C374.14 358.93 376.35 359.7 378.58 360.41C380.12 360.9 381.07 361.89 381.75 363.15C382.47 364.5 382.35 365.93 382.23 367.35C382.17 368.09 381.97 368.83 381.78 369.56C381.66 370.02 381.46 370.49 380.65 370.57C380.5 370.44 380.21 370.29 380.1 370.06V370.05ZM369.24 222.08C371.91 223.1 374.58 224.11 377.24 225.13C378.58 225.65 379.32 226.72 380.1 227.73C380.4 228.12 380.69 228.52 380.92 228.95C381.16 229.41 381.43 229.89 381.49 230.39C381.7 232.06 381.55 233.71 380.97 235.31C380.88 235.56 380.71 235.79 380.48 236.2C380.1 235.67 379.78 235.3 379.56 234.89C378.7 233.27 377.65 231.77 376.42 230.36C375.93 229.8 375.41 229.25 374.99 228.65C374.18 227.5 373 226.65 372 225.66C370.91 224.59 369.5 223.76 368.24 222.82C368.03 222.66 367.87 222.44 367.66 222.23C368.24 221.77 368.76 221.9 369.25 222.09L369.24 222.08Z" fill="#E4E4E4"/>
</g>
<defs>
<clipPath id="clip0_34_681">
<rect width="385.86" height="458.26" fill="white"/>
</clipPath>
</defs>
</svg>
