<svg width="403" height="469" viewBox="0 0 403 469" fill="none" xmlns="http://www.w3.org/2000/svg">
<g clip-path="url(#clip0_34_682)">
<path d="M29.15 458.29C29.39 457.43 29.65 456.59 29.88 455.82C29.71 455.03 29.61 454.37 29.43 453.74C29.06 452.48 28.44 451.41 27.69 450.43H30.91C31.02 450.59 31.13 450.76 31.24 450.93C31.57 451.47 31.63 452.17 31.81 452.79C31.64 456.68 30.14 459.98 27.78 463.03C26.32 464.92 24.34 466.01 22.2 466.96C21.12 467.44 20.03 467.4 19.38 466.45C19 465.9 18.86 464.96 19.09 464.35C19.23 463.96 20.22 463.67 20.83 463.66C21.5 463.65 22.16 464.09 22.84 464.18C24.85 464.44 26.04 463.26 25.54 461.37C25.29 460.42 24.71 459.51 24.12 458.7C23.05 457.23 21.84 455.87 20.72 454.43C19.69 453.13 18.98 451.79 18.55 450.42H21.94C22.55 451.93 23.44 453.31 24.99 454.42C25.78 454.99 26.22 456.02 26.8 456.85C27.2 457.4 27.52 458 27.98 458.49C28.41 458.94 28.93 459.17 29.18 458.28L29.15 458.29Z" fill="#E4E4E4"/>
<path d="M2.40159 380.008C3.66138 379.821 5.45589 382.831 4.89397 384.45C3.08133 389.695 3.76107 394.953 4.40456 400.318C4.64926 402.351 4.42268 404.505 4.34112 406.593C4.18704 410.78 3.97859 414.968 3.81545 419.156C3.73388 421.256 3.75201 423.357 3.66138 425.444C3.3351 432.923 2.94539 440.402 2.66443 447.88C2.60098 449.473 3.01789 451.091 3.04508 452.697C3.10852 457.045 3.09946 461.407 3.06321 465.755C3.06321 466.29 2.85475 467.066 2.56473 467.32C2.07532 467.748 1.40464 468.096 0.869917 467.976C0.543643 467.909 0.144863 466.932 0.0723571 466.303C-0.0454643 465.126 -0.000148368 463.909 0.0723571 462.718C0.462074 455.547 0.0723571 448.362 0.181115 441.191C0.262684 435.532 0.688653 429.872 0.588958 424.226C0.471137 417.523 1.15994 410.807 0.271747 404.117C0.0632939 402.512 0.0995466 400.786 0.262684 399.167C0.715843 394.672 0.779285 390.217 0.262684 385.735C0.0270412 383.714 0.308 381.828 1.66748 380.61C1.93031 380.37 2.21127 380.182 2.40159 380.022V380.008Z" fill="#E4E4E4"/>
<path d="M44.78 303.31C46.17 303.15 48.17 305.38 47.57 306.59C45.62 310.54 46.42 314.45 47.18 318.45C47.47 319.96 47.24 321.58 47.18 323.14C47.05 326.27 46.86 329.4 46.73 332.53C46.66 334.1 46.71 335.67 46.63 337.23C46.35 342.82 45.99 348.42 45.76 354.01C45.71 355.2 46.18 356.41 46.23 357.61C46.34 360.86 46.37 364.12 46.38 367.37C46.38 367.77 46.17 368.35 45.85 368.54C45.31 368.86 44.58 369.14 43.99 369.06C43.62 369.01 43.18 368.29 43.1 367.82C42.95 366.95 43 366.03 43.06 365.14C43.42 359.77 42.92 354.41 42.96 349.05C42.99 344.82 43.4 340.58 43.24 336.36C43.05 331.36 43.74 326.32 42.69 321.34C42.44 320.15 42.46 318.85 42.63 317.64C43.09 314.28 43.12 310.94 42.49 307.6C42.21 306.09 42.49 304.68 43.99 303.75C44.28 303.57 44.59 303.42 44.8 303.3L44.78 303.31Z" fill="#E4E4E4"/>
<path d="M4.74003 343.4C5.12003 348.24 5.05003 353.43 4.04003 358.63C3.51003 361.35 3.90003 364.24 3.75003 367.04C3.69003 368.12 3.45003 369.28 2.94003 370.23C2.65003 370.77 1.69003 371.1 0.970027 371.25C0.380027 371.37 -0.239973 370.93 0.110027 370.21C1.79003 366.75 0.900027 363.2 0.770027 359.63C0.640027 356.18 1.01003 352.69 1.42003 349.24C1.97003 344.55 2.09003 339.87 1.87003 335.15C1.73003 332.15 1.95003 329.14 1.89003 326.13C1.78003 320.3 1.60003 314.47 1.44003 308.65C1.44003 308.31 1.39003 307.98 1.40003 307.64C1.46003 306.14 2.12003 305.22 3.22003 305.16C4.77003 305.07 4.94003 306.36 4.99003 307.23C5.16003 310.02 5.21003 312.83 5.04003 315.61C4.99003 316.49 4.71003 317.25 5.10003 318.17C5.39003 318.85 5.28003 319.7 5.29003 320.48C5.35003 324.07 5.50003 327.67 5.41003 331.26C5.34003 334.05 4.95003 336.84 4.76003 339.63C4.68003 340.75 4.75003 341.88 4.75003 343.4H4.74003Z" fill="#E4E4E4"/>
<path d="M46.2286 430.905C46.6485 437.347 46.5712 444.255 45.4551 451.176C44.8694 454.797 45.3004 458.643 45.1346 462.37C45.0683 463.808 44.8031 465.352 44.2395 466.616C43.9191 467.335 42.8582 467.774 42.0626 467.974C41.4106 468.134 40.7255 467.548 41.1123 466.59C42.9687 461.984 41.9853 457.259 41.8416 452.507C41.6979 447.915 42.1068 443.27 42.5599 438.678C43.1677 432.435 43.3003 426.206 43.0571 419.924C42.9024 415.931 43.1455 411.924 43.0792 407.918C42.9577 400.158 42.7588 392.398 42.582 384.651C42.582 384.199 42.5267 383.759 42.5378 383.307C42.6041 381.31 43.3334 380.086 44.5489 380.006C46.2618 379.886 46.4496 381.603 46.5049 382.761C46.6927 386.475 46.748 390.215 46.5601 393.915C46.5049 395.087 46.1955 396.098 46.6264 397.323C46.9469 398.228 46.8253 399.359 46.8364 400.397C46.9027 405.176 47.0684 409.967 46.969 414.746C46.8916 418.459 46.4607 422.173 46.2507 425.887C46.1623 427.377 46.2397 428.881 46.2397 430.905H46.2286Z" fill="#E4E4E4"/>
<path d="M29.41 385.13C30.27 385.68 30.78 386.58 30.2 387.43C29.86 387.93 28.9 388.12 28.19 388.26C27.78 388.35 27.3 388.02 26.84 387.95C24.61 387.62 23.76 388.31 23.81 391.28C24.32 392.23 25.09 393.96 26.11 395.52C26.72 396.44 27.82 397.03 28.56 397.89C31.26 401 32.28 404.5 31.16 408.5C30.03 412.52 27.61 415.44 23.53 417.05C22.16 417.59 20.8 417.8 19.59 416.81C19.2 416.49 18.76 415.68 18.92 415.42C19.22 414.93 19.95 414.39 20.49 414.41C21.23 414.42 21.99 414.9 22.71 415.22C23.8 415.7 24.84 415.61 25.59 414.75C26.39 413.84 26.7 412.73 25.78 411.69C24.38 410.09 23.53 408.2 22 406.6C16.59 400.93 16.83 395.35 20.82 389.09C21.76 387.62 23.31 386.43 24.8 385.41C26.15 384.48 27.83 384.15 29.41 385.15V385.13ZM21.94 396.31C21.76 396.31 21.49 396.8 21.44 397.09C21.06 399.24 22.01 401.05 23.22 402.74C24.19 404.11 25.25 405.42 26.25 406.78C26.8 407.51 27.24 408.31 27.87 408.98C28.11 409.24 28.76 409.37 29.12 409.25C29.47 409.14 29.74 408.67 29.91 408.3C30.04 408.01 29.94 407.64 29.94 407.3C29.98 405.16 29.11 403.34 27.74 401.74C26.27 400.02 24.77 398.31 23.23 396.65C22.97 396.38 22.38 396.29 21.95 396.32L21.94 396.31Z" fill="#E4E4E4"/>
<path d="M29.15 307.4C29.39 306.54 29.65 305.7 29.88 304.93C29.71 304.14 29.61 303.48 29.43 302.85C29.06 301.59 28.44 300.52 27.69 299.54H30.91C31.02 299.7 31.13 299.87 31.24 300.04C31.57 300.58 31.63 301.28 31.81 301.9C31.64 305.79 30.14 309.09 27.78 312.14C26.32 314.03 24.34 315.12 22.2 316.07C21.12 316.55 20.03 316.51 19.38 315.56C19 315.01 18.86 314.07 19.09 313.46C19.23 313.07 20.22 312.78 20.83 312.77C21.5 312.76 22.16 313.2 22.84 313.29C24.85 313.55 26.04 312.37 25.54 310.48C25.29 309.53 24.71 308.62 24.12 307.81C23.05 306.34 21.84 304.98 20.72 303.54C19.69 302.24 18.98 300.9 18.55 299.53H21.94C22.55 301.04 23.44 302.42 24.99 303.53C25.78 304.1 26.22 305.13 26.8 305.96C27.2 306.51 27.52 307.11 27.98 307.6C28.41 308.05 28.93 308.28 29.18 307.39L29.15 307.4Z" fill="#E4E4E4"/>
<path d="M28.64 433.7C29.31 433.87 30.08 434.46 30.39 435.07C30.96 436.17 30.16 437.09 28.89 436.98C28.54 436.95 28.22 436.78 27.87 436.72C24.6 436.17 23.39 437.41 24.57 440.42C25.21 442.06 26.35 443.53 27.33 445.04C28.5 446.85 29.75 448.62 30.92 450.44H27.7C26 448.26 23.64 446.56 21.95 444.38C21.77 444.14 21.28 443.95 21.01 444.01C20.68 444.1 20.14 444.57 20.2 444.73C20.84 446.6 21.18 448.6 21.94 450.44H18.55C17.81 448.06 17.98 445.54 19.01 442.8C20.22 439.57 22.41 437.26 24.84 435.02C25.87 434.07 27.16 433.34 28.65 433.71L28.64 433.7Z" fill="#E4E4E4"/>
<path d="M29.99 336.67C30.22 336.99 30.38 337.63 30.2 337.86C29.89 338.25 29.31 338.62 28.8 338.66C28.28 338.7 27.69 338.4 27.17 338.17C25.99 337.64 24.94 337.52 24.07 338.68C23.23 339.8 23.07 341.45 23.91 342.45C25 343.76 26.26 344.94 27.4 346.2C28.07 346.94 28.51 347.89 29.28 348.49C31.42 350.13 31.29 352.4 31.31 354.62C31.37 359.96 29.69 364.51 24.56 367.31C23.87 367.69 23.07 367.85 22.45 368.07C21.79 367.87 21.34 367.78 20.92 367.6C20.73 367.52 20.47 367.24 20.5 367.11C20.57 366.83 20.77 366.39 20.98 366.35C22.01 366.17 23.09 366.2 24.11 365.97C25.75 365.61 26.17 364.96 25.93 363.31C25.64 361.29 24.97 359.5 23.41 357.92C21.52 355.99 19.6 353.96 18.84 351.3C18.45 349.93 17.94 348.37 18.28 347.07C18.95 344.49 20.09 342.02 21.19 339.56C22.06 337.61 23.9 336.52 25.78 335.59C27.63 334.68 28.83 335 29.98 336.66L29.99 336.67ZM20.27 345.32C19.61 347.42 20.42 349.23 21.69 350.92C23.31 353.08 24.9 355.26 26.54 357.42C27.01 358.05 27.53 358.67 28.14 359.17C28.69 359.62 29.7 359.14 29.7 358.47C29.7 358.04 29.53 357.6 29.44 357.16C29.57 357.11 29.71 357.06 29.84 357C29.19 355.25 28.82 353.32 27.81 351.78C26.14 349.23 24.1 346.91 22.14 344.55C21.63 343.93 20.58 344.34 20.28 345.31L20.27 345.32Z" fill="#E4E4E4"/>
<path d="M28.63 433.7C29.3 433.87 30.07 434.46 30.38 435.07C30.95 436.17 30.15 437.09 28.88 436.98C28.53 436.95 28.21 436.78 27.86 436.72C24.59 436.17 23.38 437.41 24.56 440.42C25.2 442.06 26.34 443.53 27.32 445.04C28.49 446.85 29.74 448.62 30.91 450.44H27.69C25.99 448.26 23.63 446.56 21.94 444.38C21.76 444.14 21.27 443.95 21 444.01C20.67 444.1 20.13 444.57 20.18 444.73C20.82 446.6 21.17 448.6 21.92 450.44H18.53C17.79 448.06 17.96 445.54 18.99 442.8C20.2 439.57 22.39 437.26 24.82 435.02C25.85 434.07 27.14 433.34 28.63 433.71V433.7Z" fill="#E4E4E4"/>
<path d="M29.15 307.4C29.39 306.54 29.65 305.7 29.88 304.93C29.71 304.14 29.61 303.48 29.43 302.85C29.06 301.59 28.44 300.52 27.69 299.54H30.91C31.02 299.7 31.13 299.87 31.24 300.04C31.57 300.58 31.63 301.28 31.81 301.9C31.64 305.79 30.14 309.09 27.78 312.14C26.32 314.03 24.34 315.12 22.2 316.07C21.12 316.55 20.03 316.51 19.38 315.56C19 315.01 18.86 314.07 19.09 313.46C19.23 313.07 20.22 312.78 20.83 312.77C21.5 312.76 22.16 313.2 22.84 313.29C24.85 313.55 26.04 312.37 25.54 310.48C25.29 309.53 24.71 308.62 24.12 307.81C23.05 306.34 21.84 304.98 20.72 303.54C19.69 302.24 18.98 300.9 18.55 299.53H21.94C22.55 301.04 23.44 302.42 24.99 303.53C25.78 304.1 26.22 305.13 26.8 305.96C27.2 306.51 27.52 307.11 27.98 307.6C28.41 308.05 28.93 308.28 29.18 307.39L29.15 307.4Z" fill="#E4E4E4"/>
<path d="M2.63 229.15C4.02 229.01 6 231.26 5.38 232.47C3.38 236.39 4.13 240.32 4.84 244.33C5.11 245.85 4.86 247.46 4.77 249.02L4.19 258.41C4.1 259.98 4.12 261.55 4.02 263.11C3.66 268.7 3.23 274.29 2.92 279.88C2.85 281.07 3.31 282.28 3.34 283.48C3.41 286.73 3.4 289.99 3.36 293.24C3.36 293.64 3.13 294.22 2.81 294.41C2.27 294.73 1.53 294.99 0.94 294.9C0.58 294.85 0.14 294.12 0.0599999 293.65C-0.0700001 292.77 -0.0200001 291.86 0.0599999 290.97C0.49 285.61 0.0599999 280.24 0.18 274.88C0.27 270.65 0.74 266.42 0.63 262.2C0.5 257.19 1.26 252.17 0.28 247.17C0.0499999 245.97 0.0899999 244.68 0.27 243.47C0.77 240.11 0.84 236.78 0.27 233.43C0.0099999 231.92 0.32 230.51 1.82 229.6C2.11 229.42 2.42 229.28 2.63 229.16V229.15Z" fill="#E4E4E4"/>
<path d="M50.69 158.72C52.06 158.97 53.47 161.36 52.6 162.21C51.21 163.61 50.6 165.24 50.24 166.92C49.9 168.61 49.87 170.37 49.98 172.15C50.03 173.5 49.56 174.83 49.26 176.16C48.92 177.48 48.69 178.82 48.44 180.16L47.7 184.19C47.42 185.53 47.42 186.91 47.22 188.26C46.92 190.68 46.47 193.1 46.32 195.55L46 199.22L45.85 201.06C45.8 201.69 45.78 202.44 45.75 203.12C45.7 204.31 46.17 205.52 46.22 206.72C46.33 209.97 46.36 213.23 46.37 216.48C46.37 216.88 46.16 217.46 45.84 217.65C45.3 217.97 44.57 218.25 43.98 218.17C43.61 218.12 43.17 217.4 43.09 216.93C42.94 216.06 42.99 215.14 43.05 214.25C43.23 211.57 43.19 208.89 43.12 206.2L43 202.18L42.98 201.19V200.29L43.03 198.49C43.1 196.6 43.23 194.71 43.4 192.83C43.63 190.95 43.84 189.08 43.9 187.2C43.91 184.96 44.41 182.76 44.69 180.55C44.84 179.44 44.96 178.33 45.01 177.21C45.12 176.1 45.17 174.98 45.11 173.84C45.05 172.75 45.28 171.61 45.63 170.57C46.08 169.13 46.6 167.71 46.91 166.25C47.23 164.79 47.42 163.31 47.45 161.77C47.52 160.39 48.17 159.25 49.83 158.86C50.15 158.78 50.49 158.74 50.72 158.7L50.69 158.72Z" fill="#E4E4E4"/>
<path d="M4.98002 191.58C5.10002 194.26 5.10002 197.03 4.94002 199.85C4.84002 201.32 4.77002 202.54 4.62002 203.85C4.48002 205.14 4.28002 206.44 4.03002 207.75C3.50002 210.47 3.89002 213.36 3.74002 216.16C3.68002 217.24 3.44002 218.4 2.93002 219.35C2.64002 219.89 1.68002 220.22 0.960017 220.37C0.370017 220.49 -0.249983 220.05 0.100017 219.33C1.78002 215.87 0.890017 212.32 0.760017 208.75C0.690017 207.02 0.760017 205.29 0.880017 203.55C0.950017 202.66 1.01002 201.86 1.12002 200.9L1.48002 197.99C1.84002 195.36 2.01002 192.74 2.25002 190.11C2.52002 187.49 2.69002 184.86 2.78002 182.21C2.94002 178.84 3.66002 175.51 4.02002 172.15C4.42002 168.9 5.00002 165.67 5.48002 162.43C5.70002 160.8 6.09002 159.21 6.40002 157.6L7.39002 152.77C7.47002 152.4 7.51002 152.02 7.61002 151.65C8.10002 150.02 9.04002 149.21 10.11 149.43C11.63 149.74 11.41 151.16 11.2 152.1C10.65 155.14 10.01 158.18 9.15002 161.15C8.87002 162.08 8.49002 162.87 8.68002 163.94C8.83002 164.74 8.56002 165.64 8.42002 166.49C8.12002 168.45 7.77002 170.41 7.54002 172.38C7.32002 174.35 7.08002 176.32 6.79002 178.28C6.28002 181.32 5.73002 184.36 5.29002 187.43C5.13002 188.66 5.07002 189.91 4.98002 191.59V191.58Z" fill="#E4E4E4"/>
<path d="M46.06 267.38C46.44 272.22 46.37 277.41 45.36 282.61C44.83 285.33 45.22 288.22 45.07 291.02C45.01 292.1 44.77 293.26 44.26 294.21C43.97 294.75 43.01 295.08 42.29 295.23C41.7 295.35 41.08 294.91 41.43 294.19C43.11 290.73 42.22 287.18 42.09 283.61C41.96 280.16 42.33 276.67 42.74 273.22C43.29 268.53 43.41 263.85 43.19 259.13C43.05 256.13 43.27 253.12 43.21 250.11C43.1 244.28 42.92 238.45 42.76 232.63C42.76 232.29 42.71 231.96 42.72 231.62C42.78 230.12 43.44 229.2 44.54 229.14C46.09 229.05 46.26 230.34 46.31 231.21C46.48 234 46.53 236.81 46.36 239.59C46.31 240.47 46.03 241.23 46.42 242.15C46.71 242.83 46.6 243.68 46.61 244.46C46.67 248.05 46.82 251.65 46.73 255.24C46.66 258.03 46.27 260.82 46.08 263.61C46 264.73 46.07 265.86 46.07 267.38H46.06Z" fill="#E4E4E4"/>
<path d="M29.41 234.25C30.27 234.8 30.78 235.7 30.2 236.55C29.86 237.05 28.9 237.24 28.19 237.38C27.78 237.47 27.3 237.14 26.84 237.07C24.61 236.74 23.76 237.43 23.81 240.4C24.32 241.35 25.09 243.08 26.11 244.64C26.72 245.56 27.82 246.15 28.56 247.01C31.26 250.12 32.28 253.62 31.16 257.62C30.03 261.64 27.61 264.56 23.53 266.17C22.16 266.71 20.8 266.92 19.59 265.93C19.2 265.61 18.76 264.8 18.92 264.54C19.22 264.05 19.95 263.51 20.49 263.53C21.23 263.54 21.99 264.02 22.71 264.34C23.8 264.82 24.84 264.73 25.59 263.87C26.39 262.96 26.7 261.85 25.78 260.81C24.38 259.21 23.53 257.32 22 255.72C16.59 250.05 16.83 244.47 20.82 238.21C21.76 236.74 23.31 235.55 24.8 234.53C26.15 233.6 27.83 233.27 29.41 234.27V234.25ZM21.94 245.43C21.76 245.43 21.49 245.92 21.44 246.21C21.06 248.36 22.01 250.17 23.22 251.86C24.19 253.23 25.25 254.54 26.25 255.9C26.8 256.63 27.24 257.43 27.87 258.1C28.11 258.36 28.76 258.49 29.12 258.37C29.47 258.26 29.74 257.79 29.91 257.42C30.04 257.13 29.94 256.76 29.94 256.42C29.98 254.28 29.11 252.46 27.74 250.86C26.27 249.14 24.77 247.43 23.23 245.77C22.97 245.5 22.38 245.41 21.95 245.44L21.94 245.43Z" fill="#E4E4E4"/>
<path d="M34.57 158.31C35.03 157.57 35.51 156.85 35.93 156.2C35.97 155.42 36.05 154.78 36.04 154.14C36.02 152.87 35.7 151.69 35.25 150.55L38.33 151.49L38.51 152.05C38.69 152.64 38.56 153.3 38.58 153.92C37.99 155.68 37.12 157.22 36 158.61C34.96 160.02 33.68 161.29 32.2 162.48C30.36 163.95 28.18 164.6 25.86 165.11C24.71 165.37 23.63 165.11 23.22 164.03C22.97 163.41 23.06 162.43 23.42 161.87C23.65 161.51 24.68 161.44 25.28 161.56C25.93 161.69 26.47 162.28 27.12 162.51C29.02 163.2 30.45 162.32 30.38 160.39C30.35 159.41 29.99 158.4 29.59 157.46C28.91 155.78 28.15 154.15 27.46 152.44C26.83 150.89 26.52 149.37 26.5 147.88L29.74 148.87C29.91 150.51 30.38 152.11 31.57 153.59C32.18 154.35 32.32 155.44 32.66 156.38C32.9 157 33.04 157.65 33.37 158.22C33.68 158.76 34.14 159.1 34.58 158.32L34.57 158.31Z" fill="#E4E4E4"/>
<path d="M28.64 282.81C29.31 282.98 30.08 283.57 30.39 284.18C30.96 285.28 30.16 286.2 28.89 286.09C28.54 286.06 28.22 285.89 27.87 285.83C24.6 285.28 23.39 286.52 24.57 289.53C25.21 291.17 26.35 292.64 27.33 294.15C28.52 295.94 29.73 297.75 30.92 299.55H27.7C26 297.37 23.64 295.67 21.95 293.49C21.77 293.25 21.28 293.06 21.01 293.12C20.68 293.21 20.14 293.68 20.2 293.84C20.84 295.71 21.18 297.71 21.94 299.55H18.55C17.81 297.17 17.98 294.66 19.01 291.91C20.22 288.68 22.41 286.37 24.84 284.13C25.87 283.18 27.16 282.45 28.65 282.82L28.64 282.81Z" fill="#E4E4E4"/>
<path d="M30.68 186.34C30.88 186.67 31 187.3 30.81 187.5C30.47 187.85 29.86 188.16 29.36 188.17C28.83 188.17 28.27 187.84 27.77 187.56C26.64 186.95 25.59 186.74 24.64 187.82C23.72 188.87 23.43 190.52 24.19 191.57C25.18 192.93 26.46 194.16 27.56 195.43C28.21 196.17 28.63 197.12 29.38 197.71C31.48 199.35 31.28 201.46 31.32 203.72C31.38 209.06 29.7 213.61 24.57 216.41C23.88 216.79 23.08 216.95 22.46 217.17C21.8 216.97 21.35 216.88 20.93 216.7C20.74 216.62 20.48 216.34 20.51 216.21C20.58 215.93 20.78 215.49 20.99 215.45C22.02 215.27 23.1 215.3 24.12 215.07C25.76 214.71 26.18 214.06 25.94 212.41C25.65 210.39 24.98 208.6 23.42 207.02C21.54 205.08 19.58 203.08 18.87 200.38C18.52 198.97 18.05 197.35 18.42 196.02C18.79 194.7 19.28 193.42 19.82 192.17C20.4 190.92 21.07 189.7 21.71 188.49C22.73 186.57 24.64 185.64 26.59 184.9C28.5 184.18 29.67 184.62 30.7 186.32L30.68 186.34ZM20.45 194.3C19.74 196.42 20.5 198.3 21.72 200.02C23.28 202.21 24.91 204.37 26.53 206.53C27 207.16 27.52 207.78 28.13 208.28C28.68 208.73 29.69 208.25 29.69 207.58C29.69 207.15 29.52 206.71 29.43 206.27L29.83 206.11C29.18 204.36 28.8 202.42 27.81 200.9C26.21 198.4 24.22 196.06 22.32 193.59C21.83 192.95 20.77 193.31 20.44 194.29L20.45 194.3Z" fill="#E4E4E4"/>
<path d="M28.63 282.81C29.3 282.98 30.07 283.57 30.38 284.18C30.95 285.28 30.15 286.2 28.88 286.09C28.53 286.06 28.21 285.89 27.86 285.83C24.59 285.28 23.38 286.52 24.56 289.53C25.2 291.17 26.34 292.64 27.32 294.15C28.51 295.94 29.72 297.75 30.91 299.55H27.69C25.99 297.37 23.63 295.67 21.94 293.49C21.76 293.25 21.27 293.06 21 293.12C20.67 293.21 20.13 293.68 20.18 293.84C20.82 295.71 21.17 297.71 21.92 299.55H18.53C17.79 297.17 17.96 294.65 18.99 291.91C20.2 288.68 22.39 286.37 24.82 284.13C25.85 283.18 27.14 282.45 28.63 282.82V282.81Z" fill="#E4E4E4"/>
<path d="M34.56 158.31C35.02 157.57 35.5 156.85 35.92 156.2C35.96 155.42 36.04 154.78 36.03 154.14C36.01 152.87 35.69 151.69 35.24 150.55L38.32 151.49L38.5 152.05C38.68 152.64 38.55 153.3 38.57 153.92C37.98 155.68 37.11 157.22 35.99 158.61C34.95 160.02 33.67 161.29 32.19 162.48C30.35 163.95 28.17 164.6 25.85 165.11C24.7 165.37 23.62 165.11 23.21 164.03C22.96 163.41 23.05 162.43 23.41 161.87C23.64 161.51 24.67 161.44 25.27 161.56C25.92 161.69 26.46 162.28 27.11 162.51C29.01 163.2 30.44 162.32 30.37 160.39C30.34 159.41 29.98 158.4 29.58 157.46C28.9 155.78 28.14 154.15 27.45 152.44C26.82 150.88 26.51 149.37 26.49 147.88L29.73 148.87C29.9 150.51 30.37 152.11 31.56 153.59C32.17 154.35 32.31 155.44 32.65 156.38C32.89 157 33.03 157.65 33.36 158.22C33.67 158.76 34.13 159.1 34.57 158.32L34.56 158.31Z" fill="#E4E4E4"/>
<path d="M48.49 74.33C49.63 75.09 49.61 78.28 48.31 78.94C46.19 80.02 44.59 81.55 43.26 83.29C42.01 85.09 41.02 87.1 40.03 89.11C39.65 89.87 39.16 90.58 38.62 91.27C38.1 91.97 37.57 92.68 37.06 93.37C35.06 96.2 32.92 98.95 31.09 101.91C30.15 103.37 29.29 104.9 28.34 106.36C26.68 108.99 25.14 111.7 23.54 114.39C21.98 117.1 20.59 119.9 19.15 122.68C18.52 123.86 18.46 125.3 17.99 126.56C16.73 129.97 15.32 133.31 14.18 136.77C14.03 137.19 13.61 137.73 13.25 137.83C12.62 137.99 11.83 138.04 11.3 137.76C10.97 137.59 10.82 136.67 10.92 136.14C11.11 135.15 11.5 134.19 11.89 133.26C13.1 130.46 14.28 127.66 15.34 124.81C15.86 123.38 16.45 121.98 17.07 120.59C17.68 119.2 18.3 117.81 18.95 116.44C19.94 114.26 21.19 112.2 22.38 110.12C23.6 108.05 24.69 105.93 25.87 103.86C27.24 101.38 28.75 98.97 30.27 96.59C31.84 94.23 33.31 91.82 34.44 89.17C35 87.92 35.9 86.75 36.84 85.73C38.15 84.32 39.36 82.87 40.46 81.34C41.62 79.85 42.69 78.29 43.63 76.62C44.49 75.11 45.71 74.04 47.52 74.2C47.87 74.24 48.22 74.31 48.47 74.35L48.49 74.33Z" fill="#E4E4E4"/>
<path d="M133.87 59.95C134.57 61.12 133.74 63.81 132.54 63.75C130.58 63.66 128.91 64.18 127.41 65.02C125.94 65.93 124.64 67.13 123.33 68.32C122.83 68.77 122.25 69.12 121.64 69.43L119.84 70.42C117.5 71.8 115.05 73.03 112.78 74.56C111.63 75.3 110.54 76.12 109.37 76.85C107.33 78.19 105.34 79.62 103.31 80.99C101.31 82.41 99.41 83.96 97.46 85.46C96.62 86.09 96.2 87.2 95.46 87.95C94.47 88.97 93.47 89.98 92.45 90.97C91.41 91.95 90.5 93.04 89.5 94.05C89.26 94.31 88.75 94.52 88.41 94.43C87.82 94.26 87.12 93.94 86.74 93.48C86.5 93.2 86.62 92.43 86.85 92.07C87.28 91.4 87.88 90.84 88.47 90.31C92.09 87.17 95.23 83.53 98.93 80.47C100.34 79.21 101.91 78.15 103.45 77.05C104.22 76.5 104.98 75.95 105.73 75.38L106.84 74.51C107.22 74.23 107.6 73.95 107.97 73.67C109.74 72.31 111.61 71.08 113.47 69.85C115.36 68.66 117.19 67.39 118.79 65.73C119.56 64.95 120.6 64.42 121.62 64.02C123.04 63.47 124.39 62.83 125.68 62.07C126.99 61.36 128.25 60.57 129.44 59.6C130.52 58.73 131.78 58.41 133.16 59.37C133.43 59.56 133.69 59.79 133.87 59.94V59.95Z" fill="#E4E4E4"/>
<path d="M79.05 47.38C78.06 48.29 77.01 49.16 75.98 50.08C74.95 51.01 73.89 51.92 72.8 52.8C71.7 53.69 70.56 54.55 69.39 55.39C68.23 56.25 67.07 57.11 65.84 57.92C64.56 58.77 63.41 59.82 62.28 60.92C61.15 62.01 60.14 63.23 58.99 64.29C58.11 65.12 57.06 65.89 55.95 66.31C55.33 66.55 54.36 66.17 53.71 65.8C53.18 65.5 53.07 64.72 53.89 64.36C57.81 62.67 59.88 59.15 62.76 56.31C64.13 54.93 65.57 53.59 67.11 52.38C68.67 51.19 70.28 50.06 71.88 48.94C74.03 47.39 76.22 45.91 78.33 44.34C79.39 43.55 80.43 42.75 81.46 41.93C82.49 41.1 83.57 40.34 84.61 39.52C87.27 37.45 90.14 35.63 92.98 33.81L97.07 31.08C98.43 30.16 99.86 29.36 101.25 28.49L105.46 25.94C106.87 25.09 108.33 24.35 109.76 23.55C110.09 23.37 110.41 23.16 110.75 23C112.29 22.28 113.5 22.41 114.04 23.36C114.81 24.71 113.62 25.51 112.78 26C111.45 26.78 110.09 27.53 108.73 28.25C107.35 28.95 106.03 29.75 104.64 30.42C103.77 30.86 102.9 31.04 102.22 31.88C101.71 32.51 100.85 32.88 100.11 33.32C98.43 34.38 96.8 35.52 95.14 36.61C93.49 37.72 91.81 38.76 90.19 39.91C88.91 40.77 87.59 41.57 86.26 42.36C84.93 43.15 83.58 43.91 82.32 44.81C81.3 45.51 80.35 46.34 79.03 47.37L79.05 47.38Z" fill="#E4E4E4"/>
<path d="M63.45 129.92C61.79 133.83 59.89 137.9 57.17 141.71C55.83 143.75 55.18 146.22 54.23 148.5C53.87 149.38 53.32 150.27 52.57 150.9C52.15 151.26 51.14 151.24 50.41 151.13C49.82 151.05 49.36 150.47 49.9 149.97C51.21 148.77 51.83 147.34 52.4 145.86C52.96 144.38 53.3 142.81 53.83 141.29C54.09 140.56 54.35 139.83 54.68 139.12C55.02 138.42 55.39 137.73 55.77 137.05C56.53 135.69 57.34 134.35 58.16 133.04C60.54 129.53 62.47 125.87 64.45 122.15C65.07 120.96 65.71 119.78 66.46 118.67C67.21 117.56 67.97 116.45 68.67 115.31C69.98 113.06 71.46 110.93 72.9 108.76C74.29 106.56 75.89 104.5 77.43 102.39C77.61 102.15 77.76 101.88 77.96 101.65C78.83 100.62 79.86 100.41 80.75 101.09C81.98 102.01 81.39 102.99 80.98 103.63C80.3 104.64 79.58 105.64 78.84 106.6C78.1 107.57 77.28 108.48 76.54 109.44C76.05 110.03 75.44 110.42 75.3 111.3C75.19 111.95 74.67 112.49 74.29 113.05C73.85 113.7 73.4 114.34 72.98 115L71.77 117.01C70.95 118.35 70.12 119.67 69.24 120.96C67.97 123.03 66.43 124.95 65.03 126.97C64.49 127.79 64.12 128.71 63.51 129.89L63.45 129.92Z" fill="#E4E4E4"/>
<path d="M66.01 95.32C66.36 96.27 66.22 97.26 65.26 97.55C64.69 97.72 63.82 97.29 63.16 96.97C62.78 96.79 62.59 96.24 62.27 95.92C60.72 94.33 59.54 94.3 57.88 96.76C57.74 97.84 57.36 99.69 57.32 101.53C57.3 102.62 57.86 103.71 58 104.81C58.3 106.84 58.23 108.68 57.7 110.35C57.17 112.02 56.16 113.49 54.76 114.88C51.87 117.64 48.31 118.91 44.01 118.48C42.55 118.32 41.25 117.89 40.64 116.42C40.45 115.94 40.44 115 40.7 114.83C41.19 114.52 42.1 114.39 42.57 114.66C43.22 115.03 43.63 115.8 44.12 116.44C44.86 117.39 45.81 117.79 46.88 117.4C48.03 117 48.85 116.21 48.56 114.87C48.13 112.81 48.34 110.74 47.83 108.54C47.04 104.71 47.55 101.56 49.06 98.98C50.66 96.46 53.33 94.57 56.78 93.17C58.46 92.56 60.43 92.56 62.23 92.68C63.87 92.78 65.38 93.58 66.02 95.32H66.01ZM53.42 99.81C53.26 99.71 52.76 99.95 52.54 100.17C51 101.76 50.84 103.86 50.92 105.93C51.01 107.62 51.17 109.25 51.35 110.92C51.46 111.83 51.45 112.74 51.66 113.62C51.74 113.97 52.24 114.4 52.6 114.48C52.95 114.56 53.42 114.31 53.74 114.08C53.99 113.9 54.08 113.54 54.25 113.26C55.31 111.49 55.58 109.6 55.26 107.52C54.96 105.32 54.56 103.02 54.26 100.81C54.21 100.44 53.77 100.04 53.4 99.82L53.42 99.81Z" fill="#E4E4E4"/>
<path d="M123.58 47.65L126.03 47.21C126.64 46.72 127.13 46.33 127.64 45.92C128.59 45.09 129.28 44.09 129.84 43.01L131.17 45.94L130.87 46.43C130.54 46.95 129.95 47.27 129.49 47.68C127.74 48.33 126.06 48.79 124.29 48.9C122.53 49.03 120.71 48.87 118.83 48.51C116.53 48.13 114.62 46.95 112.72 45.57C111.76 44.87 111.25 43.91 111.78 42.86C112.08 42.25 112.85 41.65 113.5 41.53C113.92 41.45 114.64 42.17 114.95 42.71C115.28 43.29 115.21 44.09 115.46 44.73C116.2 46.62 117.78 47.05 119.21 45.79C119.93 45.14 120.47 44.22 120.92 43.32C121.74 41.7 122.42 39.98 123.24 38.32C124 36.85 124.95 35.63 126.06 34.66L127.46 37.75C126.32 38.93 125.43 40.31 125.09 42.16C124.92 43.12 124.21 43.98 123.75 44.88C123.45 45.48 123.07 46.04 122.85 46.66C122.65 47.24 122.69 47.81 123.57 47.63L123.58 47.65Z" fill="#E4E4E4"/>
<path d="M41.64 135.51C42.2 135.92 42.7 136.75 42.78 137.4C42.92 138.6 41.85 139.12 40.7 138.57C40.39 138.41 40.15 138.14 39.84 137.96C37 136.25 35.42 136.97 35.41 140.18C35.46 141.94 36.08 143.71 36.53 145.42C37.09 147.48 37.66 149.47 38.31 151.49L35.23 150.55C34.2 148 32.56 145.7 31.64 143.06C31.55 142.78 31.14 142.43 30.87 142.4C30.53 142.38 29.86 142.66 29.87 142.83C29.89 144.85 29.5 146.87 29.71 148.87L26.47 147.88C26.46 145.31 27.52 142.9 29.38 140.56C29.94 139.88 30.51 139.27 31.15 138.74C31.8 138.21 32.48 137.75 33.19 137.33C34.6 136.5 36.09 135.85 37.63 135.27C38.94 134.77 40.39 134.61 41.63 135.51H41.64Z" fill="#E4E4E4"/>
<path d="M99.93 63.17C99.81 63.53 99.41 64.02 99.12 64.01C98.63 63.98 98.01 63.74 97.67 63.37C97.32 62.98 97.2 62.33 97.07 61.77C96.79 60.52 96.24 59.58 94.81 59.6C93.43 59.62 92.02 60.52 91.75 61.8C91.4 63.46 91.27 65.17 91.02 66.82C90.88 67.78 90.48 68.75 90.53 69.71C90.71 72.39 89 73.7 87.4 75.11C83.71 78.65 79.42 80.41 73.83 78.93C73.07 78.73 72.38 78.29 71.78 78.02C71.44 77.42 71.18 77.04 71 76.62C70.92 76.43 70.92 76.04 71.04 75.97C71.29 75.81 71.74 75.62 71.92 75.75C72.79 76.34 73.54 77.11 74.42 77.65C75.85 78.54 76.57 78.35 77.55 77.03C78.79 75.45 79.6 73.75 79.68 71.52C79.73 70.17 79.8 68.77 80.07 67.42C80.36 66.1 80.82 64.81 81.6 63.63C82.41 62.41 83.3 60.97 84.53 60.36C87.02 59.2 89.75 58.55 92.37 57.87C94.44 57.31 96.46 58.21 98.31 59.19C100.13 60.17 100.56 61.33 99.93 63.19V63.17ZM87.2 60.74C85.08 61.54 84.25 63.45 83.77 65.5C83.19 68.16 82.57 70.74 82.18 73.43C82.06 74.2 81.97 75 82.04 75.78C82.11 76.48 83.13 76.89 83.61 76.44C83.91 76.15 84.1 75.73 84.34 75.38L84.72 75.57C85.48 73.89 86.67 72.42 87.13 70.67C87.93 67.81 88.29 64.66 88.97 61.7C89.14 60.92 88.16 60.35 87.19 60.74H87.2Z" fill="#E4E4E4"/>
<path d="M41.64 135.51C42.2 135.92 42.7 136.75 42.78 137.4C42.92 138.6 41.85 139.12 40.7 138.57C40.39 138.41 40.15 138.14 39.84 137.96C37 136.25 35.42 136.97 35.41 140.18C35.46 141.94 36.08 143.71 36.53 145.42C37.09 147.48 37.66 149.47 38.31 151.49L35.23 150.55C34.2 148 32.56 145.7 31.64 143.06C31.55 142.78 31.14 142.43 30.87 142.4C30.53 142.38 29.86 142.66 29.87 142.83C29.89 144.85 29.5 146.87 29.71 148.87L26.47 147.88C26.46 145.31 27.52 142.9 29.38 140.56C29.94 139.88 30.51 139.27 31.15 138.74C31.8 138.21 32.48 137.75 33.19 137.33C34.6 136.5 36.09 135.85 37.63 135.27C38.94 134.77 40.39 134.61 41.63 135.51H41.64Z" fill="#E4E4E4"/>
<path d="M123.58 47.64C124.43 47.49 125.27 47.34 126.03 47.2C126.64 46.71 127.13 46.32 127.64 45.91C128.59 45.08 129.28 44.08 129.84 43L131.17 45.93L130.87 46.42C130.54 46.94 129.95 47.26 129.49 47.67C127.74 48.32 126.06 48.78 124.29 48.89C122.53 49.02 120.71 48.86 118.83 48.5C116.53 48.12 114.62 46.94 112.72 45.56C111.76 44.86 111.25 43.9 111.78 42.85C112.08 42.24 112.85 41.64 113.5 41.53C113.92 41.45 114.64 42.17 114.95 42.71C115.28 43.29 115.21 44.09 115.46 44.73C116.2 46.62 117.78 47.05 119.21 45.79C119.93 45.14 120.47 44.22 120.92 43.32C121.74 41.7 122.42 39.98 123.24 38.32C124 36.85 124.95 35.63 126.06 34.66L127.46 37.75C126.32 38.93 125.42 40.31 125.09 42.16C124.92 43.12 124.21 43.98 123.75 44.88C123.45 45.48 123.07 46.04 122.85 46.66C122.65 47.24 122.69 47.81 123.57 47.63L123.58 47.64Z" fill="#E4E4E4"/>
<path d="M195.81 2.65002C196 4.04002 193.58 6.07002 192.23 5.49002C190.02 4.57002 187.82 4.48002 185.64 4.65002C183.46 4.85002 181.29 5.33002 179.13 6.01002C177.49 6.49002 175.7 6.46002 173.97 6.60002L171.37 6.80002L168.78 7.11002L163.6 7.74002C161.86 7.93002 160.17 8.36002 158.45 8.66002C155.39 9.21002 152.28 9.62002 149.25 10.35L144.67 11.36L142.38 11.88L140.12 12.51C138.84 12.87 137.7 13.74 136.44 14.2C133 15.36 129.66 16.79 126.25 18.06C125.83 18.22 125.15 18.25 124.83 18.04C124.29 17.67 123.73 17.11 123.59 16.52C123.51 16.16 124.1 15.45 124.57 15.19C125.44 14.7 126.43 14.37 127.4 14.06C128.85 13.6 130.29 13.1 131.71 12.56L136.02 11.06C138.89 10.05 141.73 8.96002 144.69 8.23002C147.01 7.62002 149.35 7.07002 151.69 6.58002C154.05 6.15002 156.4 5.70002 158.72 5.11002C159.41 4.94002 160.1 4.78002 160.79 4.63002C161.48 4.49002 162.19 4.39002 162.89 4.28002L167.1 3.64002C168.5 3.42002 169.89 3.15002 171.28 2.87002C172.67 2.62002 174.06 2.30002 175.43 1.88002C176.74 1.48002 178.21 1.33002 179.59 1.34002C183.42 1.42002 187.17 1.29002 190.92 0.410016C192.62 0.0800161 194.23 0.360016 195.3 1.83002C195.51 2.12002 195.68 2.42002 195.81 2.63002V2.65002Z" fill="#E4E4E4"/>
<path d="M262.97 57.22C262.55 58.52 259.99 59.65 259.24 58.72C258.02 57.19 256.52 56.29 254.9 55.7C253.25 55.19 251.49 55.02 249.73 54.82C248.4 54.67 247.15 53.98 245.85 53.58L241.99 52.25L240.06 51.57L238.09 51.01C236.78 50.64 235.43 50.37 234.12 49.99C229.41 48.72 224.65 47.52 219.8 46.75C218.77 46.59 217.68 46.86 216.62 46.85C215.2 46.8 213.77 46.73 212.35 46.64C210.93 46.57 209.51 46.41 208.09 46.42C207.74 46.42 207.24 46.19 207.08 45.87C206.81 45.32 206.6 44.59 206.69 44C206.75 43.64 207.4 43.2 207.83 43.13C208.62 43.02 209.44 43.03 210.23 43.18C212.61 43.55 214.99 43.69 217.39 43.79C219.77 43.99 222.16 44.21 224.53 44.52C225.47 44.62 226.39 44.84 227.31 45.04L230.07 45.67C230.99 45.88 231.91 46.08 232.83 46.26C233.75 46.43 234.66 46.68 235.59 46.84C236.69 47.04 237.77 47.3 238.85 47.57C239.93 47.85 241.02 48.1 242.08 48.44C244.22 49.07 246.38 49.59 248.68 49.69C249.76 49.79 250.85 50.19 251.83 50.7C253.18 51.4 254.55 51.99 255.97 52.45C257.36 52.99 258.8 53.4 260.31 53.65C261.67 53.89 262.75 54.6 262.93 56.3C262.96 56.63 262.96 56.97 262.97 57.21V57.22Z" fill="#E4E4E4"/>
<path d="M236.22 7.75001C234.88 7.61001 233.53 7.44001 232.16 7.23001C230.8 7.01001 229.4 6.88001 228.01 6.63001C226.62 6.40001 225.21 6.13001 223.81 5.81001C222.42 5.47001 221.01 5.13001 219.57 4.78001C216.6 4.04001 213.37 4.11001 210.27 3.85001C209.07 3.76001 207.8 3.49001 206.75 2.95001C206.16 2.65001 205.8 1.67001 205.65 0.950007C205.53 0.360007 206.04 -0.249993 206.85 0.120007C208.78 1.03001 210.74 1.21001 212.73 1.33001C214.72 1.45001 216.73 1.34001 218.75 1.43001C219.72 1.47001 220.7 1.55001 221.67 1.65001C222.64 1.77001 223.61 1.95001 224.57 2.14001C226.5 2.51001 228.41 2.95001 230.31 3.40001C231.6 3.68001 232.89 4.03001 234.17 4.35001C235.45 4.66001 236.74 4.95001 238.03 5.22001C239.32 5.49001 240.62 5.72001 241.91 5.97001C243.2 6.25001 244.5 6.51001 245.8 6.76001C247.46 7.07001 249.1 7.47001 250.74 7.88001C252.37 8.32001 253.98 8.85001 255.62 9.28001L260.38 10.54C261.96 10.99 263.51 11.5 265.08 11.98L269.78 13.45C271.33 13.98 272.87 14.56 274.41 15.12C274.77 15.25 275.14 15.35 275.48 15.5C277.04 16.18 277.74 17.17 277.38 18.21C276.88 19.68 275.49 19.31 274.57 19C271.63 18.03 268.75 16.89 265.87 15.79C264.97 15.43 264.25 14.89 263.17 14.94C262.36 14.97 261.51 14.57 260.69 14.31C258.8 13.71 256.85 13.27 254.94 12.74C253.01 12.25 251.12 11.65 249.19 11.18C246.2 10.43 243.29 9.31001 240.3 8.50001C239.09 8.20001 237.85 8.05001 236.2 7.75001H236.22Z" fill="#E4E4E4"/>
<path d="M163.94 50.52C162.93 50.83 161.91 51.18 160.87 51.52C159.83 51.85 158.77 52.15 157.68 52.4C155.49 52.86 153.28 53.37 150.95 53.62C149.73 53.76 148.54 54.1 147.38 54.53C146.23 55 145.09 55.52 143.91 55.9C143 56.19 141.97 56.34 140.99 56.18C140.44 56.09 139.78 55.3 139.38 54.7C139.05 54.2 139.17 53.47 139.92 53.56C141.69 53.77 143.22 53.38 144.68 52.77C145.41 52.47 146.12 52.1 146.84 51.75C147.57 51.43 148.3 51.09 149.05 50.81C150.49 50.25 151.99 49.81 153.5 49.43C155.01 49.07 156.58 48.88 158.11 48.64C159.16 48.49 160.19 48.31 161.21 48.1C162.23 47.88 163.28 47.76 164.3 47.54C166.36 47.16 168.37 46.6 170.41 46.1C173.02 45.52 175.69 45.18 178.33 44.76C180.9 44.41 183.46 43.94 186.04 43.61C188.63 43.35 191.21 43.02 193.81 42.8C194.11 42.78 194.41 42.73 194.71 42.74C196.06 42.77 196.9 43.41 196.98 44.51C197.1 46.06 195.98 46.26 195.22 46.33L193.39 46.48C192.78 46.55 192.17 46.62 191.57 46.67C190.35 46.78 189.13 46.84 187.91 46.84C187.14 46.84 186.44 46.62 185.69 47.06C185.13 47.41 184.38 47.41 183.71 47.5C180.61 47.97 177.51 48.44 174.43 48.98C173.23 49.16 172.01 49.26 170.79 49.34C169.57 49.42 168.36 49.61 167.15 49.77C166.18 49.92 165.23 50.2 163.94 50.5V50.52Z" fill="#E4E4E4"/>
<path d="M191.62 29.6C191.14 30.5 190.31 31.07 189.45 30.55C188.95 30.25 188.69 29.31 188.5 28.6C188.38 28.2 188.67 27.69 188.71 27.23C188.88 24.98 188.14 24.19 185.17 24.46C184.71 24.74 184.09 25.12 183.38 25.56C182.68 26.03 181.92 26.58 181.22 27.19C180.39 27.91 179.94 29.08 179.21 29.92C177.88 31.47 176.43 32.53 174.84 33.26C173.25 34.01 171.49 34.29 169.5 34.08C168.5 33.98 167.54 33.76 166.63 33.49C165.73 33.24 164.87 32.89 164.05 32.43C162.42 31.52 160.96 30.18 159.7 28.38C158.85 27.17 158.31 25.9 159.02 24.49C159.25 24.04 159.96 23.42 160.26 23.51C160.82 23.69 161.52 24.27 161.62 24.8C161.77 25.53 161.47 26.37 161.31 27.15C161.08 28.32 161.41 29.31 162.41 29.86C163.47 30.44 164.59 30.5 165.4 29.37C166.66 27.65 168.37 26.53 169.68 24.73C170.85 23.15 172.11 21.91 173.44 20.98C174.78 20.11 176.2 19.59 177.67 19.33C179.14 19.08 180.67 19.13 182.25 19.43C183.83 19.76 185.46 20.44 187.13 21.3C188.69 22.13 189.99 23.58 191.1 24.99C192.11 26.27 192.5 27.92 191.61 29.58L191.62 29.6ZM179.95 23.16C179.92 22.98 179.41 22.77 179.1 22.76C176.89 22.68 175.19 23.81 173.7 25.27C172.49 26.47 171.38 27.74 170.25 28.97C169.64 29.63 168.94 30.21 168.42 30.94C168.21 31.22 168.22 31.88 168.4 32.21C168.57 32.53 169.07 32.72 169.46 32.82C169.76 32.9 170.1 32.74 170.42 32.68C172.46 32.36 174.03 31.17 175.38 29.58C176.83 27.92 178.31 26.22 179.78 24.47C180.02 24.18 180.04 23.58 179.96 23.16H179.95Z" fill="#E4E4E4"/>
<path d="M265.43 41.36C266.1 41.9 266.77 42.43 267.38 42.91C268.16 43.02 268.78 43.19 269.41 43.28C270.67 43.44 271.87 43.3 273.05 43.01L271.72 45.94L271.15 46.04C270.54 46.13 269.91 45.91 269.3 45.83C267.66 44.95 266.21 43.97 264.95 42.73C263.69 41.49 262.61 40.03 261.64 38.37C260.42 36.36 260.03 34.18 259.82 31.83C259.71 30.65 260.1 29.63 261.24 29.33C261.9 29.15 262.86 29.33 263.37 29.75C263.7 30.01 263.64 31.03 263.44 31.61C263.22 32.24 262.57 32.71 262.26 33.33C261.79 34.23 261.74 35.06 262.04 35.67C262.33 36.31 262.98 36.75 263.93 36.86C264.9 36.97 265.94 36.76 266.92 36.51C268.67 36.06 270.43 35.42 272.21 34.96C273.82 34.56 275.36 34.47 276.82 34.66L275.42 37.75C273.78 37.68 272.15 37.91 270.54 38.89C269.72 39.37 268.59 39.43 267.62 39.66C266.97 39.83 266.3 39.92 265.69 40.16C265.12 40.39 264.72 40.8 265.44 41.35L265.43 41.36Z" fill="#E4E4E4"/>
<path d="M145.36 37.88C145.42 38.57 145.13 39.48 144.68 39.96C143.87 40.84 142.76 40.36 142.42 39.14C142.33 38.8 142.38 38.44 142.32 38.1C142.02 36.48 141.48 35.48 140.71 35.14C139.94 34.83 138.95 35.22 137.76 36.31C136.47 37.51 135.54 39.1 134.54 40.54C133.34 42.27 132.3 44.18 131.18 45.94L129.85 43.01C130.47 41.8 130.93 40.47 131.41 39.14C131.65 38.48 131.89 37.81 132.16 37.16C132.44 36.53 132.74 35.91 133.09 35.32C133.24 35.07 133.24 34.54 133.08 34.32C132.87 34.04 132.22 33.72 132.09 33.83L129.73 35.74C128.94 36.38 128.17 37.03 127.48 37.75L126.08 34.66C127.04 33.82 128.14 33.17 129.37 32.7C130.59 32.22 131.99 32.05 133.49 31.99C137.03 31.91 139.97 33.04 142.9 34.67C144.14 35.34 145.23 36.34 145.37 37.86L145.36 37.88Z" fill="#E4E4E4"/>
<path d="M238.16 33.85C237.81 34 237.18 34.02 237 33.8C236.7 33.41 236.47 32.76 236.53 32.26C236.6 31.74 237 31.23 237.33 30.77C238.08 29.74 238.42 28.73 237.47 27.62C236.55 26.58 234.93 26.14 233.79 26.78C232.31 27.62 230.94 28.66 229.54 29.57C228.72 30.11 227.74 30.36 227.05 31.06C225.16 32.98 223.04 32.58 220.93 32.33C220.29 32.26 219.67 32.16 219.07 32.03C218.46 31.91 217.87 31.8 217.3 31.64C216.15 31.32 215.07 30.88 214.07 30.27C212.07 29.07 210.39 27.19 209.1 24.63C208.75 23.93 208.62 23.13 208.43 22.5C208.65 21.85 208.77 21.4 208.97 20.98C209.06 20.79 209.35 20.54 209.48 20.57C209.77 20.65 210.2 20.86 210.23 21.07C210.37 22.11 210.28 23.18 210.46 24.2C210.74 25.86 211.35 26.33 212.99 26.21C215 26.07 216.81 25.54 218.54 24.11C220.64 22.36 222.91 20.79 225.73 20.36C227.18 20.17 228.86 19.81 230.12 20.39C232.63 21.52 234.93 23.09 237.17 24.61C238.94 25.85 239.61 27.93 240.09 29.97C240.56 31.98 239.97 33.07 238.16 33.84V33.85ZM231.57 22.69C230.57 22.19 229.58 22.02 228.6 22.17C227.62 22.33 226.67 22.73 225.73 23.25C223.35 24.6 221 25.85 218.73 27.28C218.07 27.71 217.41 28.17 216.87 28.75C216.39 29.27 216.76 30.31 217.41 30.35C217.83 30.38 218.27 30.24 218.69 30.18L218.8 30.59C220.55 30.14 222.44 30.02 224.07 29.2C225.41 28.53 226.73 27.76 228.05 26.96C229.36 26.2 230.7 25.43 232.01 24.67C232.71 24.28 232.49 23.17 231.56 22.7L231.57 22.69Z" fill="#E4E4E4"/>
<path d="M145.36 37.87C145.42 38.56 145.13 39.47 144.68 39.95C143.87 40.83 142.76 40.35 142.42 39.13C142.33 38.79 142.38 38.43 142.32 38.09C142.02 36.47 141.48 35.47 140.71 35.13C139.94 34.82 138.95 35.21 137.76 36.3C136.47 37.5 135.54 39.09 134.54 40.53C133.34 42.26 132.3 44.17 131.18 45.93L129.85 43C130.47 41.79 130.93 40.46 131.41 39.13C131.65 38.47 131.89 37.8 132.16 37.15C132.44 36.52 132.74 35.9 133.09 35.31C133.24 35.06 133.24 34.53 133.08 34.31C132.87 34.03 132.22 33.71 132.09 33.82C131.3 34.46 130.51 35.09 129.73 35.73C128.94 36.37 128.17 37.02 127.48 37.74L126.08 34.65C127.04 33.81 128.14 33.16 129.37 32.69C130.59 32.21 131.99 32.04 133.49 31.98C137.03 31.9 139.97 33.03 142.9 34.66C144.14 35.33 145.23 36.33 145.37 37.85L145.36 37.87Z" fill="#E4E4E4"/>
<path d="M265.43 41.36L267.38 42.91C268.16 43.02 268.78 43.19 269.41 43.28C270.66 43.44 271.87 43.3 273.05 43.01L271.72 45.94L271.15 46.04C270.54 46.13 269.91 45.91 269.3 45.83C267.66 44.95 266.21 43.97 264.95 42.73C263.69 41.49 262.61 40.03 261.64 38.37C260.42 36.36 260.03 34.18 259.82 31.83C259.71 30.65 260.1 29.63 261.24 29.33C261.9 29.15 262.86 29.33 263.37 29.75C263.7 30.01 263.64 31.03 263.44 31.61C263.22 32.24 262.57 32.71 262.26 33.33C261.79 34.23 261.74 35.06 262.04 35.67C262.34 36.31 262.98 36.75 263.93 36.86C264.9 36.97 265.94 36.76 266.92 36.51C268.67 36.06 270.43 35.42 272.21 34.96C273.82 34.56 275.36 34.47 276.82 34.67L275.42 37.76C273.78 37.69 272.15 37.92 270.54 38.9C269.72 39.38 268.59 39.44 267.62 39.67C266.97 39.84 266.3 39.93 265.69 40.17C265.12 40.4 264.72 40.81 265.44 41.36H265.43Z" fill="#E4E4E4"/>
<path d="M346.93 65.89C346.01 66.95 342.87 66.5 342.39 65.11C342 63.98 341.49 62.96 340.87 62.04C340.23 61.14 339.49 60.34 338.69 59.59C337.08 58.1 335.25 56.83 333.39 55.59C331.94 54.69 330.77 53.33 329.51 52.14C327.04 49.7 324.44 47.4 321.81 45.12C321.15 44.55 320.48 44 319.8 43.45L317.74 41.85C312.94 37.89 307.97 34.11 302.76 30.64C301.64 29.92 300.24 29.64 299.06 28.99C295.91 27.18 292.65 25.58 289.44 23.89C289.04 23.68 288.57 23.19 288.52 22.81C288.44 22.16 288.49 21.37 288.84 20.88C289.05 20.58 289.98 20.56 290.49 20.74C291.43 21.07 292.33 21.59 293.2 22.12C294.5 22.91 295.83 23.65 297.17 24.37L301.13 26.62L305.11 28.84C306.44 29.58 307.69 30.44 308.97 31.27C310.95 32.62 312.93 33.97 314.82 35.45C316.71 36.93 318.6 38.38 320.57 39.73C325.18 43.04 329.15 47.12 334.01 50.13C335.18 50.85 336.29 51.82 337.16 52.89C338.37 54.38 339.64 55.79 341 57.1C342.37 58.4 343.82 59.62 345.32 60.81C346.69 61.87 347.58 63.24 347.18 65.01C347.1 65.35 346.99 65.68 346.92 65.92L346.93 65.89Z" fill="#E4E4E4"/>
<path d="M350.27 152.39C348.99 152.95 346.47 151.76 346.71 150.57C346.89 149.6 346.94 148.67 346.81 147.81C346.67 146.95 346.41 146.13 346.07 145.34C345.38 143.76 344.42 142.29 343.39 140.84C342.58 139.76 342.21 138.39 341.71 137.13C340.77 134.57 339.64 132.1 338.52 129.6C338.24 128.98 337.93 128.36 337.63 127.75C337.31 127.14 336.97 126.56 336.66 125.94C334.53 121.54 332.24 117.21 329.65 113.03C329.08 112.15 328.08 111.56 327.44 110.73C325.76 108.44 323.9 106.28 322.16 104.03C321.94 103.75 321.8 103.22 321.94 102.89C322.18 102.32 322.6 101.67 323.1 101.35C323.41 101.15 324.15 101.37 324.47 101.65C325.06 102.17 325.53 102.84 325.98 103.51C326.65 104.51 327.36 105.47 328.1 106.41L330.23 109.29L332.41 112.14C333.15 113.09 333.76 114.11 334.41 115.12C335.4 116.73 336.38 118.34 337.25 120.02C338.11 121.7 339 123.36 340.01 124.95C342.29 128.8 343.74 133.06 346.45 136.71C347.11 137.58 347.59 138.64 347.86 139.7C348.2 141.19 348.63 142.62 349.19 144C349.74 145.39 350.48 146.7 351.22 148.02C351.92 149.21 352.05 150.51 350.9 151.75C350.68 151.99 350.43 152.21 350.26 152.38L350.27 152.39Z" fill="#E4E4E4"/>
<path d="M369.82 99.6C368.24 97.42 366.66 95.15 365.22 92.71C364.52 91.48 363.75 90.28 363.04 89.03C362.33 87.78 361.65 86.49 361.02 85.16C360.69 84.47 360.3 83.8 359.88 83.14C359.44 82.5 358.96 81.88 358.47 81.27C357.49 80.04 356.47 78.84 355.56 77.56C354.85 76.58 354.27 75.4 353.95 74.29C353.78 73.65 354.27 72.75 354.71 72.15C355.07 71.67 355.87 71.65 356.14 72.49C356.78 74.51 357.79 76.22 359.06 77.76C360.29 79.32 361.8 80.7 363 82.32C364.19 83.87 365.27 85.5 366.3 87.17C366.81 88.01 367.33 88.84 367.78 89.71L369.12 92.33C369.72 93.52 370.34 94.69 370.97 95.84C371.61 96.99 372.27 98.13 372.88 99.3C374.14 101.62 375.47 103.89 376.88 106.14C378.55 109.07 379.92 112.18 381.47 115.18C382.87 118.14 384.31 121.09 385.69 124.07C386.96 127.09 388.28 130.1 389.5 133.15C389.63 133.51 389.8 133.85 389.91 134.21C390.4 135.84 390.1 137.03 389.08 137.45C387.64 138.04 387.03 136.75 386.66 135.85L385.81 133.69L384.92 131.55C384.34 130.11 383.8 128.66 383.32 127.2C383.01 126.28 382.97 125.38 382.21 124.6C381.63 124.03 381.35 123.13 380.99 122.35L378.43 116.97C377.56 115.19 376.6 113.45 375.75 111.66C375.07 110.28 374.49 108.84 373.87 107.42C373.22 106.02 372.58 104.61 371.89 103.22C371.34 102.11 370.66 101.05 369.82 99.6V99.6Z" fill="#E4E4E4"/>
<path d="M289.9 73.6C288.1 72.48 286.16 71.44 284.35 70.14C283.43 69.51 282.55 68.79 281.65 68.09C280.74 67.41 279.85 66.67 278.99 65.88C278.08 65.05 277.03 64.4 275.95 63.79C274.84 63.24 273.7 62.72 272.63 62.09C271.81 61.6 271.01 60.93 270.49 60.08C270.19 59.61 270.35 58.6 270.54 57.89C270.7 57.31 271.32 56.93 271.75 57.55C272.77 59.02 274.06 59.9 275.49 60.6C276.93 61.26 278.43 61.84 279.84 62.59C281.21 63.3 282.54 64.13 283.82 65.01C285.07 65.94 286.27 66.96 287.46 67.96C288.27 68.64 289.09 69.3 289.92 69.93C290.73 70.6 291.54 71.26 292.37 71.9C294.01 73.19 295.8 74.3 297.48 75.55C298.57 76.32 299.62 77.17 300.65 78.02L302.2 79.3C302.7 79.75 303.2 80.19 303.72 80.62C305.7 82.3 307.79 83.87 309.68 85.66C311.6 87.41 313.61 89.09 315.42 90.96C315.63 91.17 315.87 91.36 316.07 91.59C316.96 92.61 317.04 93.65 316.27 94.44C315.19 95.55 314.29 94.85 313.72 94.34C312.82 93.52 311.94 92.67 311.09 91.79C310.2 90.95 309.33 90.09 308.51 89.19C307.99 88.62 307.69 87.96 306.85 87.69C306.22 87.5 305.78 86.88 305.25 86.45L301.61 83.46L299.82 81.94C299.2 81.46 298.59 80.97 297.99 80.47C296.1 78.94 294.49 77.04 292.57 75.52C291.82 74.89 290.97 74.37 289.89 73.6H289.9Z" fill="#E4E4E4"/>
<path d="M323.92 80.56C322.94 80.78 321.99 80.5 321.8 79.54C321.69 78.97 322.23 78.16 322.63 77.55C322.86 77.2 323.43 77.08 323.79 76.8C325.59 75.44 325.69 74.36 323.51 72.34C322.46 72.06 320.72 71.4 318.88 71.15C317.79 71.01 316.61 71.45 315.5 71.46C313.46 71.48 311.66 71.15 310.1 70.39C308.52 69.65 307.1 68.56 305.95 66.93C303.66 63.61 302.71 60.11 303.76 55.81C304.11 54.38 304.7 53.13 306.23 52.73C306.72 52.6 307.65 52.73 307.78 53.01C308.01 53.55 308.04 54.45 307.71 54.88C307.26 55.47 306.43 55.8 305.74 56.2C304.71 56.81 304.18 57.7 304.44 58.81C304.7 59.99 305.41 60.85 306.78 60.73C308.86 60.58 310.87 61.08 313.1 60.88C317.07 60.49 320.09 61.45 322.43 63.31C324.8 65.13 326.29 68.08 327.2 71.71C327.62 73.42 327.42 75.33 327.05 77.13C326.73 78.76 325.74 80.15 323.94 80.55L323.92 80.56ZM321.06 67.52C321.18 67.38 320.99 66.86 320.79 66.62C319.39 64.91 317.38 64.42 315.32 64.24C313.66 64.09 311.94 64.13 310.27 64.09C309.36 64.07 308.47 63.94 307.58 64.03C307.23 64.06 306.74 64.5 306.61 64.85C306.48 65.19 306.67 65.69 306.85 66.04C306.99 66.31 307.34 66.46 307.59 66.66C309.19 67.97 311.13 68.35 313.18 68.36C315.4 68.34 317.66 68.32 319.95 68.25C320.32 68.24 320.79 67.85 321.05 67.52H321.06Z" fill="#E4E4E4"/>
<path d="M363.84 143.74C363.87 144.6 363.89 145.47 363.92 146.24C364.33 146.91 364.62 147.48 365 148C365.73 149.04 366.7 149.83 367.65 150.54L364.57 151.48L364.13 151.11C363.69 150.7 363.39 150.1 363.03 149.59C361.98 146.03 362.49 142.52 363.53 138.93C364.22 136.69 365.66 134.94 367.28 133.23C368.11 132.37 369.12 131.98 370.08 132.65C370.64 133.03 371.12 133.88 371.14 134.54C371.16 134.97 370.34 135.6 369.78 135.83C369.16 136.08 368.38 135.9 367.72 136.07C365.76 136.56 365.08 138.08 366.23 139.64C366.82 140.43 367.67 141.07 368.48 141.64C369.96 142.67 371.54 143.58 373.08 144.61C374.46 145.55 375.65 146.61 376.42 147.86L373.18 148.85C372.2 147.56 370.84 146.52 369.04 145.96C368.11 145.67 367.37 144.84 366.55 144.27C366 143.89 365.51 143.44 364.93 143.14C364.39 142.86 363.82 142.83 363.87 143.73L363.84 143.74Z" fill="#E4E4E4"/>
<path d="M287.14 51.29C286.66 51.79 285.78 52.17 285.13 52.15C283.93 52.12 283.56 50.97 284.25 49.91C284.45 49.62 284.74 49.42 284.96 49.14C287.01 46.56 286.54 44.83 283.29 44.53C281.53 44.35 279.73 44.7 277.98 44.91C275.9 45.12 273.77 45.62 271.71 45.95L273.04 43.02C275.68 42.37 278.26 40.86 280.95 40.38C281.24 40.33 281.64 39.98 281.7 39.71C281.77 39.37 281.58 38.67 281.41 38.65C279.44 38.32 277.41 37.87 275.42 37.76L276.82 34.67C278.09 34.84 279.3 35.23 280.46 35.84C281.61 36.46 282.68 37.38 283.7 38.48C286.11 41.07 287.17 44.05 287.89 47.32C288.21 48.7 288.18 50.17 287.13 51.28L287.14 51.29Z" fill="#E4E4E4"/>
<path d="M351.46 118.31C351.11 118.15 350.66 117.7 350.7 117.42C350.78 116.94 351.11 116.35 351.53 116.06C351.97 115.77 352.62 115.73 353.19 115.67C354.47 115.54 355.46 115.13 355.64 113.7C355.81 112.32 355.12 110.79 353.9 110.35C352.34 109.77 350.6 109.46 348.97 109.02C348.02 108.77 347.14 108.22 346.18 108.15C343.52 107.98 342.5 106.07 341.21 104.37C339.68 102.32 338.71 100.11 338.26 97.84C337.81 95.57 338.05 93.11 339.18 90.4C339.48 89.67 340 89.04 340.35 88.47C340.98 88.21 341.4 88 341.83 87.88C342.03 87.82 342.41 87.88 342.46 88.01C342.58 88.28 342.71 88.76 342.56 88.92C341.87 89.71 341 90.35 340.35 91.17C339.28 92.47 339.36 93.23 340.55 94.37C341.28 95.07 342.07 95.65 342.91 96.13C343.74 96.62 344.68 96.97 345.77 97.16C348.4 97.63 351.24 98.19 353.38 100.05C354.47 101.02 355.77 102.1 356.2 103.41C356.62 104.71 356.96 106.03 357.19 107.39C357.39 108.76 357.54 110.14 357.69 111.49C357.92 113.65 356.87 115.49 355.67 117.18C354.49 118.84 353.28 119.13 351.46 118.3V118.31ZM355.49 105.99C354.89 103.83 353.21 102.7 351.23 101.97C349.98 101.49 348.68 101.05 347.39 100.63C346.1 100.2 344.82 99.79 343.54 99.4C342.8 99.17 342.02 98.98 341.25 98.94C340.55 98.91 340.01 99.88 340.39 100.42C340.63 100.76 341.02 101.01 341.33 101.3L341.09 101.65C342.59 102.66 344.01 103.95 345.68 104.64C348.41 105.81 351.37 106.64 354.32 107.62C355.09 107.88 355.77 106.99 355.48 105.99H355.49Z" fill="#E4E4E4"/>
<path d="M287.14 51.28C286.66 51.78 285.78 52.16 285.13 52.14C283.93 52.11 283.56 50.96 284.25 49.9C284.45 49.61 284.74 49.41 284.96 49.13C287.01 46.55 286.54 44.82 283.29 44.52C281.53 44.35 279.73 44.69 277.98 44.9C275.9 45.11 273.77 45.61 271.71 45.94L273.04 43.01C275.68 42.36 278.26 40.85 280.95 40.37C281.24 40.32 281.64 39.97 281.7 39.7C281.77 39.36 281.58 38.66 281.41 38.64C279.44 38.31 277.41 37.86 275.42 37.75L276.82 34.66C278.09 34.83 279.3 35.22 280.46 35.83C281.61 36.45 282.68 37.37 283.7 38.47C286.11 41.06 287.17 44.04 287.89 47.31C288.21 48.69 288.18 50.16 287.13 51.27L287.14 51.28Z" fill="#E4E4E4"/>
<path d="M363.84 143.74C363.87 144.6 363.89 145.47 363.92 146.24C364.33 146.91 364.62 147.48 365 148C365.73 149.04 366.7 149.83 367.65 150.54L364.57 151.48L364.13 151.11C363.69 150.7 363.39 150.1 363.03 149.59C361.98 146.03 362.49 142.52 363.53 138.93C364.22 136.69 365.66 134.94 367.28 133.23C368.11 132.37 369.12 131.98 370.08 132.65C370.64 133.03 371.12 133.88 371.14 134.54C371.16 134.97 370.34 135.6 369.78 135.83C369.16 136.08 368.38 135.9 367.72 136.07C365.76 136.56 365.08 138.08 366.23 139.64C366.82 140.43 367.67 141.07 368.48 141.64C369.96 142.67 371.54 143.58 373.08 144.61C374.46 145.55 375.65 146.61 376.42 147.86L373.18 148.85C372.2 147.56 370.84 146.52 369.04 145.96C368.11 145.67 367.37 144.84 366.55 144.27C366 143.89 365.51 143.44 364.93 143.14C364.39 142.86 363.82 142.83 363.87 143.73L363.84 143.74Z" fill="#E4E4E4"/>
<path d="M400.25 219.07C398.86 219.21 396.88 216.96 397.5 215.75C399.5 211.83 398.75 207.9 398.04 203.89C397.91 203.13 397.9 202.35 397.94 201.56C397.98 200.7 398.01 199.83 398.05 198.97L398.2 193.77L398.28 191.17L398.23 188.57C398.19 186.83 398.03 185.09 398 183.35L397.95 181.02L397.8 178.69L397.5 174.02C397.36 170.9 396.89 167.81 396.52 164.7C396.34 163.38 395.69 162.13 395.37 160.82L394.1 155.52C393.68 153.75 393.33 151.97 392.82 150.23C392.7 149.8 392.74 149.12 392.99 148.83C393.42 148.34 394.04 147.86 394.64 147.8C395.01 147.76 395.66 148.44 395.87 148.93C396.26 149.86 396.52 150.86 396.66 151.87C397.14 154.88 397.82 157.84 398.54 160.8C399.12 163.78 399.73 166.76 400.21 169.77C400.56 172.14 400.67 174.55 400.87 176.93C400.97 178.12 401.08 179.31 401.18 180.5C401.27 181.69 401.34 182.88 401.46 184.07C401.6 185.48 401.68 186.89 401.75 188.3C401.82 189.71 401.89 191.13 401.88 192.54C401.91 195.37 402.03 198.18 402.59 201.01C402.84 202.28 402.79 203.52 402.61 204.75C402.11 208.11 402.03 211.44 402.61 214.79C402.87 216.3 402.56 217.71 401.06 218.62C400.77 218.8 400.46 218.94 400.25 219.06V219.07Z" fill="#E4E4E4"/>
<path d="M358.11 295.79C356.72 295.95 354.72 293.72 355.32 292.51C357.27 288.56 356.47 284.65 355.71 280.65C355.42 279.14 355.65 277.52 355.71 275.96L356.16 266.57C356.23 265 356.18 263.43 356.26 261.87C356.54 256.28 356.9 250.68 357.13 245.09C357.18 243.9 356.71 242.69 356.66 241.49C356.55 238.24 356.52 234.98 356.51 231.73C356.51 231.33 356.72 230.75 357.04 230.56C357.58 230.24 358.31 229.96 358.9 230.04C359.27 230.09 359.71 230.81 359.79 231.28C359.94 232.15 359.89 233.07 359.83 233.96C359.47 239.33 359.97 244.69 359.93 250.05C359.9 254.28 359.49 258.52 359.65 262.74C359.84 267.74 359.15 272.78 360.2 277.76C360.45 278.95 360.43 280.25 360.26 281.46C359.8 284.82 359.77 288.16 360.4 291.5C360.68 293.01 360.4 294.42 358.9 295.35C358.61 295.53 358.3 295.68 358.09 295.8L358.11 295.79Z" fill="#E4E4E4"/>
<path d="M398.15 255.7C397.77 250.86 397.84 245.67 398.85 240.47C399.38 237.75 398.99 234.86 399.14 232.06C399.2 230.98 399.44 229.82 399.95 228.87C400.24 228.33 401.2 228 401.92 227.85C402.51 227.73 403.13 228.17 402.78 228.89C401.1 232.35 401.99 235.9 402.12 239.47C402.25 242.92 401.88 246.41 401.47 249.86C400.92 254.55 400.8 259.23 401.02 263.95C401.16 266.95 400.94 269.96 401 272.97C401.11 278.8 401.29 284.63 401.45 290.45C401.45 290.79 401.5 291.12 401.49 291.46C401.43 292.96 400.77 293.88 399.67 293.94C398.12 294.03 397.95 292.74 397.9 291.87C397.73 289.08 397.68 286.27 397.85 283.49C397.9 282.61 398.18 281.85 397.79 280.93C397.5 280.25 397.61 279.4 397.6 278.62C397.54 275.03 397.39 271.43 397.48 267.84C397.55 265.05 397.94 262.26 398.13 259.47C398.21 258.35 398.14 257.22 398.14 255.7H398.15Z" fill="#E4E4E4"/>
<path d="M355.76 183.41C355.28 181.33 354.99 179.17 354.73 176.95C354.43 174.74 354.3 172.46 354.4 170.11C354.4 167.66 353.43 165.28 353.04 162.84C352.9 161.89 352.8 160.87 353.08 159.92C353.23 159.39 354.07 158.84 354.73 158.52C355.27 158.26 355.97 158.48 355.82 159.19C355.63 160.05 355.6 160.86 355.66 161.66C355.69 162.46 355.82 163.24 356.01 164C356.39 165.53 357 167.03 357.43 168.57C357.83 170.07 357.99 171.62 358.16 173.17C358.29 174.73 358.43 176.28 358.43 177.83C358.42 179.95 358.51 182.04 358.71 184.12C358.9 186.2 359 188.29 359.3 190.38C359.71 193.04 359.48 195.74 359.62 198.42L359.72 200.37L359.77 201.35L359.8 202.44L359.91 206.81L360.15 215.55C360.15 215.89 360.2 216.22 360.19 216.56C360.13 218.06 359.47 218.98 358.37 219.04C356.82 219.13 356.65 217.84 356.6 216.97C356.43 214.18 356.38 211.37 356.55 208.59C356.6 207.71 356.88 206.95 356.49 206.03C356.2 205.35 356.31 204.5 356.3 203.72L356.24 201.06L356.12 198.71C356.04 197.14 355.99 195.57 356 194C355.95 191.56 356.1 189.12 356.13 186.66C356.16 185.67 355.97 184.7 355.79 183.38L355.76 183.41Z" fill="#E4E4E4"/>
<path d="M373.47 213.96C372.61 213.41 372.1 212.51 372.68 211.66C373.02 211.16 373.98 210.97 374.69 210.83C375.1 210.74 375.58 211.07 376.04 211.14C378.27 211.47 379.12 210.78 379.07 207.81C378.56 206.86 377.79 205.13 376.77 203.57C376.16 202.65 375.06 202.05 374.32 201.21C372.93 199.7 371.96 198.12 371.46 196.45C370.94 194.77 371.01 192.99 371.38 191.04C372.19 187.14 374.47 184.09 378.29 182.05C379.58 181.37 380.91 180.99 382.24 181.88C382.67 182.17 383.21 182.94 383.06 183.23C382.8 183.76 382.12 184.38 381.58 184.41C380.84 184.46 380.05 184.06 379.31 183.8C378.19 183.42 377.16 183.62 376.47 184.55C375.74 185.53 375.51 186.63 376.51 187.58C378.02 189.05 379.04 190.88 380.66 192.42C383.43 195.15 384.8 198.05 384.99 201.03C385.12 203.94 384.05 206.88 382.06 210.02C381.12 211.49 379.57 212.68 378.08 213.7C376.73 214.63 375.05 214.96 373.47 213.96V213.96ZM380.94 202.78C381.12 202.78 381.39 202.29 381.44 202C381.8 199.84 380.77 197.99 379.54 196.33C378.53 194.98 377.45 193.72 376.41 192.43C375.82 191.74 375.31 190.98 374.64 190.37C374.38 190.13 373.72 190.05 373.38 190.19C373.04 190.32 372.8 190.79 372.67 191.16C372.56 191.45 372.69 191.8 372.72 192.13C372.77 194.2 373.65 195.91 375.07 197.46L379.68 202.46C379.94 202.73 380.53 202.82 380.96 202.79L380.94 202.78Z" fill="#E4E4E4"/>
<path d="M373.73 291.69C373.48 292.54 373.23 293.39 373 294.16C373.17 294.95 373.27 295.61 373.45 296.24C373.82 297.5 374.44 298.57 375.19 299.55H371.97L371.64 299.05C371.31 298.51 371.25 297.81 371.07 297.19C371.24 293.3 372.74 290 375.1 286.95C376.56 285.06 378.54 283.97 380.68 283.02C381.76 282.54 382.85 282.58 383.5 283.53C383.88 284.08 384.02 285.02 383.79 285.63C383.65 286.02 382.66 286.31 382.05 286.32C381.38 286.33 380.72 285.89 380.04 285.8C378.03 285.54 376.84 286.72 377.34 288.61C377.59 289.56 378.17 290.47 378.76 291.28C379.83 292.75 381.04 294.11 382.16 295.55C383.19 296.85 383.9 298.19 384.33 299.56H380.94C380.33 298.05 379.44 296.67 377.89 295.56C377.1 294.99 376.66 293.96 376.08 293.13C375.68 292.58 375.36 291.98 374.9 291.49C374.47 291.04 373.95 290.81 373.7 291.7L373.73 291.69Z" fill="#E4E4E4"/>
<path d="M370.76 166.59C370.07 166.56 369.19 166.16 368.75 165.66C367.95 164.75 368.54 163.71 369.8 163.54C370.15 163.5 370.5 163.59 370.85 163.57C374.16 163.4 375.07 161.92 373.25 159.27C372.75 158.55 372.16 157.9 371.5 157.29C370.82 156.71 370.12 156.11 369.44 155.53C367.83 154.13 366.16 152.83 364.57 151.49L367.65 150.55C369.86 152.11 372.59 153.08 374.83 154.76C375.07 154.94 375.6 155.01 375.83 154.87C376.13 154.7 376.52 154.1 376.42 153.96C375.28 152.29 374.39 150.43 373.17 148.86L376.41 147.87C377.79 150.01 378.35 152.58 378.11 155.56C377.7 159.09 376.08 161.88 374.21 164.56C373.42 165.7 372.29 166.65 370.76 166.59V166.59Z" fill="#E4E4E4"/>
<path d="M372.89 262.43C372.66 262.11 372.5 261.47 372.68 261.24C372.99 260.85 373.57 260.48 374.08 260.44C374.6 260.4 375.19 260.7 375.71 260.93C376.89 261.46 377.94 261.58 378.81 260.42C379.65 259.3 379.81 257.65 378.97 256.65C377.88 255.34 376.62 254.16 375.48 252.9C374.81 252.16 374.37 251.21 373.6 250.61C371.46 248.97 371.59 246.7 371.57 244.48C371.51 239.14 373.19 234.59 378.32 231.79C379.01 231.41 379.81 231.25 380.43 231.03C381.09 231.23 381.54 231.32 381.96 231.5C382.15 231.58 382.41 231.86 382.38 231.99C382.31 232.27 382.11 232.71 381.9 232.75C380.87 232.93 379.79 232.9 378.77 233.13C377.13 233.49 376.71 234.14 376.95 235.79C377.24 237.81 377.91 239.6 379.47 241.18C381.36 243.11 383.28 245.14 384.04 247.8C384.43 249.17 384.94 250.73 384.6 252.03C383.93 254.61 382.79 257.08 381.69 259.54C380.82 261.49 378.98 262.58 377.1 263.51C375.25 264.42 374.05 264.1 372.9 262.44L372.89 262.43ZM382.61 253.78C383.27 251.68 382.46 249.87 381.19 248.18C379.57 246.01 377.97 243.86 376.34 241.68C375.87 241.05 375.35 240.43 374.74 239.93C374.19 239.48 373.18 239.96 373.18 240.63C373.18 241.06 373.35 241.5 373.44 241.94L373.04 242.1C373.69 243.85 374.06 245.78 375.07 247.32C376.74 249.87 378.78 252.19 380.74 254.55C381.25 255.17 382.3 254.76 382.6 253.79L382.61 253.78Z" fill="#E4E4E4"/>
<path d="M370.76 166.59C370.07 166.56 369.19 166.16 368.75 165.66C367.95 164.75 368.54 163.71 369.8 163.54C370.15 163.5 370.5 163.59 370.85 163.57C374.16 163.4 375.07 161.92 373.25 159.27C372.75 158.55 372.16 157.9 371.5 157.29C370.82 156.71 370.12 156.11 369.44 155.53C367.83 154.13 366.16 152.83 364.57 151.49L367.65 150.55C369.86 152.11 372.59 153.08 374.83 154.76C375.07 154.94 375.6 155.01 375.83 154.87C376.13 154.7 376.52 154.1 376.42 153.96C375.28 152.29 374.39 150.43 373.17 148.86L376.41 147.87C377.79 150.01 378.35 152.58 378.11 155.56C377.7 159.09 376.08 161.88 374.21 164.56C373.42 165.7 372.29 166.65 370.76 166.59V166.59Z" fill="#E4E4E4"/>
<path d="M373.73 291.69C373.48 292.54 373.23 293.39 373 294.16C373.17 294.95 373.27 295.61 373.45 296.24C373.82 297.5 374.44 298.57 375.19 299.55H371.97L371.64 299.05C371.31 298.51 371.25 297.81 371.07 297.19C371.24 293.3 372.74 290 375.1 286.95C376.56 285.06 378.54 283.97 380.68 283.02C381.76 282.54 382.85 282.58 383.5 283.53C383.88 284.08 384.02 285.02 383.79 285.63C383.65 286.02 382.66 286.31 382.05 286.32C381.38 286.33 380.72 285.89 380.04 285.8C378.03 285.54 376.84 286.72 377.34 288.61C377.59 289.56 378.17 290.47 378.76 291.28C379.83 292.75 381.04 294.11 382.16 295.55C383.19 296.85 383.9 298.19 384.33 299.56H380.94C380.33 298.05 379.44 296.67 377.89 295.56C377.1 294.99 376.66 293.96 376.08 293.13C375.68 292.58 375.36 291.98 374.9 291.49C374.47 291.04 373.95 290.81 373.7 291.7L373.73 291.69Z" fill="#E4E4E4"/>
<path d="M400.25 369.95C398.86 370.09 396.88 367.84 397.5 366.63C399.5 362.71 398.75 358.78 398.04 354.77C397.77 353.25 398.02 351.64 398.11 350.08C398.28 346.95 398.51 343.82 398.69 340.69C398.78 339.12 398.76 337.55 398.86 335.99C399.22 330.4 399.65 324.81 399.96 319.22C400.03 318.03 399.57 316.82 399.54 315.62C399.47 312.37 399.49 309.11 399.52 305.86C399.52 305.46 399.75 304.88 400.07 304.69C400.61 304.37 401.35 304.11 401.94 304.2C402.3 304.25 402.74 304.98 402.82 305.45C402.95 306.33 402.9 307.24 402.82 308.13C402.39 313.49 402.82 318.86 402.7 324.22C402.61 328.45 402.14 332.68 402.25 336.9C402.38 341.91 401.62 346.93 402.6 351.93C402.83 353.13 402.79 354.42 402.61 355.63C402.11 358.99 402.03 362.32 402.61 365.67C402.87 367.18 402.56 368.59 401.06 369.5C400.77 369.68 400.46 369.82 400.25 369.94V369.95Z" fill="#E4E4E4"/>
<path d="M357.743 466.987C356.428 467.194 354.536 464.312 355.103 462.748C356.948 457.644 356.191 452.591 355.472 447.422C355.198 445.47 355.416 443.377 355.472 441.361C355.595 437.316 355.775 433.271 355.898 429.226C355.964 427.197 355.917 425.168 355.993 423.152C356.258 415.928 356.598 408.691 356.816 401.467C356.863 399.929 356.418 398.366 356.371 396.815C356.267 392.615 356.239 388.402 356.229 384.202C356.229 383.685 356.428 382.935 356.73 382.69C357.241 382.276 357.932 381.914 358.49 382.018C358.84 382.082 359.256 383.013 359.332 383.62C359.474 384.745 359.426 385.934 359.37 387.084C359.029 394.023 359.502 400.95 359.464 407.877C359.436 413.343 359.048 418.823 359.199 424.276C359.379 430.738 358.726 437.251 359.72 443.687C359.956 445.225 359.937 446.905 359.776 448.468C359.341 452.81 359.313 457.127 359.909 461.443C360.174 463.394 359.909 465.217 358.49 466.418C358.216 466.651 357.922 466.845 357.724 467L357.743 466.987Z" fill="#E4E4E4"/>
<path d="M397.771 415.252C397.351 408.957 397.429 402.205 398.545 395.441C399.131 391.903 398.7 388.144 398.865 384.502C398.932 383.097 399.197 381.588 399.76 380.352C400.081 379.65 401.142 379.221 401.937 379.026C402.589 378.869 403.274 379.442 402.888 380.378C401.031 384.879 402.015 389.497 402.158 394.141C402.302 398.628 401.893 403.168 401.44 407.656C400.832 413.756 400.7 419.844 400.943 425.984C401.098 429.886 400.854 433.801 400.921 437.717C401.042 445.3 401.241 452.884 401.418 460.454C401.418 460.897 401.473 461.326 401.462 461.768C401.396 463.719 400.667 464.916 399.451 464.994C397.738 465.111 397.55 463.433 397.495 462.302C397.307 458.672 397.252 455.017 397.44 451.401C397.495 450.256 397.805 449.268 397.374 448.071C397.053 447.186 397.175 446.081 397.164 445.066C397.097 440.396 396.932 435.714 397.031 431.044C397.108 427.415 397.539 423.785 397.749 420.156C397.838 418.699 397.76 417.229 397.76 415.252H397.771Z" fill="#E4E4E4"/>
<path d="M356.83 331.72C356.45 326.88 356.52 321.69 357.53 316.49C358.06 313.77 357.67 310.88 357.82 308.08C357.88 307 358.12 305.84 358.63 304.89C358.92 304.35 359.88 304.02 360.6 303.87C361.19 303.75 361.81 304.19 361.46 304.91C359.78 308.37 360.67 311.92 360.8 315.49C360.93 318.94 360.56 322.43 360.15 325.88C359.6 330.57 359.48 335.25 359.7 339.97C359.84 342.97 359.62 345.98 359.68 348.99C359.79 354.82 359.97 360.65 360.13 366.47C360.13 366.81 360.18 367.14 360.17 367.48C360.11 368.98 359.45 369.9 358.35 369.96C356.8 370.05 356.63 368.76 356.58 367.89C356.41 365.1 356.36 362.29 356.53 359.51C356.58 358.63 356.86 357.87 356.47 356.95C356.18 356.27 356.29 355.42 356.28 354.64C356.22 351.05 356.07 347.45 356.16 343.86C356.23 341.07 356.62 338.28 356.81 335.49C356.89 334.37 356.82 333.24 356.82 331.72H356.83Z" fill="#E4E4E4"/>
<path d="M373.47 364.85C372.61 364.3 372.1 363.4 372.68 362.55C373.02 362.05 373.98 361.86 374.69 361.72C375.1 361.63 375.58 361.96 376.04 362.03C378.27 362.36 379.12 361.67 379.07 358.7C378.56 357.75 377.79 356.02 376.77 354.46C376.16 353.54 375.06 352.95 374.32 352.09C371.62 348.98 370.6 345.48 371.72 341.48C372.85 337.46 375.27 334.54 379.35 332.93C380.72 332.39 382.08 332.18 383.29 333.17C383.68 333.49 384.12 334.3 383.96 334.56C383.66 335.05 382.93 335.59 382.39 335.57C381.65 335.56 380.89 335.08 380.17 334.76C379.08 334.28 378.04 334.37 377.29 335.23C376.49 336.14 376.18 337.25 377.1 338.29C378.5 339.89 379.35 341.78 380.88 343.38C386.29 349.05 386.05 354.63 382.06 360.89C381.12 362.36 379.57 363.55 378.08 364.57C376.73 365.5 375.05 365.83 373.47 364.83V364.85ZM380.94 353.67C381.12 353.67 381.39 353.18 381.44 352.89C381.82 350.74 380.87 348.93 379.66 347.24C378.69 345.87 377.63 344.56 376.63 343.2C376.08 342.47 375.64 341.67 375.01 341C374.77 340.74 374.12 340.61 373.76 340.73C373.41 340.84 373.14 341.31 372.97 341.68C372.84 341.97 372.94 342.34 372.94 342.68C372.9 344.82 373.77 346.64 375.14 348.24C376.61 349.96 378.11 351.67 379.65 353.33C379.91 353.6 380.5 353.69 380.93 353.66L380.94 353.67Z" fill="#E4E4E4"/>
<path d="M373.73 442.58C373.49 443.44 373.23 444.28 373 445.05C373.17 445.84 373.27 446.5 373.45 447.13C373.82 448.39 374.44 449.46 375.19 450.44H371.97C371.86 450.28 371.75 450.11 371.64 449.94C371.31 449.4 371.25 448.7 371.07 448.08C371.24 444.19 372.74 440.89 375.1 437.84C376.56 435.95 378.54 434.86 380.68 433.91C381.76 433.43 382.85 433.47 383.5 434.42C383.88 434.97 384.02 435.91 383.79 436.52C383.65 436.91 382.66 437.2 382.05 437.21C381.38 437.22 380.72 436.78 380.04 436.69C378.03 436.43 376.84 437.61 377.34 439.5C377.59 440.45 378.17 441.36 378.76 442.17C379.83 443.64 381.04 445 382.16 446.44C383.19 447.74 383.9 449.08 384.33 450.45H380.94C380.33 448.94 379.44 447.56 377.89 446.45C377.1 445.88 376.66 444.85 376.08 444.02C375.68 443.47 375.36 442.87 374.9 442.38C374.47 441.93 373.95 441.7 373.7 442.59L373.73 442.58Z" fill="#E4E4E4"/>
<path d="M374.25 316.28C373.58 316.11 372.81 315.52 372.5 314.91C371.93 313.81 372.73 312.89 374 313C374.35 313.03 374.67 313.2 375.02 313.26C378.29 313.81 379.5 312.57 378.32 309.56C377.68 307.92 376.54 306.45 375.56 304.94C374.39 303.13 373.14 301.36 371.97 299.54H375.19C376.89 301.72 379.25 303.42 380.94 305.6C381.12 305.84 381.61 306.03 381.88 305.97C382.21 305.88 382.75 305.41 382.69 305.25C382.05 303.38 381.71 301.38 380.95 299.54H384.34C385.08 301.92 384.91 304.43 383.88 307.18C382.67 310.41 380.48 312.72 378.05 314.96C377.02 315.91 375.73 316.64 374.24 316.27L374.25 316.28Z" fill="#E4E4E4"/>
<path d="M372.89 413.31C372.66 412.99 372.5 412.35 372.68 412.12C372.99 411.73 373.57 411.36 374.08 411.32C374.6 411.28 375.19 411.58 375.71 411.81C376.89 412.34 377.94 412.46 378.81 411.3C379.65 410.18 379.81 408.53 378.97 407.53C377.88 406.22 376.62 405.04 375.48 403.78C374.81 403.04 374.37 402.09 373.6 401.49C371.46 399.85 371.59 397.58 371.57 395.36C371.51 390.02 373.19 385.47 378.32 382.67C379.01 382.29 379.81 382.13 380.43 381.91C381.09 382.11 381.54 382.2 381.96 382.38C382.15 382.46 382.41 382.74 382.38 382.87C382.31 383.15 382.11 383.59 381.9 383.63C380.87 383.81 379.79 383.78 378.77 384.01C377.13 384.37 376.71 385.02 376.95 386.67C377.24 388.69 377.91 390.48 379.47 392.06C381.36 393.99 383.28 396.02 384.04 398.68C384.43 400.05 384.94 401.61 384.6 402.91C383.93 405.49 382.79 407.96 381.69 410.42C380.82 412.37 378.98 413.46 377.1 414.39C375.25 415.3 374.05 414.98 372.9 413.32L372.89 413.31ZM382.61 404.66C383.27 402.56 382.46 400.75 381.19 399.06C379.57 396.9 377.98 394.72 376.34 392.56C375.87 391.93 375.35 391.31 374.74 390.81C374.19 390.36 373.18 390.84 373.18 391.51C373.18 391.94 373.35 392.38 373.44 392.82C373.31 392.87 373.17 392.92 373.04 392.98C373.69 394.73 374.06 396.66 375.07 398.2C376.74 400.75 378.78 403.07 380.74 405.43C381.25 406.05 382.3 405.64 382.6 404.67L382.61 404.66Z" fill="#E4E4E4"/>
<path d="M374.25 316.28C373.58 316.11 372.81 315.52 372.5 314.91C371.93 313.81 372.73 312.89 374 313C374.35 313.03 374.67 313.2 375.02 313.26C378.29 313.81 379.5 312.57 378.32 309.56C377.68 307.92 376.54 306.45 375.56 304.94C374.39 303.13 373.14 301.36 371.97 299.54H375.19C376.89 301.72 379.25 303.42 380.94 305.6C381.12 305.84 381.61 306.03 381.88 305.97C382.21 305.88 382.75 305.41 382.69 305.25C382.05 303.38 381.7 301.38 380.95 299.54H384.34C385.08 301.92 384.91 304.44 383.88 307.18C382.67 310.41 380.48 312.72 378.05 314.96C377.02 315.91 375.73 316.64 374.24 316.27L374.25 316.28Z" fill="#E4E4E4"/>
<path d="M373.73 442.58C373.49 443.44 373.23 444.28 373 445.05C373.17 445.84 373.27 446.5 373.45 447.13C373.82 448.39 374.44 449.46 375.19 450.44H371.97C371.86 450.28 371.75 450.11 371.64 449.94C371.31 449.4 371.25 448.7 371.07 448.08C371.24 444.19 372.74 440.89 375.1 437.84C376.56 435.95 378.54 434.86 380.68 433.91C381.76 433.43 382.85 433.47 383.5 434.42C383.88 434.97 384.02 435.91 383.79 436.52C383.65 436.91 382.66 437.2 382.05 437.21C381.38 437.22 380.72 436.78 380.04 436.69C378.03 436.43 376.84 437.61 377.34 439.5C377.59 440.45 378.17 441.36 378.76 442.17C379.83 443.64 381.04 445 382.16 446.44C383.19 447.74 383.9 449.08 384.33 450.45H380.94C380.33 448.94 379.44 447.56 377.89 446.45C377.1 445.88 376.66 444.85 376.08 444.02C375.68 443.47 375.36 442.87 374.9 442.38C374.47 441.93 373.95 441.7 373.7 442.59L373.73 442.58Z" fill="#E4E4E4"/>
<path d="M374.25 467.17C373.58 467 372.81 466.41 372.5 465.8C371.93 464.7 372.73 463.78 374 463.89C374.35 463.92 374.67 464.09 375.02 464.15C378.29 464.7 379.5 463.46 378.32 460.45C377.68 458.81 376.54 457.34 375.56 455.83C374.39 454.02 373.14 452.25 371.97 450.43H375.19C376.89 452.61 379.25 454.31 380.94 456.49C381.12 456.73 381.61 456.92 381.88 456.86C382.21 456.77 382.75 456.3 382.7 456.14C382.06 454.27 381.71 452.27 380.96 450.43H384.35C385.09 452.81 384.92 455.33 383.89 458.07C382.68 461.3 380.49 463.61 378.06 465.85C377.03 466.8 375.74 467.53 374.25 467.16V467.17Z" fill="#E4E4E4"/>
</g>
<defs>
<clipPath id="clip0_34_682">
<rect width="402.88" height="468.09" fill="white"/>
</clipPath>
</defs>
</svg>
