<svg width="14" height="18" viewBox="0 0 14 18" fill="none" xmlns="http://www.w3.org/2000/svg">
<path d="M13.3486 14H12.8799V7.35938C12.8799 4.60352 10.8428 2.32422 8.19238 1.94531V1.1875C8.19238 0.755859 7.84277 0.40625 7.41113 0.40625C6.97949 0.40625 6.62988 0.755859 6.62988 1.1875V1.94531C3.97949 2.32422 1.94238 4.60352 1.94238 7.35938V14H1.47363C1.12793 14 0.848633 14.2793 0.848633 14.625V15.25C0.848633 15.3359 0.918945 15.4062 1.00488 15.4062H5.22363C5.22363 16.6133 6.2041 17.5938 7.41113 17.5938C8.61816 17.5938 9.59863 16.6133 9.59863 15.4062H13.8174C13.9033 15.4062 13.9736 15.3359 13.9736 15.25V14.625C13.9736 14.2793 13.6943 14 13.3486 14ZM7.41113 16.3438C6.89355 16.3438 6.47363 15.9238 6.47363 15.4062H8.34863C8.34863 15.9238 7.92871 16.3438 7.41113 16.3438Z" fill="#98322D"/>
</svg>
