<svg width="101" height="31" viewBox="0 0 101 31" fill="none" xmlns="http://www.w3.org/2000/svg">
<g clip-path="url(#clip0_49_1311)">
<path d="M47.1263 1.71223C47.2249 2.61514 45.7138 3.89928 44.9057 3.49799C42.2777 2.19378 39.6497 2.68202 36.9692 3.14351C35.9508 3.31741 34.8734 3.15689 33.8287 3.09669C31.7329 2.98968 29.6437 2.83585 27.5478 2.72215C26.4967 2.66196 25.4455 2.68202 24.4008 2.61514C20.656 2.38105 16.9177 2.10015 13.1728 1.90619C12.3778 1.86606 11.5631 2.16034 10.7616 2.18041C8.58694 2.22722 6.40572 2.21385 4.22449 2.19378C3.95512 2.19378 3.56749 2.04664 3.44266 1.8393C3.23243 1.48483 3.05504 1.00996 3.11417 0.628733C3.15359 0.394644 3.63976 0.10705 3.95512 0.0602324C4.53985 -0.0267148 5.15085 0.00672645 5.74872 0.0602324C9.33592 0.341139 12.9297 0.0602324 16.5169 0.133803C19.3485 0.193997 22.1802 0.494968 25.0053 0.428086C28.356 0.347827 31.7198 0.842757 35.0639 0.200686C35.8654 0.0468559 36.7327 0.0736089 37.5408 0.193997C39.7877 0.521721 42.0215 0.568539 44.2618 0.193997C45.2736 0.0201029 46.2197 0.22075 46.8307 1.20392C46.9489 1.39119 47.0475 1.59853 47.1198 1.73229L47.1263 1.71223Z" fill="#FFCAC6"/>
<path d="M98.4837 29.1139C98.5888 30.0169 97.104 31.3211 96.2828 30.9265C93.6416 29.6557 91.0202 30.1841 88.3397 30.6723C87.3279 30.8596 86.2439 30.7124 85.1992 30.6723C83.1034 30.5921 81.0076 30.465 78.9118 30.378C77.8606 30.3312 76.8094 30.3647 75.7648 30.3111C72.0199 30.1239 68.275 29.8965 64.5301 29.7426C63.7352 29.7092 62.9271 30.0169 62.119 30.0436C59.9443 30.1172 57.7631 30.1373 55.5819 30.1373C55.3125 30.1373 54.9249 29.9968 54.8 29.7895C54.5832 29.4417 54.3993 28.9668 54.4518 28.5789C54.4847 28.3381 54.9709 28.0505 55.2796 27.997C55.8644 27.9034 56.4754 27.9301 57.0732 27.9703C60.667 28.2043 64.2542 27.8833 67.8414 27.9101C70.6731 27.9301 73.5113 28.1977 76.3364 28.0906C79.687 27.9636 83.0574 28.4184 86.395 27.7362C87.1965 27.5757 88.0572 27.589 88.8719 27.696C91.1253 27.9903 93.3526 28.0104 95.5929 27.6024C96.6047 27.4151 97.5508 27.6024 98.1683 28.5789C98.2866 28.7662 98.3917 28.9668 98.464 29.1073L98.4837 29.1139Z" fill="#FFCAC6"/>
<path d="M71.652 3.08335C68.413 3.33082 64.9375 3.284 61.4554 2.62855C59.629 2.28076 57.704 2.53492 55.825 2.43459C55.1023 2.39446 54.327 2.24063 53.6897 1.91291C53.3284 1.72564 53.105 1.09695 53.0065 0.628769C52.9276 0.247539 53.2233 -0.160444 53.7029 0.0669562C56.0221 1.15714 58.3938 0.581951 60.7853 0.495004C63.0979 0.408057 65.4302 0.655522 67.7363 0.916363C70.8767 1.27084 74.0106 1.3511 77.1642 1.21065C79.1746 1.11701 81.1916 1.26415 83.202 1.22402C87.1045 1.15714 91.0071 1.03006 94.9031 0.929739C95.1265 0.929739 95.3564 0.896298 95.5798 0.902986C96.585 0.943116 97.196 1.37116 97.242 2.08681C97.3011 3.09673 96.4405 3.20374 95.8557 3.23718C93.9899 3.35088 92.1109 3.37764 90.245 3.26394C89.6603 3.23049 89.1478 3.04991 88.5368 3.30407C88.0835 3.49134 87.5119 3.41777 86.9929 3.43114C84.5883 3.47127 82.1771 3.56491 79.7725 3.5114C77.9 3.47127 76.0407 3.21712 74.1683 3.09004C73.4193 3.03654 72.6638 3.08335 71.6454 3.08335H71.652Z" fill="#FFCAC6"/>
<path d="M21.5363 29.9432C18.2973 30.1907 14.8218 30.1439 11.3397 29.4884C9.5133 29.1406 7.5883 29.3948 5.70929 29.2945C4.98659 29.2543 4.21134 29.1005 3.57405 28.7728C3.21271 28.5855 2.98933 27.9568 2.89078 27.4886C2.81194 27.1074 3.10759 26.6994 3.58719 26.9268C5.90639 28.017 8.27814 27.4418 10.6696 27.3549C12.9822 27.2679 15.3146 27.5154 17.6206 27.7762C20.7611 28.1307 23.8949 28.211 27.0485 28.0705C29.0589 27.9769 31.0759 28.124 33.0863 28.0839C36.9889 28.017 40.8914 27.8899 44.7874 27.7896C45.0108 27.7896 45.2407 27.7562 45.4641 27.7628C46.4693 27.803 47.0803 28.231 47.1263 28.9467C47.1855 29.9566 46.3248 30.0636 45.7401 30.097C43.8742 30.2107 41.9952 30.2375 40.1293 30.1238C39.5446 30.0904 39.0321 29.9098 38.4211 30.1639C37.9678 30.3512 37.3962 30.2776 36.8772 30.291C34.4726 30.3311 32.0614 30.4248 29.6568 30.3713C27.7844 30.3311 25.9251 30.077 24.0526 29.9499C23.3036 29.8964 22.5481 29.9432 21.5298 29.9432H21.5363Z" fill="#FFCAC6"/>
<path d="M43.5391 16.1255C42.8493 15.1557 42.0543 14.1457 41.0754 13.5371C36.8838 10.9354 33.1455 10.7882 29.3546 14.2996C28.2837 15.2961 27.0157 15.8446 25.9448 16.7608C25.2549 17.3628 24.5125 17.1554 23.9015 16.6338C23.3234 16.1388 23.2642 15.47 23.5862 14.7611C23.803 14.2929 24.1183 13.8046 24.1315 13.3164C24.138 12.9686 23.7767 12.4937 23.4548 12.2998C23.2774 12.1995 22.7386 12.4871 22.5218 12.7345C21.8583 13.5237 21.9962 14.4066 22.3576 15.2961C23.4351 17.9513 25.3929 19.5231 28.08 20.2588C30.754 20.9878 33.0995 20.3257 35.1821 18.5667C35.7537 18.0851 36.1479 17.3695 36.7655 16.9749C37.8101 16.306 38.9664 15.8111 39.6037 15.4767C41.5879 15.4499 42.0543 15.9984 41.8309 17.4497C41.785 17.744 41.5616 18.0584 41.6207 18.3259C41.7127 18.7941 41.8441 19.4161 42.1791 19.6368C42.7442 20.0113 43.3486 19.6903 43.7165 19.1285C44.3932 18.0985 44.1698 17.0083 43.5457 16.1321L43.5391 16.1255ZM36.0034 15.0955C34.8931 16.0987 33.7499 17.0752 32.5936 18.0316C31.5161 18.9211 30.3007 19.483 28.8684 19.4629C28.645 19.4629 28.3954 19.5298 28.1983 19.4428C27.9486 19.3358 27.6333 19.1552 27.561 18.9345C27.4821 18.7071 27.561 18.2791 27.7449 18.1252C28.1917 17.7173 28.7239 17.4297 29.2166 17.0752C30.1233 16.4197 30.9971 15.7375 31.9169 15.1022C33.0535 14.3196 34.2623 13.7043 35.7012 13.9451C35.8983 13.9785 36.2202 14.1524 36.2268 14.2728C36.2465 14.547 36.1873 14.935 36.0034 15.1022V15.0955Z" fill="#FFCAC6"/>
<path d="M95.5995 18.1786C95.928 17.8843 96.3288 17.6703 96.6967 17.4161C97.2486 17.0349 97.9384 16.754 98.3195 16.239C99.0619 15.2291 99.9882 14.6539 101 14.2593V12.0588C100.08 12.3331 99.1867 12.8012 98.3195 13.4701C97.3602 14.1991 96.447 14.9883 95.4615 15.6839C94.9162 16.0718 94.3118 16.4463 93.6745 16.6068C92.4131 16.9279 91.6181 16.152 91.7955 14.8545C91.8546 14.4131 92.1503 13.9851 92.1437 13.5503C92.1371 13.149 91.9466 12.5069 91.6838 12.42C91.2765 12.2729 90.6458 12.3598 90.2778 12.6073C89.6406 13.0286 89.6143 13.7376 89.9362 14.4399C90.5735 15.831 91.3093 17.1218 92.5707 18.0716C94.6074 19.6032 96.8215 20.5797 99.4232 20.6934C99.8371 20.573 100.304 20.5395 100.665 20.3188C100.777 20.2519 100.888 20.1784 101 20.1048V18.0114C100.35 18.4996 99.6269 18.9076 98.7859 19.1417C98.3589 19.2621 97.9187 19.329 97.3931 19.436C96.8806 19.2888 96.3156 19.1149 95.744 18.9611C95.1462 18.8006 95.2973 18.4595 95.6061 18.1853L95.5995 18.1786Z" fill="#FFCAC6"/>
<path d="M10.3214 16.1387C8.81689 14.5603 7.27295 13.1357 5.11143 12.3465C3.27184 11.671 1.58993 11.5706 0 12.0455V14.2459C1.22858 13.7577 2.56885 13.537 3.81715 13.1156C3.92227 13.0755 4.23762 13.43 4.29675 13.644C4.34274 13.8112 4.21134 14.1389 4.05367 14.2526C2.59513 15.3562 1.45853 16.8878 0 17.9913V20.0848C1.21544 19.3223 2.39804 18.513 3.61348 17.7506C4.62525 17.1152 5.61075 16.3795 6.70793 15.9581C8.72491 15.1957 9.55272 15.9782 9.1848 18.105C9.14538 18.3324 9.0337 18.5398 9.00742 18.7672C8.93515 19.5898 9.55272 20.1182 10.2886 19.7437C10.6893 19.543 11.0901 19.0414 11.2018 18.6067C11.4449 17.6369 10.9587 16.8008 10.3214 16.1253V16.1387Z" fill="#FFCAC6"/>
<path d="M76.8751 16.7673C76.2575 15.5434 75.5283 14.3462 74.2208 13.7844C72.5718 13.0687 70.9162 12.3263 69.1948 11.8916C68.3276 11.6709 67.283 12.0053 66.3632 12.2528C64.5827 12.7477 63.2227 13.9917 61.935 15.2223C60.8773 16.2389 59.6815 16.667 58.3281 16.8609C57.2309 17.0148 56.7907 16.7472 56.5476 15.6771C56.3965 15.015 56.4163 14.3194 56.2914 13.6439C56.2717 13.5035 55.9761 13.3764 55.7855 13.3296C55.7001 13.3095 55.5162 13.4767 55.457 13.6038C55.3322 13.878 55.2731 14.1723 55.1417 14.6003C55.2862 15.0083 55.3979 15.5233 55.6476 15.9714C57.5266 19.3088 60.5685 20.399 64.1425 20.3656C65.6273 20.3522 67.145 20.4325 68.2422 19.0413C68.6429 18.5464 69.2802 18.2521 69.773 17.8174C70.6205 17.075 71.4089 16.2523 72.2827 15.5434C72.9594 15.0016 74.0632 15.1086 74.8056 15.6504C75.5808 16.2189 75.502 16.9011 75.1472 17.6702C74.9895 18.0046 74.7924 18.3859 74.8187 18.727C74.8516 19.0547 75.0946 19.4292 75.3574 19.6366C75.5086 19.7503 75.9422 19.6433 76.1524 19.4961C77.2627 18.747 77.4795 17.9645 76.8751 16.7606V16.7673ZM70.8767 14.393C69.2999 15.6638 67.7429 16.9947 66.0412 18.0782C65.0098 18.7403 63.722 18.9744 62.546 19.4025C62.5066 19.3222 62.4803 19.2353 62.4409 19.1416C62.1518 19.2018 61.8562 19.3088 61.5671 19.3088C61.1138 19.3088 60.7984 18.6534 61.0941 18.2922C61.4291 17.8976 61.843 17.5565 62.2635 17.2489C63.7089 16.1854 65.1674 15.1554 66.6128 14.0987C67.7429 13.2761 68.9517 12.7477 70.3577 13.1757C71.0081 13.3697 71.2841 14.0519 70.8702 14.3796L70.8767 14.393Z" fill="#FFCAC6"/>
<path d="M11.2018 18.6133C11.0901 19.048 10.6893 19.5496 10.2886 19.7503C9.55272 20.1248 8.93515 19.5964 9.00742 18.7738C9.02713 18.5464 9.14538 18.3391 9.1848 18.1117C9.55272 15.9848 8.72491 15.2023 6.70793 15.9647C5.61075 16.3861 4.62525 17.1218 3.61348 17.7572C2.39804 18.5196 1.21544 19.3289 0 20.0914V17.998C1.4651 16.8944 2.59513 15.3561 4.05367 14.2592C4.21134 14.1455 4.34274 13.8245 4.29675 13.6506C4.23762 13.4366 3.92227 13.0821 3.81715 13.1222C2.56885 13.5369 1.22858 13.7576 0 14.2459V12.0454C1.58993 11.5639 3.27841 11.6709 5.11143 12.3464C7.27295 13.1356 8.81689 14.5602 10.3214 16.1386C10.9587 16.8141 11.4449 17.6502 11.2018 18.62V18.6133Z" fill="#FFCAC6"/>
<path d="M95.744 18.9545C96.3156 19.1083 96.8872 19.2822 97.3931 19.4294C97.9253 19.3157 98.3589 19.2555 98.7859 19.1351C99.6269 18.8943 100.35 18.493 101 18.0048V20.0982C100.888 20.1718 100.777 20.2387 100.665 20.3122C100.304 20.5263 99.8371 20.5664 99.4232 20.6868C96.8215 20.5731 94.6074 19.5966 92.5707 18.065C91.3093 17.1152 90.5735 15.8244 89.9362 14.4333C89.6143 13.731 89.6406 13.022 90.2778 12.6007C90.6458 12.3532 91.2765 12.2663 91.6838 12.4134C91.9466 12.507 92.1371 13.1491 92.1437 13.5437C92.1503 13.9785 91.8546 14.4065 91.7955 14.8479C91.6181 16.1521 92.4131 16.928 93.6745 16.6003C94.3118 16.4397 94.9162 16.0585 95.4615 15.6773C96.4405 14.9817 97.3602 14.1925 98.3195 13.4635C99.1933 12.7946 100.087 12.3332 101.007 12.0522V14.2527C99.9948 14.6473 99.0684 15.2225 98.326 16.2324C97.945 16.7474 97.2551 17.0283 96.7033 17.4095C96.3353 17.6704 95.9346 17.8777 95.6061 18.172C95.3039 18.4462 95.1462 18.7873 95.744 18.9478V18.9545Z" fill="#FFCAC6"/>
</g>
<defs>
<clipPath id="clip0_49_1311">
<rect width="101" height="31" fill="white"/>
</clipPath>
</defs>
</svg>
