<svg width="18" height="18" viewBox="0 0 18 18" fill="none" xmlns="http://www.w3.org/2000/svg">
<path d="M5.83301 14C4.91634 14 4.17467 14.75 4.17467 15.6666C4.17467 16.5833 4.91634 17.3333 5.83301 17.3333C6.74967 17.3333 7.49967 16.5833 7.49967 15.6666C7.49967 14.75 6.74967 14 5.83301 14ZM14.1663 14C13.2497 14 12.508 14.75 12.508 15.6666C12.508 16.5833 13.2497 17.3333 14.1663 17.3333C15.083 17.3333 15.833 16.5833 15.833 15.6666C15.833 14.75 15.083 14 14.1663 14ZM6.74967 9.83329H12.958C13.583 9.83329 14.133 9.49163 14.4163 8.97496L17.4997 3.13329L16.0413 2.33329L12.958 8.16663H7.10801L3.55801 0.666626H0.833008V2.33329H2.49967L5.49967 8.65829L4.37467 10.6916C3.76634 11.8083 4.56634 13.1666 5.83301 13.1666H15.833V11.5H5.83301L6.74967 9.83329ZM9.99967 0.666626L13.333 3.99996L9.99967 7.33329L8.82467 6.15829L10.1413 4.83329H6.66634V3.16663H10.1413L8.81634 1.84163L9.99967 0.666626Z" fill="#98322D"/>
</svg>
