<svg width="11" height="11" viewBox="0 0 11 11" fill="none" xmlns="http://www.w3.org/2000/svg">
<path d="M4.11227 7.1152C4.57236 6.65511 4.8552 6.36472 4.9608 6.24404C5.06639 6.10828 5.11542 5.99137 5.10788 5.89332C5.11542 5.81035 5.06639 5.70853 4.9608 5.58785C4.8552 5.45208 4.56859 5.15038 4.10096 4.68275L2.82251 3.4043L3.29768 2.92912L4.58744 4.21889C5.04754 4.67898 5.34169 4.96559 5.46991 5.07873C5.59814 5.17678 5.7075 5.22581 5.79801 5.22581C5.88852 5.22581 5.99789 5.17678 6.12611 5.07873C6.25433 4.96559 6.54849 4.67898 7.00858 4.21889L8.3436 2.88387L8.79614 3.33642L7.46113 4.67144C7.00104 5.13153 6.71819 5.42945 6.6126 5.56522C6.507 5.6859 6.45798 5.79526 6.46552 5.89332C6.45798 5.97628 6.507 6.08565 6.6126 6.22141C6.71819 6.34209 7.00481 6.63625 7.47244 7.10388L8.75089 8.38233L8.27571 8.85751L6.99727 7.57906C6.52963 7.11143 6.2317 6.82858 6.10348 6.73053C5.97526 6.61739 5.86967 6.5646 5.7867 6.57214C5.68865 6.5646 5.57551 6.61739 5.44729 6.73053C5.31906 6.82858 5.02491 7.10765 4.56482 7.56775L3.32031 8.81225L2.86776 8.3597L4.11227 7.1152Z" fill="#0E5078"/>
</svg>
