<svg width="208" height="21" viewBox="0 0 208 21" fill="none" xmlns="http://www.w3.org/2000/svg">
<g clip-path="url(#clip0_1194_15369)">
<path d="M0.0378302 2.03372C0.0162129 1.71872 0 1.56398 0 1.40924C0 1.32082 0.0270216 1.2324 0.0540431 1.11082C0.156725 1.06661 0.259407 0.989243 0.367493 0.97819C1.63751 0.906348 2.89131 0.97819 4.1343 1.28214C5.79883 1.68556 7.49578 1.92872 9.05223 2.75766C9.87368 3.19424 10.7816 3.45951 11.6517 3.78556C11.8949 3.87398 12.1651 3.89608 12.4191 3.95135L12.9055 3.13345C13.6837 2.84056 14.489 2.49793 15.3104 2.23266C16.8993 1.71872 18.4774 1.91214 19.996 2.50898C20.6012 2.74661 21.1093 2.66372 21.6281 2.37082C21.9956 2.16082 22.3522 1.93424 22.7251 1.72424C24.0222 0.989243 25.33 0.911874 26.6919 1.56951C27.3566 1.89003 27.9187 2.28793 28.3781 2.88477C28.9563 3.63635 29.9291 3.69161 30.61 3.05608C31.4369 2.28793 32.4313 1.89003 33.5013 1.66345C33.9445 1.56951 34.3877 1.47556 34.8308 1.40924C35.3712 1.32635 35.9009 1.34293 36.4251 1.56951C36.7764 1.72424 37.1709 1.80714 37.5492 1.86793C38.1328 1.96187 38.6625 2.11108 38.9489 2.72451C39.03 2.90135 39.2461 3.00635 39.4083 3.15556C39.7001 3.08924 39.9649 3.04503 40.2189 2.96766C41.597 2.53661 42.9589 2.02819 44.3586 1.69108C45.4341 1.43135 46.5582 1.35398 47.6661 1.23793C48.6226 1.14398 49.6008 1.19924 50.5411 1.03898C51.7571 0.834506 52.9407 1.02793 54.135 1.14398C55.0051 1.22687 55.8644 1.38161 56.7291 1.49766C58.5071 1.7353 60.1662 2.34872 61.7821 3.10582C62.1928 3.29924 62.6198 3.46503 63.1926 3.26056C63.6952 2.13319 64.868 2.00056 65.9272 1.72424C67.2351 1.37608 68.5537 1.5253 69.8508 1.86793C70.3966 2.01161 70.8668 2.24924 71.0829 2.77424C71.4775 2.9953 71.7855 2.9124 72.0125 2.60845C72.4124 2.06687 72.942 1.75187 73.5581 1.5474C73.7527 1.48108 73.958 1.37608 74.104 1.2324C75.2767 0.116085 76.5467 0.342664 77.7843 1.01687C78.5139 1.41477 79.2543 1.79608 79.9136 2.37082C80.5729 2.94556 81.4214 3.21082 82.3401 2.66924C83.0643 2.24372 83.8533 1.92319 84.6316 1.61372C85.0747 1.4424 85.5611 1.38161 86.0313 1.28214C86.9933 1.07766 87.8687 1.42582 88.7334 1.77398C89.3171 2.00608 89.8305 2.3653 90.3061 2.79635C91.3383 2.60845 92.2733 2.19398 93.2298 1.82924C93.9324 1.56398 94.6295 1.24898 95.3591 1.08872C96.9426 0.751611 98.5477 0.519506 100.174 0.486348C101.315 0.464243 102.45 0.425558 103.595 0.486348C104.871 0.55819 106.114 0.762664 107.313 1.16056C108.686 1.61372 110.032 2.14424 111.383 2.64161C111.55 2.7024 111.734 2.76872 111.869 2.87924C112.566 3.48161 113.442 3.60319 114.355 3.89056L114.517 2.86819C115.696 1.68556 117.306 1.36503 118.917 1.24898C120.592 1.1274 122.105 1.71872 123.283 3.01187L124.159 2.84608C124.569 2.3653 124.937 1.92319 125.31 1.48661C125.975 0.701874 126.747 0.298453 127.78 0.685295C128.682 1.02793 129.601 1.32082 130.482 1.70766C131.401 2.10556 132.281 2.34872 133.249 1.82924C133.611 1.63582 134.049 1.56398 134.459 1.48661C135.2 1.34293 135.94 1.16056 136.686 1.12187C138.404 1.03345 140.112 1.08319 141.625 2.11661C142.269 2.55319 142.944 2.3874 143.614 2.17187C144.474 1.89556 145.333 1.63582 146.192 1.37056C146.511 1.27108 146.819 1.16056 147.143 1.07766C147.722 0.922927 148.305 0.76819 148.894 0.652137C149.689 0.497401 150.494 0.353716 151.299 0.259769C153.456 0.00555837 155.612 -0.0773364 157.784 0.0995057C159.389 0.226611 160.93 0.547137 162.464 1.00582C163.308 1.26003 164.118 1.55845 164.913 1.92319C165.664 2.27135 166.464 2.32661 167.274 2.48135L167.604 1.78503C168.863 0.784769 170.29 0.652137 171.69 0.502927C172.138 0.45319 172.641 0.641085 173.073 0.823453C173.932 1.18266 174.759 1.61924 175.608 2.01161C175.851 2.12766 176.11 2.21056 176.424 2.33214C176.818 1.97845 177.251 1.6524 177.607 1.25451C178.769 -0.0386522 180.747 -0.259705 182.217 0.762664C182.909 1.24345 183.714 1.50872 184.347 2.11661C184.795 2.54766 185.411 2.37082 185.93 2.00056C186.346 1.70214 186.762 1.38714 187.216 1.17161C187.822 0.884243 188.481 0.817927 189.156 0.823453C190.913 0.840032 192.567 1.19924 193.982 2.32108C194.35 2.61398 194.636 3.00082 195.02 3.40977C195.69 3.21082 196.447 3.08372 197.117 2.76872C198.7 2.02819 200.37 1.68556 202.067 1.43687C203.137 1.27661 204.207 1.1274 205.283 1.03345C205.899 0.97819 206.531 1.03345 207.218 1.03898C207.234 1.36503 207.25 1.59161 207.266 1.89003C206.985 1.9453 206.758 2.03924 206.537 2.02266C205.445 1.95635 204.386 2.02819 203.321 2.33766C202.575 2.55319 201.786 2.61951 201.013 2.74108C200.138 2.87924 199.36 3.27161 198.565 3.6474C197.722 4.05082 196.863 4.41003 196.014 4.8024C194.782 5.36609 193.55 5.9353 192.318 6.51556C191.934 6.69793 191.594 6.93003 191.345 7.30582C191.199 7.52688 190.956 7.68714 190.734 7.8474C190.026 8.36687 189.281 8.83661 188.616 9.40582C188.184 9.77056 187.876 10.279 187.497 10.71C186.876 11.4174 186.26 12.1358 185.595 12.799C185.26 13.1361 185.011 13.4953 184.838 13.9263C184.552 14.6337 184.136 15.2748 183.785 15.9435C183.298 16.8608 182.666 17.7616 182.623 18.8945C182.612 19.2813 182.444 19.6627 182.336 20.0937C181.607 20.2374 180.861 20.1545 180.115 20.1324C179.78 20.1213 179.607 19.8671 179.504 19.5411C179.072 18.1706 178.715 16.7558 178.153 15.4406C177.613 14.1861 176.867 13.02 176.181 11.8319C175.586 10.7985 174.857 9.84793 174.003 9.04661C172.949 8.0574 172.03 6.87477 170.625 6.33319C170.485 6.27793 170.333 6.21161 170.236 6.10661C169.582 5.42135 168.701 5.15056 167.896 4.75266C167.172 4.39345 166.415 4.09503 165.675 3.76898C165.534 3.70819 165.383 3.65845 165.275 3.56451C164.605 2.98424 163.783 2.80187 162.962 2.5974C162.173 2.40398 161.411 2.11108 160.622 1.93424C159.541 1.68556 158.449 1.45898 157.352 1.3153C156.671 1.22687 155.969 1.34845 155.277 1.29872C153.969 1.2103 152.715 1.40372 151.434 1.68003C150.413 1.90108 149.375 2.07793 148.348 2.31556C147.381 2.54214 146.441 2.8074 145.544 3.27161C144.884 3.61977 144.144 3.81319 143.431 4.0453C142.355 4.39898 141.469 5.11187 140.491 5.64793C139.291 6.30556 138.28 7.22845 137.199 8.04635C137.053 8.15688 136.913 8.27293 136.794 8.40556C135.989 9.31188 135.194 10.2292 134.394 11.1411C134.011 11.5777 133.595 11.9811 133.249 12.4453C132.179 13.8821 131.336 15.4682 130.449 17.0211C129.99 17.8279 129.844 18.8171 129.558 19.7235C129.487 19.9556 129.428 20.1877 129.352 20.4695L128.034 20.254C128.077 19.7345 128.066 19.2371 128.25 18.7895C128.871 17.3085 128.887 15.7335 129.023 14.175C129.044 13.9319 129.044 13.6777 129.093 13.44C129.304 12.4508 129.536 11.4616 129.741 10.4724C129.931 9.56609 130.233 8.70398 130.584 7.8474C130.898 7.08477 131.146 6.28898 131.373 5.48766C131.503 5.01793 131.568 4.52056 131.368 4.01766C130.363 3.18872 129.174 2.66372 128.007 2.10556C127.677 1.95082 127.336 2.01161 127.066 2.23819C126.791 2.4703 126.504 2.71898 126.32 3.02293C125.964 3.61977 125.461 4.03977 124.877 4.4874C124.461 5.12293 124.64 5.77503 124.937 6.50451C125.369 7.54898 125.694 8.64319 125.98 9.7374C126.158 10.4171 125.991 10.6713 125.434 11.0029C125.018 10.8537 124.85 10.4835 124.742 10.1021C124.391 8.85319 123.878 7.68714 123.224 6.57635C122.964 6.13424 122.835 5.61477 122.624 5.13951C122.343 4.49845 122.051 3.86293 121.754 3.2053C121.484 3.11135 121.219 3.05056 120.976 2.93451C119.673 2.30451 118.436 2.53108 117.29 3.29372C116.566 3.77451 115.787 4.02872 114.728 4.13372C115.161 4.4653 115.404 4.71951 115.701 4.86872C116.868 5.47109 117.852 6.31661 118.792 7.22845C119.052 7.48266 119.349 7.69266 119.625 7.92477C119.743 8.02424 119.873 8.10714 119.97 8.22319C120.759 9.14609 121.543 10.08 122.327 11.0085C122.856 11.6385 123.413 12.2408 123.91 12.8985C124.326 13.4511 124.667 14.07 125.056 14.6503C125.223 14.899 125.429 15.1256 125.607 15.3742C126.612 16.7669 127.277 18.2811 127.185 20.0606C127.185 20.1158 127.131 20.1656 127.072 20.2761L126.466 20.1711C125.31 18.1927 124.24 16.2419 122.878 14.479C122.267 13.6887 121.689 12.8653 121.089 12.064C120.959 11.8927 120.819 11.7324 120.673 11.5832C119.814 10.6879 119.008 9.72082 118.068 8.91951C116.668 7.7203 115.171 6.63714 113.485 5.87451C113.35 5.81372 113.199 5.75293 113.091 5.64793C112.566 5.14503 111.907 4.93503 111.259 4.68082C110.588 4.41556 109.902 4.21108 109.27 3.82977C108.735 3.50924 108.097 3.37661 107.503 3.16108C107.389 3.1224 107.265 3.10582 107.157 3.05056C106.173 2.56424 105.141 2.27687 104.055 2.1553C103.639 2.11108 103.228 1.99503 102.812 1.98951C101.969 1.9674 101.12 1.95635 100.282 2.02266C99.6285 2.0724 98.98 2.22714 98.3369 2.35977C97.6884 2.49793 97.0561 2.70793 96.4076 2.81293C95.2618 2.9953 94.2621 3.59766 93.165 3.91266C92.7002 4.0453 92.2516 4.23319 91.7869 4.33819C90.9492 4.53161 90.2142 4.91293 89.5657 5.49319C89.2793 5.75293 88.9226 5.9574 88.5767 6.12872C87.8958 6.47135 87.2851 6.89687 86.7446 7.43845C85.7178 8.47187 84.6262 9.42793 83.4642 10.3011C83.3453 10.3895 83.2373 10.5 83.1454 10.6216C82.4644 11.5224 81.7889 12.4232 81.1188 13.3295C81.0107 13.4732 80.9188 13.6335 80.8323 13.7992C80.2595 14.9432 79.6272 16.065 79.1408 17.2532C78.7517 18.2037 78.5409 19.2371 78.2166 20.3479C77.5195 20.6021 76.6602 20.7071 75.8117 20.8508C75.5847 20.8895 75.3199 20.685 75.1848 20.6353C74.92 20.1821 74.7092 19.845 74.5255 19.5024C74.385 19.2371 74.2283 18.9663 74.1526 18.679C73.7203 17.0985 73.1366 15.5898 72.2395 14.2248C71.4883 13.0808 70.6938 11.9645 69.948 10.815C69.4184 9.99714 68.705 9.42793 67.8728 8.98582C67.7161 8.90293 67.5377 8.83109 67.4134 8.70951C66.0569 7.38319 64.3762 6.65924 62.6738 5.95188C61.5335 5.48214 60.4419 4.89082 59.3015 4.41556C58.6963 4.16135 58.0423 4.01214 57.3992 3.86293C56.14 3.56451 54.8754 3.29924 53.6108 3.02845C53.3784 2.97872 53.1244 2.98424 52.8974 2.90687C51.7517 2.54214 50.6006 2.51451 49.4279 2.73556C48.9253 2.82951 48.4064 2.8074 47.9038 2.8903C46.7797 3.07819 45.6286 3.19977 44.5424 3.53687C43.6777 3.80766 42.7697 3.91266 41.9321 4.21661C40.8944 4.5924 39.8622 5.02898 38.9975 5.77503C38.7273 6.00714 38.3706 6.13424 38.0464 6.29451C37.8302 6.39951 37.5546 6.42161 37.3816 6.57082C36.3494 7.46609 35.047 7.91372 34.0256 8.85319C32.6691 10.0911 31.2856 11.3013 30.075 12.694C29.6697 13.1637 29.4697 13.8213 29.1725 14.3906C28.9347 14.8492 28.7293 15.33 28.4537 15.7611C27.5782 17.1592 27.2594 18.679 27.4755 20.3037C26.6865 20.7624 25.6273 21.0498 24.8923 21.0111C24.2059 20.4142 23.5628 19.7732 23.298 18.8448C22.8819 17.3858 21.8983 16.2971 21.0012 15.1532C20.8715 14.9874 20.7039 14.8271 20.6283 14.6337C20.0824 13.2466 18.98 12.3182 18.0018 11.2903C17.3749 10.6327 16.7101 10.0137 16.2129 9.22898C16.0076 8.90845 15.6995 8.63766 15.3915 8.41109C14.6889 7.88609 13.9864 7.35003 13.2352 6.9024C11.8138 6.05687 10.4087 5.13951 8.8955 4.4874C7.30123 3.79661 5.6421 3.2274 3.94515 2.79082C2.68594 2.44819 1.42133 2.06687 0.0378302 2.03372ZM167.355 2.89582C167.896 3.2274 168.242 3.44293 168.598 3.65293C169.171 3.99003 169.744 4.31609 170.317 4.64766C170.787 4.92398 171.252 5.2003 171.717 5.48766C172.284 5.83582 172.927 6.10109 173.397 6.54872C174.289 7.39977 175.105 8.34477 175.921 9.27319C176.597 10.0469 177.267 10.8316 177.878 11.6606C178.234 12.1413 178.434 12.7437 178.753 13.2521C179.645 14.6724 179.985 16.3027 180.461 17.8832C180.542 18.1429 180.537 18.4413 180.953 18.5906C181.109 18.3861 181.326 18.1706 181.45 17.9163C181.747 17.2808 182.039 16.6342 182.271 15.9711C182.606 15.004 183.152 14.1695 183.73 13.3516C184.044 12.904 184.395 12.4674 184.617 11.97C184.936 11.2516 185.411 10.6658 185.93 10.1077C186.135 9.88661 186.406 9.72635 186.606 9.49977C187.649 8.30056 188.821 7.26714 190.216 6.51003C190.399 6.41056 190.583 6.30003 190.74 6.15635C191.453 5.49319 192.204 4.89082 193.08 4.45977C193.393 4.30503 193.642 4.10056 193.647 3.69161C193.529 3.28266 193.156 3.18872 192.842 3.02293C191.972 2.56424 190.999 2.4924 190.064 2.31003C189.735 2.24372 189.34 2.33766 189.016 2.45924C188.367 2.69687 187.74 3.00082 187.108 3.29372C186.681 3.48714 186.379 3.79661 186.173 4.24977C185.925 4.8024 185.676 5.38819 185.292 5.84135C184.325 6.99635 183.92 8.42766 183.293 9.74845C183.098 10.1574 183.055 10.6382 182.909 11.0692C182.796 11.4119 182.633 11.749 182.201 11.7545C181.947 11.1798 181.942 11.1798 182.055 10.6879C182.455 8.95266 182.904 7.23951 183.828 5.69214C184.184 5.0953 184.401 4.41003 184.255 3.72477C183.839 3.43187 183.476 3.16108 183.098 2.9124C182.32 2.40398 181.542 1.88451 180.742 1.40924C180.228 1.1053 179.807 1.18819 179.434 1.58056C178.915 2.12214 178.423 2.69135 177.883 3.2053C177.591 3.48714 177.494 3.79661 177.461 4.17793C177.424 4.65872 177.564 5.08424 177.737 5.5153C177.975 6.11214 178.186 6.72003 178.402 7.32793C178.504 7.62082 178.575 7.91924 178.31 8.28398C178.153 8.22872 177.921 8.22319 177.813 8.10161C177.57 7.83635 177.397 7.50477 177.18 7.20635C176.462 6.22819 176.262 4.91845 175.311 4.08398C175.251 4.02872 175.213 3.92372 175.197 3.8353C175.094 3.12793 174.565 2.70793 174.089 2.32108C173.533 1.87345 172.906 1.40924 172.117 1.59714C171.419 1.76293 170.717 1.87898 170.079 2.28793C169.496 2.66372 168.831 2.89582 168.107 2.82398C167.939 2.8074 167.766 2.85161 167.366 2.88477L167.355 2.89582ZM72.942 4.3603C72.7637 4.96819 72.9042 5.64793 73.3095 6.25582C73.8932 7.12898 74.2229 8.11819 74.5795 9.09082C74.7038 9.43345 74.7795 9.80924 74.7903 10.1685C74.8011 10.5719 74.7903 11.0195 74.3742 11.2571C74.0607 10.8427 73.7581 10.4779 73.4987 10.08C73.3149 9.80372 73.1906 9.48319 73.0555 9.17924C72.7313 8.4553 72.461 7.70372 72.0881 7.0074C71.5423 5.99056 70.9424 5.00135 70.3263 4.02319C70.175 3.78003 69.8994 3.57556 69.6346 3.46503C69.2779 3.31582 68.8834 3.22187 68.5051 3.2053C67.3648 3.15556 66.2137 3.1003 65.149 3.67503C64.8788 3.81872 64.5599 3.87951 64.1006 4.03424C64.4627 4.33266 64.668 4.54266 64.9112 4.69187C65.1652 4.85214 65.4733 4.91845 65.7219 5.08424C66.6244 5.67556 67.4999 6.31661 68.4186 6.89135C69.1428 7.34451 69.7859 7.86951 70.3804 8.48845C71.6396 9.79266 72.4719 11.3953 73.4014 12.9316C73.7635 13.5285 74.0283 14.1971 74.4336 14.7608C74.6282 15.0316 74.8444 15.2803 74.9524 15.5953C75.2767 16.5513 75.5847 17.5129 75.9144 18.469C76.0333 18.8171 76.0603 19.215 76.3684 19.4913C76.4332 19.4085 76.4981 19.3698 76.5089 19.3145C76.8115 17.6842 77.8113 16.3469 78.3301 14.8106C78.3896 14.6448 78.5247 14.5066 78.6274 14.3519C79.0381 13.7163 79.5191 13.1085 79.8487 12.4287C80.4756 11.1466 81.3782 10.0856 82.2807 9.01345C82.5725 8.67082 82.9238 8.3724 83.2751 8.08503C84.2749 7.26161 85.3071 6.47135 86.2907 5.6203C86.9554 5.04556 87.5931 4.44319 88.4308 4.12266C88.7497 4.00108 88.9983 3.79661 89.0145 3.42082C87.3878 2.48687 84.3235 3.03398 82.0807 4.65872C81.9835 4.96266 81.8321 5.3053 81.7673 5.66451C81.616 6.44372 81.2431 7.09582 80.7675 7.70372C80.6378 7.86951 80.4919 8.0353 80.4108 8.22872C80.1081 8.96372 79.8109 9.70424 79.5407 10.4558C79.2921 11.1466 79.0867 11.854 78.8489 12.5448C78.6922 13.0035 78.4652 13.3903 77.914 13.324C77.6168 13.0974 77.5519 12.8156 77.6114 12.4895C77.687 12.0695 77.7303 11.6329 77.8546 11.224C78.2166 10.0248 78.6112 8.83109 78.9895 7.6374C79.1678 7.07372 79.4272 6.57635 79.8001 6.11214C80.1406 5.69766 80.4919 5.23345 80.2433 4.50951L76.217 1.9453L72.9528 4.3603H72.942ZM13.2352 4.50951C13.6513 5.2003 14.2836 5.50977 14.8511 5.87451C15.7914 6.4824 16.6399 7.20082 17.4181 8.00214C18.3693 8.9803 19.3042 9.97503 20.2121 10.9863C20.6391 11.4616 21.1147 11.9479 21.3416 12.5171C21.6227 13.23 21.9739 13.8269 22.5576 14.2966C22.6495 14.374 22.736 14.4679 22.7954 14.5729C23.5088 15.8827 24.3248 17.1427 24.822 18.5685C24.9085 18.8116 24.9517 19.1211 25.3895 19.1598C25.4759 18.9221 25.584 18.679 25.6597 18.4303C25.8705 17.7285 26.0974 17.0321 26.2488 16.3137C26.3244 15.9656 26.2596 15.5898 26.2488 15.225C26.2325 14.6724 26.1515 14.1198 26.1947 13.5782C26.2325 13.0311 26.3731 12.4895 26.4919 11.9479C26.8486 10.2679 27.1837 8.58793 27.9835 7.03503C28.2916 6.44372 28.5672 5.73635 28.2916 4.97372C27.508 4.23872 26.7243 3.47608 25.9083 2.74661C25.5678 2.44266 25.1193 2.42056 24.7139 2.60293C24.3897 2.74661 24.06 2.93451 23.7952 3.16661C23.2494 3.65293 22.6981 4.12266 22.028 4.42108C21.8713 4.49293 21.747 4.64214 21.6281 4.74161C21.4659 5.20582 21.5146 5.59819 21.7578 6.00161C22.0712 6.52109 22.3522 7.06819 22.5954 7.62635C23.0278 8.61003 23.4277 9.60477 23.5142 10.6935C23.5304 10.9035 23.5412 11.119 23.5088 11.3235C23.4655 11.5887 23.2818 11.7545 23.017 11.7932C22.7468 11.8319 22.5414 11.7158 22.4225 11.4727C22.3252 11.2848 22.2279 11.0803 22.1955 10.8758C21.9793 9.27319 21.0336 8.00214 20.3581 6.60951C20.0392 5.95187 19.6825 5.31082 19.3637 4.65319C19.1151 4.13924 18.8016 3.63082 18.2504 3.52582C17.2127 3.32687 16.1427 3.25503 15.1537 3.73582C14.543 4.03424 13.9485 4.3603 13.2244 4.4874L13.2352 4.50951ZM140.647 3.57003C140.588 3.0174 140.237 2.88477 139.885 2.80187C139.329 2.66924 138.772 2.53661 138.205 2.4924C137.129 2.40951 136.043 2.32661 135.016 2.82398C134.059 3.28819 133.308 3.9403 132.935 4.9903C132.395 6.52109 131.817 8.0353 131.303 9.57161C131.022 10.4116 130.833 11.2792 130.644 12.1469C130.584 12.4177 130.671 12.7216 130.698 13.1471C131.228 12.4674 131.682 11.9369 132.076 11.3677C132.93 10.1463 133.784 8.93056 134.967 8.00214C135.086 7.90819 135.167 7.77003 135.281 7.67056C135.859 7.14003 136.416 6.57635 137.032 6.10109C138.059 5.3053 139.058 4.4653 140.269 3.9403C140.437 3.86845 140.555 3.66398 140.653 3.56451L140.647 3.57003ZM27.9781 12.4729C28.1403 12.3292 28.3078 12.2187 28.4267 12.075C29.1401 11.2129 29.767 10.2458 30.583 9.49977C31.3342 8.81451 31.9827 8.00766 32.8528 7.44951C33.3068 7.16214 33.7229 6.80293 34.1499 6.47135C35.2253 5.63135 36.3656 4.9074 37.5924 4.32161C37.9059 4.1724 38.1869 3.94582 38.5868 3.69161C38.2734 3.53687 38.1004 3.42082 37.9113 3.36003C36.6899 2.96766 35.4361 2.86266 34.1715 3.00635C33.7986 3.05056 33.4311 3.23293 33.0798 3.39319C32.7555 3.54793 32.4475 3.74687 32.1503 3.95135C31.3829 4.4874 30.5722 4.9903 30.1777 5.90766C29.3941 7.73135 28.6267 9.55503 27.8646 11.3898C27.7241 11.7213 27.6269 12.0806 27.9727 12.4785L27.9781 12.4729Z" fill="#FFCAC6"/>
</g>
<defs>
<clipPath id="clip0_1194_15369">
<rect width="207.261" height="21" fill="white"/>
</clipPath>
</defs>
</svg>
