<svg width="61" height="32" viewBox="0 0 61 32" fill="none" xmlns="http://www.w3.org/2000/svg">
<path d="M61 26.9734V23.8481L60.5857 23.8654C58.8317 23.9609 57.9415 24.6902 57.6859 26.2615C57.3245 25.8882 56.8661 25.4715 56.4166 25.0635C56.0464 24.7336 55.7027 24.4124 55.4559 24.1693C55.4118 24.1259 55.3677 24.0825 55.3325 24.0391C55.024 23.7092 54.7155 23.4053 54.4158 23.1362C49.9559 19.0993 44.6233 16.4948 38.568 15.4097C37.9598 15.2968 37.3605 15.1145 36.7171 14.9148C36.4967 14.8454 36.2675 14.7759 36.0296 14.7065C36.7964 13.083 38.189 12.7965 39.6522 12.484C40.4895 12.3104 41.3533 12.1281 42.0584 11.6766L42.2171 11.5811L42.173 11.3988C41.2916 7.56158 38.9382 6.23332 33.5175 6.5198C32.6273 4.52306 31.7106 2.47423 30.7146 0.2344L30.6089 0L30.3709 0.0954965C30.1681 0.17363 29.983 0.260445 29.8068 0.34726C28.0351 1.24145 27.2154 2.7694 26.4133 4.25393C25.8404 5.31308 25.3028 6.32013 24.4478 7.0841C24.104 7.0841 23.7603 7.07542 23.4077 7.06674C20.8869 6.99729 18.2779 6.93652 16.1096 9.54097L15.9245 9.758L16.1625 9.92295C16.85 10.3918 17.5728 10.8432 18.2691 11.2686C20.0495 12.3711 21.8917 13.5084 23.4959 15.2881C15.6865 15.9913 9.35799 19.4031 4.15765 25.6886C3.85797 24.1259 2.83553 23.9523 1.26662 23.8568L0.984558 23.8394V26.9647C0.984558 26.9647 2.11277 27.121 2.05988 27.9284C2.01581 28.5708 1.85716 28.5534 1.68088 28.8747C1.28425 29.5865 0.834722 30.3939 1.4429 31.3923C1.57511 31.6093 1.81309 31.7569 2.07752 31.7743C2.35075 31.7916 2.61518 31.6875 2.79146 31.4878L2.90605 31.3576C3.30268 30.8974 3.67287 30.4721 4.06069 30.0467C4.64243 29.4042 5.22416 28.7531 5.79708 28.1107C7.23378 26.4872 8.72336 24.8204 10.2923 23.2838C11.3147 22.2854 12.6016 21.4954 13.8532 20.7314L14.3027 20.4536C17.2378 18.6479 20.6224 18.0141 23.8925 17.4064C24.5976 17.2762 25.3204 17.1373 26.0343 16.9984C26.237 19.8546 26.7042 21.2523 27.7002 21.9555C28.229 22.3288 28.8901 22.4938 29.8068 22.459C30.5295 22.433 31.4021 22.268 32.4863 21.9816L32.5832 21.9555L34.0287 19.6983L33.9494 19.2903C33.7819 18.4221 33.6409 17.6668 33.4734 16.764C34.0111 16.8681 34.5311 16.9636 35.0424 17.0591C36.3469 17.3109 37.5808 17.5453 38.7884 17.8144C44.1474 19.0212 49.004 21.643 53.6226 25.8361C53.8253 26.0184 54.0368 26.2094 54.2484 26.3918C54.7067 26.7911 55.1826 27.1991 55.5881 27.6419L55.7908 27.4683L55.6145 27.6679C55.7732 27.8502 55.9671 28.0933 56.2315 28.4666L56.2668 28.51C56.6106 29.0743 56.7956 29.6473 56.8133 30.2811V30.4113L56.919 30.4807C57.1482 30.6457 57.3597 30.802 57.5713 30.9582C58.0649 31.3228 58.532 31.6701 59.0432 31.9305C59.149 31.9826 59.2548 32 59.3782 32C59.5897 32 59.8101 31.9305 60.0216 31.8698C60.1538 31.8264 60.2772 31.8003 60.383 31.7743L60.4535 31.7569L60.5064 31.7048C61.4231 30.8888 60.8325 30.1335 60.3654 29.5171C60.1098 29.1872 59.8453 28.8486 59.7484 28.484C59.6602 26.8606 60.9912 26.9647 60.9912 26.9647L61 26.9734ZM29.8068 20.115C29.4278 20.0109 29.0047 19.681 28.2907 19.1167L29.4101 17.0244C29.5512 17.0418 29.6834 17.0765 29.8068 17.1112C30.7939 17.3977 31.0848 18.1356 31.4462 19.0385C31.4991 19.1774 31.5608 19.325 31.6137 19.4639C30.7234 20.0195 30.3092 20.2626 29.8068 20.115ZM33.1121 12.9702C32.0808 13.7949 30.979 14.2811 29.8068 14.42C27.8412 14.663 25.6994 13.9338 23.487 12.2409C22.8083 11.72 22.1914 11.1384 21.4862 10.4612C21.2571 10.2442 21.0191 10.0184 20.7723 9.78405C21.8829 9.67987 22.9318 9.87086 23.9366 10.0532C24.8709 10.2181 25.8316 10.3918 26.8364 10.3483L27.092 10.331V10.0792C27.092 7.96961 28.1585 6.32881 29.5335 4.30602C29.6305 4.63592 29.7186 4.95714 29.8068 5.26967C30.2387 6.80629 30.6353 8.20402 31.0848 9.78405L31.1553 10.0271L31.4021 9.97504C31.7459 9.89691 32.0896 9.83614 32.4422 9.76668C33.2355 9.6191 34.064 9.46283 34.8484 9.19371C36.3821 8.66413 37.6073 8.9159 38.8412 10.0445C36.8581 10.4699 35.1129 11.3641 33.1033 12.9702H33.1121Z" fill="#F1A6A1"/>
</svg>
