<svg width="16" height="17" viewBox="0 0 16 17" fill="none" xmlns="http://www.w3.org/2000/svg">
<path d="M1.125 15.9609C1.125 16.3066 1.4043 16.5859 1.75 16.5859H7.33594V9.24219H1.125V15.9609ZM8.66406 16.5859H14.25C14.5957 16.5859 14.875 16.3066 14.875 15.9609V9.24219H8.66406V16.5859ZM15.1875 4.55469H12.3047C12.5703 4.13672 12.7266 3.64062 12.7266 3.10938C12.7266 1.62305 11.5176 0.414062 10.0312 0.414062C9.22266 0.414062 8.49414 0.773437 8 1.33984C7.50586 0.773437 6.77734 0.414062 5.96875 0.414062C4.48242 0.414062 3.27344 1.62305 3.27344 3.10938C3.27344 3.64062 3.42773 4.13672 3.69531 4.55469H0.8125C0.466797 4.55469 0.1875 4.83398 0.1875 5.17969V7.91406H7.33594V4.55469H8.66406V7.91406H15.8125V5.17969C15.8125 4.83398 15.5332 4.55469 15.1875 4.55469ZM7.33594 4.47656H5.96875C5.21484 4.47656 4.60156 3.86328 4.60156 3.10938C4.60156 2.35547 5.21484 1.74219 5.96875 1.74219C6.72266 1.74219 7.33594 2.35547 7.33594 3.10938V4.47656ZM10.0312 4.47656H8.66406V3.10938C8.66406 2.35547 9.27734 1.74219 10.0312 1.74219C10.7852 1.74219 11.3984 2.35547 11.3984 3.10938C11.3984 3.86328 10.7852 4.47656 10.0312 4.47656Z" fill="#1D5476"/>
</svg>
