<svg width="17" height="16" viewBox="0 0 17 16" fill="none" xmlns="http://www.w3.org/2000/svg">
<path d="M16.5273 3.53908C16.2655 2.9329 15.8881 2.38359 15.416 1.92189C14.9436 1.45881 14.3866 1.09082 13.7754 0.837904C13.1416 0.57461 12.4617 0.43984 11.7754 0.44142C10.8125 0.44142 9.87305 0.705092 9.05664 1.20314C8.86133 1.32228 8.67578 1.45314 8.5 1.59572C8.32422 1.45314 8.13867 1.32228 7.94336 1.20314C7.12695 0.705092 6.1875 0.44142 5.22461 0.44142C4.53125 0.44142 3.85938 0.574233 3.22461 0.837904C2.61133 1.09181 2.05859 1.45705 1.58398 1.92189C1.11132 2.38306 0.733746 2.93251 0.472656 3.53908C0.201172 4.16994 0.0625 4.83986 0.0625 5.52931C0.0625 6.1797 0.195313 6.85744 0.458984 7.54689C0.679688 8.12306 0.996094 8.72072 1.40039 9.32423C2.04102 10.2793 2.92188 11.2754 4.01562 12.2852C5.82812 13.959 7.62305 15.1152 7.69922 15.1621L8.16211 15.459C8.36719 15.5899 8.63086 15.5899 8.83594 15.459L9.29883 15.1621C9.375 15.1133 11.168 13.959 12.9824 12.2852C14.0762 11.2754 14.957 10.2793 15.5977 9.32423C16.002 8.72072 16.3203 8.12306 16.5391 7.54689C16.8027 6.85744 16.9355 6.1797 16.9355 5.52931C16.9375 4.83986 16.7988 4.16994 16.5273 3.53908Z" fill="#98322D"/>
</svg>
