<svg width="11" height="11" viewBox="0 0 11 11" fill="none" xmlns="http://www.w3.org/2000/svg">
<path d="M3.71996 5.52807C4.37063 5.52807 4.77596 5.52273 4.93596 5.51207C5.10663 5.49073 5.22396 5.44273 5.28796 5.36807C5.35196 5.31473 5.38929 5.20807 5.39996 5.04807C5.42129 4.8774 5.43196 4.4614 5.43196 3.80007V1.99207H6.10396V3.81607C6.10396 4.46673 6.10929 4.8774 6.11996 5.04807C6.14129 5.20807 6.18396 5.32007 6.24796 5.38407C6.31196 5.44807 6.42396 5.49073 6.58396 5.51207C6.75463 5.52273 7.16529 5.52807 7.81596 5.52807H9.70396V6.16807H7.81596C7.16529 6.16807 6.75463 6.17873 6.58396 6.20007C6.42396 6.21073 6.31196 6.2534 6.24796 6.32807C6.18396 6.3814 6.14129 6.4934 6.11996 6.66407C6.10929 6.82407 6.10396 7.23473 6.10396 7.89607V9.70407H5.43196V7.89607C5.43196 7.23473 5.42129 6.82407 5.39996 6.66407C5.38929 6.4934 5.35196 6.3814 5.28796 6.32807C5.22396 6.2534 5.10663 6.21073 4.93596 6.20007C4.77596 6.17873 4.37063 6.16807 3.71996 6.16807H1.95996V5.52807H3.71996Z" fill="#0E5078"/>
</svg>
