<svg width="20" height="21" viewBox="0 0 20 21" fill="none" xmlns="http://www.w3.org/2000/svg">
<path d="M4.99967 17.1666C4.30523 17.1666 3.71495 16.9236 3.22884 16.4375C2.74273 15.9514 2.49967 15.3611 2.49967 14.6666H0.833008V3.83331H14.1663V7.16665H16.6663L19.1663 10.5V14.6666H17.4997C17.4997 15.3611 17.2566 15.9514 16.7705 16.4375C16.2844 16.9236 15.6941 17.1666 14.9997 17.1666C14.3052 17.1666 13.715 16.9236 13.2288 16.4375C12.7427 15.9514 12.4997 15.3611 12.4997 14.6666H7.49967C7.49967 15.3611 7.25662 15.9514 6.77051 16.4375C6.2844 16.9236 5.69412 17.1666 4.99967 17.1666ZM4.99967 15.5C5.23579 15.5 5.43384 15.42 5.59384 15.26C5.75328 15.1005 5.83301 14.9028 5.83301 14.6666C5.83301 14.4305 5.75328 14.2328 5.59384 14.0733C5.43384 13.9133 5.23579 13.8333 4.99967 13.8333C4.76356 13.8333 4.56551 13.9133 4.40551 14.0733C4.24606 14.2328 4.16634 14.4305 4.16634 14.6666C4.16634 14.9028 4.24606 15.1005 4.40551 15.26C4.56551 15.42 4.76356 15.5 4.99967 15.5ZM14.9997 15.5C15.2358 15.5 15.4336 15.42 15.593 15.26C15.753 15.1005 15.833 14.9028 15.833 14.6666C15.833 14.4305 15.753 14.2328 15.593 14.0733C15.4336 13.9133 15.2358 13.8333 14.9997 13.8333C14.7636 13.8333 14.5658 13.9133 14.4063 14.0733C14.2463 14.2328 14.1663 14.4305 14.1663 14.6666C14.1663 14.9028 14.2463 15.1005 14.4063 15.26C14.5658 15.42 14.7636 15.5 14.9997 15.5ZM14.1663 11.3333H17.708L15.833 8.83331H14.1663V11.3333Z" fill="#1D5476"/>
</svg>
